<svg width="171" height="47" viewBox="0 0 171 47" fill="none" xmlns="http://www.w3.org/2000/svg">
<path d="M13.3712 16.1714C14.8917 15.5312 19.4476 13.559 19.4476 7.97994C19.4476 0.331545 12.4566 0.0114326 9.34689 0H8.81528C7.11754 0.0114326 0.406622 0.211503 0.343743 0.211503H0.109375V30.7651H4.39087L4.35086 3.37833C5.16257 3.35546 7.90067 3.29258 8.84386 3.29258C13.1882 3.29258 15.046 4.79025 15.046 8.27719C15.046 11.4211 12.6738 13.7534 8.96962 14.205L8.84386 14.2278L8.09503 15.937L18.0642 31.3424L22.0199 29.5646L13.2683 16.2171C13.3083 16.1942 13.3311 16.1942 13.3769 16.1714H13.3712ZM36.0077 6.54515L25.9298 30.7651H29.8855L32.818 23.5111H41.5696L44.4792 30.7422H48.6063L38.6772 6.54515H36.0019H36.0077ZM34.1041 20.3043L37.2081 12.5816L40.2663 20.3043H34.1041ZM77.405 7.01389L69.1678 24.963L60.8678 7.01389H58.1525L55.2658 30.7422H58.9242L60.6334 15.3997L67.7559 30.7422H70.151L77.3821 15.0796L79.0056 30.7422H82.8984L80.1374 7.01389H77.3993H77.405ZM156.01 6.54515L145.932 30.7422H149.887L152.82 23.4882H161.572L164.458 30.7422H168.585L158.679 6.54515H156.004H156.01ZM154.083 20.3043L157.187 12.5816L160.245 20.3043H154.083ZM170.049 7.81417C170.049 7.41974 169.809 7.23682 169.329 7.23682H168.557V9.25467H168.871V8.37436H169.22L169.757 9.25467H170.1L169.523 8.36865C169.826 8.32863 170.055 8.17429 170.055 7.81417H170.049ZM168.866 8.12285V7.48834H169.283C169.637 7.48834 169.729 7.59695 169.729 7.7913C169.729 8.01424 169.609 8.12285 169.231 8.12285H168.866ZM126.376 6.93386C125.519 6.93386 123.81 6.95672 122.032 7.08248L120.191 7.16823V30.6164L120.574 30.6565C122.564 30.8051 123.827 30.8908 125.599 30.8908C129.086 30.8908 131.527 30.5478 133.79 29.759C137.855 28.2613 140.593 23.9398 140.593 19.0009C140.593 15.6226 139.312 12.4329 137.043 10.295C134.671 8.09426 130.989 6.93386 126.371 6.93386H126.376ZM134.465 24.9688C132.967 26.7236 130.635 27.4953 126.868 27.4953C125.948 27.4953 125.199 27.4553 124.084 27.301H124.107V10.3808C124.73 10.335 125.113 10.335 125.628 10.335C128.108 10.335 130.229 10.7409 131.916 11.5526C134.676 12.8559 136.449 15.9199 136.449 19.3611C136.449 21.5218 135.745 23.5111 134.459 24.9688H134.465ZM99.6756 6.54515L89.5978 30.7422H93.5535L96.5031 23.4882H105.255L108.141 30.7422H112.269L102.322 6.54515H99.6699H99.6756ZM97.7721 20.3043L100.876 12.5816L103.934 20.3043H97.7721ZM169.237 6.4937C168.277 6.4937 167.459 7.23682 167.459 8.23717C167.459 9.23752 168.277 9.99207 169.237 9.99207C170.197 9.99207 171.003 9.24895 171.003 8.23717C171.003 7.22539 170.186 6.4937 169.237 6.4937ZM169.237 9.71197C168.425 9.71197 167.797 9.09461 167.797 8.24289C167.797 7.39116 168.425 6.77952 169.237 6.77952C170.049 6.77952 170.666 7.40831 170.666 8.24289C170.666 9.07747 170.037 9.71197 169.237 9.71197Z" fill="#C40D3C"/>
<path d="M1.11719 45.9996V41.0996H2.11119L4.40719 44.1166V41.0996H5.47119V45.9996H4.55419L2.18119 42.8846V45.9996H1.11719Z" fill="#C40D3C"/>
<path d="M12.9475 46.0836C11.4355 46.0836 10.3505 44.9566 10.3505 43.5636V43.5496C10.3505 42.1566 11.4495 41.0156 12.9615 41.0156C14.4735 41.0156 15.5585 42.1426 15.5585 43.5356V43.5496C15.5585 44.9426 14.4595 46.0836 12.9475 46.0836ZM12.9615 45.0896C13.8295 45.0896 14.4315 44.4036 14.4315 43.5636V43.5496C14.4315 42.7096 13.8155 42.0096 12.9475 42.0096C12.0795 42.0096 11.4775 42.6956 11.4775 43.5356V43.5496C11.4775 44.3896 12.0935 45.0896 12.9615 45.0896Z" fill="#C40D3C"/>
<path d="M21.6813 46.0346L19.7003 41.0996H20.8903L22.1713 44.5506L23.4523 41.0996H24.6143L22.6333 46.0346H21.6813Z" fill="#C40D3C"/>
<path d="M31.3558 46.0836C29.8438 46.0836 28.7588 44.9566 28.7588 43.5636V43.5496C28.7588 42.1566 29.8578 41.0156 31.3698 41.0156C32.8818 41.0156 33.9668 42.1426 33.9668 43.5356V43.5496C33.9668 44.9426 32.8678 46.0836 31.3558 46.0836ZM31.3698 45.0896C32.2378 45.0896 32.8398 44.4036 32.8398 43.5636V43.5496C32.8398 42.7096 32.2238 42.0096 31.3558 42.0096C30.4878 42.0096 29.8858 42.6956 29.8858 43.5356V43.5496C29.8858 44.3896 30.5018 45.0896 31.3698 45.0896Z" fill="#C40D3C"/>
<path d="M40.5519 46.0696C39.8029 46.0696 39.0609 45.8176 38.4729 45.2856L39.1099 44.5226C39.5579 44.8866 40.0129 45.1176 40.5729 45.1176C41.0209 45.1176 41.2799 44.9426 41.2799 44.6556V44.6416C41.2799 44.3686 41.1119 44.2216 40.2929 44.0186C39.2989 43.7736 38.6689 43.4866 38.6689 42.5206V42.5066C38.6689 41.6176 39.3759 41.0296 40.3839 41.0296C41.1049 41.0296 41.6999 41.2536 42.2039 41.6526L41.6439 42.4646C41.2029 42.1636 40.7899 41.9816 40.3699 41.9816C39.9499 41.9816 39.7399 42.1636 39.7399 42.4086V42.4226C39.7399 42.7516 39.9499 42.8426 40.7969 43.0666C41.7909 43.3326 42.3509 43.6826 42.3509 44.5366V44.5506C42.3509 45.5236 41.6089 46.0696 40.5519 46.0696Z" fill="#C40D3C"/>
<path d="M47.2554 45.9996V41.0996H48.3334V45.9996H47.2554Z" fill="#C40D3C"/>
<path d="M53.478 45.9996V41.0996H55.753C56.32 41.0996 56.747 41.2466 57.034 41.5336C57.258 41.7576 57.37 42.0376 57.37 42.3666V42.3806C57.37 42.9266 57.076 43.2556 56.726 43.4376C57.293 43.6546 57.643 43.9906 57.643 44.6416V44.6556C57.643 45.5516 56.915 45.9996 55.809 45.9996H53.478ZM56.299 42.5626V42.5486C56.299 42.2196 56.047 42.0446 55.592 42.0446H54.528V43.0806H55.522C55.998 43.0806 56.299 42.9266 56.299 42.5626ZM56.572 44.5226V44.5086C56.572 44.1796 56.334 43.9766 55.774 43.9766H54.528V45.0546H55.809C56.285 45.0546 56.572 44.8866 56.572 44.5226Z" fill="#C40D3C"/>
<path d="M62.4988 45.9996V41.0996H63.5768V45.9996H62.4988Z" fill="#C40D3C"/>
<path d="M68.7213 45.9996V41.0996H70.9613C71.5843 41.0996 72.0603 41.2676 72.3893 41.5966C72.6693 41.8766 72.8093 42.2476 72.8093 42.7166V42.7306C72.8093 43.5216 72.3823 44.0186 71.7593 44.2496L72.9563 45.9996H71.6963L70.6463 44.4316H69.7993V45.9996H68.7213ZM69.7993 43.4796H70.8913C71.4233 43.4796 71.7173 43.2066 71.7173 42.7866V42.7726C71.7173 42.3036 71.4023 42.0726 70.8703 42.0726H69.7993V43.4796Z" fill="#C40D3C"/>
<path d="M79.4429 46.0696C78.6939 46.0696 77.9519 45.8176 77.3639 45.2856L78.0009 44.5226C78.4489 44.8866 78.9039 45.1176 79.4639 45.1176C79.9119 45.1176 80.1709 44.9426 80.1709 44.6556V44.6416C80.1709 44.3686 80.0029 44.2216 79.1839 44.0186C78.1899 43.7736 77.5599 43.4866 77.5599 42.5206V42.5066C77.5599 41.6176 78.2669 41.0296 79.2749 41.0296C79.9959 41.0296 80.5909 41.2536 81.0949 41.6526L80.5349 42.4646C80.0939 42.1636 79.6809 41.9816 79.2609 41.9816C78.8409 41.9816 78.6309 42.1636 78.6309 42.4086V42.4226C78.6309 42.7516 78.8409 42.8426 79.6879 43.0666C80.6819 43.3326 81.2419 43.6826 81.2419 44.5366V44.5506C81.2419 45.5236 80.4999 46.0696 79.4429 46.0696Z" fill="#C40D3C"/>
<path d="M86.0975 45.9996V41.0996H87.1755V43.2416L89.1495 41.0996H90.4725L88.4705 43.1786L90.5565 45.9996H89.2615L87.7425 43.9136L87.1755 44.5016V45.9996H86.0975Z" fill="#C40D3C"/>
<path d="M101.002 45.9996V45.1806L103.697 42.0446H101.086V41.0996H105.083V41.9186L102.388 45.0546H105.083V45.9996H101.002Z" fill="#C40D3C"/>
<path d="M110.025 45.9996V41.0996H111.103V43.0386H113.091V41.0996H114.169V45.9996H113.091V44.0326H111.103V45.9996H110.025Z" fill="#C40D3C"/>
<path d="M121.308 46.0766C119.992 46.0766 119.187 45.3486 119.187 43.8996V41.0996H120.265V43.8716C120.265 44.6766 120.657 45.0826 121.322 45.0826C121.987 45.0826 122.379 44.6906 122.379 43.9066V41.0996H123.457V43.8646C123.457 45.3486 122.624 46.0766 121.308 46.0766Z" fill="#C40D3C"/>
<path d="M128.475 45.9996V41.0996H129.553V43.2416L131.527 41.0996H132.85L130.848 43.1786L132.934 45.9996H131.639L130.12 43.9136L129.553 44.5016V45.9996H128.475Z" fill="#C40D3C"/>
<path d="M139.505 46.0836C137.993 46.0836 136.908 44.9566 136.908 43.5636V43.5496C136.908 42.1566 138.007 41.0156 139.519 41.0156C141.031 41.0156 142.116 42.1426 142.116 43.5356V43.5496C142.116 44.9426 141.017 46.0836 139.505 46.0836ZM139.519 45.0896C140.387 45.0896 140.989 44.4036 140.989 43.5636V43.5496C140.989 42.7096 140.373 42.0096 139.505 42.0096C138.637 42.0096 138.035 42.6956 138.035 43.5356V43.5496C138.035 44.3896 138.651 45.0896 139.519 45.0896Z" fill="#C40D3C"/>
<path d="M148.239 46.0346L146.258 41.0996H147.448L148.729 44.5506L150.01 41.0996H151.172L149.191 46.0346H148.239Z" fill="#C40D3C"/>
<path d="M155.848 45.9996V41.0996H156.926V43.2416L158.9 41.0996H160.223L158.221 43.1786L160.307 45.9996H159.012L157.493 43.9136L156.926 44.5016V45.9996H155.848Z" fill="#C40D3C"/>
<path d="M164.325 45.9996L166.425 41.0646H167.419L169.519 45.9996H168.392L167.944 44.9006H165.872L165.424 45.9996H164.325ZM166.257 43.9486H167.559L166.908 42.3596L166.257 43.9486Z" fill="#C40D3C"/>
</svg>
