<svg width="95" height="19" viewBox="0 0 95 19" fill="none" xmlns="http://www.w3.org/2000/svg">
<path d="M0.336 2.9757C2.016 1.4397 3.576 0.887695 5.28 0.887695C8.256 0.887695 10.56 2.5917 10.56 5.0157C10.56 7.3437 8.448 9.4077 4.536 13.4157L2.712 15.4557H7.08C8.904 15.4557 9.864 15.1917 10.512 13.9197L10.656 13.6077H11.352L10.248 17.9997H0V17.1597L3.48 12.7197C6.168 9.3117 7.152 7.1517 7.152 5.2317C7.152 3.4797 6.336 2.1117 4.488 2.1117C3.168 2.1117 1.776 2.8077 0.6 3.8637L0.336 2.9757Z" fill="#636463"/>
<path d="M26.1152 9.5997C26.1152 4.6317 29.0912 0.887695 32.7872 0.887695C36.4352 0.887695 39.4112 4.6317 39.4112 9.5997C39.4112 14.5437 36.4352 18.3117 32.7872 18.3117C29.0912 18.3117 26.1152 14.5437 26.1152 9.5997ZM29.4272 8.4717C29.4272 12.5997 30.9152 17.1597 33.2192 17.1597C35.1152 17.1597 36.0992 14.0877 36.0992 10.7517C36.0992 6.6237 34.6112 2.0397 32.3072 2.0397C30.4592 2.0397 29.4272 5.1117 29.4272 8.4717Z" fill="#636463"/>
<path d="M54.4793 9.5997C54.4793 4.6317 57.4553 0.887695 61.1513 0.887695C64.7993 0.887695 67.7753 4.6317 67.7753 9.5997C67.7753 14.5437 64.7993 18.3117 61.1513 18.3117C57.4553 18.3117 54.4793 14.5437 54.4793 9.5997ZM57.7913 8.4717C57.7913 12.5997 59.2793 17.1597 61.5833 17.1597C63.4793 17.1597 64.4632 14.0877 64.4632 10.7517C64.4632 6.6237 62.9753 2.0397 60.6713 2.0397C58.8233 2.0397 57.7913 5.1117 57.7913 8.4717Z" fill="#636463"/>
<path d="M86.8993 8.9517V8.0877C89.3473 8.0877 90.1153 6.1917 90.1153 4.8237C90.1153 3.3837 89.1553 2.0637 87.5473 2.0637C86.2273 2.0637 85.1713 2.8077 84.9793 4.1757H84.1873V1.8477C85.5313 1.0797 87.0673 0.887695 88.0993 0.887695C91.1473 0.887695 93.4273 2.5197 93.4273 4.7277C93.4273 6.4557 92.0593 7.7997 89.9713 8.5197C92.6113 9.2397 94.3873 10.7997 94.3873 13.1517C94.3873 15.9837 91.7953 18.3117 88.2193 18.3117C86.8513 18.3117 84.7153 17.9757 82.8193 16.7277V14.2077H83.6113C83.8993 16.1037 85.6993 17.1357 87.5473 17.1357C89.8513 17.1357 91.0513 15.3117 91.0513 13.3437C91.0513 11.3037 89.7793 8.9517 86.8993 8.9517Z" fill="#636463"/>
</svg>
