<svg width="96" height="15" viewBox="0 0 96 15" fill="none" xmlns="http://www.w3.org/2000/svg">
<path d="M7.60938 0L9.29323 5.18237H14.7423L10.3339 8.38525L12.0178 13.5676L7.60938 10.3647L3.20099 13.5676L4.88484 8.38525L0.476451 5.18237H5.92552L7.60938 0Z" fill="#636463"/>
<path d="M27.6094 0L29.2932 5.18237H34.7423L30.3339 8.38525L32.0178 13.5676L27.6094 10.3647L23.201 13.5676L24.8848 8.38525L20.4765 5.18237H25.9255L27.6094 0Z" fill="#636463"/>
<path d="M47.6094 0L49.2932 5.18237H54.7423L50.3339 8.38525L52.0178 13.5676L47.6094 10.3647L43.201 13.5676L44.8848 8.38525L40.4765 5.18237H45.9255L47.6094 0Z" fill="#636463"/>
<path d="M67.6094 0L69.2932 5.18237H74.7423L70.3339 8.38525L72.0178 13.5676L67.6094 10.3647L63.201 13.5676L64.8848 8.38525L60.4765 5.18237H65.9255L67.6094 0Z" fill="#636463"/>
<path d="M87.6094 0L89.2932 5.18237H94.7423L90.3339 8.38525L92.0178 13.5676L87.6094 10.3647L83.201 13.5676L84.8848 8.38525L80.4765 5.18237H85.9255L87.6094 0Z" fill="#636463"/>
</svg>
