<?xml version="1.0" standalone="no"?>
<!DOCTYPE svg PUBLIC "-//W3C//DTD SVG 1.1//EN" "http://www.w3.org/Graphics/SVG/1.1/DTD/svg11.dtd" >
<svg xmlns="http://www.w3.org/2000/svg">
<metadata>Generated by IcoMoon</metadata>
<defs>
<font id="RamadaIconFonts" horiz-adv-x="1024">
<font-face units-per-em="1024" ascent="960" descent="-64" />
<missing-glyph horiz-adv-x="1024" />
<glyph unicode="&#x20;" horiz-adv-x="512" d="" />
<glyph unicode="&#xe900;" glyph-name="share" d="M501.134 618.65c7.233-0.184 12.703-3.905 15.517-5.967 3.159-2.314 6.806-5.54 10.482-8.783l158.583-139.935c2.057-1.814 4.427-3.884 6.301-5.849 1.5-1.575 3.367-3.76 4.866-6.651l1.35-3.116c2.005-5.746 2.005-12.020 0-17.766-1.567-4.492-4.215-7.67-6.216-9.767-1.874-1.964-4.244-4.035-6.301-5.849l-158.583-139.935c-3.676-3.243-7.323-6.468-10.482-8.783-2.814-2.062-8.284-5.782-15.517-5.967-8.369-0.213-16.21 3.572-21.301 9.999-4.362 5.511-5.158 11.914-5.466 15.433-0.343 3.922-0.316 8.817-0.316 13.817v61.566c-18.4-3.086-36.337-8.864-53.251-17.217-25.482-12.583-48.072-30.71-66.183-53.166-4.541-5.634-12.143-7.793-18.966-5.383-6.82 2.408-11.382 8.851-11.383 16.082v11.817c0.027 49.821 17.869 97.966 50.234 135.233 26.494 30.508 61.23 51.949 99.55 61.834v69.1c0 5.001-0.027 9.895 0.316 13.817 0.271 3.081 0.918 8.366 4 13.332l1.466 2.101 2.034 2.284c4.309 4.313 10.011 7.042 16.166 7.617l3.101 0.099zM508.184 496.616c0-8.259-5.922-15.336-14.051-16.799-36.081-6.499-69.2-25.33-93.867-53.734-19.765-22.76-33.036-50.495-38.716-80.15 13.573 11.158 28.36 20.762 44.133 28.551 26.431 13.051 55.021 20.792 84.234 22.833 4.721 0.329 9.371-1.323 12.832-4.55 3.459-3.229 5.434-7.752 5.434-12.484v-76.433l153.733 135.617-153.733 135.634v-78.484z" />
<glyph unicode="&#xe901;" glyph-name="copy-fill" d="M545.937 736c23.359 0 42.858 0.044 58.688-1.25 16.197-1.325 31.431-4.173 45.813-11.5 22.067-11.248 40-29.241 51.251-51.313 7.328-14.383 10.234-29.613 11.558-45.812 1.293-15.824 1.254-35.28 1.254-58.625v-409.625c0-23.341 0.038-42.803-1.254-58.624-1.318-16.198-4.237-31.43-11.558-45.811-11.245-22.074-29.184-40.064-51.251-51.315-14.381-7.328-29.617-10.176-45.813-11.501-15.83-1.293-35.329-1.248-58.688-1.248h-238.875c-23.358 0-42.856-0.045-58.687 1.248-16.202 1.325-31.428 4.173-45.812 11.501-22.077 11.251-40.001 29.235-51.25 51.315-7.327 14.381-10.239 29.606-11.563 45.811-1.29 15.827-1.25 35.277-1.25 58.624v409.625c0 23.345-0.042 42.801 1.25 58.625 1.325 16.198 4.236 31.431 11.563 45.812 11.25 22.067 29.181 40.068 51.25 51.313 14.38 7.32 29.617 10.177 45.812 11.5 15.831 1.292 35.331 1.25 58.687 1.25h238.875zM307.062 672c-24.409 0-40.879-0.033-53.5-1.062-12.202-0.999-18.076-2.788-21.937-4.75-10.025-5.109-18.199-13.29-23.313-23.313-1.963-3.86-3.75-9.73-4.75-21.937-1.030-12.618-1.062-29.032-1.062-53.437v-409.625c0-24.403 0.033-40.819 1.062-53.44 0.999-12.211 2.788-18.074 4.75-21.933 5.112-10.035 13.279-18.202 23.313-23.315 3.86-1.965 9.717-3.75 21.937-4.749 12.622-1.030 29.089-1.062 53.5-1.062h238.875c24.412 0 40.879 0.032 53.5 1.062 12.214 0.998 18.079 2.784 21.937 4.749 10.022 5.114 18.205 13.286 23.31 23.315 1.965 3.859 3.757 9.741 4.755 21.933 1.024 12.621 1.062 29.037 1.062 53.44v409.625c0 24.405-0.032 40.819-1.062 53.437-1.005 12.209-2.79 18.076-4.755 21.937-5.108 10.028-13.283 18.2-23.31 23.313-3.859 1.966-9.721 3.748-21.937 4.75-12.621 1.031-29.088 1.062-53.5 1.062h-238.875zM716.627 906.687c23.354 0 42.854 0.043 58.688-1.25 16.192-1.326 31.43-4.237 45.811-11.562 22.054-11.249 40.006-29.19 51.251-51.25 7.328-14.382 10.17-29.614 11.494-45.812 1.299-15.83 1.318-35.329 1.318-58.688v-409.562c0-23.359-0.026-42.854-1.318-58.687-1.318-16.186-4.179-31.437-11.494-45.811-11.245-22.054-29.203-40.006-51.251-51.251-14.374-7.322-29.626-10.176-45.811-11.501-15.834-1.293-35.334-1.312-58.688-1.312v64c24.403 0 40.819 0.032 53.434 1.062 12.237 0.998 18.138 2.784 22.003 4.749 10.016 5.114 18.202 13.293 23.309 23.315 1.965 3.866 3.75 9.773 4.755 21.997 1.024 12.621 1.062 29.037 1.062 53.439v409.562c0 24.412-0.032 40.879-1.062 53.5-1.005 12.205-2.79 18.079-4.755 21.937-5.107 10.025-13.286 18.2-23.309 23.313-3.866 1.968-9.766 3.749-22.003 4.75-12.614 1.030-29.030 1.062-53.434 1.062h-238.94c-24.403 0-40.819-0.033-53.437-1.062-12.196-0.997-18.074-2.791-21.938-4.75-10.025-5.108-18.198-13.291-23.312-23.313-1.966-3.858-3.748-9.724-4.75-21.937-1.032-12.621-1.063-29.088-1.063-53.5h-64c0 23.359-0.043 42.858 1.251 58.688 1.325 16.196 4.174 31.432 11.5 45.812 11.25 22.066 29.244 40.005 51.313 51.25 14.381 7.321 29.615 10.239 45.812 11.562 15.825 1.29 35.282 1.25 58.625 1.25h238.94z" />
<glyph unicode="&#xe902;" glyph-name="person" d="M512 660.114c59.584 0 107.886-48.302 107.886-107.886 0-46.286-29.158-85.742-70.1-101.057 32.415-13.384 60.624-42.43 82.085-74.699 29.604-44.51 48.358-98.026 48.358-133.272v-7.314h-14.629v7.314c0 31.405-17.266 82.116-45.9 125.171-28.793 43.293-67.12 75.972-107.7 75.972s-78.907-32.679-107.7-75.972c-28.634-43.055-45.9-93.766-45.9-125.171v-7.314h-14.629v7.314c0 35.246 18.754 88.762 48.358 133.272 21.46 32.265 49.661 61.314 82.071 74.699-40.935 15.319-70.085 54.775-70.085 101.057 0 59.584 48.302 107.886 107.886 107.886zM512 645.486c-51.504 0-93.257-41.753-93.257-93.257s41.753-93.257 93.257-93.257c51.504 0 93.257 41.753 93.257 93.257s-41.753 93.257-93.257 93.257z" />
<glyph unicode="&#xe904;" glyph-name="d" d="M396.356 407.675c-36.413 0-61.071 14.049-78.277 34.693l30.394 28.959c13.763-15.77 27.812-24.084 48.456-24.084 16.916 0 28.385 9.462 28.385 24.371v0.573c0 16.343-14.336 25.518-39.281 25.518h-18.35l-6.883 28.099 47.882 48.169h-78.846v37.847h135.619v-33.26l-50.749-48.456c27.238-4.588 53.903-18.637 53.903-56.197v-0.573c0-37.847-27.525-65.659-72.253-65.659zM509.35 411.116v200.704h78.275c63.078 0 106.66-43.295 106.66-99.779v-0.573c0-56.484-43.581-100.352-106.66-100.352h-78.275zM587.624 571.965h-34.12v-120.996h34.12c35.84 0 60.498 24.371 60.498 59.924v0.573c0 35.553-24.658 60.498-60.498 60.498zM279.644 430.645l2.509-20.060c-31.74-16.949-53.813-32.672-11.958-57.973 88.508-53.631 380.975-54.86 467.268 3.031 37.868 25.383 9.671 40.202-16.609 55.024l4.43 20.797c55.585-17.195 77.212-65.423 16.239-100.796-91.976-53.385-430.135-65.831-504.101 18.424-40.231 45.771 31.521 89.25 42.15 81.635l0.074-0.082z" />
<glyph unicode="&#xe905;" glyph-name="area" d="M598.938 560.187h-86.938v41.413h153.6v-165.655h-38.4v96.164l-203.597-221.896h88.397v-41.413h-153.6v167.145h38.4v-96.079l202.138 220.321z" />
<glyph unicode="&#xe906;" glyph-name="arrow-left" d="M562.94 577.36l-92.14-91.359h204.999v-53.94h-204.78l90.561-89.801-37.3-37.62-155.64 154.321 0.281 0.319-0.16 0.16 20.959 20.799 16.22 16.341 0.119-0.121 119.581 118.52 37.3-37.62z" />
<glyph unicode="&#xe907;" glyph-name="arrow-right" d="M638.439 496.46l0.141 0.121 16.2-16.341 20.98-20.799-0.18-0.16 0.301-0.319-35.242-34.92-2.179-2.22-0.020 0.020-118.2-117.201-37.298 37.62 90.558 89.801h-204.78v53.94h205.001l-92.142 91.359 37.3 37.62 119.56-118.52z" />
<glyph unicode="&#xe908;" glyph-name="book" d="M520.035 725.133c86.296 62.845 204.834 62.845 291.13 0 15.688-11.424 25.102-29.514 25.102-48.9v-471.901c0-43.506-46.534-70.175-84.866-51.565-53.996 26.218-117.606 26.218-171.602 0l-55.532-26.969c-3.939-1.911-8.219-2.403-12.268-1.731-4.048-0.672-8.329-0.181-12.268 1.731l-55.532 26.969c-53.996 26.218-117.607 26.218-171.601 0-38.332-18.609-84.867 8.059-84.867 51.565v471.901c0.001 19.386 9.415 37.476 25.1 48.9 86.297 62.845 204.836 62.845 291.132 0 2.918-2.125 5.571-4.548 8.035-7.1 2.464 2.552 5.117 4.975 8.035 7.1zM483.867 697.533c-74.322 54.123-176.613 54.123-250.934 0-7.065-5.146-11.066-13.071-11.067-21.3v-471.901c0-16.701 18.71-29.181 35.833-20.866 63.406 30.785 137.994 30.785 201.4 0l35.833-17.401v510.168c0 8.229-4 16.155-11.066 21.3zM791.067 697.533c-74.322 54.123-176.613 54.123-250.935 0-7.066-5.146-11.066-13.071-11.066-21.3v-510.168l35.833 17.401c63.406 30.785 137.994 30.785 201.4 0 17.125-8.315 35.833 4.164 35.833 20.866v471.901c0 8.229-4 16.155-11.066 21.3z" />
<glyph unicode="&#xe909;" glyph-name="burger" d="M397.439 566.721h223.36c2.298 0 4.16-1.862 4.16-4.16s-1.862-4.16-4.16-4.16h-223.36c-2.298 0-4.16 1.862-4.16 4.16s1.862 4.16 4.16 4.16zM397.439 443.841h223.36c2.298 0 4.16-1.862 4.16-4.16s-1.862-4.16-4.16-4.16h-223.36c-2.298 0-4.16 1.862-4.16 4.16s1.862 4.16 4.16 4.16zM397.439 317.121h223.36c2.298 0 4.16-1.862 4.16-4.16s-1.862-4.16-4.16-4.16h-223.36c-2.298 0-4.16 1.862-4.16 4.16s1.862 4.16 4.16 4.16z" />
<glyph unicode="&#xe90a;" d="M502.788 649.14c-92.912 0-168.229-75.315-168.229-168.229 0-46.44 18.817-88.488 49.25-118.929 30.439-30.458 102.156-74.533 106.363-120.797 0.629-6.937 5.652-12.616 12.616-12.616s11.987 5.679 12.618 12.616c4.207 46.264 75.921 90.339 106.363 120.797 30.431 30.441 49.248 72.489 49.248 118.929 0 92.914-75.315 168.229-168.229 168.229z" />
<glyph unicode="&#xe90b;" d="M502.776 424.19c35.111 0 63.574 28.465 63.574 63.576s-28.463 63.574-63.574 63.574c-35.113 0-63.576-28.463-63.576-63.574s28.463-63.576 63.576-63.576z" />
<glyph unicode="&#xe90c;" glyph-name="chevron-down" d="M870.4 566.55l-273.802-276.051 0.404-0.399-42.604-42.199-43.299-43.699-0.4 0.399-0.6-0.65-72.85 73.452-13.050 12.948 0.1 0.148-270.7 272.951 86.9 86.15 269.95-272.2 273.048 275.3 86.902-86.15z" />
<glyph unicode="&#xe90d;" glyph-name="chevron-left" d="M736.302 196.25l-275.302 272.95 272.302 270.050-86.154 86.9-359.547-356.5 0.55-0.65-0.35-0.35 48.25-47.899 37.75-38.001 0.3 0.297 276.048-273.7 86.154 86.902z" />
<glyph unicode="&#xe90e;" glyph-name="chevron-link" d="M454.583 591.417c8.512 8.14 22.025 7.843 30.165-0.667l117.542-122.957c21.82-22.827 21.82-59.426 0-82.253l-117.542-122.957-3.29-2.79c-8.158-5.649-19.426-5.001-26.876 2.125-7.445 7.121-8.606 18.351-3.332 26.748l2.667 3.418 117.542 122.918c6.054 6.332 6.054 16.998 0 23.33l-117.542 122.918c-8.141 8.514-7.842 22.024 0.666 30.167z" />
<glyph unicode="&#xe90f;" glyph-name="chevron-right" d="M649.748 383.048l0.353-0.297 37.699 38.001 48.302 47.899-0.404 0.35 0.604 0.65-69.955 69.3-16.399 16.6-0.148-0.15-273.050 270.75-86.15-86.9 272.252-270.050-275.252-272.95 86.15-86.902 275.999 273.7z" />
<glyph unicode="&#xe910;" glyph-name="chevron-top" d="M870.4 329.452l-273.751 276.048 0.353 0.35-41.103 40.7-44.799 45.25-0.4-0.4-0.6 0.65-72.25-72.85-13.65-13.55 0.1-0.15-270.7-273.002 86.9-86.149 269.95 272.251 273.048-275.298 86.902 86.149z" />
<glyph unicode="&#xe911;" glyph-name="close" d="M599.339 567.82c4.088 4.086 10.715 4.086 14.801 0 4.078-4.086 4.078-10.697 0-14.78l-96.16-96.16 96.201-96.201c4.084-4.086 4.084-10.713 0-14.799-4.086-4.082-10.717-4.084-14.801 0l-96.201 96.219-96.199-96.219c-4.086-4.086-10.715-4.086-14.801 0-4.082 4.086-4.084 10.715 0 14.799l96.201 96.221-96.141 96.139c-4.086 4.086-4.086 10.715 0 14.801 4.086 4.078 10.697 4.078 14.78 0l96.16-96.162 96.16 96.141z" />
<glyph unicode="&#xe912;" glyph-name="delovoy" horiz-adv-x="1014" d="M619.036 554.034h-235.856v-212.636h235.856v212.636zM365.38 554.034v-209.414c-15.753-8.163-47.794-3.051-51.043 17.312v173.717c-0.935 6.358 14.685 18.385 18.779 18.385h32.264zM636.837 554.034c19.803 0.172 43.923 3.695 50.242-19.202-1.201-53.439 4.895-111.559 1.068-164.524-2.224-30.5-25.187-29.383-51.265-28.91v212.636h-0.045zM585.66 569.069h-26.7v27.922h-117.928v-27.922h-26.7v37.587c0 10.31 21.405 15.593 29.948 16.194 28.081 2.020 91.139 3.222 117.839-0.3 6.942-0.902 23.541-8.72 23.541-15.937v-37.544z" />
<glyph unicode="&#xe913;" glyph-name="elem-bed" d="M242.726 256.566h44.886c6.19 0 11.216 5.027 11.216 11.234v33.712h426.341v-33.712c0-2.979 1.184-5.835 3.287-7.941 2.102-2.112 4.961-3.293 7.936-3.293h44.879c6.19 0 11.216 5.034 11.216 11.234v202.249c0 6.206-5.026 11.24-11.216 11.24h-41.285c-2.955 2.060-8.046 5.431-14.816 9.498v226.467c0 2.979-1.178 5.835-3.287 7.94-2.102 2.106-4.953 3.293-7.928 3.293h-44.879c-2.976 0-5.833-1.187-7.936-3.293s-3.287-4.961-3.287-7.94v-11.24h-291.705v11.24c0 6.199-5.025 11.233-11.216 11.233h-44.886c-6.19 0-11.216-5.033-11.216-11.233v-226.483c-6.77-4.062-11.861-7.432-14.816-9.499l-41.284 0.006c-6.191 0-11.217-5.033-11.217-11.239v-202.25c0-6.199 5.026-11.233 11.217-11.233l-0.004 0.010zM366.146 638.6h291.704v-22.473h-291.704v22.473zM366.146 548.71h291.704v-26.112c-94.131 34.814-197.58 34.814-291.704 0v26.112zM298.827 396.746c2.247 1.499 5.495 3.553 9.349 5.894v-0.006c61.647 36.776 132.069 56.185 203.829 56.185 71.751 0 142.172-19.409 203.829-56.185 3.854-2.335 7.096-4.394 9.348-5.894v-27.819h-426.34l-0.015 27.825z" />
<glyph unicode="&#xe914;" glyph-name="elem-phen" d="M310.030 354.656v-148.796c0-7.438 6.032-13.461 13.462-13.461h161.585c4.141 0 8.055 1.914 10.61 5.18s3.453 7.531 2.453 11.554l-43.18 172.704 43.578 9.335v-50.664c0-7.429 6.032-13.461 13.462-13.461 7.437 0 13.469 6.031 13.469 13.461v56.438l177.86 38.118c6.211 1.329 10.648 6.813 10.648 13.164v107.718c0 6.351-4.437 11.844-10.648 13.172l-320.841 68.75c-39.782 17.305-85.148 16.29-124.118-2.773s-67.618-54.259-78.376-96.291c-10.75-42.031-2.531-86.663 22.492-122.102s64.336-58.118 107.54-62.045l0.004-0.002zM323.491 542.483c10.718 0 20.992-4.257 28.57-11.828 7.57-7.578 11.829-17.851 11.829-28.562 0-10.718-4.258-20.992-11.829-28.57-7.578-7.57-17.851-11.829-28.562-11.829-10.719 0-20.992 4.258-28.57 11.829-7.57 7.578-11.828 17.851-11.828 28.562 0.015 10.711 4.273 20.976 11.844 28.554 7.57 7.57 17.836 11.829 28.546 11.844zM761.802 544.74l80.798 53.868c6.156 4.133 7.812 12.469 3.695 18.648-4.117 6.172-12.454 7.852-18.641 3.758l-80.781-53.86c-6.188-4.125-7.868-12.485-3.742-18.68 4.124-6.188 12.484-7.86 18.672-3.734zM835.126 515.547h-80.795c-7.43 0-13.462-6.031-13.462-13.469s6.032-13.461 13.462-13.461h80.795c7.43 0 13.462 6.023 13.462 13.461s-6.032 13.469-13.462 13.469zM761.798 459.441c-2.969 1.984-6.602 2.703-10.109 2-3.5-0.695-6.579-2.758-8.562-5.734-4.117-6.188-2.445-14.547 3.742-18.672l80.782-53.861c6.188-4.124 14.547-2.453 18.68 3.734 4.124 6.188 2.453 14.547-3.734 18.672l-80.798 53.86z" />
<glyph unicode="&#xe915;" glyph-name="elem-pool" d="M415.012 139.904c-7.688 0.054-13.844 6.408-13.694 14.096v41.454h-27.034c-18.024 0.42-18.024 27.244 0 27.652h27.034v41.423h-221.179c-30.402 0-55.333 24.932-55.333 55.334v260.587c0.005 0.102 0.012 0.21 0.029 0.313v0.102c-0.666 5.388 1.874 10.673 6.511 13.502 31.303 19.286 67.99 14.337 96.873 12.559 14.438-0.889 27.099-1.062 35.622 1.028 8.523 2.085 12.511 4.673 16.013 12.745 14.528 33.484 41.929 46.553 66.464 46.344 24.529-0.21 46.722-10.39 60.518-16.421 0.468-0.211 0.967-0.469 1.429-0.727 75.227-43.706 136.002-55.898 182.724-37.97 17.526 7.297 27.802-19.55 9.886-25.82-57.706-22.144-126.988-6.012-205.435 39.346-13.741 5.994-32.913 13.796-49.34 13.934-16.565 0.157-29.766-4.198-40.836-29.706-6.806-15.694-20.625-25.105-34.781-28.57s-29.022-2.757-43.995-1.833c-26.895 1.658-53.803 3.748-73.995-5.051v-212.784h248.839v124.092c-1.915 0.102-3.796 0.595-5.507 1.459-13.76 6.012-33.153 13.952-49.718 14.096-16.565 0.156-29.743-4.198-40.806-29.706-2.198-5.244-7.382-8.613-13.069-8.481-9.928 0.156-16.438 10.445-12.367 19.496 14.523 33.484 41.93 46.553 66.465 46.344 21.677-0.21 41.166-8.054 55.009-14.072v12.636c0.42 18.019 27.238 18.019 27.652 0v-27.651h193.626v27.651c0 18.457 27.682 18.457 27.682 0v-32.379c34.121 11.706 64.049 20.145 92.765 21.040 31.977 0.991 62.458-7.964 92.579-30.008 13.243-7.033 24.607-14.427 35.839-20.414v107.756c-18.883 7.844-34.054 18.817-49.394 26.895-0.648 0.313-1.267 0.691-1.862 1.105-32.661 24.23-49.508 31.214-72.049 29.598-22.547-1.615-53.443-13.958-106.969-33.568-17.971-7.856-28.277 20.338-9.478 25.928 53.081 19.447 84.471 33.070 114.507 35.213 29.731 2.126 55.425-9.105 89.443-34.186 20.253-10.764 36.108-22.764 53.875-28.493 6.775-2.042 10.916-8.877 9.589-15.826v-133.3c0.258-1.561 0.258-3.159 0-4.726v-122.039c0-30.402-24.91-55.333-55.314-55.333h-193.518v-41.43h26.625c18.024-0.42 18.024-27.244 0-27.652h-26.625v-41.454c0.156-7.85-6.246-14.252-14.096-14.096-7.646 0.157-13.736 6.451-13.585 14.096v41.454h-193.626v-41.454c0.156-7.796-6.168-14.174-13.964-14.096l-0.028-0.033zM428.976 223.16h193.626v41.43h-193.626v-41.43zM428.976 292.212h193.626v41.533h-193.626v-41.533zM428.976 361.403h193.626v41.454h-193.626v-41.454zM650.293 361.403h221.179v73.563c-18.883 7.844-34.054 18.794-49.394 26.872-0.654 0.312-1.267 0.703-1.862 1.134-26.378 19.574-49.286 26.139-76.235 25.304-26.084-0.811-56.38-9.472-93.684-22.578l-0.004-104.297zM428.976 430.508h193.626v41.424h-193.626v-41.424z" />
<glyph unicode="&#xe916;" glyph-name="elem-tablichka" d="M660.121 636.507c0 52.922-28.226 101.82-74.054 128.274-45.828 26.46-102.29 26.46-148.118 0-45.828-26.454-74.054-75.352-74.054-128.274 0-3.57 1.414-6.992 3.946-9.515 2.523-2.532 5.953-3.946 9.523-3.946h80.79c7.438 0 13.461 6.031 13.461 13.469 0 7.43-6.023 13.461-13.461 13.461h-66.578c3.484 31.164 18.914 59.766 43.053 79.796 24.133 20.024 55.094 29.914 86.369 27.586 31.274-2.32 60.429-16.68 81.336-40.054s31.938-53.946 30.781-85.29c-1.164-31.336-14.438-61.008-37.015-82.766-22.586-21.766-52.726-33.922-84.086-33.922-1.484 0-148.118-1.695-148.118-148.11v-134.656c0-3.571 1.414-6.993 3.946-9.523 2.523-2.523 5.953-3.938 9.523-3.938h269.3c3.571 0 7.001 1.414 9.524 3.938 2.523 2.531 3.938 5.953 3.938 9.523l-0.005 403.947zM579.332 340.287c0.031-16.297-5.868-32.046-16.586-44.32s-25.532-20.234-41.688-22.406c-16.148-2.164-32.54 1.609-46.118 10.625l-7.273-7.273c-2.523-2.539-5.945-3.961-9.523-3.969s-7.008 1.414-9.539 3.946c-2.532 2.523-3.946 5.961-3.946 9.531 0.008 3.578 1.438 7.008 3.969 9.531l7.274 7.273c-11.531 17.367-14.352 39.11-7.625 58.844 6.718 19.734 22.217 35.234 41.954 41.954 19.735 6.726 41.476 3.906 58.843-7.625l7.274 7.273c2.523 2.532 5.953 3.954 9.523 3.954 3.578 0 7-1.422 9.531-3.946 2.523-2.523 3.938-5.953 3.938-9.523 0-3.579-1.422-7.001-3.954-9.524l-7.273-7.273h0.008c7.312-10.976 11.211-23.878 11.211-37.072zM377.356 192.191h269.3c7.437 0 13.461-6.032 13.461-13.469v-53.861c0-3.57-1.414-6.992-3.946-9.515-2.523-2.532-5.945-3.946-9.515-3.946h-269.3c-7.43 0-13.461 6.024-13.461 13.461v53.861c0 7.437 6.031 13.469 13.469 13.469h-0.008z" />
<glyph unicode="&#xe917;" glyph-name="family" horiz-adv-x="1014" d="M627.802 463.019c66.951 2.542 109.307-81.426 61.345-133.17-34.912-37.692-107.47-28.196-130.086 18.847-6.644 13.762-3.392 38.364-23.087 30.306 1.979-14.626 4.806-30.019 14.040-41.863l-18.28-10.118-16.209-79.892-29.211 1.151-16.16 81.282-36.703 13.572-15.69-95.621-46.645-0.192-19.458 137.245c-2.969 10.071-36.703 16.161-37.363 29.108l1.225 118.927 44.525 16.305 35.43-37.884 33.216 37.836 70.72-54.285 28.788 28.006 24.359-3.118 24.452-135.758c1.65-2.494 4.57-2.062 7.115-2.35 8.763-1.103 54.182-1.391 57.951 4.172 1.413 2.11 2.686 5.514 1.225 7.961l-15.501 4.796v64.738zM386.902 651.863c57.716 9.879 64.737-73.801 12.909-78.022-51.827-4.22-58.376 70.253-12.909 78.022zM475.479 559.791c-32.18 31.123 11.402 78.166 48.482 52.941 41.886-28.484-10.318-89.818-48.482-52.941zM603.679 292.35c23.51 2.925 34.724-28.773 13.192-39.994-30.389-15.922-46.456 35.822-13.192 39.994zM653.151 292.35c23.133 2.877 34.347-28.965 13.192-39.994-30.861-16.161-45.561 36.013-13.192 39.994z" />
<glyph unicode="&#xe918;" glyph-name="friends" d="M570.951 587.535l37.68 9.569 24.956-29.151 27.019 29.005 32.767-23.311 2.947-82.645-29.181-11.827-15.18-105.073h-36.845l-16.309 105.711-10.661 2.257 2.063-64.633-38.515-20.417-17.881-133.045-48.881-0.295-17.636 136.972-38.809 21.348v57.665c-3.39 0.589-3.735-4.367-4.274-6.773-6.829-31.506-7.467-64.829-14.001-96.435l-38.22-2.306-14.493 99.625-29.819 19.778 2.506 92.901c10.365 0.687 25.643 10.846 35.124 8.098 6.092-1.717 22.746-30.819 28.739-26.55 2.948 6.429 17.931 28.415 25.251 26.649 1.916-0.441 31.49-20.072 32.521-21.741 3.243-5.349 0.344-15.754 1.278-22.085l24.12 7.017 31.441-36.267 34.044 36.218 28.247-19.189v48.93zM496.574 658.156c32.521 6.674 62.243-15.409 49.273-49.224-16.752-43.53-91.079-25.617-73.737 27.042 2.947 9.030 15.18 20.268 24.464 22.182zM629.362 672.928c34.388 4.662 50.6-38.279 19.945-52.021-44.951-20.121-64.847 45.936-19.945 52.021zM386.238 672.879c31.391 3.288 48.388-33.176 18.569-50.647-41.806-24.489-70.495 45.199-18.569 50.647z" />
<glyph unicode="&#xe919;" glyph-name="geo" d="M512 832c183.803 0 332.8-149 332.8-332.8 0-47.567-15.949-101.381-39.398-153.999-23.634-53.018-55.767-106.803-90.153-154.9-34.35-48.051-71.491-91.162-105.446-122.552-16.952-15.662-33.654-28.923-49.254-38.4-14.899-9.052-31.841-16.548-48.548-16.548s-33.65 7.496-48.55 16.548c-15.6 9.477-32.3 22.738-49.25 38.4-33.96 31.391-71.096 74.501-105.45 122.552-34.384 48.097-66.52 101.883-90.15 154.9-23.452 52.618-39.4 106.433-39.4 153.999 0 183.8 149 332.8 332.8 332.8zM512 780.8c-155.524 0-281.6-126.076-281.6-281.6 0-37.263 12.854-83.461 35-133.151 21.966-49.28 52.241-100.111 85.050-145.997 32.836-45.926 67.72-86.211 98.55-114.703 15.446-14.275 29.352-25.144 41.050-32.251 12.39-7.521 19.459-9.098 21.95-9.098 2.493 0 9.559 1.577 21.949 9.098 11.699 7.107 25.605 17.976 41.052 32.251 30.828 28.493 65.71 68.777 98.55 114.703 32.809 45.885 63.084 96.717 85.048 145.997 22.149 49.69 35 95.888 35 133.151 0 155.524-126.075 281.6-281.6 281.6zM512 678.4c98.97 0 179.2-80.23 179.2-179.2s-80.23-179.2-179.2-179.2c-98.97 0-179.2 80.23-179.2 179.2s80.23 179.2 179.2 179.2zM512 627.2c-70.692 0-128-57.308-128-128s57.308-128 128-128c70.692 0 128 57.308 128 128s-57.308 128-128 128z" />
<glyph unicode="&#xe91a;" glyph-name="mail" d="M628.74 611.84c9.695 0 18.199 0.012 25.201-0.559 7.24-0.592 14.66-1.915 21.858-5.581 10.598-5.401 19.22-14.023 24.621-24.621 3.666-7.199 4.989-14.619 5.581-21.858 0.571-7.002 0.559-15.505 0.559-25.201v-172.040c0-9.695 0.012-18.199-0.559-25.201-0.592-7.24-1.915-14.66-5.581-21.858-5.401-10.598-14.023-19.22-24.621-24.621-7.199-3.666-14.619-4.989-21.858-5.581-7.002-0.571-15.505-0.559-25.201-0.559h-243.72c-9.695 0-18.199-0.012-25.201 0.559-7.24 0.592-14.66 1.915-21.858 5.581-10.598 5.401-19.22 14.023-24.621 24.621-3.666 7.199-4.989 14.619-5.581 21.858-0.571 7.002-0.559 15.505-0.559 25.201v172.040c0 9.695-0.012 18.199 0.559 25.201 0.592 7.24 1.915 14.66 5.581 21.858 5.401 10.598 14.023 19.22 24.621 24.621 7.199 3.666 14.619 4.989 21.858 5.581 7.002 0.571 15.505 0.559 25.201 0.559h243.72zM541.46 448.94c-20.337-15.817-48.824-15.817-69.161 0l-124.099 96.541c-0.037-3.23-0.041-6.99-0.041-11.461v-172.040c0-10.367 0.016-16.912 0.42-21.86 0.385-4.708 1.024-6.154 1.26-6.619 1.473-2.884 3.817-5.229 6.701-6.701 0.465-0.236 1.909-0.874 6.619-1.26 4.948-0.403 11.493-0.42 21.86-0.42h243.72c10.367 0 16.912 0.016 21.86 0.42 4.71 0.385 6.154 1.024 6.619 1.26 2.884 1.473 5.229 3.817 6.701 6.701 0.236 0.465 0.874 1.909 1.26 6.619 0.403 4.948 0.42 11.493 0.42 21.86v172.040c0 4.471-0.025 8.231-0.059 11.461l-124.080-96.541zM497.441 481.28c5.546-4.313 13.332-4.313 18.878 0l115.161 89.6h-249.221l115.182-89.6z" />
<glyph unicode="&#xe91b;" glyph-name="menu" d="M928 0c17.67 0 32-14.33 32-32s-14.33-32-32-32h-832c-17.673 0-32 14.33-32 32s14.327 32 32 32h832zM832 768c70.694 0 128-57.308 128-128v-384l-0.685-13.062c-6.547-64.557-61.030-114.938-127.315-114.938h-640l-13.062 0.685c-60.259 6.112-108.141 53.99-114.25 114.253l-0.687 13.062v384c0 66.282 50.382 120.768 114.938 127.313l13.062 0.687h640zM192 704c-35.346 0-64-28.654-64-64v-384c0-35.347 28.654-64 64-64h640c35.347 0 64 28.653 64 64v384c0 35.346-28.653 64-64 64h-640zM928 960c17.67 0 32-14.327 32-32s-14.33-32-32-32h-832c-17.673 0-32 14.327-32 32s14.327 32 32 32h832z" />
<glyph unicode="&#xe91c;" glyph-name="para" horiz-adv-x="1014" d="M637.555 539.050l31.594-174.887-55.411-13.818-15.072-83.965h-33.333l-15.169 83.869-52.415 17.634 6.956 48.022-23.768-11.208-19.807-138.412-48.212-0.145-19.854 138.364-38.212 22.706 0.339 126.189 46.376 14.348 36.666-38.262 33.864 38.069c5.025 0.386 35.556-27.345 44.686-29.856s19.421 5.797 29.082 2.899c8.406-2.561 28.213-24.639 35.362-25.267l29.855 27.49 26.473-3.721v-0.048zM408.957 605.139c-32.27 30.146 6.956 84.159 50 60.872 51.497-27.827-6.231-101.792-50-60.872zM574.173 637.557c41.885 6.763 62.899-43.867 27.343-63.53-51.4-28.455-82.172 54.689-27.343 63.53z" />
<glyph unicode="&#xe91d;" glyph-name="pdf" d="M375.467 379.733c13.578 0 26.597-5.396 36.198-15.002 9.605-9.602 15.002-22.62 15.002-36.198s-5.396-26.597-15.002-36.198c-9.602-9.605-22.62-15.002-36.198-15.002h-17.067v-17.067c0-9.424-7.642-17.067-17.067-17.067s-17.067 7.642-17.067 17.067v102.4c0 9.424 7.641 17.067 17.067 17.067h34.133zM503.467 379.733c18.104 0 35.465-7.199 48.268-19.999 12.8-12.803 19.999-30.164 19.999-48.268s-7.199-35.465-19.999-48.268c-12.803-12.8-30.164-19.999-48.268-19.999h-25.6c-9.424 0-17.067 7.642-17.067 17.067v102.4c0 9.424 7.642 17.067 17.067 17.067h25.6zM682.667 379.733c9.424 0 17.067-7.642 17.067-17.067s-7.642-17.067-17.067-17.067h-42.667v-25.6h34.133c9.424 0 17.067-7.642 17.067-17.067s-7.642-17.067-17.067-17.067h-34.133v-25.6c0-9.424-7.642-17.067-17.067-17.067s-17.067 7.642-17.067 17.067v102.4c0 9.424 7.642 17.067 17.067 17.067h59.733zM494.933 277.333h8.533l3.366 0.167c7.817 0.775 15.165 4.229 20.767 9.834 6.403 6.4 10.001 15.080 10.001 24.132s-3.598 17.732-10.001 24.132c-5.601 5.605-12.95 9.059-20.767 9.834l-3.366 0.167h-8.533v-68.267zM358.4 311.467h17.067c4.526 0 8.864 1.799 12.066 5.001s5.001 7.54 5.001 12.066c0 4.526-1.799 8.864-5.001 12.066s-7.54 5.001-12.066 5.001h-17.067v-34.133zM564.333 652.7c0.969-0.064 1.915-0.181 2.833-0.4 0.782-0.186 1.553-0.407 2.301-0.7 0.259-0.103 0.512-0.218 0.768-0.333 0.724-0.327 1.423-0.707 2.099-1.133 0.201-0.129 0.403-0.263 0.601-0.4 0.833-0.578 1.638-1.207 2.365-1.933l119.467-119.467c0.143-0.143 0.259-0.317 0.399-0.468 0.471-0.502 0.894-1.041 1.3-1.597 0.222-0.307 0.433-0.614 0.635-0.935 0.369-0.584 0.669-1.201 0.966-1.833 0.154-0.324 0.335-0.631 0.464-0.966 0.771-1.946 1.236-4.048 1.236-6.267v-85.333c0-9.421-7.649-17.056-17.067-17.067-9.428 0-17.067 7.642-17.067 17.067v68.267h-102.434c-9.424 0-17.067 7.642-17.067 17.067v102.4h-187.733v-187.733c0-9.424-7.642-17.067-17.067-17.067s-17.067 7.642-17.067 17.067v187.733c0 9.053 3.599 17.732 10 24.133s15.081 10 24.133 10l205.933-0.1zM580.267 533.333h61.201l-61.201 61.201v-61.201z" />
<glyph unicode="&#xe91e;" glyph-name="places" d="M512.020 652.8c37.376 0 75.264-36.864 75.264-107.52-0.65-37.443-14.011-73.551-37.888-102.4v-27.886c1.81-7.954 16.146-29.696 55.022-45.604 38.912-15.836 45.33-25.6 54.546-49.902 4.337-15.839 6.589-32.223 6.656-48.64 0 0-10.478-27.648-129.536-27.648h-48.128c-119.534 0-129.536 27.648-129.536 27.648 0 16.589 2.253 33.108 6.656 49.152 9.216 23.278 15.122 34.066 54.546 49.938s53.248 37.614 55.022 45.568v28.124c-23.875 28.851-37.235 64.96-37.888 102.4 0 70.451 36.864 106.77 75.264 106.77zM332.82 271.122c-0.21 19.853 2.647 39.621 8.466 58.606 5.089 15.583 14.016 29.635 25.956 40.865 11.942 11.231 26.514 19.279 42.378 23.409l4.882 2.798c-3.924 3.53-6.994 7.908-8.978 12.8v22.802c10.104 10.58 18.263 22.868 24.064 36.316-11.448 24.028-17.728 50.194-18.432 76.8 0 12.562 1.331 25.088 3.858 37.376-11.674 11.64-27.341 18.33-43.794 18.706-34.816 0-68.846-29.184-68.846-87.314 0.945-30.868 13.243-60.306 34.542-82.67v-22.766c-1.536-6.144-14.574-24.064-51.2-36.864-36.591-12.8-41.471-21.778-49.903-40.722-3.823-12.972-5.632-26.419-5.393-39.936 0 0 8.465-20.206 102.399-22.254v2.048zM787.476 331.264c-8.43 18.944-13.824 27.922-51.2 40.722s-48.64 30.72-51.2 36.864v22.766c21.307 22.374 33.608 51.825 34.542 82.706 2.048 57.344-32.494 87.278-66.798 87.278-8.197 0.020-16.317-1.6-23.88-4.764-7.562-3.167-14.413-7.813-20.152-13.668 2.596-12.46 3.994-25.157 4.096-37.888-0.701-26.609-6.981-52.772-18.432-76.8 5.804-13.448 13.96-25.772 24.064-36.352v-22.802c-1.974-4.887-5.030-9.265-8.942-12.8l4.334-2.048c15.962-4.042 30.643-12.050 42.685-23.281 12.040-11.228 21.051-25.316 26.196-40.957 5.837-19.149 8.704-39.117 8.43-59.118v-2.322c93.696 2.048 102.4 22.254 102.4 22.254 0 13.655-2.048 27.205-6.144 40.21z" />
<glyph unicode="&#xe91f;" glyph-name="play" d="M645.12 475.976c13.654-7.883 13.654-27.589 0-35.471l-168.96-97.55c-13.654-7.883-30.72 1.972-30.72 17.738v195.097c0 15.766 17.066 25.62 30.72 17.738l168.96-97.55z" />
<glyph unicode="&#xe920;" glyph-name="route" d="M512 622.080c73.521 0 133.12-59.599 133.12-133.12 0-19.026-6.38-40.552-15.759-61.6-9.454-21.207-22.307-42.721-36.061-61.96-13.74-19.22-28.596-36.465-42.179-49.021-6.781-6.265-13.462-11.569-19.702-15.36-5.96-3.621-12.737-6.619-19.419-6.619s-13.459 2.998-19.419 6.619c-6.24 3.791-12.921 9.095-19.702 15.36-13.582 12.556-28.439 29.8-42.179 49.021-13.754 19.239-26.608 40.753-36.061 61.96-9.38 21.047-15.759 42.574-15.759 61.6 0 73.521 59.599 133.12 133.12 133.12zM512 601.6c-62.21 0-112.64-50.43-112.64-112.64 0-14.905 5.14-33.384 14-53.26 8.786-19.712 20.896-40.045 34.019-58.399 13.136-18.371 27.089-34.484 39.42-45.881 6.179-5.71 11.741-10.058 16.421-12.9 4.956-3.009 7.782-3.639 8.78-3.639s3.824 0.631 8.78 3.639c4.68 2.843 10.242 7.191 16.421 12.9 12.331 11.397 26.284 27.511 39.42 45.881 13.124 18.354 25.233 38.687 34.019 58.399 8.86 19.876 14 38.355 14 53.26 0 62.21-50.43 112.64-112.64 112.64zM512 560.64c39.588 0 71.68-32.092 71.68-71.68s-32.092-71.68-71.68-71.68c-39.588 0-71.68 32.092-71.68 71.68s32.092 71.68 71.68 71.68zM512 540.16c-28.277 0-51.2-22.923-51.2-51.2s22.923-51.2 51.2-51.2c28.277 0 51.2 22.923 51.2 51.2s-22.923 51.2-51.2 51.2z" />
<glyph unicode="&#xe921;" glyph-name="services-board" d="M593.92 622.080c17.478 0 36.114-5.337 50.1-22.12 13.689-16.425 21.58-42.246 21.58-80.28h10.24c16.966 0 30.72-13.754 30.72-30.72 0-3.594-0.645-7.035-1.78-10.24h12.020c5.655 0 10.24-4.585 10.24-10.24s-4.585-10.24-10.24-10.24h-102.441c0.002-2.263-0.705-4.542-2.238-6.441l-85.42-105.499 75.299-96.821 1.1-1.739c2.12-4.272 1.010-9.581-2.9-12.62-3.908-3.039-9.322-2.804-12.939 0.299l-1.419 1.501-72.36 93.039-75.44-93.2c-3.557-4.393-10.004-5.075-14.402-1.52-4.393 3.557-5.075 10.004-1.52 14.402l78.44 96.92-54.999 70.719h-56.441c-5.655 0-10.24 4.585-10.24 10.24v30.72h-51.2c-16.966 0-30.72 13.754-30.72 30.72v20.48c0 5.655 4.585 10.24 10.24 10.24h276.48v92.16c0 5.655 4.585 10.24 10.24 10.24zM522.24 427.52c0-5.655-4.585-10.24-10.24-10.24h-40.52l42.299-54.381 77.199 95.341h-68.739v-30.72zM399.36 437.76h102.4v61.44h-102.4v-61.44zM522.24 478.72h153.6c5.655 0 10.24 4.585 10.24 10.24s-4.585 10.24-10.24 10.24h-153.6v-20.48zM317.44 488.96c0-5.655 4.585-10.24 10.24-10.24h51.2v20.48h-61.44v-10.24zM604.16 519.68h40.96c0 35.695-7.469 55.958-16.82 67.181-6.654 7.985-14.957 12.167-24.14 13.84v-81.021zM624.64 560.64c5.655 0 10.24-4.585 10.24-10.24v-10.24c0-5.655-4.585-10.24-10.24-10.24s-10.24 4.585-10.24 10.24v10.24c0 5.655 4.585 10.24 10.24 10.24z" />
<glyph unicode="&#xe922;" glyph-name="services-coffee-machine" d="M696.32 663.040c16.966 0 30.72-13.754 30.72-30.72v-81.92c0-16.966-13.754-30.72-30.72-30.72h-10.24v-20.48h30.72c5.655 0 10.24-4.585 10.24-10.24v-20.48l-0.201-2.060c-0.952-4.669-5.089-8.18-10.039-8.18h-30.72v-143.36h30.72c5.655 0 10.24-4.585 10.24-10.24v-40.96c0-16.966-13.754-30.72-30.72-30.72h-368.64c-16.966 0-30.72 13.754-30.72 30.72v40.96c0 5.655 4.585 10.24 10.24 10.24h30.72v204.8h-10.24c-15.907 0-28.987 12.089-30.56 27.58l-0.16 3.14v81.92c0 16.966 13.754 30.72 30.72 30.72h368.64zM317.44 263.68c0-5.655 4.585-10.24 10.24-10.24h368.64c5.655 0 10.24 4.585 10.24 10.24v30.72h-389.12v-30.72zM358.4 314.88h153.6c-37.337 0-71.68 24.584-71.68 59.4v32.76c0 5.655 4.585 10.24 10.24 10.24h143.36c16.966 0 30.72-13.754 30.72-30.72s-13.754-30.72-30.72-30.72h-10.24c-1.139 0-2.216 0.238-3.24 0.58-9.363-25.063-37.884-41.54-68.44-41.54h153.6v143.36h-71.68c-5.655 0-10.24 4.585-10.24 10.24 0-5.655-4.585-10.24-10.24-10.24h-20.48v-10.24c0-5.655-4.585-10.24-10.24-10.24s-10.24 4.585-10.24 10.24v10.24h-40.96v-10.24c0-5.655-4.585-10.24-10.24-10.24s-10.24 4.585-10.24 10.24v10.24h-20.48c-5.655 0-10.24 4.585-10.24 10.24v51.2h-81.92v-204.8zM460.8 374.28c0-19.476 20.673-38.92 51.2-38.92s51.2 19.444 51.2 38.92v22.52h-102.4v-22.52zM583.68 376.32h10.24c5.655 0 10.24 4.585 10.24 10.24s-4.585 10.24-10.24 10.24h-10.24v-20.48zM460.8 478.72h102.4v40.96h-102.4v-40.96zM583.68 488.96c0 5.655 4.585 10.24 10.24 10.24h71.68v20.48h-81.92v-30.72zM327.68 642.56c-5.655 0-10.24-4.585-10.24-10.24v-81.92l0.201-2.060c0.952-4.669 5.089-8.18 10.039-8.18h368.64c5.655 0 10.24 4.585 10.24 10.24v81.92c0 5.655-4.585 10.24-10.24 10.24h-368.64zM430.080 622.080c16.966 0 30.72-13.754 30.72-30.72s-13.754-30.72-30.72-30.72c-16.966 0-30.72 13.754-30.72 30.72s13.754 30.72 30.72 30.72zM512 622.080c16.966 0 30.72-13.754 30.72-30.72s-13.754-30.72-30.72-30.72c-16.966 0-30.72 13.754-30.72 30.72s13.754 30.72 30.72 30.72zM593.92 622.080c16.966 0 30.72-13.754 30.72-30.72s-13.754-30.72-30.72-30.72c-16.966 0-30.72 13.754-30.72 30.72s13.754 30.72 30.72 30.72zM430.080 601.6c-5.655 0-10.24-4.585-10.24-10.24s4.585-10.24 10.24-10.24c5.655 0 10.24 4.585 10.24 10.24s-4.585 10.24-10.24 10.24zM512 601.6c-5.655 0-10.24-4.585-10.24-10.24s4.585-10.24 10.24-10.24c5.655 0 10.24 4.585 10.24 10.24s-4.585 10.24-10.24 10.24zM593.92 601.6c-5.655 0-10.24-4.585-10.24-10.24s4.585-10.24 10.24-10.24c5.655 0 10.24 4.585 10.24 10.24s-4.585 10.24-10.24 10.24z" />
<glyph unicode="&#xe923;" glyph-name="services-condicioner" d="M559.12 539.959c4.667-0.954 8.18-5.091 8.18-10.039s-3.512-9.085-8.18-10.039l-2.060-0.201h-260.1v-184.32h430.080v194.56c0 5.655 4.585 10.24 10.24 10.24s10.24-4.585 10.24-10.24v-204.8c0-5.655-4.585-10.24-10.24-10.24h-450.56c-5.655 0-10.24 4.585-10.24 10.24v204.8c0 5.655 4.585 10.24 10.24 10.24l272.4-0.201zM675.74 388.62c2.382-0.59 4.506-2.021 5.941-4.080l23.040-33.081c3.23-4.639 2.095-11.026-2.542-14.26-4.063-2.828-9.47-2.308-12.919 0.981l-1.341 1.561-19.978 28.699h-311.882l-19.978-28.699c-3.234-4.637-9.622-5.771-14.26-2.542-4.637 3.234-5.771 9.622-2.542 14.26l23.040 33.081 1.64 1.839c1.849 1.624 4.246 2.54 6.76 2.54l325.020-0.299zM373.76 499.2c5.655 0 10.24-4.585 10.24-10.24s-4.585-10.24-10.24-10.24h-46.080c-5.655 0-10.24 4.585-10.24 10.24s4.585 10.24 10.24 10.24h46.080zM687.086 571.967c4.897 2.822 11.153 1.155 13.982-3.74 2.824-4.893 1.145-11.149-3.742-13.98l-90.12-52.040c-4.897-2.828-11.172-1.139-13.998 3.76-2.82 4.895-1.135 11.153 3.758 13.98l90.12 52.019zM593.207 568.209c2.828 4.897 9.103 6.588 14 3.76l90.12-52.040c4.887-2.83 6.564-9.087 3.74-13.98-2.824-4.895-9.085-6.576-13.98-3.76l-90.12 52.040c-4.895 2.826-6.582 9.083-3.76 13.98zM647.201 601.6c5.655 0 10.24-4.585 10.24-10.24v-102.4c0-5.655-4.585-10.24-10.24-10.24-5.657 0-10.24 4.585-10.24 10.24v102.4c0 5.655 4.583 10.24 10.24 10.24z" />
<glyph unicode="&#xe924;" glyph-name="services-electric-kettle" d="M624.64 212.48c5.655 0 10.24-4.585 10.24-10.24s-4.585-10.24-10.24-10.24h-276.48c-5.655 0-10.24 4.585-10.24 10.24s4.585 10.24 10.24 10.24h276.48zM486.4 704c82.616 0 148.48-71.24 148.48-157.7v-161.78h35.84c19.18 0 35.838 16.779 35.84 38.9v172.040c0.002 5.652 4.585 10.24 10.24 10.24s10.238-4.588 10.24-10.24v-172.040c-0.002-32.166-24.605-59.38-56.32-59.38h-35.84v-41.66c-0.004-30.657-23.46-56.66-53.76-56.66h-189.44c-30.3 0-53.756 26.003-53.76 56.66v223.92c0 86.46 65.864 157.7 148.48 157.7zM486.4 683.52c-70.081 0-128-60.805-128-137.22v-223.92c0.004-20.611 15.516-36.18 33.28-36.18h189.44c17.764 0 33.276 15.569 33.28 36.18v223.92c0 76.415-57.919 137.22-128 137.22zM532.48 384.52c5.652 0 10.236-4.588 10.24-10.24 0-5.657-4.585-10.24-10.24-10.24h-92.16c-5.655 0-10.24 4.583-10.24 10.24 0.004 5.652 4.588 10.24 10.24 10.24h92.16z" />
<glyph unicode="&#xe925;" glyph-name="services-garderob" d="M520.919 683.52c29.942-0.002 54.561-24.261 54.561-54.34v-2.181c0-24.752-13.947-47.397-36.059-58.52-10.533-5.298-17.181-16.089-17.181-27.879v-8.581l243.581-134.758c13.982-7.739 22.657-22.46 22.659-38.441 0-24.265-19.675-43.94-43.94-43.94h-464.66c-24.494 0-44.36 19.866-44.36 44.36 0.002 15.671 8.274 30.179 21.76 38.16l209.56 124 1.901 0.881c4.499 1.548 9.622-0.225 12.141-4.481 2.875-4.866 1.264-11.141-3.6-14.021l-209.56-124c-7.26-4.295-11.719-12.106-11.721-20.539 0-13.183 10.697-23.88 23.88-23.88h464.66c12.954 0 23.46 10.506 23.46 23.46-0.002 8.532-4.635 16.39-12.1 20.521l-248.861 137.679c-3.258 1.804-5.28 5.237-5.28 8.96v14.621c0 19.532 11.012 37.405 28.459 46.18 15.198 7.643 24.781 23.208 24.781 40.219v2.181c0 18.629-15.311 33.858-34.081 33.86-23.575 0-40.344-23.073-32.999-45.24l7.18-21.639 0.44-2.021c0.565-4.731-2.243-9.359-6.941-10.92-4.696-1.556-9.726 0.471-12.1 4.6l-0.84 1.901-7.18 21.641c-11.805 35.633 15.124 72.159 52.439 72.159z" />
<glyph unicode="&#xe926;" glyph-name="services-holodilnik" d="M638.020 683.36c15.491-1.573 27.58-14.653 27.58-30.56v-409.6c0-16.966-13.754-30.72-30.72-30.72h-245.76c-16.966 0-30.72 13.754-30.72 30.72v409.6c0 16.966 13.754 30.72 30.72 30.72l248.9-0.16zM389.12 663.040c-5.655 0-10.24-4.585-10.24-10.24v-409.6c0-5.655 4.585-10.24 10.24-10.24h245.76c5.655 0 10.24 4.585 10.24 10.24v409.6c0 4.95-3.51 9.087-8.18 10.039l-2.060 0.201h-245.76zM389.12 212.48c5.655 0 10.24-4.585 10.24-10.24v-20.48c0-5.655-4.585-10.24-10.24-10.24s-10.24 4.585-10.24 10.24v20.48c0 5.655 4.585 10.24 10.24 10.24zM634.88 212.48c5.655 0 10.24-4.585 10.24-10.24v-20.48c0-5.655-4.585-10.24-10.24-10.24s-10.24 4.585-10.24 10.24v20.48c0 5.655 4.585 10.24 10.24 10.24zM655.36 478.72h-286.72v20.48h286.72v-20.48zM655.36 253.44h-286.72v20.48h286.72v-20.48zM409.6 458.24c5.655 0 10.24-4.585 10.24-10.24v-40.96c0-5.655-4.585-10.24-10.24-10.24s-10.24 4.585-10.24 10.24v40.96c0 5.655 4.585 10.24 10.24 10.24zM409.6 622.080c5.655 0 10.24-4.585 10.24-10.24v-40.96c0-5.655-4.585-10.24-10.24-10.24s-10.24 4.585-10.24 10.24v40.96c0 5.655 4.585 10.24 10.24 10.24z" />
<glyph unicode="&#xe927;" glyph-name="services-kids-bedroom" d="M675.84 622.080c16.966 0 30.72-13.754 30.72-30.72v-155.38c11.926-4.221 20.48-15.569 20.48-28.94v-122.88c0-5.655-4.585-10.24-10.24-10.24h-10.24v-30.72c0-5.655-4.585-10.24-10.24-10.24h-20.48c-3.879 0-7.426 2.191-9.161 5.661l-17.639 35.299h-274.080l-17.639-35.299c-1.735-3.469-5.282-5.661-9.161-5.661h-20.48c-5.655 0-10.24 4.585-10.24 10.24v30.72h-10.24c-5.655 0-10.24 4.585-10.24 10.24v122.88c0 13.371 8.554 24.719 20.48 28.94v155.38c0 16.966 13.754 30.72 30.72 30.72h327.68zM337.92 253.44h3.92l10.24 20.48h-14.16v-20.48zM682.16 253.44h3.92v20.48h-14.16l10.24-20.48zM317.44 294.4h389.12v20.48h-389.12v-20.48zM327.68 417.28c-5.655 0-10.24-4.585-10.24-10.24v-71.68h389.12v71.68c0 5.655-4.585 10.24-10.24 10.24h-368.64zM348.16 601.6c-5.655 0-10.24-4.585-10.24-10.24v-153.6h63.22c-1.135 3.205-1.78 6.646-1.78 10.24v61.44c0 16.966 13.754 30.72 30.72 30.72h163.84c16.966 0 30.72-13.754 30.72-30.72v-61.44c0-3.594-0.645-7.035-1.78-10.24h63.22v153.6c0 5.655-4.585 10.24-10.24 10.24h-327.68zM430.080 519.68c-5.655 0-10.24-4.585-10.24-10.24v-61.44c0-5.655 4.585-10.24 10.24-10.24h163.84c5.655 0 10.24 4.585 10.24 10.24v61.44c0 5.655-4.585 10.24-10.24 10.24h-163.84z" />
<glyph unicode="&#xe928;" glyph-name="services-master-bedroom" d="M604.16 663.040c33.933 0 61.44-27.507 61.44-61.44v-204.8h51.2v-10.24l9.601-3.559c-15.899-42.803-44.313-78.895-80.56-104.301l17.74-23.88c3.371-4.54 2.419-10.949-2.12-14.32s-10.949-2.435-14.322 2.099l-18.639 25.1c-20.242-11.553-42.445-19.997-65.939-24.74l-4.921-0.999c-30.12-6.083-61.159-6.083-91.279 0l-4.921 0.999c-26.362 5.323-51.094 15.313-73.259 29.121-0.297-0.655-0.635-1.3-1.079-1.901l-20.48-27.58-8.221 6.119-8.221 6.101 20.48 27.56c0.291 0.391 0.629 0.741 0.961 1.079-33.126 25.068-59.091 59.345-74.021 99.541l9.601 3.559v10.24h92.16v10.24c0 5.655 4.585 10.24 10.24 10.24h81.92c5.655 0 10.24-4.585 10.24-10.24v-10.24h143.36v204.8c0 22.622-18.338 40.96-40.96 40.96s-40.96-18.338-40.96-40.96v-0.721c34.738-4.968 61.44-34.847 61.44-70.959 0-5.655-4.585-10.24-10.24-10.24h-122.88c-5.655 0-10.24 4.585-10.24 10.24 0 36.112 26.702 65.991 61.44 70.959v0.721c0 33.933 27.507 61.44 61.44 61.44zM366.621 242.6c-3.373-4.534-9.783-5.47-14.322-2.099s-5.491 9.779-2.12 14.32l16.441-12.22zM322.54 376.32c26.669-58.169 79.651-100.495 142.961-113.279l4.919-1.001c27.443-5.54 55.718-5.54 83.161 0l4.919 1.001c63.31 12.784 116.292 55.11 142.961 113.279h-199.7v-71.68c0-5.655-4.585-10.24-10.24-10.24h-81.92c-5.655 0-10.24 4.585-10.24 10.24v71.68h-76.82zM419.84 325.12v-10.24h61.44v10.24h-61.44zM419.84 345.6h61.44v51.2h-61.44v-51.2zM552.96 581.12c-24.771 0-45.437-17.59-50.18-40.96h100.36c-4.743 23.37-25.41 40.96-50.18 40.96z" />
<glyph unicode="&#xe929;" glyph-name="services-microwave" d="M696.32 601.6c16.966 0 30.72-13.754 30.72-30.72v-266.24c0-16.966-13.754-30.72-30.72-30.72h-368.64c-16.966 0-30.72 13.754-30.72 30.72v266.24c0 16.966 13.754 30.72 30.72 30.72h368.64zM327.68 581.12c-5.655 0-10.24-4.585-10.24-10.24v-266.24c0-5.655 4.585-10.24 10.24-10.24h368.64c5.655 0 10.24 4.585 10.24 10.24v266.24c0 5.655-4.585 10.24-10.24 10.24h-368.64zM593.92 540.16c5.655 0 10.24-4.585 10.24-10.24v-184.32c0-5.655-4.585-10.24-10.24-10.24h-245.76c-5.655 0-10.24 4.585-10.24 10.24v184.32c0 5.655 4.585 10.24 10.24 10.24h245.76zM358.4 355.84h225.28v163.84h-225.28v-163.84zM665.6 458.24c5.655 0 10.24-4.585 10.24-10.24s-4.585-10.24-10.24-10.24h-30.72c-5.655 0-10.24 4.585-10.24 10.24s4.585 10.24 10.24 10.24h30.72zM665.6 499.2c5.655 0 10.24-4.585 10.24-10.24s-4.585-10.24-10.24-10.24h-30.72c-5.655 0-10.24 4.585-10.24 10.24s4.585 10.24 10.24 10.24h30.72zM665.6 540.16c5.655 0 10.24-4.585 10.24-10.24s-4.585-10.24-10.24-10.24h-30.72c-5.655 0-10.24 4.585-10.24 10.24s4.585 10.24 10.24 10.24h30.72z" />
<glyph unicode="&#xe92a;" glyph-name="services-places" d="M696.32 622.080c5.655 0 10.24-4.585 10.24-10.24v-155.38c11.926-4.221 20.48-15.569 20.48-28.94v-122.88c0-5.655-4.585-10.24-10.24-10.24h-10.24v-30.72c0-5.655-4.585-10.24-10.24-10.24h-20.48c-3.879 0-7.426 2.191-9.161 5.661l-17.639 35.299h-274.080l-17.639-35.299c-1.735-3.469-5.282-5.661-9.161-5.661h-20.48c-5.655 0-10.24 4.585-10.24 10.24v30.72h-10.24c-5.655 0-10.24 4.585-10.24 10.24v122.88c0 13.371 8.554 24.719 20.48 28.94v155.38c0 5.655 4.585 10.24 10.24 10.24h368.64zM337.92 273.92h3.92l10.24 20.48h-14.16v-20.48zM682.16 273.92h3.92v20.48h-14.16l10.24-20.48zM317.44 314.88h389.12v20.48h-389.12v-20.48zM327.68 437.76c-5.655 0-10.24-4.585-10.24-10.24v-71.68h389.12v71.68c0 5.655-4.585 10.24-10.24 10.24h-368.64zM337.92 458.24h20.48v71.68c0 5.655 4.585 10.24 10.24 10.24h122.88c5.655 0 10.24-4.585 10.24-10.24v-71.68h20.48v71.68c0 5.655 4.585 10.24 10.24 10.24h122.88c5.655 0 10.24-4.585 10.24-10.24v-71.68h20.48v143.36h-348.16v-143.36zM378.88 458.24h102.4v61.44h-102.4v-61.44zM542.72 458.24h102.4v61.44h-102.4v-61.44z" />
<glyph unicode="&#xe92b;" glyph-name="services-tv" d="M699.74 560.64c15.622-0.004 27.3-13.246 27.3-28.32v-271.041c0-15.073-11.678-28.316-27.3-28.32h-375.48c-15.622 0.004-27.3 13.246-27.3 28.32v271.041c0 15.073 11.678 28.316 27.3 28.32h375.48zM324.26 540.16c-3.226-0.004-6.82-2.959-6.82-7.84v-271.041c0-4.88 3.594-7.836 6.82-7.84h375.48c3.226 0.004 6.82 2.959 6.82 7.84v271.041c0 4.88-3.594 7.836-6.82 7.84h-375.48zM607.16 660.040c3.998 4 10.482 4 14.479 0 3.998-3.998 4-10.482 0-14.479l-102.4-102.4c-3.998-4-10.482-3.998-14.479 0l-102.4 102.4c-4 3.998-4 10.482 0 14.479 3.998 4 10.482 4 14.479 0l95.16-95.16 95.16 95.16z" />
<glyph unicode="&#xe92c;" glyph-name="services-wifi" d="M314.1 640.78c3.934 2.683 9.329 2.327 12.88-1.12 4.053-3.938 4.157-10.424 0.221-14.479l-4.381-4.62c-90.528-98.138-89.068-253.446 4.381-349.741 3.932-4.057 3.836-10.543-0.221-14.479-3.549-3.441-8.946-3.799-12.88-1.12l-1.599 1.321-4.721 5.020c-97.888 106.101-96.322 273.781 4.721 377.899l1.599 1.321zM717.5 639.66c3.551 3.447 8.946 3.803 12.88 1.12l1.599-1.321 4.721-5.020c97.884-106.103 96.324-273.783-4.721-377.899l-1.599-1.321c-3.934-2.679-9.331-2.32-12.88 1.12-4.057 3.938-4.155 10.422-0.221 14.479l4.381 4.62c89.094 96.582 89.092 248.537 0 345.121l-4.381 4.62-1.298 1.638c-2.558 4.012-2.025 9.396 1.52 12.841zM393.601 558.86c3.934 2.685 9.347 2.327 12.898-1.12 4.047-3.94 4.135-10.426 0.201-14.479l-4.62-5.022c-46.342-52.861-44.814-134.582 4.62-185.518 3.934-4.059 3.856-10.543-0.201-14.481-4.053-3.93-10.541-3.824-14.479 0.221-58.739 60.525-58.737 158.532 0 219.060l1.581 1.339zM652.46 338.461c-3.938-4.047-10.424-4.151-14.479-0.221-4.057 3.938-4.135 10.422-0.201 14.481l14.68-14.26zM637.981 557.74c3.551 3.447 8.964 3.805 12.898 1.12l1.581-1.339 5.339-5.782c53.342-60.834 51.565-154.647-5.339-213.279l-7.34 7.139-7.34 7.121c49.435 50.936 50.962 132.657 4.62 185.518l-4.62 5.022-1.3 1.638c-2.556 4.010-2.038 9.396 1.501 12.841zM522.24 488.96c22.62 0 40.96-18.338 40.96-40.96-0.004-22.618-18.342-40.96-40.96-40.96s-40.956 18.342-40.96 40.96c0 22.622 18.338 40.96 40.96 40.96zM522.24 468.48c-11.311 0-20.48-9.169-20.48-20.48 0.004-11.307 9.171-20.48 20.48-20.48 11.307 0 20.476 9.173 20.48 20.48 0 11.311-9.169 20.48-20.48 20.48z" />
<glyph unicode="&#xe92d;" glyph-name="solo" horiz-adv-x="1014" d="M598.077 551.007l0.101-116.974-39.661-21.245-21.126-144.963-50.376-0.101-20.974 148.918-40.22 19.977 0.356 132.389 48.904 14.957 35.903-40.006 40.169 37.622 46.924-30.574zM503.976 692.878c54.287 8.67 68.151-69.871 19.094-79.961-62.411-12.827-71.756 71.544-19.094 79.961z" />
<glyph unicode="&#xe92e;" glyph-name="star" horiz-adv-x="1092" d="M546.133 960l122.614-377.369h396.792l-321.010-233.227 122.614-377.367-321.010 233.226-321.009-233.226 122.614 377.367-321.009 233.227h396.789l122.614 377.369z" />
<glyph unicode="&#xe92f;" glyph-name="telegram" d="M316.617 455.993c0.823 0.412 1.647 0.803 2.447 1.174 13.951 6.47 28.088 12.526 42.203 18.584 0.762 0 2.038 0.885 2.757 1.174 1.092 0.473 2.181 0.928 3.273 1.401 2.099 0.907 4.196 1.792 6.275 2.699 4.198 1.792 8.374 3.584 12.573 5.376 8.374 3.586 16.749 7.17 25.123 10.775 16.751 7.17 33.52 14.361 50.27 21.529 16.749 7.17 33.518 14.361 50.268 21.529 16.749 7.17 33.518 14.361 50.268 21.529 16.749 7.17 33.52 14.361 50.268 21.529 3.723 1.608 7.758 3.998 11.749 4.698 3.353 0.598 6.625 1.751 9.998 2.39 6.4 1.214 13.457 1.71 19.589-0.948 2.12-0.928 4.076-2.224 5.7-3.852 7.778-7.705 6.689-20.355 5.042-31.191-11.461-75.524-22.923-151.071-34.404-226.597-1.563-10.361-3.703-21.733-11.872-28.285-6.914-5.542-16.749-6.16-25.289-3.811-8.54 2.37-16.071 7.334-23.458 12.216-30.638 20.314-61.297 40.626-91.935 60.94-7.285 4.819-15.391 11.125-15.309 19.88 0.041 5.274 3.189 9.972 6.4 14.154 26.626 34.775 65.040 58.673 93.622 91.841 4.033 4.678 7.201 13.124 1.667 15.823-3.293 1.606-7.080-0.578-10.082-2.658-37.779-26.268-75.536-52.554-113.316-78.821-12.325-8.571-25.246-17.388-40.104-19.489-13.292-1.896-26.667 1.812-39.526 5.603-10.783 3.172-21.543 6.429-32.264 9.785-5.7 1.772-11.586 3.688-15.989 7.707-4.403 4.016-6.932 10.775-4.278 16.13 1.667 3.359 4.897 5.48 8.292 7.211l0.041-0.020z" />
<glyph unicode="&#xe930;" glyph-name="vk" d="M720.011 553.116c3.289 10.021 0 17.308-14.567 17.308h-48.407c-12.218 0-17.857-6.375-21.146-13.21 0 0-24.908-58.307-59.685-96.113-11.278-10.932-16.447-14.578-22.557-14.578-3.291 0-7.518 3.645-7.518 13.666v93.381c0 11.844-3.76 17.31-14.1 17.31h-76.13c-7.52 0-12.218-5.466-12.218-10.932 0-11.389 17.388-14.121 19.268-46.008v-69.237c0-15.032-2.82-17.766-8.929-17.766-16.447 0-56.394 58.763-80.359 125.723-4.702 13.212-9.4 18.221-21.619 18.221h-48.876c-14.098 0-16.447-6.377-16.447-13.21 0-12.3 16.447-74.25 76.601-156.242 39.946-56.029 96.809-86.092 148.034-86.092 31.017 0 34.777 6.832 34.777 18.219v42.363c0 13.666 2.818 15.944 12.687 15.944 7.049 0 19.739-3.643 48.404-30.519 32.895-31.885 38.535-46.463 56.863-46.463h48.407c14.096 0 20.677 6.832 16.916 20.044-4.229 13.208-20.208 32.34-40.884 55.116-11.28 12.755-28.199 26.876-33.368 33.71-7.047 9.107-5.169 12.753 0 20.953-0.469 0 58.745 81.080 64.854 108.413z" />
<glyph unicode="&#xe931;" glyph-name="whatsapp" d="M576.244 361.363c-75.158 0-136.303 61.184-136.323 136.362 0.020 19.059 15.532 34.554 34.544 34.554 1.954 0 3.887-0.164 5.741-0.494 4.073-0.678 7.94-2.058 11.5-4.137 0.514-0.307 0.864-0.801 0.946-1.378l7.942-50.072c0.102-0.575-0.082-1.171-0.473-1.606-4.383-4.856-9.978-8.354-16.212-10.105l-3.004-0.844 1.133-2.9c10.244-26.096 31.107-46.944 57.215-57.233l2.902-1.153 0.844 3.004c1.749 6.236 5.245 11.833 10.101 16.218 0.35 0.328 0.823 0.494 1.296 0.494 0.102 0 0.207 0 0.33-0.020l50.057-7.944c0.596-0.102 1.090-0.432 1.399-0.946 2.056-3.561 3.434-7.451 4.135-11.526 0.33-1.81 0.473-3.725 0.473-5.72 0-19.036-15.493-34.533-34.544-34.554zM709.493 463.77c-4.053 45.812-25.039 88.308-59.089 119.652-34.255 31.529-78.696 48.898-125.172 48.898-102.007 0-185.002-83.020-185.002-185.055 0-34.247 9.443-67.607 27.322-96.666l-39.873-88.289 127.662 13.605c22.198-9.097 45.695-13.707 69.87-13.707 6.357 0 12.88 0.33 19.421 1.010 5.761 0.616 11.583 1.522 17.304 2.675 85.422 17.267 147.782 93.104 148.277 180.384v0.989c0 5.556-0.248 11.112-0.741 16.484l0.020 0.020zM460.259 314.667l-70.631-7.533 21.088 46.737-4.217 5.659c-0.309 0.412-0.616 0.823-0.967 1.296-18.311 25.293-27.982 55.175-27.982 86.417 0 81.455 66.249 147.722 147.681 147.722 76.288 0 140.952-59.537 147.186-135.539 0.33-4.076 0.514-8.172 0.514-12.206 0-1.151-0.020-2.284-0.041-3.498-1.563-68.141-49.15-126.011-115.728-140.747-5.081-1.133-10.287-1.997-15.473-2.552-5.39-0.616-10.924-0.926-16.417-0.926-19.567 0-38.576 3.787-56.537 11.278-1.997 0.803-3.951 1.667-5.782 2.552l-2.675 1.296-0.020 0.041z" />
</font>
</defs>
</svg>
