<svg width="50" height="50" viewBox="0 0 50 50" fill="none" xmlns="http://www.w3.org/2000/svg">
<mask id="mask0_2004_27411" style="mask-type:luminance" maskUnits="userSpaceOnUse" x="3" y="7" width="45" height="36">
<path d="M3 7.61914H47.0029V42.3806H3V7.61914Z" fill="white"/>
</mask>
<g mask="url(#mask0_2004_27411)">
<path d="M9.8845 7.64258C8.23596 7.64258 7.37993 7.95168 6.96716 8.32356C6.55468 8.69578 6.38546 9.24884 6.38546 10.2161V24.5713V24.5904H7.23021V24.1459C7.23021 22.8955 7.92585 21.8099 8.94251 21.2237C8.94149 21.2111 8.94081 21.1981 8.94081 21.1855V15.2072C8.94081 14.8114 8.91522 14.0925 9.20999 13.3576C9.50613 12.6227 10.3379 11.8899 11.458 11.8899H21.6095C22.7023 11.8899 23.5446 12.5047 23.8705 13.1955C24.197 13.8864 24.1721 14.5585 24.1714 14.9311L24.1588 20.7607H25.863V15.2074C25.863 14.8117 25.8374 14.0928 26.1322 13.3579C26.4283 12.623 27.2601 11.8901 28.3801 11.8901H38.5378C39.6306 11.8901 40.4664 12.5049 40.7922 13.1958C41.1187 13.8867 41.0938 14.5587 41.0931 14.9313L41.0805 21.1857C41.0795 21.2017 41.0788 21.2178 41.0774 21.2338C42.0849 21.8227 42.7731 22.9024 42.7731 24.1461V24.5906H43.6178V24.5715V10.5918C43.6178 9.42093 43.4268 8.74229 43.0245 8.34245C42.6219 7.94226 41.8178 7.64339 40.2245 7.64339L9.8845 7.64258ZM11.4563 13.5763C10.9032 13.5763 10.8974 13.6862 10.7753 13.9895C10.6538 14.2928 10.6313 14.812 10.6313 15.2074V20.7611H17.5005C18.6035 20.7866 18.6035 22.428 17.5005 22.4536H10.6132C9.66106 22.4536 8.92068 23.194 8.92068 24.1462V25.3908C8.92307 25.4259 8.92307 25.4614 8.92068 25.4965V33.03C8.92068 33.9822 9.66103 34.7226 10.6132 34.7226H39.3875C40.3397 34.7226 41.0801 33.9822 41.0801 33.03V24.1466C41.0801 23.1944 40.3397 22.454 39.3875 22.454H20.7718C19.6176 22.4796 19.6176 20.7359 20.7718 20.7615H22.4644L22.477 14.9271C22.4777 14.5681 22.4449 14.1451 22.3398 13.9206C22.2341 13.6961 22.2157 13.5767 21.6094 13.5767L11.4563 13.5763ZM28.3793 13.5763C27.8263 13.5763 27.8273 13.6862 27.7048 13.9895C27.5834 14.2928 27.5544 14.812 27.5544 15.2074V20.7611H39.3872L39.3999 14.9266C39.4006 14.5677 39.3678 14.1447 39.2627 13.9202C39.157 13.6957 39.1453 13.5763 38.5387 13.5763H28.3793ZM4.69265 26.2834C3.74046 26.2834 3.00008 27.0238 3.00008 27.976V37.2647C3.00008 37.7481 3.36616 38.1094 3.8496 38.1094H46.1599C46.6433 38.1094 47.0029 37.7484 47.0029 37.2647V27.976C47.0029 27.0238 46.2626 26.2834 45.3103 26.2834H42.7734V33.0301C42.7734 34.8909 41.249 36.4153 39.3882 36.4153H10.614C8.75318 36.4153 7.22883 34.8909 7.22883 33.0301V26.2834H4.69265ZM3.00008 39.643V40.6628C3.00008 41.615 3.74043 42.357 4.69265 42.357H45.3103C46.2624 42.357 47.0028 41.6153 47.0028 40.6628V39.6448C46.7374 39.7399 46.4563 39.8017 46.1598 39.8017H3.84952C3.55099 39.8017 3.26748 39.7393 3 39.6431L3.00008 39.643Z" fill="#C40D3C"/>
</g>
</svg>
