<svg width="50" height="50" viewBox="0 0 50 50" fill="none" xmlns="http://www.w3.org/2000/svg">
<mask id="mask0_2004_27403" style="mask-type:luminance" maskUnits="userSpaceOnUse" x="5" y="8" width="41" height="34">
<path d="M5 8.88184H45.0029V41.1186H5V8.88184Z" fill="white"/>
</mask>
<g mask="url(#mask0_2004_27403)">
<path d="M38.5701 8.92188C38.4938 8.92188 38.4179 8.93552 38.3456 8.95816C37.8196 9.01958 37.3652 9.27639 37.0414 9.61787C36.6713 10.0081 36.4291 10.5095 36.4291 11.0688V20.3539H34.2487C33.9109 16.8742 31.1266 14.062 27.4788 13.1669C27.3532 11.908 26.2878 10.9055 24.9985 10.9055C23.7098 10.9055 22.6493 11.907 22.5237 13.1653C18.8747 14.0592 16.0913 16.8724 15.7538 20.3536H13.5734V11.0684C13.5734 10.5092 13.3309 10.0083 12.9612 9.61756C12.5911 9.22706 12.0573 8.93272 11.4324 8.93272C10.8074 8.93272 10.2733 9.22706 9.9036 9.61756C9.53358 10.0084 9.28701 10.5092 9.28701 11.0684V33.924H7.32557C6.09454 33.924 5 34.8426 5 36.0653C5 37.2879 6.09454 38.2051 7.32557 38.2051H9.14313C9.12701 38.3214 9.1084 38.4374 9.1084 38.5581C9.1084 39.9302 10.2346 41.0636 11.6067 41.0636C12.9789 41.0636 14.1066 39.9303 14.1066 38.5581C14.1066 38.4371 14.0877 38.3217 14.0703 38.2051H35.7301C35.7111 38.3282 35.691 38.452 35.691 38.5804C35.691 39.9525 36.8187 41.0787 38.1908 41.0787C39.563 41.0787 40.6892 39.9525 40.6892 38.5804C40.6892 38.4523 40.6703 38.3282 40.6516 38.2051H42.6773C43.9084 38.2051 45.0029 37.2876 45.0029 36.0653C45.0029 34.8427 43.9084 33.924 42.6773 33.924H40.7159V16.7837C41.6334 16.7843 42.7242 16.7859 43.5743 16.7784V18.207C43.5526 19.1813 45.025 19.1813 45.0029 18.207V16.7576C45.0029 16.6621 45.0044 16.5322 44.9706 16.3516C44.9371 16.1714 44.841 15.923 44.654 15.745C44.2799 15.3886 43.8349 15.3545 43.2409 15.3545H40.7158V11.069C40.7158 10.8156 40.6591 10.5764 40.5691 10.3519H43.574V11.7805C43.5523 12.7547 45.0246 12.7547 45.0026 11.7805V10.3311C45.0026 10.2356 45.0041 10.1056 44.9703 9.92509C44.9368 9.74489 44.8407 9.49645 44.6536 9.31842C44.2796 8.96174 43.8345 8.92235 43.2405 8.92235L38.5701 8.92188ZM24.9982 12.334C25.4141 12.334 25.7658 12.5647 25.9454 12.9047C25.6337 12.8764 25.3177 12.8619 24.9982 12.8615C24.6803 12.8615 24.3654 12.8752 24.0553 12.9034C24.2333 12.5644 24.5829 12.3343 24.9982 12.3343V12.334ZM13.5732 21.7819H36.4287V23.2104H13.5732V21.7819ZM7.32505 35.3523H42.6767C43.2263 35.3523 43.5737 35.7049 43.5737 36.065C43.5737 36.4251 43.2263 36.7821 42.6767 36.7821H39.9985C39.9693 36.7799 39.9399 36.7793 39.9104 36.7805C39.4607 36.35 38.8565 36.0802 38.1903 36.0802C37.5237 36.0802 36.9171 36.3497 36.4673 36.7805H13.3482C12.8966 36.3379 12.2828 36.0594 11.6058 36.0594C10.9265 36.0594 10.3072 36.3364 9.85489 36.7821H7.32431C6.7747 36.7821 6.42732 36.4251 6.42732 36.065C6.42732 35.7049 6.7747 35.3523 7.32431 35.3523L7.32505 35.3523ZM11.6062 37.488C12.2063 37.488 12.6763 37.9579 12.6763 38.5581C12.6763 39.1583 12.2064 39.6337 11.6062 39.6337C11.006 39.6337 10.5361 39.1582 10.5361 38.5581C10.5361 37.9579 11.006 37.488 11.6062 37.488ZM38.1904 37.5097C38.7905 37.5097 39.266 37.9808 39.266 38.581C39.266 39.1811 38.7905 39.6511 38.1904 39.6511C37.5902 39.6511 37.1191 39.1812 37.1191 38.581C37.1191 37.9808 37.5902 37.5097 38.1904 37.5097Z" fill="#C40D3C"/>
</g>
</svg>
