<svg width="50" height="50" viewBox="0 0 50 50" fill="none" xmlns="http://www.w3.org/2000/svg">
<path d="M9.21956 41.4364H40.7782H40.7778C40.9521 41.4364 41.1196 41.3674 41.2428 41.2437C41.366 41.1205 41.4354 40.9535 41.4354 40.7787V38.1489C41.4354 37.9745 41.366 37.8074 41.2428 37.6842C41.1196 37.5606 40.9521 37.4916 40.7778 37.4916H38.8056V17.7679H40.7778C41.0437 17.7679 41.2836 17.6077 41.3851 17.3621C41.4869 17.1164 41.4309 16.8337 41.2428 16.6457L33.3532 8.75612C33.23 8.63291 33.0629 8.56348 32.8886 8.56348H17.1093C16.935 8.56348 16.7679 8.6329 16.6447 8.75612L8.75514 16.6457C8.56707 16.8337 8.511 17.1164 8.61285 17.3621C8.71433 17.6077 8.95427 17.7679 9.22016 17.7679H11.1923V37.4916H9.22016C9.04582 37.4916 8.87836 37.5606 8.75515 37.6842C8.63193 37.8074 8.5625 37.9745 8.5625 38.1492V40.7791V40.7787C8.5625 41.1419 8.85699 41.4364 9.22016 41.4364H9.21956ZM32.8885 20.3973C33.4859 20.3958 34.0516 20.6655 34.4262 21.1309C34.8008 21.5967 34.9435 22.2071 34.8138 22.7903C34.6845 23.3735 34.2969 23.8664 33.7606 24.1296C33.4905 24.2673 33.1918 24.3402 32.8885 24.3421C32.1836 24.3421 31.5324 23.9664 31.1803 23.356C30.8278 22.7456 30.8278 21.9938 31.1803 21.3834C31.5324 20.7734 32.1835 20.3973 32.8885 20.3973ZM24.9986 20.3973C25.522 20.3973 26.0236 20.6052 26.3932 20.9753C26.7632 21.3449 26.9711 21.8465 26.9711 22.3699C26.9711 22.8929 26.7632 23.3945 26.3932 23.7645C26.0236 24.1342 25.5219 24.3421 24.9986 24.3421C24.4756 24.3421 23.974 24.1342 23.6039 23.7645C23.2343 23.3945 23.0264 22.8929 23.0264 22.3695C23.0268 21.8469 23.2351 21.3453 23.6047 20.9757C23.9744 20.606 24.476 20.3981 24.9986 20.3973ZM21.7115 36.6151V31.5744C21.7118 31.0518 21.9201 30.5502 22.2898 30.1805C22.6594 29.8109 23.161 29.603 23.684 29.6022H26.3139H26.3135C26.8365 29.603 27.3381 29.8109 27.7077 30.1805C28.0774 30.5502 28.2857 31.0518 28.2861 31.5744V37.4914L21.7114 37.4918L21.7115 36.6151ZM17.109 20.3973C17.814 20.3973 18.4652 20.7735 18.8172 21.3835C19.1697 21.9938 19.1697 22.7457 18.8172 23.356C18.4651 23.9664 17.814 24.3422 17.109 24.3422C16.8057 24.3403 16.5071 24.2674 16.2366 24.1297C15.7002 23.8661 15.3131 23.3736 15.1834 22.7903C15.0541 22.2071 15.1967 21.5967 15.5713 21.1309C15.9459 20.6656 16.5116 20.3958 17.109 20.3973Z" fill="#C40D3C"/>
</svg>
