<svg width="50" height="50" viewBox="0 0 50 50" fill="none" xmlns="http://www.w3.org/2000/svg">
<mask id="mask0_2004_27394" style="mask-type:luminance" maskUnits="userSpaceOnUse" x="10" y="6" width="30" height="36">
<path d="M10 6.17578H40V41.8227H10V6.17578Z" fill="white"/>
</mask>
<g mask="url(#mask0_2004_27394)">
<path d="M27.8385 6.17578C26.7915 6.17578 25.9264 7.0409 25.9264 8.08779V11.2693H17.5852C17.5636 11.2679 17.5412 11.2679 17.5191 11.2693C16.6902 11.3309 16.7541 12.5666 17.5852 12.5423H25.9264V16.5021C25.0036 16.3636 24.0954 16.1787 23.2013 15.9775C21.6193 15.6215 20.0701 15.2233 18.5627 15.0897C17.1948 14.9684 15.8624 15.0729 14.5769 15.6182L12.0195 12.5423H14.4699C15.3381 12.5616 15.3381 11.2494 14.4699 11.2693H10.7849C10.0356 11.2717 9.89017 11.9934 10.2802 12.4453L16.8283 20.3139C17.2213 20.7865 17.6539 21.9949 18.3935 23.1062C19.1154 24.1908 20.2934 25.2048 22.1109 25.2532V25.2726V34.4226C21.7886 34.5677 21.5194 34.7686 21.3116 34.9894C20.764 35.5709 20.5197 36.2423 20.3343 36.4938L17.1479 40.8065C16.9055 41.1459 17.0041 41.8222 17.6575 41.8222H30.2419C31.0084 41.8208 31.1136 41.0765 30.8561 40.7567L27.7205 36.5681C27.5533 36.3448 27.3184 35.6206 26.7531 34.9991C26.5423 34.7672 26.2615 34.5599 25.9264 34.4123V25.2722C25.9262 25.265 25.9259 25.2553 25.9251 25.2473C27.676 25.1699 28.8321 24.168 29.5579 23.0965C30.3133 21.9816 30.7707 20.7685 31.1792 20.2818L34.9773 15.7527C36.6063 16.0036 37.9097 15.5216 38.7257 14.6438C39.586 13.7179 39.934 12.4523 39.934 11.2696C39.934 9.83743 39.3716 8.68243 38.5241 7.92896C37.6767 7.17578 36.5707 6.81514 35.4745 6.81514C33.1849 6.81514 31.02 8.77611 31.02 11.2696L27.1998 11.2702V8.08871C27.1998 7.72499 27.4751 7.44971 27.8388 7.44971H28.4728C28.8365 7.44971 29.1118 7.72499 29.1118 8.08871V8.72274C29.0925 9.5909 30.4047 9.5909 30.3848 8.72274V8.08871C30.3848 7.04176 29.5197 6.17671 28.4728 6.17671L27.8385 6.17578ZM35.4743 8.08779C36.2877 8.08779 37.0925 8.36224 37.6774 8.88215C38.2622 9.40206 38.6597 10.1552 38.6597 11.2693C38.6597 12.196 38.3675 13.1576 37.7957 13.7731C37.3756 14.2252 36.8115 14.5381 35.9768 14.5599L37.7907 12.398C38.1962 11.8168 37.7344 11.2759 37.1915 11.2693H32.2932C32.2932 9.54406 33.9452 8.08779 35.4747 8.08779H35.4743ZM23.3788 25.2621H24.6518V25.2718V34.1904H23.3788V25.2718V25.2621Z" fill="#C40D3C"/>
</g>
</svg>
