<svg width="50" height="50" viewBox="0 0 50 50" fill="none" xmlns="http://www.w3.org/2000/svg">
<path d="M30.3345 27.4028C26.3628 27.4228 25.7203 29.8723 25.5062 31.9434L25.4089 32.8595L24.6106 32.8595L24.5133 31.9434C24.2991 29.8723 23.6372 27.4228 19.8018 27.4028C19.1593 26.0486 18.8867 24.9532 18.8867 23.7185C18.8867 20.6318 21.3593 17.744 25.0194 17.744C28.6796 17.744 31.1132 20.6117 31.1132 23.7385C31.1132 24.9532 30.9964 26.0486 30.3345 27.4028ZM24.9806 14C18.9452 14 14 19.0584 14 25.2519C14 31.4654 18.9452 36.5238 24.9806 36.5238C31.0743 36.5238 36 31.4654 36 25.2519C36 19.0585 31.0743 14 24.9806 14Z" fill="#C40D3C"/>
</svg>
