<svg width="50" height="50" viewBox="0 0 50 50" fill="none" xmlns="http://www.w3.org/2000/svg">
<path d="M19.3533 26.969C17.5753 26.969 16.3713 26.283 15.5312 25.275L17.0153 23.861C17.6873 24.631 18.3733 25.037 19.3813 25.037C20.2073 25.037 20.7673 24.575 20.7673 23.847V23.819C20.7673 23.021 20.0673 22.573 18.8493 22.573H17.9533L17.6172 21.201L19.9552 18.849H16.1053V17.001H22.7273V18.625L20.2493 20.991C21.5793 21.215 22.8813 21.901 22.8813 23.735V23.763C22.8813 25.611 21.5373 26.969 19.3533 26.969Z" fill="#1A1919"/>
<path d="M24.8706 26.801V17.001H28.6926C31.7726 17.001 33.9006 19.115 33.9006 21.873V21.901C33.9006 24.659 31.7726 26.801 28.6926 26.801H24.8706ZM28.6926 18.947H27.0266V24.855H28.6926C30.4426 24.855 31.6466 23.665 31.6466 21.929V21.901C31.6466 20.165 30.4426 18.947 28.6926 18.947Z" fill="#1A1919"/>
<path d="M13.6545 25.8474L13.777 26.8269C12.2272 27.6545 11.1494 28.4222 13.1931 29.6576C17.5148 32.2763 31.7954 32.3363 36.0089 29.5096C37.8579 28.2702 36.4811 27.5466 35.1979 26.8229L35.4142 25.8074C38.1283 26.647 39.1843 29.0019 36.2071 30.7291C31.7161 33.3358 15.2044 33.9435 11.5928 29.8295C9.62839 27.5946 13.1319 25.4716 13.6509 25.8434L13.6545 25.8474Z" fill="#1A1919"/>
</svg>
