<svg width="30" height="30" viewBox="0 0 30 30" fill="none" xmlns="http://www.w3.org/2000/svg">
<path d="M15.2354 6.88086C17.7636 5.03969 21.2364 5.03969 23.7646 6.88086C24.2242 7.21555 24.5 7.74552 24.5 8.31348V22.1387C24.5 23.4133 23.1367 24.1946 22.0137 23.6494C20.4318 22.8813 18.5682 22.8813 16.9863 23.6494L15.3594 24.4395C15.244 24.4955 15.1186 24.5099 15 24.4902C14.8814 24.5099 14.756 24.4955 14.6406 24.4395L13.0137 23.6494C11.4318 22.8813 9.56819 22.8813 7.98633 23.6494C6.86333 24.1946 5.5 23.4133 5.5 22.1387V8.31348C5.50003 7.74552 5.77582 7.21555 6.23535 6.88086C8.76359 5.03969 12.2364 5.03969 14.7646 6.88086C14.8501 6.94313 14.9278 7.01411 15 7.08887C15.0722 7.01411 15.1499 6.94313 15.2354 6.88086ZM14.1758 7.68945C11.9984 6.10381 9.00159 6.10381 6.82422 7.68945C6.61725 7.8402 6.50003 8.07239 6.5 8.31348V22.1387C6.5 22.628 7.04814 22.9936 7.5498 22.75C9.4074 21.8481 11.5926 21.8481 13.4502 22.75L14.5 23.2598V8.31348C14.5 8.07239 14.3828 7.8402 14.1758 7.68945ZM23.1758 7.68945C20.9984 6.10381 18.0016 6.10381 15.8242 7.68945C15.6172 7.8402 15.5 8.07239 15.5 8.31348V23.2598L16.5498 22.75C18.4074 21.8481 20.5926 21.8481 22.4502 22.75C22.9519 22.9936 23.5 22.628 23.5 22.1387V8.31348C23.5 8.07239 23.3828 7.8402 23.1758 7.68945Z" fill="white"/>
</svg>
