<svg width="50" height="50" viewBox="0 0 50 50" fill="none" xmlns="http://www.w3.org/2000/svg">
<g clip-path="url(#clip0_2004_27227)">
<path d="M24.5502 15.1787C20.0135 15.1787 16.3359 18.8562 16.3359 23.393C16.3359 25.6606 17.2547 27.7137 18.7407 29.2001C20.227 30.6873 23.7288 32.8394 23.9342 35.0984C23.9649 35.4371 24.2102 35.7144 24.5502 35.7144C24.8903 35.7144 25.1355 35.4371 25.1663 35.0984C25.3717 32.8394 28.8734 30.6873 30.3598 29.2001C31.8457 27.7137 32.7645 25.6606 32.7645 23.393C32.7645 18.8562 29.087 15.1787 24.5502 15.1787Z" fill="#C40D3C"/>
<path d="M24.5496 26.1626C26.264 26.1626 27.6538 24.7727 27.6538 23.0583C27.6538 21.3439 26.264 19.9541 24.5496 19.9541C22.8351 19.9541 21.4453 21.3439 21.4453 23.0583C21.4453 24.7727 22.8351 26.1626 24.5496 26.1626Z" fill="white"/>
</g>
<defs>
<clipPath id="clip0_2004_27227">
<rect width="20.5357" height="20.5357" fill="white" transform="translate(14.2812 15.1787)"/>
</clipPath>
</defs>
</svg>
