<svg width="50" height="50" viewBox="0 0 50 50" fill="none" xmlns="http://www.w3.org/2000/svg">
<path d="M29.2646 19.1494C29.4642 18.9499 29.7878 18.9499 29.9873 19.1494C30.1864 19.3489 30.1864 19.6717 29.9873 19.8711L25.292 24.5664L29.9893 29.2637C30.1887 29.4632 30.1887 29.7868 29.9893 29.9863C29.7898 30.1856 29.466 30.1857 29.2666 29.9863L24.5693 25.2881L19.8721 29.9863C19.6726 30.1858 19.3489 30.1858 19.1494 29.9863C18.9501 29.7868 18.95 29.4631 19.1494 29.2637L23.8467 24.5654L19.1523 19.8711C18.9528 19.6716 18.9528 19.3479 19.1523 19.1484C19.3518 18.9493 19.6746 18.9493 19.874 19.1484L24.5693 23.8438L29.2646 19.1494Z" fill="#1A1919"/>
</svg>
