<svg width="16" height="16" viewBox="0 0 16 16" fill="none" xmlns="http://www.w3.org/2000/svg">
<path d="M11.1974 11.9997C11.9441 11.9997 12.3175 11.9997 12.6027 11.8543C12.8536 11.7265 13.0576 11.5225 13.1854 11.2717C13.3307 10.9864 13.3307 10.6131 13.3307 9.86634V3.46634C13.3307 2.7196 13.3307 2.34624 13.1854 2.06102C13.0576 1.81014 12.8536 1.60616 12.6027 1.47833C12.3175 1.33301 11.9441 1.33301 11.1974 1.33301H7.46406C6.71733 1.33301 6.34396 1.33301 6.05874 1.47833C5.80786 1.60616 5.60389 1.81014 5.47605 2.06102C5.33073 2.34624 5.33073 2.7196 5.33073 3.46634M4.7974 14.6663H8.53073C9.27747 14.6663 9.65083 14.6663 9.93605 14.521C10.1869 14.3932 10.3909 14.1892 10.5187 13.9383C10.6641 13.6531 10.6641 13.2797 10.6641 12.533V6.13301C10.6641 5.38627 10.6641 5.0129 10.5187 4.72769C10.3909 4.4768 10.1869 4.27283 9.93605 4.145C9.65083 3.99967 9.27747 3.99967 8.53073 3.99967H4.7974C4.05066 3.99967 3.67729 3.99967 3.39208 4.145C3.14119 4.27283 2.93722 4.4768 2.80939 4.72769C2.66406 5.0129 2.66406 5.38627 2.66406 6.13301V12.533C2.66406 13.2797 2.66406 13.6531 2.80939 13.9383C2.93722 14.1892 3.14119 14.3932 3.39208 14.521C3.67729 14.6663 4.05066 14.6663 4.7974 14.6663Z" stroke="#1A1919"/>
</svg>
