<svg width="16" height="16" viewBox="0 0 16 16" fill="none" xmlns="http://www.w3.org/2000/svg">
<path d="M8.53027 3.5C8.89525 3.5 9.19992 3.49932 9.44727 3.51953C9.70035 3.54023 9.93838 3.58474 10.1631 3.69922C10.5079 3.87497 10.7881 4.15611 10.9639 4.50098C11.0784 4.72571 11.1238 4.96368 11.1445 5.2168C11.1647 5.46405 11.1641 5.76805 11.1641 6.13281V12.5332C11.1641 12.8979 11.1647 13.202 11.1445 13.4492C11.1239 13.7023 11.0783 13.9403 10.9639 14.165C10.7882 14.5099 10.5079 14.791 10.1631 14.9668C9.9384 15.0813 9.70033 15.1258 9.44727 15.1465C9.19992 15.1667 8.89525 15.166 8.53027 15.166H4.79785C4.43288 15.166 4.12823 15.1667 3.88086 15.1465C3.62771 15.1258 3.38979 15.0813 3.16504 14.9668C2.82008 14.791 2.54003 14.51 2.36426 14.165C2.24977 13.9403 2.20428 13.7024 2.18359 13.4492C2.16343 13.2019 2.16406 12.898 2.16406 12.5332V6.13281C2.16406 5.76805 2.16341 5.46405 2.18359 5.2168C2.2043 4.9637 2.24978 4.72569 2.36426 4.50098C2.54004 4.15619 2.82021 3.87492 3.16504 3.69922C3.38972 3.58485 3.62781 3.54021 3.88086 3.51953C4.12822 3.49935 4.4329 3.5 4.79785 3.5H8.53027ZM4.79785 4.5C4.41646 4.5 4.15912 4.50051 3.96191 4.5166C3.77125 4.53221 3.67947 4.56016 3.61914 4.59082C3.4625 4.67065 3.33478 4.79848 3.25488 4.95508C3.22421 5.0154 3.19628 5.10711 3.18066 5.29785C3.16456 5.49501 3.16406 5.75148 3.16406 6.13281V12.5332C3.16406 12.9145 3.16457 13.171 3.18066 13.3682C3.19627 13.559 3.22422 13.6506 3.25488 13.7109C3.33476 13.8677 3.46237 13.9953 3.61914 14.0752C3.67946 14.1059 3.77097 14.1338 3.96191 14.1494C4.15913 14.1655 4.41642 14.166 4.79785 14.166H8.53027C8.91171 14.166 9.16901 14.1655 9.36621 14.1494C9.55705 14.1338 9.6487 14.1059 9.70898 14.0752C9.86558 13.9953 9.99343 13.8676 10.0732 13.7109C10.1039 13.6506 10.1319 13.5587 10.1475 13.3682C10.1635 13.171 10.1641 12.9145 10.1641 12.5332V6.13281C10.1641 5.75148 10.1636 5.49501 10.1475 5.29785C10.1318 5.10708 10.1039 5.01541 10.0732 4.95508C9.99338 4.7984 9.86565 4.6707 9.70898 4.59082C9.64869 4.5601 9.55709 4.53225 9.36621 4.5166C9.16901 4.50049 8.91171 4.5 8.53027 4.5H4.79785ZM11.1973 0.833008C11.5622 0.833007 11.8669 0.83233 12.1143 0.852539C12.3673 0.873256 12.6054 0.918743 12.8301 1.0332C13.1747 1.20896 13.4552 1.48929 13.6309 1.83398C13.7454 2.0587 13.7898 2.2967 13.8105 2.5498C13.8308 2.79715 13.8311 3.10182 13.8311 3.4668V9.86621C13.8311 10.2312 13.8307 10.5358 13.8105 10.7832C13.7899 11.0361 13.7452 11.2744 13.6309 11.499C13.4552 11.8436 13.1746 12.1241 12.8301 12.2998C12.6055 12.4142 12.3672 12.4588 12.1143 12.4795C11.8669 12.4997 11.5622 12.5 11.1973 12.5V11.5C11.5786 11.5 11.8351 11.4995 12.0322 11.4834C12.2234 11.4678 12.3156 11.4399 12.376 11.4092C12.5325 11.3293 12.6604 11.2015 12.7402 11.0449C12.7709 10.9845 12.7988 10.8922 12.8145 10.7012C12.8305 10.504 12.8311 10.2475 12.8311 9.86621V3.4668C12.8311 3.08536 12.8306 2.82806 12.8145 2.63086C12.7988 2.44015 12.7709 2.34838 12.7402 2.28809C12.6604 2.13145 12.5326 2.00371 12.376 1.92383C12.3156 1.89308 12.2234 1.86525 12.0322 1.84961C11.8351 1.83351 11.5786 1.83301 11.1973 1.83301H7.46387C7.08258 1.83301 6.82608 1.83352 6.62891 1.84961C6.43834 1.86519 6.3465 1.89322 6.28613 1.92383C6.12949 2.00364 6.00178 2.1315 5.92188 2.28809C5.89116 2.34837 5.86331 2.44002 5.84766 2.63086C5.83154 2.82806 5.83105 3.08536 5.83105 3.4668H4.83105C4.83105 3.10182 4.83038 2.79715 4.85059 2.5498C4.87129 2.29674 4.91581 2.05867 5.03027 1.83398C5.20605 1.4892 5.4872 1.2089 5.83203 1.0332C6.05674 0.918814 6.29477 0.873217 6.54785 0.852539C6.79512 0.832378 7.09913 0.833008 7.46387 0.833008H11.1973Z" fill="#1A1919"/>
</svg>
