<svg width="100" height="101" viewBox="0 0 100 101" fill="none" xmlns="http://www.w3.org/2000/svg">
<path d="M61.0573 40.0416H37.7942V61.0145H61.0573V40.0416Z" fill="#1A1919"/>
<path d="M36.0385 40.0416V60.6967C34.4847 61.5018 31.3244 60.9976 31.004 58.9892V41.855C30.9118 41.2279 32.4524 40.0416 32.8562 40.0416H36.0385Z" fill="#1A1919"/>
<path d="M62.813 40.0416C64.7662 40.0246 67.1452 39.6772 67.7685 41.9355C67.65 47.2063 68.2513 52.9389 67.8738 58.163C67.6544 61.1713 65.3895 61.0611 62.8174 61.0145V40.0416H62.813Z" fill="#1A1919"/>
<path d="M57.7653 38.5586H55.1318V35.8046H43.5002V38.5586H40.8667V34.8513C40.8667 33.8344 42.9779 33.3133 43.8206 33.254C46.5903 33.0548 52.8099 32.9362 55.4434 33.2836C56.1281 33.3726 57.7653 34.1437 57.7653 34.8555V38.5629V38.5586Z" fill="#1A1919"/>
</svg>
