<svg width="115" height="115" viewBox="0 0 115 115" fill="none" xmlns="http://www.w3.org/2000/svg">
<path d="M74.1347 36.3298C74.1347 30.3864 70.9648 24.8949 65.8181 21.924C60.6714 18.9524 54.3305 18.9524 49.1838 21.924C44.0371 24.8949 40.8672 30.3864 40.8672 36.3298C40.8672 36.7307 41.026 37.115 41.3103 37.3984C41.5937 37.6827 41.9788 37.8415 42.3798 37.8415H51.4529C52.2882 37.8415 52.9646 37.1642 52.9646 36.3289C52.9646 35.4945 52.2882 34.8172 51.4529 34.8172H43.9759C44.3672 31.3173 46.1 28.1052 48.811 25.8557C51.5212 23.6069 54.9983 22.4962 58.5106 22.7577C62.0228 23.0182 65.2971 24.6309 67.645 27.2559C69.9928 29.881 71.2318 33.3143 71.1019 36.8344C70.9712 40.3536 69.4805 43.6859 66.9449 46.1294C64.4084 48.5738 61.0235 49.939 57.5016 49.939C57.3349 49.939 40.8673 50.1294 40.8673 66.5724V81.6949C40.8673 82.0959 41.0261 82.4802 41.3104 82.7644C41.5938 83.0478 41.9789 83.2067 42.3799 83.2067H72.6235C73.0245 83.2067 73.4097 83.0479 73.6931 82.7644C73.9764 82.4802 74.1353 82.0959 74.1353 81.6949L74.1347 36.3298ZM65.0617 69.5967C65.0652 71.4269 64.4027 73.1956 63.199 74.574C61.9952 75.9524 60.3316 76.8464 58.5172 77.0903C56.7037 77.3333 54.8628 76.9096 53.3379 75.8971L52.5211 76.7139C52.2377 76.999 51.8534 77.1587 51.4516 77.1596C51.0497 77.1605 50.6646 77.0008 50.3803 76.7165C50.096 76.4331 49.9372 76.0471 49.9372 75.6461C49.9381 75.2443 50.0987 74.8591 50.3829 74.5757L51.1998 73.7589C49.9048 71.8085 49.588 69.3667 50.3435 67.1504C51.098 64.9342 52.8386 63.1935 55.0551 62.4388C57.2714 61.6834 59.713 62.0001 61.6635 63.2951L62.4804 62.4783C62.7638 62.194 63.149 62.0343 63.5499 62.0343C63.9517 62.0343 64.336 62.194 64.6203 62.4774C64.9037 62.7608 65.0625 63.146 65.0625 63.5469C65.0625 63.9488 64.9028 64.3331 64.6185 64.6165L63.8017 65.4333H63.8026C64.6238 66.666 65.0617 68.1149 65.0617 69.5967Z" fill="#C40D3C"/>
<path d="M42.3789 86.2285H72.6226C73.4578 86.2285 74.1343 86.9059 74.1343 87.7411V93.7899C74.1343 94.1908 73.9755 94.5751 73.6912 94.8585C73.4078 95.1428 73.0235 95.3016 72.6226 95.3016H42.3789C41.5445 95.3016 40.8672 94.6251 40.8672 93.7899V87.7411C40.8672 86.9059 41.5445 86.2285 42.3798 86.2285H42.3789Z" fill="#C40D3C"/>
</svg>
