<svg width="115" height="115" viewBox="0 0 115 115" fill="none" xmlns="http://www.w3.org/2000/svg">
<path d="M34.8178 67.983V84.6935C34.8178 85.5288 35.4952 86.2052 36.3296 86.2052H54.4764C54.9415 86.2052 55.381 85.9903 55.6679 85.6235C55.9548 85.2568 56.0557 84.7777 55.9434 84.3259L51.0941 64.9304L55.9881 63.882V69.5718C55.9881 70.4061 56.6655 71.0835 57.4999 71.0835C58.3351 71.0835 59.0125 70.4062 59.0125 69.5718V63.2335L78.987 58.9527C79.6845 58.8035 80.1828 58.1876 80.1828 57.4743V45.3771C80.1828 44.6638 79.6845 44.047 78.987 43.8978L42.9551 36.1769C38.4874 34.2335 33.3926 34.3475 29.0161 36.4883C24.6396 38.6291 21.4223 42.5818 20.2141 47.3022C19.0068 52.0225 19.9299 57.0349 22.7401 61.0148C25.5504 64.9946 29.9653 67.5417 34.8173 67.9828L34.8178 67.983ZM36.3296 46.8891C37.5333 46.8891 38.6871 47.3672 39.5381 48.2174C40.3883 49.0685 40.8665 50.2222 40.8665 51.4251C40.8665 52.6288 40.3883 53.7826 39.5381 54.6336C38.6871 55.4838 37.5333 55.962 36.3305 55.962C35.1267 55.962 33.973 55.4838 33.1219 54.6336C32.2717 53.7825 31.7936 52.6288 31.7936 51.426C31.7953 50.2231 32.2735 49.0703 33.1237 48.2192C33.9739 47.369 35.1268 46.8908 36.3296 46.8891Z" fill="#C40D3C"/>
<path d="M85.5539 46.6356L94.627 40.5869L94.6279 40.586C95.3192 40.1219 95.5052 39.1857 95.0429 38.4917C94.5805 37.7986 93.6443 37.6099 92.9494 38.0697L83.8773 44.1184C83.1824 44.5817 82.9937 45.5205 83.457 46.2162C83.9202 46.9111 84.859 47.0989 85.5539 46.6356Z" fill="#C40D3C"/>
<path d="M93.7886 49.9141H84.7149C83.8805 49.9141 83.2031 50.5914 83.2031 51.4267C83.2031 52.262 83.8805 52.9384 84.7149 52.9384H93.7886C94.623 52.9384 95.3004 52.262 95.3004 51.4267C95.3004 50.5914 94.623 49.9141 93.7886 49.9141Z" fill="#C40D3C"/>
<path d="M85.5535 56.2151C85.2201 55.9923 84.8121 55.9115 84.4182 55.9905C84.0251 56.0686 83.6794 56.3002 83.4566 56.6345C82.9942 57.3294 83.182 58.2682 83.8769 58.7314L92.95 64.7802H92.9491C93.644 65.2434 94.5828 65.0557 95.0469 64.3608C95.5101 63.6659 95.3224 62.7271 94.6275 62.2638L85.5535 56.2151Z" fill="#C40D3C"/>
</svg>
