<svg width="115" height="115" viewBox="0 0 115 115" fill="none" xmlns="http://www.w3.org/2000/svg">
<mask id="mask0_416_44831" style="mask-type:luminance" maskUnits="userSpaceOnUse" x="14" y="27" width="88" height="61">
<path d="M14.0078 27.8008H101.004V87.2012H14.0078V27.8008Z" fill="white"/>
</mask>
<g mask="url(#mask0_416_44831)">
<path d="M46.6078 92.1006C45.7444 92.0945 45.0531 91.3809 45.0699 90.5175V85.862H42.0339C40.0097 85.8148 40.0097 82.8024 42.0339 82.7566H45.0699V78.1046H20.2305C16.8162 78.1046 14.0163 75.3046 14.0163 71.8903V42.6252C14.0169 42.6137 14.0176 42.6016 14.0196 42.5901V42.5787C13.9448 41.9736 14.2301 41.3801 14.7508 41.0624C18.2663 38.8965 22.3864 39.4523 25.6301 39.652C27.2516 39.7518 28.6735 39.7713 29.6306 39.5366C30.5878 39.3025 31.0356 39.0118 31.4289 38.1053C33.0605 34.3449 36.1377 32.8772 38.8931 32.9007C41.6478 32.9243 44.1402 34.0676 45.6895 34.7448C45.7421 34.7685 45.7981 34.7975 45.85 34.8265C54.2983 39.7349 61.1237 41.1041 66.3708 39.0907C68.339 38.2712 69.4931 41.2863 67.4811 41.9904C61.0004 44.4773 53.2198 42.6656 44.4098 37.5717C42.8666 36.8985 40.7135 36.0223 38.8687 36.0068C37.0084 35.9892 35.5258 36.4783 34.2826 39.3429C33.5183 41.1054 31.9663 42.1623 30.3765 42.5515C28.7867 42.9407 27.1172 42.8611 25.4357 42.7573C22.4153 42.5711 19.3934 42.3364 17.1257 43.3245V67.2211H45.0715V53.285C44.8564 53.2735 44.6452 53.2182 44.453 53.1211C42.9077 52.4459 40.7298 51.5542 38.8694 51.538C37.0091 51.5205 35.5291 52.0095 34.2867 54.8741C34.0399 55.463 33.4577 55.8414 32.819 55.8265C31.704 55.809 30.9729 54.6535 31.4301 53.637C33.0611 49.8766 36.139 48.4089 38.8944 48.4324C41.3288 48.456 43.5175 49.3369 45.0722 50.0127V48.5936C45.1194 46.57 48.1312 46.57 48.1776 48.5936V51.6989H69.9227V48.5936C69.9227 46.5208 73.0315 46.5208 73.0315 48.5936V52.2299C76.8634 50.9153 80.2245 49.9675 83.4494 49.867C87.0406 49.7557 90.4637 50.7614 93.8464 53.237C95.3337 54.0268 96.6099 54.8572 97.8713 55.5296V43.4281C95.7507 42.5472 94.0469 41.3149 92.3241 40.4077C92.2513 40.3726 92.1818 40.3301 92.115 40.2836C88.447 37.5625 86.555 36.7781 84.0236 36.9596C81.4915 37.141 78.0217 38.5271 72.0105 40.7294C69.9923 41.6117 68.8349 38.4454 70.9461 37.8176C76.9074 35.6336 80.4326 34.1037 83.8058 33.863C87.1447 33.6242 90.0303 34.8855 93.8507 37.7022C96.1252 38.911 97.9058 40.2587 99.9011 40.9021C100.662 41.1314 101.127 41.899 100.978 42.6794V57.6496C101.007 57.8249 101.007 58.0044 100.978 58.1804V71.8859C100.978 75.3002 98.1805 78.1001 94.766 78.1001H73.033V82.7529H76.0231C78.0473 82.8001 78.0473 85.8125 76.0231 85.8583H73.033V90.5138C73.0505 91.3954 72.3315 92.1144 71.4499 92.0969C70.5912 92.0793 69.9073 91.3724 69.9242 90.5138V85.8583H48.1791V90.5138C48.1966 91.3893 47.4864 92.1056 46.6109 92.0969L46.6078 92.1006ZM48.176 82.7506H69.9211V78.0978H48.176V82.7506ZM48.176 74.9957H69.9211V70.3314H48.176V74.9957ZM48.176 67.2253H69.9211V62.5698H48.176V67.2253ZM73.031 67.2253H97.8704V58.9638C95.7498 58.0829 94.046 56.8532 92.3232 55.9459C92.2497 55.9109 92.1809 55.867 92.1141 55.8185C89.1517 53.6203 86.579 52.883 83.5525 52.9767C80.6231 53.0678 77.2208 54.0404 73.0314 55.5123L73.031 67.2253ZM48.176 59.4644H69.9211V54.8123H48.176V59.4644Z" fill="#C40D3C"/>
</g>
</svg>
