<svg width="100" height="101" viewBox="0 0 100 101" fill="none" xmlns="http://www.w3.org/2000/svg">
<path d="M61.9219 49.0186C68.5255 48.7679 72.7032 57.0499 67.9725 62.1535C64.529 65.8712 57.3724 64.9346 55.1418 60.2946C54.4865 58.9372 54.8072 56.5107 52.8647 57.3054C53.0599 58.748 53.3387 60.2663 54.2495 61.4345L52.4465 62.4325L50.8478 70.3125L47.9666 70.199L46.3727 62.1819L42.7526 60.8433L41.2051 70.2747L36.6044 70.2936L34.6852 56.7567C34.3924 55.7634 31.0651 55.1627 31 53.8857L31.1208 42.1556L35.5124 40.5474L39.007 44.284L42.2832 40.5521L49.2585 45.9064L52.0979 43.1441L54.5005 43.4516L56.9123 56.8418C57.075 57.0878 57.3631 57.0452 57.6141 57.0736C58.4784 57.1824 62.9582 57.2108 63.33 56.6621C63.4694 56.454 63.5949 56.1182 63.4508 55.8769L61.9219 55.4039V49.0186Z" fill="#1A1919"/>
<path d="M38.1612 30.3924C43.8539 29.418 44.5464 37.6716 39.4345 38.0879C34.3227 38.5041 33.6767 31.1586 38.1612 30.3924Z" fill="#1A1919"/>
<path d="M46.8978 39.4737C43.7238 36.404 48.0224 31.764 51.6797 34.252C55.811 37.0615 50.662 43.111 46.8978 39.4737Z" fill="#1A1919"/>
<path d="M59.5426 65.8522C61.8615 65.5637 62.9675 68.6902 60.8438 69.7969C57.8464 71.3673 56.2617 66.2637 59.5426 65.8522Z" fill="#1A1919"/>
<path d="M64.4221 65.8522C66.7038 65.5684 67.8098 68.7091 65.7233 69.7969C62.6794 71.3909 61.2295 66.2448 64.4221 65.8522Z" fill="#1A1919"/>
</svg>
