<svg width="100" height="100" viewBox="0 0 100 100" fill="none" xmlns="http://www.w3.org/2000/svg">
<path d="M55.7569 36.3735L59.4366 35.439L61.8737 38.2858L64.5123 35.4533L67.7122 37.7298L68 45.8006L65.1503 46.9556L63.6679 57.2166H60.0698L58.4771 46.8933L57.436 46.6729L57.6375 52.9847L53.8763 54.9785L52.1301 67.9712L47.3566 68L45.6343 54.6238L41.8444 52.539V46.9077C41.5133 46.8502 41.4797 47.3342 41.427 47.5691C40.7601 50.6459 40.6978 53.9001 40.0597 56.9866L36.3273 57.2118L34.912 47.4828L32 45.5514L32.2447 36.479C33.2569 36.4119 34.7489 35.4198 35.6748 35.6882C36.2697 35.8559 37.8961 38.6979 38.4813 38.281C38.7692 37.6532 40.2324 35.5061 40.9472 35.6786C41.1343 35.7217 44.0224 37.6388 44.1231 37.8017C44.4398 38.3241 44.1567 39.3402 44.2479 39.9584L46.6034 39.2731L49.6738 42.8148L52.9984 39.2779L55.7569 41.1518V36.3592V36.3735Z" fill="#1A1919"/>
<path d="M48.4936 29.477C51.6695 28.8252 54.572 30.9818 53.3054 34.284C51.6695 38.535 44.411 36.7857 46.1045 31.6432C46.3923 30.7614 47.5869 29.6639 48.4936 29.477Z" fill="#1A1919"/>
<path d="M61.4611 28.0344C64.8193 27.5791 66.4025 31.7726 63.4089 33.1146C59.0192 35.0795 57.0762 28.6287 61.4611 28.0344Z" fill="#1A1919"/>
<path d="M37.7186 28.0392C40.7841 27.7181 42.444 31.279 39.532 32.9852C35.4494 35.3767 32.6477 28.5712 37.7186 28.0392Z" fill="#1A1919"/>
</svg>
