<svg width="20" height="20" viewBox="0 0 20 20" fill="none" xmlns="http://www.w3.org/2000/svg">
<path d="M10 2.5C13.5899 2.5 16.5 5.41015 16.5 9C16.5 9.92904 16.1885 10.9801 15.7305 12.0078C15.2689 13.0433 14.6413 14.0938 13.9697 15.0332C13.2988 15.9717 12.5734 16.8137 11.9102 17.4268C11.5791 17.7327 11.2529 17.9917 10.9482 18.1768C10.6572 18.3536 10.3263 18.5 10 18.5C9.67367 18.5 9.34278 18.3536 9.05176 18.1768C8.74708 17.9917 8.42091 17.7327 8.08984 17.4268C7.42655 16.8137 6.70124 15.9717 6.03027 15.0332C5.3587 14.0938 4.73106 13.0433 4.26953 12.0078C3.81148 10.9801 3.5 9.92904 3.5 9C3.5 5.41015 6.41015 2.5 10 2.5ZM10 3.5C6.96243 3.5 4.5 5.96243 4.5 9C4.5 9.72779 4.75105 10.6301 5.18359 11.6006C5.61262 12.5631 6.20392 13.5559 6.84473 14.4521C7.48605 15.3491 8.16739 16.1359 8.76953 16.6924C9.0712 16.9712 9.34281 17.1835 9.57129 17.3223C9.81328 17.4692 9.95135 17.5 10 17.5C10.0487 17.5 10.1867 17.4692 10.4287 17.3223C10.6572 17.1835 10.9288 16.9712 11.2305 16.6924C11.8326 16.1359 12.5139 15.3491 13.1553 14.4521C13.7961 13.5559 14.3874 12.5631 14.8164 11.6006C15.249 10.6301 15.5 9.72779 15.5 9C15.5 5.96243 13.0376 3.5 10 3.5ZM10 5.5C11.933 5.5 13.5 7.067 13.5 9C13.5 10.933 11.933 12.5 10 12.5C8.067 12.5 6.5 10.933 6.5 9C6.5 7.067 8.067 5.5 10 5.5ZM10 6.5C8.61929 6.5 7.5 7.61929 7.5 9C7.5 10.3807 8.61929 11.5 10 11.5C11.3807 11.5 12.5 10.3807 12.5 9C12.5 7.61929 11.3807 6.5 10 6.5Z" fill="#C40D3C"/>
</svg>
