<svg width="24" height="24" viewBox="0 0 24 24" fill="none" xmlns="http://www.w3.org/2000/svg">
<mask id="mask0_407_48151" style="mask-type:luminance" maskUnits="userSpaceOnUse" x="0" y="0" width="24" height="24">
<mask id="mask1_407_48151" style="mask-type:luminance" maskUnits="userSpaceOnUse" x="0" y="0" width="24" height="24">
<mask id="mask2_407_48151" style="mask-type:luminance" maskUnits="userSpaceOnUse" x="0" y="0" width="24" height="24">
<mask id="mask3_407_48151" style="mask-type:luminance" maskUnits="userSpaceOnUse" x="0" y="0" width="24" height="24">
<path d="M24 0H0V24H24V0Z" fill="white"/>
</mask>
<g mask="url(#mask3_407_48151)">
<path d="M12 24C18.6276 24 24 18.6276 24 12C24 5.3724 18.6276 0 12 0C5.3724 0 0 5.3724 0 12C0 18.6276 5.3724 24 12 24ZM6.7056 6.34441V10.4268C7.3272 9.68639 8.0712 9.31321 8.93519 9.31321C9.38039 9.31321 9.7788 9.3984 10.1364 9.5664C10.4952 9.7344 10.7628 9.94921 10.944 10.2096C11.1264 10.4736 11.2488 10.7616 11.3148 11.0796C11.3808 11.3964 11.4144 11.8884 11.4144 12.5568V16.9212H9.4836V12.99C9.4836 12.21 9.4488 11.7156 9.3756 11.5056C9.3024 11.2944 9.1728 11.1276 8.988 11.0064C8.802 10.8804 8.5704 10.8192 8.2908 10.8192C7.9716 10.8192 7.68359 10.8996 7.43399 11.058C7.17959 11.2176 6.99599 11.4576 6.87959 11.7768C6.76199 12.0972 6.7032 12.5688 6.7056 13.1952L6.7032 16.9224H4.7748V6.34559H6.7056V6.34441ZM14.3088 6.34441V10.4268C14.9304 9.68639 15.6744 9.31321 16.5384 9.31321C16.9812 9.31321 17.3832 9.3984 17.7408 9.5664C18.0972 9.7344 18.366 9.94921 18.546 10.2096C18.7284 10.4736 18.852 10.7616 18.9168 11.0796C18.9828 11.3964 19.0164 11.8884 19.0164 12.5568V16.9212H17.088V12.99C17.088 12.21 17.052 11.7156 16.9776 11.5056C16.9044 11.2944 16.776 11.1276 16.5888 11.0064C16.4052 10.8804 16.1712 10.8192 15.8916 10.8192C15.5724 10.8192 15.2856 10.8996 15.0348 11.058C14.7828 11.2176 14.5992 11.4576 14.4816 11.7768C14.3664 12.0972 14.3076 12.5688 14.3076 13.1952V16.9224H12.3792V6.34559H14.3076L14.3088 6.34441Z" fill="white"/>
</g>
</mask>
<g mask="url(#mask2_407_48151)">
<path d="M-131.281 -306H108.719V495.6H-131.281V-306Z" fill="white"/>
</g>
</mask>
<g mask="url(#mask1_407_48151)">
<path d="M73.44 -71.04H0V24H73.44V-71.04Z" fill="white"/>
</g>
</mask>
<g mask="url(#mask0_407_48151)">
<path d="M25.1969 -1.2002H-1.20312V25.1998H25.1969V-1.2002Z" fill="white"/>
</g>
</svg>
