<svg width="50" height="50" viewBox="0 0 50 50" fill="none" xmlns="http://www.w3.org/2000/svg">
<path d="M30.7002 17C31.1736 17 31.5888 16.9994 31.9307 17.0273C32.2842 17.0562 32.6465 17.1208 32.998 17.2998C33.5155 17.5635 33.9365 17.9845 34.2002 18.502C34.3792 18.8535 34.4438 19.2158 34.4727 19.5693C34.5006 19.9112 34.5 20.3264 34.5 20.7998V29.2002C34.5 29.6736 34.5006 30.0888 34.4727 30.4307C34.4438 30.7842 34.3792 31.1465 34.2002 31.498C33.9365 32.0155 33.5155 32.4365 32.998 32.7002C32.6465 32.8792 32.2842 32.9438 31.9307 32.9727C31.5888 33.0006 31.1736 33 30.7002 33H18.7998C18.3264 33 17.9112 33.0006 17.5693 32.9727C17.2158 32.9438 16.8535 32.8792 16.502 32.7002C15.9845 32.4365 15.5635 32.0155 15.2998 31.498C15.1208 31.1465 15.0562 30.7842 15.0273 30.4307C14.9994 30.0888 15 29.6736 15 29.2002V20.7998C15 20.3264 14.9994 19.9112 15.0273 19.5693C15.0562 19.2158 15.1208 18.8535 15.2998 18.502C15.5635 17.9845 15.9845 17.5635 16.502 17.2998C16.8535 17.1208 17.2158 17.0562 17.5693 17.0273C17.9112 16.9994 18.3264 17 18.7998 17H30.7002ZM26.4385 24.9541C25.4455 25.7264 24.0545 25.7264 23.0615 24.9541L17.002 20.2402C17.0002 20.3979 17 20.5815 17 20.7998V29.2002C17 29.7064 17.0008 30.026 17.0205 30.2676C17.0393 30.4975 17.0705 30.5681 17.082 30.5908C17.1539 30.7316 17.2684 30.8461 17.4092 30.918C17.4319 30.9295 17.5024 30.9607 17.7324 30.9795C17.974 30.9992 18.2936 31 18.7998 31H30.7002C31.2064 31 31.526 30.9992 31.7676 30.9795C31.9976 30.9607 32.0681 30.9295 32.0908 30.918C32.2316 30.8461 32.3461 30.7316 32.418 30.5908C32.4295 30.5681 32.4607 30.4976 32.4795 30.2676C32.4992 30.026 32.5 29.7064 32.5 29.2002V20.7998C32.5 20.5815 32.4988 20.3979 32.4971 20.2402L26.4385 24.9541ZM24.2891 23.375C24.5599 23.5856 24.9401 23.5856 25.2109 23.375L30.834 19H18.665L24.2891 23.375Z" fill="#1A1919"/>
</svg>
