<svg width="16" height="16" viewBox="0 0 16 16" fill="none" xmlns="http://www.w3.org/2000/svg">
<path d="M14.5 15C14.7761 15 15 15.2239 15 15.5C15 15.7761 14.7761 16 14.5 16H1.5C1.22386 16 1 15.7761 1 15.5C1 15.2239 1.22386 15 1.5 15H14.5ZM13 3C14.1046 3 15 3.89543 15 5V11L14.9893 11.2041C14.887 12.2128 14.0357 13 13 13H3L2.7959 12.9893C1.85435 12.8938 1.1062 12.1457 1.01074 11.2041L1 11V5C1 3.96435 1.78722 3.113 2.7959 3.01074L3 3H13ZM3 4C2.44772 4 2 4.44772 2 5V11C2 11.5523 2.44772 12 3 12H13C13.5523 12 14 11.5523 14 11V5C14 4.44772 13.5523 4 13 4H3ZM14.5 0C14.7761 0 15 0.223858 15 0.5C15 0.776142 14.7761 1 14.5 1H1.5C1.22386 1 1 0.776142 1 0.5C1 0.223858 1.22386 1.20798e-08 1.5 0H14.5Z" fill="#1A1919"/>
</svg>
