<svg width="100" height="101" viewBox="0 0 100 101" fill="none" xmlns="http://www.w3.org/2000/svg">
<path d="M62.8838 41.5195L66 58.7691L60.5347 60.132L59.0481 68.4137H55.7604L54.2642 60.1415L49.0944 58.4022L49.7805 53.6657L47.4362 54.7712L45.4826 68.4232L40.7273 68.4375L38.769 54.7903L35 52.5507L35.0334 40.1043L39.6076 38.6891L43.2241 42.463L46.5642 38.7081C47.0598 38.67 50.0712 41.4052 50.9717 41.6529C51.8723 41.9007 52.8872 41.0811 53.8401 41.367C54.6692 41.6196 56.6228 43.7972 57.328 43.8592L60.2727 41.1478L62.8838 41.5148V41.5195Z" fill="#1A1919"/>
<path d="M40.3366 35.0009C37.1537 32.0275 41.0227 26.7001 45.2682 28.9969C50.3475 31.7416 44.6536 39.0369 40.3366 35.0009Z" fill="#1A1919"/>
<path d="M56.6323 31.8035C60.7635 31.1364 62.8362 36.1302 59.3292 38.0696C54.2595 40.8762 51.2243 32.6755 56.6323 31.8035Z" fill="#1A1919"/>
</svg>
