<svg width="30" height="30" viewBox="0 0 30 30" fill="none" xmlns="http://www.w3.org/2000/svg">
<path d="M11 17C11.3978 17 11.7792 17.1581 12.0605 17.4395C12.3419 17.7208 12.5 18.1022 12.5 18.5C12.5 18.8978 12.3419 19.2792 12.0605 19.5605C11.7792 19.8419 11.3978 20 11 20H10.5V20.5C10.5 20.7761 10.2761 21 10 21C9.72386 21 9.5 20.7761 9.5 20.5V17.5C9.5 17.2239 9.72386 17 10 17H11ZM14.75 17C15.2804 17 15.789 17.2109 16.1641 17.5859C16.5391 17.961 16.75 18.4696 16.75 19C16.75 19.5304 16.5391 20.039 16.1641 20.4141C15.789 20.7891 15.2804 21 14.75 21H14C13.7239 21 13.5 20.7761 13.5 20.5V17.5C13.5 17.2239 13.7239 17 14 17H14.75ZM20 17C20.2761 17 20.5 17.2239 20.5 17.5C20.5 17.7761 20.2761 18 20 18H18.75V18.75H19.75C20.0261 18.75 20.25 18.9739 20.25 19.25C20.25 19.5261 20.0261 19.75 19.75 19.75H18.75V20.5C18.75 20.7761 18.5261 21 18.25 21C17.9739 21 17.75 20.7761 17.75 20.5V17.5C17.75 17.2239 17.9739 17 18.25 17H20ZM14.5 20H14.75L14.8486 19.9951C15.0776 19.9724 15.2929 19.8712 15.457 19.707C15.6446 19.5195 15.75 19.2652 15.75 19C15.75 18.7348 15.6446 18.4805 15.457 18.293C15.2929 18.1288 15.0776 18.0276 14.8486 18.0049L14.75 18H14.5V20ZM10.5 19H11C11.1326 19 11.2597 18.9473 11.3535 18.8535C11.4473 18.7597 11.5 18.6326 11.5 18.5C11.5 18.3674 11.4473 18.2403 11.3535 18.1465C11.2597 18.0527 11.1326 18 11 18H10.5V19ZM16.5332 9.00293C16.5616 9.0048 16.5893 9.00822 16.6162 9.01465C16.6391 9.02011 16.6617 9.02656 16.6836 9.03516C16.6912 9.03817 16.6986 9.04155 16.7061 9.04492C16.7273 9.0545 16.7478 9.06564 16.7676 9.07812C16.7735 9.08191 16.7794 9.08582 16.7852 9.08984C16.8096 9.10676 16.8332 9.12519 16.8545 9.14648L20.3545 12.6465C20.3587 12.6507 20.3621 12.6558 20.3662 12.6602C20.38 12.6749 20.3924 12.6907 20.4043 12.707C20.4108 12.716 20.417 12.725 20.4229 12.7344C20.4337 12.7515 20.4425 12.7696 20.4512 12.7881C20.4557 12.7976 20.461 12.8066 20.4648 12.8164C20.4874 12.8734 20.501 12.935 20.501 13V15.5C20.501 15.776 20.2769 15.9997 20.001 16C19.7248 16 19.501 15.7761 19.501 15.5V13.5H16.5C16.2239 13.5 16 13.2761 16 13V10H10.5V15.5C10.5 15.7761 10.2761 16 10 16C9.72386 16 9.5 15.7761 9.5 15.5V10C9.5 9.73478 9.60543 9.48051 9.79297 9.29297C9.98051 9.10543 10.2348 9 10.5 9H16.501L16.5332 9.00293ZM17 12.5H18.793L17 10.707V12.5Z" fill="#C40D3C"/>
</svg>
