<svg width="70" height="70" viewBox="0 0 70 70" fill="none" xmlns="http://www.w3.org/2000/svg">
<path d="M35 20.5C39.0731 20.5 42.375 23.8019 42.375 27.875C42.375 31.0391 40.3818 33.7363 37.583 34.7832C39.7989 35.6981 41.7272 37.6837 43.1943 39.8896C45.218 42.9323 46.5 46.5906 46.5 49V49.5H45.5V49C45.5 46.8532 44.3197 43.3866 42.3623 40.4434C40.394 37.4839 37.774 35.25 35 35.25C32.226 35.25 29.606 37.4839 27.6377 40.4434C25.6803 43.3866 24.5 46.8532 24.5 49V49.5H23.5V49C23.5 46.5906 24.782 42.9323 26.8057 39.8896C28.2727 37.684 30.2005 35.6982 32.416 34.7832C29.6177 33.736 27.625 31.0388 27.625 27.875C27.625 23.8019 30.9269 20.5 35 20.5ZM35 21.5C31.4792 21.5 28.625 24.3542 28.625 27.875C28.625 31.3958 31.4792 34.25 35 34.25C38.5208 34.25 41.375 31.3958 41.375 27.875C41.375 24.3542 38.5208 21.5 35 21.5Z" fill="white"/>
</svg>
