<svg width="40" height="40" viewBox="0 0 40 40" fill="none" xmlns="http://www.w3.org/2000/svg">
<path d="M20.0008 12C21.4608 12 22.9408 13.44 22.9408 16.2C22.9154 17.6626 22.3935 19.0731 21.4608 20.2V21.2893C21.5315 21.6 22.0915 22.4493 23.6101 23.0707C25.1301 23.6893 25.3808 24.0707 25.7408 25.02C25.9102 25.6387 25.9982 26.2787 26.0008 26.92C26.0008 26.92 25.5915 28 20.9408 28H19.0608C14.3915 28 14.0008 26.92 14.0008 26.92C14.0008 26.272 14.0888 25.6267 14.2608 25C14.6208 24.0907 14.8515 23.6693 16.3915 23.0493C17.9315 22.4293 18.4715 21.58 18.5408 21.2693V20.1707C17.6082 19.0437 17.0863 17.6332 17.0608 16.1707C17.0608 13.4187 18.5008 12 20.0008 12ZM13.0008 26.9093C12.9926 26.1338 13.1042 25.3616 13.3315 24.62C13.5303 24.0113 13.879 23.4624 14.3454 23.0237C14.8119 22.585 15.3811 22.2706 16.0008 22.1093L16.1915 22C16.0382 21.8621 15.9183 21.6911 15.8408 21.5V20.6093C16.2355 20.196 16.5542 19.716 16.7808 19.1907C16.3336 18.2521 16.0883 17.23 16.0608 16.1907C16.0608 15.7 16.1128 15.2107 16.2115 14.7307C15.7555 14.276 15.1435 14.0147 14.5008 14C13.1408 14 11.8115 15.14 11.8115 17.4107C11.8484 18.6165 12.3288 19.7664 13.1608 20.64V21.5293C13.1008 21.7693 12.5915 22.4693 11.1608 22.9693C9.73148 23.4693 9.54082 23.82 9.21148 24.56C9.06215 25.0667 8.99148 25.592 9.00082 26.12C9.00082 26.12 9.33148 26.9093 13.0008 26.9893V26.9093ZM30.7608 24.56C30.4315 23.82 30.2208 23.4693 28.7608 22.9693C27.3008 22.4693 26.8608 21.7693 26.7608 21.5293V20.64C27.5931 19.766 28.0736 18.6156 28.1101 17.4093C28.1901 15.1693 26.8408 14 25.5008 14C25.1806 13.9992 24.8634 14.0625 24.568 14.1861C24.2726 14.3098 24.005 14.4913 23.7808 14.72C23.8822 15.2067 23.9368 15.7027 23.9408 16.2C23.9134 17.2394 23.6681 18.2614 23.2208 19.2C23.4475 19.7253 23.7661 20.2067 24.1608 20.62V21.5107C24.0837 21.7016 23.9643 21.8726 23.8115 22.0107L23.9808 22.0907C24.6043 22.2486 25.1778 22.5614 25.6482 23.0001C26.1185 23.4387 26.4705 23.989 26.6715 24.6C26.8995 25.348 27.0115 26.128 27.0008 26.9093V27C30.6608 26.92 31.0008 26.1307 31.0008 26.1307C31.0008 25.5973 30.9208 25.068 30.7608 24.56Z" fill="#1A1919"/>
</svg>
