<svg width="50" height="50" viewBox="0 0 50 50" fill="none" xmlns="http://www.w3.org/2000/svg">
<path d="M25 16.5C28.5899 16.5 31.5 19.4101 31.5 23C31.5 23.929 31.1885 24.9801 30.7305 26.0078C30.2689 27.0433 29.6413 28.0938 28.9697 29.0332C28.2988 29.9717 27.5734 30.8137 26.9102 31.4268C26.5791 31.7327 26.2529 31.9917 25.9482 32.1768C25.6572 32.3536 25.3263 32.5 25 32.5C24.6737 32.5 24.3428 32.3536 24.0518 32.1768C23.7471 31.9917 23.4209 31.7327 23.0898 31.4268C22.4266 30.8137 21.7012 29.9717 21.0303 29.0332C20.3587 28.0938 19.7311 27.0433 19.2695 26.0078C18.8115 24.9801 18.5 23.929 18.5 23C18.5 19.4101 21.4101 16.5 25 16.5ZM25 17.5C21.9624 17.5 19.5 19.9624 19.5 23C19.5 23.7278 19.751 24.6301 20.1836 25.6006C20.6126 26.5631 21.2039 27.5559 21.8447 28.4521C22.4861 29.3491 23.1674 30.1359 23.7695 30.6924C24.0712 30.9712 24.3428 31.1835 24.5713 31.3223C24.8133 31.4692 24.9513 31.5 25 31.5C25.0487 31.5 25.1867 31.4692 25.4287 31.3223C25.6572 31.1835 25.9288 30.9712 26.2305 30.6924C26.8326 30.1359 27.5139 29.3491 28.1553 28.4521C28.7961 27.5559 29.3874 26.5631 29.8164 25.6006C30.249 24.6301 30.5 23.7278 30.5 23C30.5 19.9624 28.0376 17.5 25 17.5ZM25 19.5C26.933 19.5 28.5 21.067 28.5 23C28.5 24.933 26.933 26.5 25 26.5C23.067 26.5 21.5 24.933 21.5 23C21.5 21.067 23.067 19.5 25 19.5ZM25 20.5C23.6193 20.5 22.5 21.6193 22.5 23C22.5 24.3807 23.6193 25.5 25 25.5C26.3807 25.5 27.5 24.3807 27.5 23C27.5 21.6193 26.3807 20.5 25 20.5Z" fill="#C40D3C"/>
</svg>
