<svg width="50" height="50" viewBox="0 0 50 50" fill="none" xmlns="http://www.w3.org/2000/svg">
<path d="M27.3008 20.5098C27.5287 20.5564 27.7002 20.7584 27.7002 21C27.7002 21.2416 27.5287 21.4436 27.3008 21.4902L27.2002 21.5H14.5V30.5H35.5V21C35.5 20.7239 35.7239 20.5 36 20.5C36.2761 20.5 36.5 20.7239 36.5 21V31C36.5 31.2761 36.2761 31.5 36 31.5H14C13.7239 31.5 13.5 31.2761 13.5 31V21C13.5 20.7239 13.7239 20.5 14 20.5H27.2002L27.3008 20.5098Z" fill="#1A1919"/>
<path d="M32.9951 27.8994C33.1114 27.9282 33.2151 27.9981 33.2852 28.0986L34.4102 29.7139C34.5679 29.9404 34.5125 30.2523 34.2861 30.4102C34.0877 30.5483 33.8237 30.5229 33.6553 30.3623L33.5898 30.2861L32.6143 28.8848H17.3857L16.4102 30.2861C16.2523 30.5125 15.9404 30.5679 15.7139 30.4102C15.4875 30.2523 15.4321 29.9404 15.5898 29.7139L16.7148 28.0986L16.7949 28.0088C16.8852 27.9295 17.0022 27.8848 17.125 27.8848H32.875L32.9951 27.8994ZM18.25 22.5C18.5261 22.5 18.75 22.7239 18.75 23C18.75 23.2761 18.5261 23.5 18.25 23.5H16C15.7239 23.5 15.5 23.2761 15.5 23C15.5 22.7239 15.7239 22.5 16 22.5H18.25Z" fill="#1A1919"/>
<path d="M33.5491 18.9469C33.7882 18.8091 34.0937 18.8905 34.2318 19.1295C34.3697 19.3684 34.2877 19.6739 34.0491 19.8121L29.6487 22.3531C29.4096 22.4912 29.1032 22.4087 28.9652 22.1695C28.8275 21.9305 28.9098 21.6249 29.1487 21.4869L33.5491 18.9469Z" fill="#1A1919"/>
<path d="M28.9652 19.1304C29.1033 18.8913 29.4097 18.8087 29.6488 18.9468L34.0492 21.4878C34.2878 21.626 34.3697 21.9315 34.2318 22.1704C34.0939 22.4094 33.7882 22.4915 33.5492 22.354L29.1488 19.813C28.9098 19.675 28.8274 19.3695 28.9652 19.1304Z" fill="#1A1919"/>
<path d="M31.6016 17.5C31.8777 17.5 32.1016 17.7239 32.1016 18V23C32.1016 23.2761 31.8777 23.5 31.6016 23.5C31.3254 23.5 31.1016 23.2761 31.1016 23V18C31.1016 17.7239 31.3254 17.5 31.6016 17.5Z" fill="#1A1919"/>
</svg>
