<svg width="50" height="50" viewBox="0 0 50 50" fill="none" xmlns="http://www.w3.org/2000/svg">
<path d="M30.5 36.5C30.7761 36.5 31 36.7239 31 37C31 37.2761 30.7761 37.5 30.5 37.5H17C16.7239 37.5 16.5 37.2761 16.5 37C16.5 36.7239 16.7239 36.5 17 36.5H30.5ZM23.75 12.5C27.784 12.5 31 15.9785 31 20.2002V28.0996H32.75C33.6865 28.0996 34.4999 27.2803 34.5 26.2002V17.7998C34.5001 17.5238 34.7239 17.2998 35 17.2998C35.2761 17.2998 35.4999 17.5238 35.5 17.7998V26.2002C35.4999 27.7708 34.2986 29.0996 32.75 29.0996H31V31.1338C30.9998 32.6307 29.8545 33.9004 28.375 33.9004H19.125C17.6455 33.9004 16.5002 32.6307 16.5 31.1338V20.2002C16.5 15.9785 19.716 12.5 23.75 12.5ZM23.75 13.5C20.3281 13.5 17.5 16.469 17.5 20.2002V31.1338C17.5002 32.1402 18.2576 32.9004 19.125 32.9004H28.375C29.2424 32.9004 29.9998 32.1402 30 31.1338V20.2002C30 16.469 27.1719 13.5 23.75 13.5ZM26 28.0996C26.276 28.0996 26.4998 28.3236 26.5 28.5996C26.5 28.8758 26.2761 29.0996 26 29.0996H21.5C21.2239 29.0996 21 28.8758 21 28.5996C21.0002 28.3236 21.224 28.0996 21.5 28.0996H26Z" fill="#1A1919"/>
</svg>
