<svg width="50" height="50" viewBox="0 0 50 50" fill="none" xmlns="http://www.w3.org/2000/svg">
<path d="M25.4355 13.5C26.8975 13.5001 28.0996 14.6846 28.0996 16.1533V16.2598C28.0996 17.4684 27.4186 18.5741 26.3389 19.1172C25.8246 19.3759 25.5 19.9028 25.5 20.4785V20.8975L37.3936 27.4775C38.0763 27.8554 38.4999 28.5742 38.5 29.3545C38.5 30.5393 37.5393 31.5 36.3545 31.5H13.666C12.47 31.5 11.5 30.53 11.5 29.334C11.5001 28.5688 11.904 27.8604 12.5625 27.4707L22.7949 21.416L22.8877 21.373C23.1074 21.2974 23.3575 21.384 23.4805 21.5918C23.6209 21.8294 23.5422 22.1358 23.3047 22.2764L13.0723 28.3311C12.7178 28.5408 12.5001 28.9222 12.5 29.334C12.5 29.9777 13.0223 30.5 13.666 30.5H36.3545C36.987 30.5 37.5 29.987 37.5 29.3545C37.4999 28.9379 37.2737 28.5542 36.9092 28.3525L24.7578 21.6299C24.5987 21.5418 24.5 21.3742 24.5 21.1924V20.4785C24.5 19.5248 25.0377 18.6521 25.8896 18.2236C26.6317 17.8504 27.0996 17.0904 27.0996 16.2598V16.1533C27.0996 15.2437 26.352 14.5001 25.4355 14.5C24.2844 14.5 23.4656 15.6266 23.8242 16.709L24.1748 17.7656L24.1963 17.8643C24.2239 18.0953 24.0868 18.3213 23.8574 18.3975C23.6281 18.4735 23.3825 18.3745 23.2666 18.1729L23.2256 18.0801L22.875 17.0234C22.2986 15.2835 23.6135 13.5 25.4355 13.5Z" fill="#1A1919"/>
</svg>
