<svg width="50" height="50" viewBox="0 0 50 50" fill="none" xmlns="http://www.w3.org/2000/svg">
<path d="M34 17.5C34.8284 17.5 35.5 18.1716 35.5 19V32C35.5 32.8284 34.8284 33.5 34 33.5H16C15.1716 33.5 14.5 32.8284 14.5 32V19C14.5 18.1716 15.1716 17.5 16 17.5H34ZM16 18.5C15.7239 18.5 15.5 18.7239 15.5 19V32C15.5 32.2761 15.7239 32.5 16 32.5H34C34.2761 32.5 34.5 32.2761 34.5 32V19C34.5 18.7239 34.2761 18.5 34 18.5H16ZM29 20.5C29.2761 20.5 29.5 20.7239 29.5 21V30C29.5 30.2761 29.2761 30.5 29 30.5H17C16.7239 30.5 16.5 30.2761 16.5 30V21C16.5 20.7239 16.7239 20.5 17 20.5H29ZM17.5 29.5H28.5V21.5H17.5V29.5ZM32.5 24.5C32.7761 24.5 33 24.7239 33 25C33 25.2761 32.7761 25.5 32.5 25.5H31C30.7239 25.5 30.5 25.2761 30.5 25C30.5 24.7239 30.7239 24.5 31 24.5H32.5ZM32.5 22.5C32.7761 22.5 33 22.7239 33 23C33 23.2761 32.7761 23.5 32.5 23.5H31C30.7239 23.5 30.5 23.2761 30.5 23C30.5 22.7239 30.7239 22.5 31 22.5H32.5ZM32.5 20.5C32.7761 20.5 33 20.7239 33 21C33 21.2761 32.7761 21.5 32.5 21.5H31C30.7239 21.5 30.5 21.2761 30.5 21C30.5 20.7239 30.7239 20.5 31 20.5H32.5Z" fill="#1A1919"/>
</svg>
