<svg width="50" height="50" viewBox="0 0 50 50" fill="none" xmlns="http://www.w3.org/2000/svg">
<path d="M29.5 14.5C31.1569 14.5 32.5 15.8431 32.5 17.5V27.5H35V28L35.4688 28.1738C34.6925 30.2638 33.3051 32.0261 31.5352 33.2666L32.4014 34.4326C32.566 34.6543 32.5195 34.9672 32.2979 35.1318C32.0763 35.2964 31.7633 35.2507 31.5986 35.0293L30.6885 33.8037C29.7001 34.3678 28.616 34.7801 27.4688 35.0117L27.2285 35.0605C25.7578 35.3575 24.2422 35.3575 22.7715 35.0605L22.5312 35.0117C21.244 34.7518 20.0364 34.264 18.9541 33.5898C18.9396 33.6218 18.9231 33.6533 18.9014 33.6826L17.9014 35.0293L17.5 34.7305L17.0986 34.4326L18.0986 33.0869C18.1128 33.0678 18.1293 33.0507 18.1455 33.0342C16.528 31.8102 15.2602 30.1365 14.5312 28.1738L15 28V27.5H19.5V27C19.5 26.7239 19.7239 26.5 20 26.5H24C24.2761 26.5 24.5 26.7239 24.5 27V27.5H31.5V17.5C31.5 16.3954 30.6046 15.5 29.5 15.5C28.3954 15.5 27.5 16.3954 27.5 17.5V17.5352C29.1962 17.7778 30.5 19.2367 30.5 21C30.5 21.2761 30.2761 21.5 30 21.5H24C23.7239 21.5 23.5 21.2761 23.5 21C23.5 19.2367 24.8038 17.7778 26.5 17.5352V17.5C26.5 15.8431 27.8431 14.5 29.5 14.5ZM17.9014 35.0293C17.7367 35.2507 17.4237 35.2964 17.2021 35.1318C16.9805 34.9672 16.934 34.6543 17.0986 34.4326L17.9014 35.0293ZM15.749 28.5C17.0512 31.3403 19.6382 33.407 22.7295 34.0312L22.9697 34.0801C24.3097 34.3506 25.6903 34.3506 27.0303 34.0801L27.2705 34.0312C30.3618 33.407 32.9488 31.3403 34.251 28.5H24.5V32C24.5 32.2761 24.2761 32.5 24 32.5H20C19.7239 32.5 19.5 32.2761 19.5 32V28.5H15.749ZM20.5 31V31.5H23.5V31H20.5ZM20.5 30H23.5V27.5H20.5V30ZM27 18.5C25.7905 18.5 24.7814 19.3589 24.5498 20.5H29.4502C29.2186 19.3589 28.2095 18.5 27 18.5Z" fill="#1A1919"/>
</svg>
