<svg width="50" height="50" viewBox="0 0 50 50" fill="none" xmlns="http://www.w3.org/2000/svg">
<path d="M34.167 19.5C34.9298 19.5002 35.5 20.1468 35.5 20.8828V34.1172C35.5 34.8532 34.9298 35.4998 34.167 35.5H15.833C15.0702 35.4998 14.5 34.8532 14.5 34.1172V20.8828C14.5 20.1468 15.0702 19.5002 15.833 19.5H34.167ZM15.833 20.5C15.6755 20.5002 15.5 20.6445 15.5 20.8828V34.1172C15.5 34.3555 15.6755 34.4998 15.833 34.5H34.167C34.3245 34.4998 34.5 34.3555 34.5 34.1172V20.8828C34.5 20.6445 34.3245 20.5002 34.167 20.5H15.833Z" fill="#1A1919"/>
<path d="M29.6465 14.6465C29.8417 14.4512 30.1583 14.4512 30.3535 14.6465C30.5487 14.8417 30.5488 15.1583 30.3535 15.3535L25.3535 20.3535C25.1583 20.5488 24.8417 20.5487 24.6465 20.3535L19.6465 15.3535C19.4512 15.1583 19.4512 14.8417 19.6465 14.6465C19.8417 14.4512 20.1583 14.4512 20.3535 14.6465L25 19.293L29.6465 14.6465Z" fill="#1A1919"/>
</svg>
