<svg width="50" height="50" viewBox="0 0 50 50" fill="none" xmlns="http://www.w3.org/2000/svg">
<path d="M33 16.5C33.8284 16.5 34.5 17.1716 34.5 18V25.5869C35.0823 25.793 35.5 26.3471 35.5 27V33C35.5 33.2761 35.2761 33.5 35 33.5H34.5V35C34.5 35.2761 34.2761 35.5 34 35.5H33C32.8106 35.5 32.6374 35.393 32.5527 35.2236L31.6914 33.5H18.3086L17.4473 35.2236C17.3626 35.393 17.1894 35.5 17 35.5H16C15.7239 35.5 15.5 35.2761 15.5 35V33.5H15C14.7239 33.5 14.5 33.2761 14.5 33V27C14.5 26.3471 14.9177 25.793 15.5 25.5869V18C15.5 17.1716 16.1716 16.5 17 16.5H33ZM16.5 34.5H16.6914L17.1914 33.5H16.5V34.5ZM33.3086 34.5H33.5V33.5H32.8086L33.3086 34.5ZM15.5 32.5H34.5V31.5H15.5V32.5ZM16 26.5C15.7239 26.5 15.5 26.7239 15.5 27V30.5H34.5V27C34.5 26.7239 34.2761 26.5 34 26.5H16ZM17 17.5C16.7239 17.5 16.5 17.7239 16.5 18V25.5H19.5869C19.5315 25.3435 19.5 25.1755 19.5 25V22C19.5 21.1716 20.1716 20.5 21 20.5H29C29.8284 20.5 30.5 21.1716 30.5 22V25C30.5 25.1755 30.4685 25.3435 30.4131 25.5H33.5V18C33.5 17.7239 33.2761 17.5 33 17.5H17ZM21 21.5C20.7239 21.5 20.5 21.7239 20.5 22V25C20.5 25.2761 20.7239 25.5 21 25.5H29C29.2761 25.5 29.5 25.2761 29.5 25V22C29.5 21.7239 29.2761 21.5 29 21.5H21Z" fill="#1A1919"/>
</svg>
