<svg width="50" height="50" viewBox="0 0 50 50" fill="none" xmlns="http://www.w3.org/2000/svg">
<path d="M34 16.5C34.2761 16.5 34.5 16.7239 34.5 17V24.5869C35.0823 24.793 35.5 25.3471 35.5 26V32C35.5 32.2761 35.2761 32.5 35 32.5H34.5V34C34.5 34.2761 34.2761 34.5 34 34.5H33C32.8106 34.5 32.6374 34.393 32.5527 34.2236L31.6914 32.5H18.3086L17.4473 34.2236C17.3626 34.393 17.1894 34.5 17 34.5H16C15.7239 34.5 15.5 34.2761 15.5 34V32.5H15C14.7239 32.5 14.5 32.2761 14.5 32V26C14.5 25.3471 14.9177 24.793 15.5 24.5869V17C15.5 16.7239 15.7239 16.5 16 16.5H34ZM16.5 33.5H16.6914L17.1914 32.5H16.5V33.5ZM33.3086 33.5H33.5V32.5H32.8086L33.3086 33.5ZM15.5 31.5H34.5V30.5H15.5V31.5ZM16 25.5C15.7239 25.5 15.5 25.7239 15.5 26V29.5H34.5V26C34.5 25.7239 34.2761 25.5 34 25.5H16ZM16.5 24.5H17.5V21C17.5 20.7239 17.7239 20.5 18 20.5H24C24.2761 20.5 24.5 20.7239 24.5 21V24.5H25.5V21C25.5 20.7239 25.7239 20.5 26 20.5H32C32.2761 20.5 32.5 20.7239 32.5 21V24.5H33.5V17.5H16.5V24.5ZM18.5 24.5H23.5V21.5H18.5V24.5ZM26.5 24.5H31.5V21.5H26.5V24.5Z" fill="#1A1919"/>
</svg>
