<svg width="50" height="50" viewBox="0 0 50 50" fill="none" xmlns="http://www.w3.org/2000/svg">
<path d="M31.1533 13.5078C31.9097 13.5846 32.5 14.2233 32.5 15V35C32.5 35.8284 31.8284 36.5 31 36.5H19C18.1716 36.5 17.5 35.8284 17.5 35V15C17.5 14.1716 18.1716 13.5 19 13.5H31L31.1533 13.5078ZM19 14.5C18.7239 14.5 18.5 14.7239 18.5 15V35C18.5 35.2761 18.7239 35.5 19 35.5H31C31.2761 35.5 31.5 35.2761 31.5 35V15C31.5 14.7583 31.3286 14.5563 31.1006 14.5098L31 14.5H19Z" fill="#1A1919"/>
<path d="M19 36.5C19.2761 36.5 19.5 36.7239 19.5 37V38C19.5 38.2761 19.2761 38.5 19 38.5C18.7239 38.5 18.5 38.2761 18.5 38V37C18.5 36.7239 18.7239 36.5 19 36.5ZM31 36.5C31.2761 36.5 31.5 36.7239 31.5 37V38C31.5 38.2761 31.2761 38.5 31 38.5C30.7239 38.5 30.5 38.2761 30.5 38V37C30.5 36.7239 30.7239 36.5 31 36.5Z" fill="#1A1919"/>
<path d="M32 23.5H18V22.5H32V23.5Z" fill="#1A1919"/>
<path d="M32 34.5H18V33.5H32V34.5Z" fill="#1A1919"/>
<path d="M20 24.5C20.2761 24.5 20.5 24.7239 20.5 25V27C20.5 27.2761 20.2761 27.5 20 27.5C19.7239 27.5 19.5 27.2761 19.5 27V25C19.5 24.7239 19.7239 24.5 20 24.5Z" fill="#1A1919"/>
<path d="M20 16.5C20.2761 16.5 20.5 16.7239 20.5 17V19C20.5 19.2761 20.2761 19.5 20 19.5C19.7239 19.5 19.5 19.2761 19.5 19V17C19.5 16.7239 19.7239 16.5 20 16.5Z" fill="#1A1919"/>
</svg>
