<svg width="50" height="50" viewBox="0 0 50 50" fill="none" xmlns="http://www.w3.org/2000/svg">
<path d="M29 16.5C29.8534 16.5 30.7634 16.7606 31.4463 17.5801C32.1147 18.3821 32.5 19.6429 32.5 21.5H33C33.8284 21.5 34.5 22.1716 34.5 23C34.5 23.1755 34.4685 23.3435 34.4131 23.5H35C35.2761 23.5 35.5 23.7239 35.5 24C35.5 24.2761 35.2761 24.5 35 24.5H29.998C29.9981 24.6105 29.9636 24.7218 29.8887 24.8145L25.7178 29.9658L29.3945 34.6934L29.4482 34.7783C29.5517 34.9869 29.4975 35.2461 29.3066 35.3945C29.1158 35.5429 28.8514 35.5314 28.6748 35.3799L28.6055 35.3066L25.0723 30.7637L21.3887 35.3145C21.215 35.529 20.9002 35.5623 20.6855 35.3887C20.471 35.215 20.4377 34.9002 20.6113 34.6855L24.4414 29.9531L21.7559 26.5H19C18.7239 26.5 18.5 26.2761 18.5 26V24.5H16C15.1716 24.5 14.5 23.8284 14.5 23V22C14.5 21.7239 14.7239 21.5 15 21.5H28.5V17C28.5 16.7239 28.7239 16.5 29 16.5ZM25.5 26C25.5 26.2761 25.2761 26.5 25 26.5H23.0215L25.0869 29.1553L28.8564 24.5H25.5V26ZM19.5 25.5H24.5V22.5H19.5V25.5ZM25.5 23.5H33C33.2761 23.5 33.5 23.2761 33.5 23C33.5 22.7239 33.2761 22.5 33 22.5H25.5V23.5ZM15.5 23C15.5 23.2761 15.7239 23.5 16 23.5H18.5V22.5H15.5V23ZM29.5 21.5H31.5C31.5 19.7571 31.1353 18.7677 30.6787 18.2197C30.3538 17.8298 29.9484 17.6256 29.5 17.5439V21.5ZM30.5 19.5C30.7761 19.5 31 19.7239 31 20V20.5C31 20.7761 30.7761 21 30.5 21C30.2239 21 30 20.7761 30 20.5V20C30 19.7239 30.2239 19.5 30.5 19.5Z" fill="#1A1919"/>
</svg>
