<svg width="50" height="50" viewBox="0 0 50 50" fill="none" xmlns="http://www.w3.org/2000/svg">
<path d="M34 14.5C34.8284 14.5 35.5 15.1716 35.5 16V20C35.5 20.8284 34.8284 21.5 34 21.5H33.5V22.5H35C35.2761 22.5 35.5 22.7239 35.5 23V24L35.4902 24.1006C35.4437 24.3286 35.2417 24.5 35 24.5H33.5V31.5H35C35.2761 31.5 35.5 31.7239 35.5 32V34C35.5 34.8284 34.8284 35.5 34 35.5H16C15.1716 35.5 14.5 34.8284 14.5 34V32C14.5 31.7239 14.7239 31.5 15 31.5H16.5V21.5H16C15.2233 21.5 14.5846 20.9097 14.5078 20.1533L14.5 20V16C14.5 15.1716 15.1716 14.5 16 14.5H34ZM15.5 34C15.5 34.2761 15.7239 34.5 16 34.5H34C34.2761 34.5 34.5 34.2761 34.5 34V32.5H15.5V34ZM17.5 31.5H25C23.1769 31.5 21.5 30.2996 21.5 28.5996V27C21.5 26.7239 21.7239 26.5 22 26.5H29C29.8284 26.5 30.5 27.1716 30.5 28C30.5 28.8284 29.8284 29.5 29 29.5H28.5C28.4444 29.5 28.3918 29.4884 28.3418 29.4717C27.8846 30.6955 26.492 31.5 25 31.5H32.5V24.5H29C28.7239 24.5 28.5 24.2761 28.5 24C28.5 24.2761 28.2761 24.5 28 24.5H27V25C27 25.2761 26.7761 25.5 26.5 25.5C26.2239 25.5 26 25.2761 26 25V24.5H24V25C24 25.2761 23.7761 25.5 23.5 25.5C23.2239 25.5 23 25.2761 23 25V24.5H22C21.7239 24.5 21.5 24.2761 21.5 24V21.5H17.5V31.5ZM22.5 28.5996C22.5 29.5506 23.5094 30.5 25 30.5C26.4906 30.5 27.5 29.5506 27.5 28.5996V27.5H22.5V28.5996ZM28.5 28.5H29C29.2761 28.5 29.5 28.2761 29.5 28C29.5 27.7239 29.2761 27.5 29 27.5H28.5V28.5ZM22.5 23.5H27.5V21.5H22.5V23.5ZM28.5 23C28.5 22.7239 28.7239 22.5 29 22.5H32.5V21.5H28.5V23ZM16 15.5C15.7239 15.5 15.5 15.7239 15.5 16V20L15.5098 20.1006C15.5563 20.3286 15.7583 20.5 16 20.5H34C34.2761 20.5 34.5 20.2761 34.5 20V16C34.5 15.7239 34.2761 15.5 34 15.5H16ZM21 16.5C21.8284 16.5 22.5 17.1716 22.5 18C22.5 18.8284 21.8284 19.5 21 19.5C20.1716 19.5 19.5 18.8284 19.5 18C19.5 17.1716 20.1716 16.5 21 16.5ZM25 16.5C25.8284 16.5 26.5 17.1716 26.5 18C26.5 18.8284 25.8284 19.5 25 19.5C24.1716 19.5 23.5 18.8284 23.5 18C23.5 17.1716 24.1716 16.5 25 16.5ZM29 16.5C29.8284 16.5 30.5 17.1716 30.5 18C30.5 18.8284 29.8284 19.5 29 19.5C28.1716 19.5 27.5 18.8284 27.5 18C27.5 17.1716 28.1716 16.5 29 16.5ZM21 17.5C20.7239 17.5 20.5 17.7239 20.5 18C20.5 18.2761 20.7239 18.5 21 18.5C21.2761 18.5 21.5 18.2761 21.5 18C21.5 17.7239 21.2761 17.5 21 17.5ZM25 17.5C24.7239 17.5 24.5 17.7239 24.5 18C24.5 18.2761 24.7239 18.5 25 18.5C25.2761 18.5 25.5 18.2761 25.5 18C25.5 17.7239 25.2761 17.5 25 17.5ZM29 17.5C28.7239 17.5 28.5 17.7239 28.5 18C28.5 18.2761 28.7239 18.5 29 18.5C29.2761 18.5 29.5 18.2761 29.5 18C29.5 17.7239 29.2761 17.5 29 17.5Z" fill="#1A1919"/>
</svg>
