<svg width="50" height="50" viewBox="0 0 50 50" fill="none" xmlns="http://www.w3.org/2000/svg">
<path d="M15.3369 15.5869C15.529 15.4559 15.7924 15.4733 15.9658 15.6416C16.1637 15.8339 16.1688 16.1506 15.9766 16.3486L15.7627 16.5742C11.3424 21.3661 11.4137 28.9495 15.9766 33.6514C16.1686 33.8495 16.1639 34.1662 15.9658 34.3584C15.7925 34.5264 15.529 34.5439 15.3369 34.4131L15.2588 34.3486L15.0283 34.1035C10.2486 28.9228 10.3251 20.7353 15.2588 15.6514L15.3369 15.5869ZM35.0342 15.6416C35.2076 15.4733 35.471 15.4559 35.6631 15.5869L35.7412 15.6514L35.9717 15.8965C40.7512 21.0773 40.675 29.2648 35.7412 34.3486L35.6631 34.4131C35.471 34.5439 35.2075 34.5264 35.0342 34.3584C34.8361 34.1661 34.8313 33.8495 35.0234 33.6514L35.2373 33.4258C39.5876 28.7099 39.5875 21.2902 35.2373 16.5742L35.0234 16.3486L34.96 16.2686C34.8351 16.0727 34.8611 15.8098 35.0342 15.6416ZM19.2188 19.5869C19.4109 19.4558 19.6752 19.4733 19.8486 19.6416C20.0462 19.834 20.0505 20.1507 19.8584 20.3486L19.6328 20.5938C17.37 23.1749 17.4446 27.1652 19.8584 29.6523C20.0505 29.8505 20.0467 30.1671 19.8486 30.3594C19.6507 30.5513 19.3339 30.5461 19.1416 30.3486C16.2735 27.3933 16.2736 22.6078 19.1416 19.6523L19.2188 19.5869ZM31.8584 30.3486C31.6661 30.5462 31.3494 30.5513 31.1514 30.3594C30.9533 30.1671 30.9495 29.8505 31.1416 29.6523L31.8584 30.3486ZM31.1514 19.6416C31.3248 19.4733 31.5891 19.4558 31.7812 19.5869L31.8584 19.6523L32.1191 19.9346C34.7237 22.905 34.6369 27.4857 31.8584 30.3486L31.5 30L31.1416 29.6523C33.5554 27.1652 33.63 23.1749 31.3672 20.5938L31.1416 20.3486L31.0781 20.2686C30.9533 20.0728 30.9786 19.8098 31.1514 19.6416ZM25.5 23C26.6045 23 27.5 23.8954 27.5 25C27.4998 26.1044 26.6044 27 25.5 27C24.3956 27 23.5002 26.1044 23.5 25C23.5 23.8954 24.3954 23 25.5 23ZM25.5 24C24.9477 24 24.5 24.4477 24.5 25C24.5002 25.5521 24.9478 26 25.5 26C26.0521 26 26.4998 25.5521 26.5 25C26.5 24.4477 26.0523 24 25.5 24Z" fill="#1A1919"/>
</svg>
