<svg width="60" height="60" viewBox="0 0 60 60" fill="none" xmlns="http://www.w3.org/2000/svg">
<path d="M29.3633 20.001C29.7871 20.0118 30.1076 20.2298 30.2725 20.3506C30.4576 20.4862 30.6713 20.6752 30.8867 20.8652L40.1787 29.0645C40.2992 29.1708 40.4381 29.2921 40.5479 29.4072C40.6358 29.4995 40.7452 29.6275 40.833 29.7969L40.9121 29.9795C41.0296 30.3162 41.0296 30.6838 40.9121 31.0205C40.8203 31.2837 40.6651 31.4699 40.5479 31.5928C40.4381 31.7079 40.2992 31.8292 40.1787 31.9355L30.8867 40.1348C30.6713 40.3248 30.4576 40.5138 30.2725 40.6494C30.1076 40.7702 29.7871 40.9882 29.3633 40.999C28.8729 41.0115 28.4135 40.7897 28.1152 40.4131C27.8596 40.0902 27.813 39.715 27.7949 39.5088C27.7748 39.279 27.7764 38.9922 27.7764 38.6992V35.0918C26.6983 35.2726 25.6473 35.6112 24.6562 36.1006C23.1631 36.8379 21.8395 37.9 20.7783 39.2158C20.5122 39.5459 20.0668 39.6724 19.667 39.5312C19.2674 39.3901 19.0001 39.0126 19 38.5889V37.8965C19.0016 34.9773 20.047 32.1563 21.9434 29.9727C23.4958 28.1851 25.5311 26.9288 27.7764 26.3496V22.3008C27.7764 22.0078 27.7748 21.721 27.7949 21.4912C27.8108 21.3107 27.8487 21.001 28.0293 20.71L28.1152 20.5869L28.2344 20.4531C28.4869 20.2004 28.821 20.0405 29.1816 20.0068L29.3633 20.001ZM29.7764 27.1514C29.7764 27.6353 29.4294 28.05 28.9531 28.1357C26.839 28.5165 24.8984 29.6199 23.4531 31.2842C22.295 32.6178 21.5174 34.2429 21.1846 35.9805C21.9799 35.3267 22.8463 34.764 23.7705 34.3076C25.3192 33.5429 26.9944 33.0893 28.7061 32.9697C28.9827 32.9504 29.2552 33.0472 29.458 33.2363C29.6607 33.4255 29.7764 33.6905 29.7764 33.9678V38.4463L38.7842 30.5L29.7764 22.5527V27.1514Z" fill="#D11242"/>
</svg>
