<svg width="50" height="50" viewBox="0 0 50 50" fill="none" xmlns="http://www.w3.org/2000/svg">
<path d="M15.4598 24.6097C15.5 24.5896 15.5402 24.5705 15.5793 24.5524C16.2605 24.2365 16.9508 23.9408 17.64 23.645C17.6772 23.645 17.7395 23.6018 17.7746 23.5877C17.8279 23.5646 17.8811 23.5424 17.9344 23.5193C18.0369 23.475 18.1393 23.4318 18.2408 23.3875C18.4458 23.3 18.6497 23.2125 18.8547 23.125C19.2636 22.9499 19.6725 22.7749 20.0814 22.5989C20.8993 22.2488 21.7181 21.8977 22.536 21.5477C23.3538 21.1976 24.1726 20.8465 24.9905 20.4965C25.8083 20.1464 26.6271 19.7953 27.445 19.4453C28.2628 19.0952 29.0817 18.7441 29.8995 18.3941C30.0813 18.3156 30.2783 18.1989 30.4732 18.1647C30.6369 18.1355 30.7967 18.0792 30.9614 18.048C31.2739 17.9887 31.6185 17.9645 31.9179 18.0943C32.0214 18.1396 32.1169 18.2029 32.1962 18.2824C32.576 18.6586 32.5228 19.2763 32.4424 19.8054C31.8828 23.4931 31.3231 27.1819 30.7625 30.8697C30.6862 31.3756 30.5817 31.9309 30.1828 32.2508C29.8452 32.5214 29.365 32.5516 28.948 32.4369C28.531 32.3212 28.1633 32.0788 27.8026 31.8404C26.3066 30.8485 24.8096 29.8567 23.3136 28.8648C22.9579 28.6295 22.5621 28.3216 22.5661 27.8941C22.5681 27.6366 22.7218 27.4072 22.8786 27.203C24.1787 25.505 26.0544 24.3381 27.45 22.7186C27.6469 22.4902 27.8016 22.0778 27.5314 21.946C27.3706 21.8676 27.1857 21.9742 27.0391 22.0758C25.1944 23.3584 23.3508 24.6419 21.5061 25.9245C20.9043 26.343 20.2734 26.7735 19.5479 26.8761C18.8989 26.9687 18.2458 26.7876 17.6179 26.6025C17.0914 26.4476 16.566 26.2886 16.0425 26.1247C15.7642 26.0382 15.4768 25.9446 15.2618 25.7484C15.0468 25.5523 14.9233 25.2223 15.0529 24.9608C15.1343 24.7968 15.292 24.6932 15.4578 24.6087L15.4598 24.6097Z" fill="#1A1919"/>
</svg>
