<svg width="50" height="50" viewBox="0 0 50 50" fill="none" xmlns="http://www.w3.org/2000/svg">
<path fill-rule="evenodd" clip-rule="evenodd" d="M35.1568 19.8674C35.3174 19.3781 35.1568 19.0223 34.4455 19.0223H32.0819C31.4853 19.0223 31.21 19.3336 31.0494 19.6673C31.0494 19.6673 29.8332 22.5143 28.1351 24.3603C27.5844 24.8941 27.332 25.0721 27.0337 25.0721C26.873 25.0721 26.6666 24.8941 26.6666 24.4048V19.8452C26.6666 19.2669 26.483 19 25.9781 19H22.2608C21.8936 19 21.6642 19.2669 21.6642 19.5338C21.6642 20.0899 22.5132 20.2233 22.605 21.7803V25.161C22.605 25.895 22.4673 26.0285 22.169 26.0285C21.3659 26.0285 19.4154 23.1592 18.2452 19.8897C18.0156 19.2446 17.7862 19 17.1896 19H14.8031C14.1147 19 14 19.3114 14 19.645C14 20.2456 14.8031 23.2705 17.7403 27.274C19.6908 30.0098 22.4673 31.4777 24.9685 31.4777C26.483 31.4777 26.6666 31.1441 26.6666 30.5881V28.5196C26.6666 27.8523 26.8042 27.7411 27.2861 27.7411C27.6303 27.7411 28.2499 27.919 29.6496 29.2313C31.2558 30.7882 31.5312 31.5 32.4261 31.5H34.7897C35.478 31.5 35.7993 31.1664 35.6157 30.5213C35.4092 29.8764 34.629 28.9422 33.6194 27.8301C33.0686 27.2073 32.2425 26.5178 31.9901 26.1841C31.646 25.7394 31.7377 25.5614 31.9901 25.161C31.9672 25.161 34.8585 21.202 35.1568 19.8674Z" fill="#1A1919"/>
</svg>
