<svg width="50" height="50" viewBox="0 0 50 50" fill="none" xmlns="http://www.w3.org/2000/svg">
<path d="M28.1369 29.2303C24.4671 29.2303 21.4815 26.2428 21.4805 22.572C21.4815 21.6414 22.2389 20.8848 23.1672 20.8848C23.2626 20.8848 23.357 20.8928 23.4475 20.9089C23.6464 20.942 23.8352 21.0094 24.009 21.1109C24.0341 21.1259 24.0512 21.15 24.0552 21.1782L24.443 23.6231C24.448 23.6512 24.439 23.6803 24.4199 23.7015C24.2059 23.9386 23.9327 24.1094 23.6283 24.1949L23.4816 24.2361L23.5369 24.3777C24.0371 25.6519 25.0558 26.6699 26.3306 27.1723L26.4723 27.2286L26.5135 27.0819C26.5989 26.7774 26.7696 26.5041 27.0067 26.29C27.0238 26.274 27.0469 26.2659 27.07 26.2659C27.075 26.2659 27.0801 26.2659 27.0861 26.2669L29.5303 26.6548C29.5594 26.6598 29.5835 26.6759 29.5986 26.701C29.699 26.8749 29.7663 27.0648 29.8005 27.2638C29.8166 27.3522 29.8236 27.4457 29.8236 27.5431C29.8236 28.4726 29.0671 29.2293 28.1369 29.2303Z" fill="#1A1919"/>
<path d="M34.6432 24.23C34.4453 21.9931 33.4206 19.9181 31.758 18.3876C30.0854 16.8481 27.9154 16 25.6461 16C20.6653 16 16.6128 20.0537 16.6128 25.0359C16.6128 26.7081 17.0739 28.337 17.9469 29.7559L16 34.0669L22.2335 33.4026C23.3174 33.8468 24.4647 34.0719 25.6451 34.0719C25.9555 34.0719 26.274 34.0558 26.5934 34.0226C26.8747 33.9925 27.159 33.9483 27.4383 33.892C31.6093 33.0489 34.6542 29.3459 34.6784 25.0842V25.0359C34.6784 24.7646 34.6663 24.4933 34.6422 24.231L34.6432 24.23ZM22.4736 31.5104L19.0248 31.8782L20.0545 29.5961L19.8486 29.3198C19.8335 29.2997 19.8185 29.2796 19.8014 29.2565C18.9073 28.0215 18.4351 26.5624 18.4351 25.0369C18.4351 21.0596 21.6699 17.8239 25.6461 17.8239C29.3711 17.8239 32.5285 20.731 32.8329 24.442C32.849 24.641 32.858 24.841 32.858 25.038C32.858 25.0942 32.857 25.1495 32.856 25.2088C32.7797 28.536 30.4561 31.3617 27.2052 32.0812C26.9571 32.1365 26.7029 32.1787 26.4497 32.2058C26.1865 32.2359 25.9163 32.251 25.6481 32.251C24.6927 32.251 23.7645 32.0661 22.8875 31.7003C22.79 31.6611 22.6946 31.6189 22.6052 31.5757L22.4746 31.5124L22.4736 31.5104Z" fill="#1A1919"/>
</svg>
