<svg width="260" height="240" viewBox="0 0 260 240" fill="none" xmlns="http://www.w3.org/2000/svg">
<path d="M69.4888 193.59C86.2291 203.638 106.938 207.607 125.64 207.607C144.341 207.607 159.316 204.031 168.315 198.666C187.617 187.187 230.719 153.902 214.187 93.0442C207.518 68.4934 195.45 50.9686 177.303 39.4661C161.024 29.152 142.565 25.6794 128.316 23.7988H128.247C128.016 23.7988 105.288 24.0757 82.4565 36.1666C61.3668 47.3229 35.8583 71.1123 34.1162 121.01C32.9741 153.902 45.2033 178.995 69.4888 193.578V193.59Z" fill="#1A1919" stroke="#1A1919" stroke-miterlimit="10"/>
<path d="M16.7632 38.3222C16.094 44.1138 19.1629 51.4975 26.6158 55.1548C34.0803 58.8235 31.4037 68.6416 31.4037 68.6416C36.1108 63.5884 32.592 61.9962 31.9575 59.5158C31.9575 59.285 31.9113 58.9735 31.8652 58.639C31.8998 57.9237 32.2113 57.1276 33.0074 56.1585C37.1607 51.0245 37.8068 43.9292 36.0185 37.007C34.2303 30.0963 28.5656 24.6046 24.6776 21.905C20.7896 19.2053 14.525 13.3906 14.525 13.3906C14.525 13.3906 17.167 16.9325 14.675 25.0546C12.183 33.1767 17.4439 32.5191 16.7632 38.3107V38.3222Z" fill="#1A1919" stroke="#1A1919" stroke-miterlimit="10"/>
<path d="M60.0029 220.193L58.6876 218.739L34.8521 192.296L34.0791 191.431L33.3638 190.635C33.3638 190.635 23.7419 202.991 34.4598 215.093C45.1777 227.196 60.6374 220.885 60.6374 220.885L60.0144 220.193H60.0029Z" fill="#1A1919" stroke="#1A1919" stroke-miterlimit="10"/>
<path d="M83.6113 232.493C83.6113 232.493 92.3102 219.467 80.7385 208.172C69.1784 196.889 54.2148 204.308 54.2148 204.308L56.303 206.315L81.9961 230.947L83.6113 232.493Z" fill="#1A1919" stroke="#1A1919" stroke-miterlimit="10"/>
<path d="M26.1086 180.922C28.5429 182.975 32.1886 182.675 34.2537 180.229C36.3073 177.795 36.0074 174.149 33.5615 172.084C31.1272 170.031 27.4815 170.331 25.4163 172.777C23.3627 175.211 23.6627 178.857 26.1086 180.922Z" fill="#1A1919" stroke="#1A1919" stroke-miterlimit="10"/>
<path d="M212.569 219.247C213.03 219.016 212.845 217.62 212.211 215.728C213.607 217.158 214.772 217.954 215.187 217.643C215.487 217.412 215.326 216.639 214.841 215.566C215.834 216.201 216.583 216.466 216.849 216.201C217.218 215.832 216.583 214.574 215.361 212.993C217.149 213.893 218.51 214.263 218.799 213.836C219.168 213.282 217.656 211.609 215.28 209.821C218.141 210.64 220.391 210.824 220.598 210.201C220.771 209.717 219.664 208.852 217.876 207.975C219.872 207.998 221.244 207.733 221.314 207.225C221.371 206.856 220.714 206.417 219.618 206.014C220.76 205.76 221.464 205.414 221.464 205.044C221.464 204.525 220.137 204.075 218.153 203.833C220.045 203.198 221.256 202.506 221.164 201.999C221.037 201.353 218.787 201.226 215.845 201.641C218.441 200.199 220.16 198.745 219.872 198.157C219.641 197.695 218.245 197.868 216.353 198.514C217.783 197.118 218.579 195.953 218.268 195.538C218.037 195.238 217.264 195.399 216.191 195.884C216.826 194.892 217.091 194.142 216.826 193.877C216.457 193.507 215.199 194.142 213.618 195.365C214.518 193.577 214.888 192.215 214.461 191.927C213.907 191.558 212.234 193.069 210.446 195.446C211.265 192.584 211.449 190.335 210.826 190.127C210.342 189.954 209.477 191.062 208.6 192.85C208.623 190.854 208.358 189.481 207.85 189.412C207.481 189.354 207.042 190.012 206.639 191.108C206.385 189.965 206.039 189.262 205.669 189.262C205.15 189.262 204.7 190.588 204.458 192.573C203.823 190.681 203.131 189.469 202.624 189.562C201.978 189.689 201.851 191.938 202.266 194.88C200.824 192.284 199.37 190.565 198.782 190.854C198.32 191.085 198.493 192.481 199.139 194.373C197.743 192.942 196.578 192.146 196.163 192.457C195.863 192.688 196.024 193.461 196.509 194.534C195.517 193.9 194.767 193.634 194.502 193.9C194.132 194.269 194.767 195.526 195.99 197.107C194.202 196.207 192.84 195.838 192.552 196.265C192.183 196.818 193.694 198.491 196.071 200.28C193.209 199.46 190.96 199.276 190.752 199.899C190.579 200.383 191.687 201.249 193.475 202.126C191.479 202.102 190.106 202.368 190.037 202.875C189.991 203.245 190.637 203.683 191.733 204.087C190.59 204.341 189.887 204.687 189.887 205.056C189.887 205.575 191.213 206.025 193.198 206.267C191.306 206.902 190.094 207.594 190.187 208.102C190.314 208.748 192.563 208.875 195.505 208.459C192.909 209.902 191.19 211.355 191.479 211.944C191.71 212.405 193.106 212.232 194.998 211.586C193.567 212.982 192.771 214.147 193.083 214.562C193.313 214.862 194.086 214.701 195.159 214.216C194.525 215.209 194.259 215.958 194.525 216.224C194.894 216.593 196.151 215.958 197.732 214.736C196.832 216.524 196.463 217.885 196.89 218.174C197.443 218.543 199.116 217.031 200.905 214.655C200.085 217.516 199.901 219.766 200.524 219.973C201.008 220.146 201.874 219.039 202.751 217.251C202.727 219.247 202.993 220.619 203.5 220.689C203.87 220.746 204.308 220.089 204.712 218.993C204.966 220.135 205.312 220.839 205.681 220.839C206.2 220.839 206.65 219.512 206.892 217.528C207.527 219.42 208.219 220.631 208.727 220.539C209.373 220.412 209.5 218.162 209.084 215.22C210.527 217.816 211.98 219.535 212.569 219.247Z" fill="#1A1919" stroke="#1A1919" stroke-miterlimit="10"/>
<path d="M51.0049 192.607C51.6548 192.607 52.1817 192.081 52.1817 191.431C52.1817 190.781 51.6548 190.254 51.0049 190.254C50.355 190.254 49.8281 190.781 49.8281 191.431C49.8281 192.081 50.355 192.607 51.0049 192.607Z" fill="#1A1919" stroke="#1A1919" stroke-miterlimit="10"/>
<path d="M45.0037 186.367C45.0037 185.675 44.4499 185.121 43.7577 185.121C43.0655 185.121 42.5117 185.675 42.5117 186.367C42.5117 187.059 43.0655 187.613 43.7577 187.613C44.4499 187.613 45.0037 187.059 45.0037 186.367Z" fill="#1A1919" stroke="#1A1919" stroke-miterlimit="10"/>
<path d="M41.9382 64.2124C42.4574 64.2124 42.8843 63.7855 42.8843 63.2664C42.8843 62.7472 42.4574 62.3203 41.9382 62.3203C41.4191 62.3203 40.9922 62.7472 40.9922 63.2664C40.9922 63.7855 41.4191 64.2124 41.9382 64.2124Z" fill="#1A1919" stroke="#1A1919" stroke-miterlimit="10"/>
<path d="M36.5269 72.4835C37.2278 72.4835 37.796 71.9153 37.796 71.2144C37.796 70.5135 37.2278 69.9453 36.5269 69.9453C35.826 69.9453 35.2578 70.5135 35.2578 71.2144C35.2578 71.9153 35.826 72.4835 36.5269 72.4835Z" fill="#1A1919" stroke="#1A1919" stroke-miterlimit="10"/>
<path d="M184.972 206.302C184.972 205.541 184.349 204.918 183.588 204.918C182.826 204.918 182.203 205.541 182.203 206.302C182.203 207.064 182.826 207.687 183.588 207.687C184.349 207.687 184.972 207.064 184.972 206.302Z" fill="#1A1919" stroke="#1A1919" stroke-miterlimit="10"/>
<path d="M184.969 198.295C185.644 198.295 186.192 197.748 186.192 197.073C186.192 196.397 185.644 195.85 184.969 195.85C184.294 195.85 183.746 196.397 183.746 197.073C183.746 197.748 184.294 198.295 184.969 198.295Z" fill="#1A1919" stroke="#1A1919" stroke-miterlimit="10"/>
<path d="M227.787 179.421C228.698 179.421 229.436 178.682 229.436 177.771C229.436 176.859 228.698 176.121 227.787 176.121C226.875 176.121 226.137 176.859 226.137 177.771C226.137 178.682 226.875 179.421 227.787 179.421Z" fill="#1A1919" stroke="#1A1919" stroke-miterlimit="10"/>
<path d="M27.4336 153.671C27.4336 154.328 27.9758 154.87 28.6335 154.87C29.2911 154.87 29.8333 154.328 29.8333 153.671C29.8333 153.013 29.3026 152.471 28.6335 152.471C27.9643 152.471 27.4336 153.013 27.4336 153.671Z" fill="#1A1919" stroke="#1A1919" stroke-miterlimit="10"/>
<path d="M234.538 42.0967C235.403 42.0967 236.118 41.3929 236.118 40.5161C236.118 39.6393 235.414 38.9355 234.538 38.9355C233.661 38.9355 232.957 39.6393 232.957 40.5161C232.957 41.3929 233.661 42.0967 234.538 42.0967Z" fill="#1A1919" stroke="#1A1919" stroke-miterlimit="10"/>
<path d="M244.548 67.5226C245.725 67.5226 246.683 66.565 246.683 65.3883C246.683 64.2115 245.725 63.2539 244.548 63.2539C243.372 63.2539 242.414 64.2115 242.414 65.3883C242.414 66.565 243.372 67.5226 244.548 67.5226Z" fill="#1A1919" stroke="#1A1919" stroke-miterlimit="10"/>
<path d="M228.62 63.9586C229.07 63.9586 229.439 63.5894 229.439 63.1394C229.439 62.6895 229.07 62.3203 228.62 62.3203C228.17 62.3203 227.801 62.6895 227.801 63.1394C227.801 63.5894 228.17 63.9586 228.62 63.9586Z" fill="#1A1919" stroke="#1A1919" stroke-miterlimit="10"/>
<path d="M210.044 36.9034C210.298 36.9034 210.505 36.6968 210.505 36.442C210.505 36.1871 210.298 35.9805 210.044 35.9805C209.789 35.9805 209.582 36.1871 209.582 36.442C209.582 36.6968 209.789 36.9034 210.044 36.9034Z" fill="#1A1919" stroke="#1A1919" stroke-miterlimit="10"/>
<path d="M35.0141 62.2394C35.0141 62.2394 37.6907 52.4214 30.2262 48.7526C22.7618 45.0838 19.6929 37.7116 20.3736 31.92C21.0428 26.1284 15.7934 26.7861 18.2854 18.664C20.7774 10.5419 18.1354 7 18.1354 7C18.1354 7 24.3885 12.8147 28.288 15.5143C32.176 18.214 37.8522 23.6941 39.6289 30.6164C41.4172 37.5271 40.7827 44.6339 36.6178 49.7679C32.4644 54.9019 41.4749 55.3172 35.0257 62.251L35.0141 62.2394Z" fill="white" stroke="#1A1919" stroke-linecap="round" stroke-linejoin="round"/>
<path d="M21.918 12.8496C21.918 12.8496 34.7472 26.3364 34.5164 46.7455C34.4934 48.3837 35.5548 51.7641 35.5663 53.1139" fill="white"/>
<path d="M21.918 12.8496C21.918 12.8496 34.7472 26.3364 34.5164 46.7455C34.4934 48.3837 35.5548 51.7641 35.5663 53.1139" stroke="#1A1919" stroke-linecap="round" stroke-linejoin="round"/>
<path d="M22.4258 30.2352C22.4258 30.2352 28.9558 26.0357 31.9785 30.6736Z" fill="white"/>
<path d="M22.4258 30.2352C22.4258 30.2352 28.9558 26.0357 31.9785 30.6736" stroke="#1A1919" stroke-linecap="round" stroke-linejoin="round"/>
<path d="M24.9414 33.6965C24.9414 33.6965 27.6988 31.3775 31.5868 33.4772Z" fill="white"/>
<path d="M24.9414 33.6965C24.9414 33.6965 27.6988 31.3775 31.5868 33.4772" stroke="#1A1919" stroke-linecap="round" stroke-linejoin="round"/>
<path d="M24.5273 36.8916C24.5273 36.8916 27.55 35.934 28.923 37.2954Z" fill="white"/>
<path d="M24.5273 36.8916C24.5273 36.8916 27.55 35.934 28.923 37.2954" stroke="#1A1919" stroke-linecap="round" stroke-linejoin="round"/>
<path d="M34.3359 32.5316C34.3359 32.5316 34.4052 28.6782 36.6203 28.459Z" fill="white"/>
<path d="M34.3359 32.5316C34.3359 32.5316 34.4052 28.6782 36.6203 28.459" stroke="#1A1919" stroke-linecap="round" stroke-linejoin="round"/>
<path d="M35.4297 35.6348C35.4297 35.6348 36.6526 31.0084 38.1294 30.8008Z" fill="white"/>
<path d="M35.4297 35.6348C35.4297 35.6348 36.6526 31.0084 38.1294 30.8008" stroke="#1A1919" stroke-linecap="round" stroke-linejoin="round"/>
<path d="M30.5261 21.745C30.5261 21.745 30.1916 20.9605 31.3337 20.3145Z" fill="white"/>
<path d="M30.5261 21.745C30.5261 21.745 30.1916 20.9605 31.3337 20.3145" stroke="#1A1919" stroke-linecap="round" stroke-linejoin="round"/>
<path d="M36.9771 184.232L38.4769 185.894C36.5156 190.232 34.7043 198.019 41.5111 205.714C48.3526 213.433 57.2131 213.283 62.3125 212.337L64.2507 214.483C64.2507 214.483 48.791 220.793 38.0731 208.691C27.3552 196.589 36.9771 184.232 36.9771 184.232Z" fill="white" stroke="#1A1919" stroke-width="0.75" stroke-linecap="round" stroke-linejoin="round"/>
<path d="M41.4973 205.703C34.6905 198.02 36.5018 190.221 38.4631 185.883L62.2986 212.326C57.1993 213.272 48.3273 213.422 41.4973 205.703Z" fill="white" stroke="#1A1919" stroke-width="0.75" stroke-linecap="round" stroke-linejoin="round"/>
<path d="M48.4317 200.557C46.9319 198.872 47.3357 197.153 47.7625 196.207L53.0004 202.022C51.8813 202.229 49.9315 202.264 48.4317 200.568V200.557Z" fill="#1A1919"/>
<path d="M51.257 200.489L50.7148 200.496L50.8725 211.928L51.4147 211.921L51.257 200.489Z" fill="white" stroke="#1A1919" stroke-width="0.75" stroke-linecap="round" stroke-linejoin="round"/>
<path d="M49.5105 198.864L41.0312 205.152L41.3542 205.588L49.8335 199.3L49.5105 198.864Z" fill="white" stroke="#1A1919" stroke-width="0.75" stroke-linecap="round" stroke-linejoin="round"/>
<path d="M36.8377 192.394L36.625 192.893L48.3513 197.894L48.564 197.396L36.8377 192.394Z" fill="white" stroke="#1A1919" stroke-width="0.75" stroke-linecap="round" stroke-linejoin="round"/>
<path d="M40.2433 207.144C32.352 198.226 35.49 189.181 37.6936 185.027L38.4666 185.893C36.5053 190.231 34.694 198.018 41.5008 205.713C48.3423 213.432 57.2028 213.282 62.3022 212.336L63.6174 213.789C58.668 214.978 48.1577 216.097 40.2433 207.155V207.144Z" fill="white" stroke="#1A1919" stroke-width="0.75" stroke-linecap="round" stroke-linejoin="round"/>
<path d="M87.2206 226.088L85.6054 224.542C87.2437 220.077 88.4897 212.175 81.1406 204.999C73.7569 197.799 64.9311 198.595 59.9124 199.911L57.8242 197.903C57.8242 197.903 72.7878 190.485 84.3479 201.768C95.908 213.051 87.2206 226.088 87.2206 226.088Z" fill="white" stroke="#1A1919" stroke-width="0.75" stroke-linecap="round" stroke-linejoin="round"/>
<path d="M81.1383 204.999C88.4874 212.163 87.2414 220.078 85.6032 224.543L59.9102 199.911C64.9288 198.596 73.7662 197.8 81.1383 204.999Z" fill="white" stroke="#1A1919" stroke-width="0.75" stroke-linecap="round" stroke-linejoin="round"/>
<path d="M71.3332 199.506L70.793 199.553L71.7815 210.943L72.3217 210.896L71.3332 199.506Z" fill="white" stroke="#1A1919" stroke-width="0.75" stroke-linecap="round" stroke-linejoin="round"/>
<path d="M81.2952 205.126L73.2969 212.016L73.6508 212.426L81.6491 205.537L81.2952 205.126Z" fill="white" stroke="#1A1919" stroke-width="0.75" stroke-linecap="round" stroke-linejoin="round"/>
<path d="M82.2892 203.465C90.8036 211.783 88.3347 221.036 86.4426 225.339L85.6004 224.531C87.2386 220.067 88.4846 212.164 81.1355 204.988C73.7518 197.788 64.926 198.585 59.9074 199.9L58.4883 198.538C63.3338 196.992 73.7403 195.112 82.2892 203.453V203.465Z" fill="white" stroke="#1A1919" stroke-width="0.75" stroke-linecap="round" stroke-linejoin="round"/>
<path d="M37.8554 173.814C35.8018 176.248 32.1561 176.559 29.7102 174.506C27.2759 172.452 26.9644 168.806 29.018 166.361C31.0716 163.926 34.7173 163.615 37.1632 165.668C39.5975 167.722 39.909 171.368 37.8554 173.814Z" fill="white" stroke="#1A1919" stroke-width="0.75" stroke-linecap="round" stroke-linejoin="round"/>
<path d="M33.4459 170.086C32.4191 171.309 30.8039 171.644 29.8464 170.825C28.8888 170.017 28.9465 168.367 29.9733 167.156C31.0001 165.933 32.6153 165.598 33.5728 166.418C34.5304 167.225 34.4727 168.875 33.4459 170.086Z" fill="white" stroke="#1A1919" stroke-width="0.75" stroke-linecap="round" stroke-linejoin="round"/>
<path d="M214.439 205.981C212.766 202.543 210.839 200.028 210.124 200.374C209.409 200.72 210.193 203.789 211.866 207.227C213.539 210.665 215.466 213.18 216.181 212.834C216.896 212.488 216.112 209.419 214.439 205.981Z" fill="white"/>
<path d="M214.439 205.981C212.766 202.543 210.839 200.028 210.124 200.374C209.409 200.72 210.193 203.789 211.866 207.227C213.539 210.665 215.466 213.18 216.181 212.834C216.896 212.488 216.112 209.419 214.439 205.981Z" stroke="#1A1919" stroke-width="0.75" stroke-linecap="round" stroke-linejoin="round"/>
<path d="M204.124 191.293C205.797 194.731 207.724 197.246 208.439 196.9C209.154 196.554 208.37 193.485 206.697 190.047C205.024 186.609 203.097 184.094 202.382 184.44C201.667 184.786 202.451 187.855 204.124 191.293Z" fill="white"/>
<path d="M204.124 191.293C205.797 194.731 207.724 197.246 208.439 196.9C209.154 196.554 208.37 193.485 206.697 190.047C205.024 186.609 203.097 184.094 202.382 184.44C201.667 184.786 202.451 187.855 204.124 191.293Z" stroke="#1A1919" stroke-width="0.75" stroke-linecap="round" stroke-linejoin="round"/>
<path d="M216.619 193.485C213.181 195.158 210.666 197.085 211.012 197.8C211.358 198.516 214.427 197.731 217.865 196.058C221.303 194.385 223.818 192.459 223.472 191.743C223.126 191.028 220.057 191.813 216.619 193.485Z" fill="white"/>
<path d="M216.619 193.485C213.181 195.158 210.666 197.085 211.012 197.8C211.358 198.516 214.427 197.731 217.865 196.058C221.303 194.385 223.818 192.459 223.472 191.743C223.126 191.028 220.057 191.813 216.619 193.485Z" stroke="#1A1919" stroke-width="0.75" stroke-linecap="round" stroke-linejoin="round"/>
<path d="M201.932 203.789C205.37 202.116 207.885 200.189 207.539 199.474C207.193 198.759 204.124 199.543 200.686 201.216C197.248 202.889 194.733 204.815 195.079 205.531C195.425 206.246 198.494 205.462 201.932 203.789Z" fill="white"/>
<path d="M201.932 203.789C205.37 202.116 207.885 200.189 207.539 199.474C207.193 198.759 204.124 199.543 200.686 201.216C197.248 202.889 194.733 204.815 195.079 205.531C195.425 206.246 198.494 205.462 201.932 203.789Z" stroke="#1A1919" stroke-width="0.75" stroke-linecap="round" stroke-linejoin="round"/>
<path d="M200.444 197.085C204.055 198.343 207.205 198.747 207.459 197.997C207.712 197.247 204.99 195.632 201.379 194.374C197.767 193.116 194.618 192.713 194.364 193.463C194.11 194.212 196.833 195.828 200.444 197.085Z" fill="white"/>
<path d="M200.444 197.085C204.055 198.343 207.205 198.747 207.459 197.997C207.712 197.247 204.99 195.632 201.379 194.374C197.767 193.116 194.618 192.713 194.364 193.463C194.11 194.212 196.833 195.828 200.444 197.085Z" stroke="#1A1919" stroke-width="0.75" stroke-linecap="round" stroke-linejoin="round"/>
<path d="M218.121 200.188C214.51 198.931 211.36 198.527 211.106 199.277C210.852 200.027 213.575 201.642 217.186 202.9C220.797 204.157 223.947 204.561 224.201 203.811C224.455 203.061 221.732 201.446 218.121 200.188Z" fill="white"/>
<path d="M218.121 200.188C214.51 198.931 211.36 198.527 211.106 199.277C210.852 200.027 213.575 201.642 217.186 202.9C220.797 204.157 223.947 204.561 224.201 203.811C224.455 203.061 221.732 201.446 218.121 200.188Z" stroke="#1A1919" stroke-width="0.75" stroke-linecap="round" stroke-linejoin="round"/>
<path d="M207.734 207.48C208.991 203.869 209.395 200.719 208.645 200.466C207.895 200.212 206.28 202.935 205.022 206.546C203.765 210.157 203.361 213.306 204.111 213.56C204.861 213.814 206.476 211.091 207.734 207.48Z" fill="white"/>
<path d="M207.734 207.48C208.991 203.869 209.395 200.719 208.645 200.466C207.895 200.212 206.28 202.935 205.022 206.546C203.765 210.157 203.361 213.306 204.111 213.56C204.861 213.814 206.476 211.091 207.734 207.48Z" stroke="#1A1919" stroke-width="0.75" stroke-linecap="round" stroke-linejoin="round"/>
<path d="M210.827 189.805C209.57 193.417 209.166 196.566 209.916 196.82C210.666 197.074 212.281 194.351 213.538 190.74C214.796 187.129 215.2 183.979 214.45 183.725C213.7 183.472 212.085 186.194 210.827 189.805Z" fill="white"/>
<path d="M210.827 189.805C209.57 193.417 209.166 196.566 209.916 196.82C210.666 197.074 212.281 194.351 213.538 190.74C214.796 187.129 215.2 183.979 214.45 183.725C213.7 183.472 212.085 186.194 210.827 189.805Z" stroke="#1A1919" stroke-width="0.75" stroke-linecap="round" stroke-linejoin="round"/>
<path d="M212.395 207.052C211.657 203.303 210.434 200.372 209.661 200.534C208.888 200.684 208.853 203.856 209.591 207.606C210.33 211.355 211.553 214.286 212.326 214.124C213.099 213.974 213.133 210.802 212.395 207.052Z" fill="white"/>
<path d="M212.395 207.052C211.657 203.303 210.434 200.372 209.661 200.534C208.888 200.684 208.853 203.856 209.591 207.606C210.33 211.355 211.553 214.286 212.326 214.124C213.099 213.974 213.133 210.802 212.395 207.052Z" stroke="#1A1919" stroke-width="0.75" stroke-linecap="round" stroke-linejoin="round"/>
<path d="M206.166 190.219C206.904 193.969 208.127 196.899 208.9 196.738C209.673 196.588 209.707 193.415 208.969 189.665C208.231 185.916 207.008 182.985 206.235 183.147C205.462 183.297 205.427 186.47 206.166 190.219Z" fill="white"/>
<path d="M206.166 190.219C206.904 193.969 208.127 196.899 208.9 196.738C209.673 196.588 209.707 193.415 208.969 189.665C208.231 185.916 207.008 182.985 206.235 183.147C205.462 183.297 205.427 186.47 206.166 190.219Z" stroke="#1A1919" stroke-width="0.75" stroke-linecap="round" stroke-linejoin="round"/>
<path d="M217.693 195.527C213.943 196.265 211.013 197.488 211.174 198.273C211.336 199.057 214.497 199.08 218.247 198.342C221.996 197.604 224.927 196.381 224.765 195.596C224.615 194.823 221.442 194.789 217.693 195.527Z" fill="white"/>
<path d="M217.693 195.527C213.943 196.265 211.013 197.488 211.174 198.273C211.336 199.057 214.497 199.08 218.247 198.342C221.996 197.604 224.927 196.381 224.765 195.596C224.615 194.823 221.442 194.789 217.693 195.527Z" stroke="#1A1919" stroke-width="0.75" stroke-linecap="round" stroke-linejoin="round"/>
<path d="M200.86 201.746C204.609 201.008 207.54 199.785 207.378 199C207.228 198.227 204.056 198.193 200.306 198.931C196.557 199.67 193.626 200.893 193.788 201.677C193.949 202.462 197.11 202.485 200.86 201.746Z" fill="white"/>
<path d="M200.86 201.746C204.609 201.008 207.54 199.785 207.378 199C207.228 198.227 204.056 198.193 200.306 198.931C196.557 199.67 193.626 200.893 193.788 201.677C193.949 202.462 197.11 202.485 200.86 201.746Z" stroke="#1A1919" stroke-width="0.75" stroke-linecap="round" stroke-linejoin="round"/>
<path d="M201.122 194.892C204.294 197.026 207.236 198.226 207.675 197.568C208.113 196.911 205.898 194.649 202.714 192.515C199.541 190.381 196.599 189.181 196.161 189.838C195.722 190.496 197.938 192.757 201.122 194.892Z" fill="white"/>
<path d="M201.122 194.892C204.294 197.026 207.236 198.226 207.675 197.568C208.113 196.911 205.898 194.649 202.714 192.515C199.541 190.381 196.599 189.181 196.161 189.838C195.722 190.496 197.938 192.757 201.122 194.892Z" stroke="#1A1919" stroke-width="0.75" stroke-linecap="round" stroke-linejoin="round"/>
<path d="M217.425 202.392C214.252 200.258 211.31 199.058 210.872 199.715C210.433 200.373 212.648 202.634 215.833 204.768C219.005 206.903 221.947 208.103 222.386 207.445C222.824 206.787 220.609 204.526 217.425 202.392Z" fill="white"/>
<path d="M217.425 202.392C214.252 200.258 211.31 199.058 210.872 199.715C210.433 200.373 212.648 202.634 215.833 204.768C219.005 206.903 221.947 208.103 222.386 207.445C222.824 206.787 220.609 204.526 217.425 202.392Z" stroke="#1A1919" stroke-width="0.75" stroke-linecap="round" stroke-linejoin="round"/>
<path d="M205.53 206.788C207.665 203.615 208.864 200.673 208.207 200.235C207.549 199.797 205.288 202.012 203.154 205.196C201.019 208.369 199.819 211.311 200.477 211.749C201.135 212.187 203.396 209.972 205.53 206.788Z" fill="white"/>
<path d="M205.53 206.788C207.665 203.615 208.864 200.673 208.207 200.235C207.549 199.797 205.288 202.012 203.154 205.196C201.019 208.369 199.819 211.311 200.477 211.749C201.135 212.187 203.396 209.972 205.53 206.788Z" stroke="#1A1919" stroke-width="0.75" stroke-linecap="round" stroke-linejoin="round"/>
<path d="M213.032 190.485C210.898 193.658 209.698 196.6 210.356 197.038C211.014 197.476 213.275 195.261 215.409 192.077C217.543 188.904 218.743 185.962 218.086 185.524C217.428 185.086 215.167 187.301 213.032 190.485Z" fill="white"/>
<path d="M213.032 190.485C210.898 193.658 209.698 196.6 210.356 197.038C211.014 197.476 213.275 195.261 215.409 192.077C217.543 188.904 218.743 185.962 218.086 185.524C217.428 185.086 215.167 187.301 213.032 190.485Z" stroke="#1A1919" stroke-width="0.75" stroke-linecap="round" stroke-linejoin="round"/>
<path d="M215.752 204.849C213.444 201.791 211.068 199.703 210.433 200.176C209.799 200.649 211.16 203.51 213.467 206.568C215.775 209.625 218.151 211.713 218.786 211.24C219.421 210.767 218.059 207.906 215.752 204.849Z" fill="white"/>
<path d="M215.752 204.849C213.444 201.791 211.068 199.703 210.433 200.176C209.799 200.649 211.16 203.51 213.467 206.568C215.775 209.625 218.151 211.713 218.786 211.24C219.421 210.767 218.059 207.906 215.752 204.849Z" stroke="#1A1919" stroke-width="0.75" stroke-linecap="round" stroke-linejoin="round"/>
<path d="M202.796 192.423C205.103 195.481 207.48 197.569 208.114 197.096C208.749 196.623 207.387 193.762 205.08 190.704C202.772 187.647 200.396 185.559 199.761 186.032C199.127 186.505 200.488 189.366 202.796 192.423Z" fill="white"/>
<path d="M202.796 192.423C205.103 195.481 207.48 197.569 208.114 197.096C208.749 196.623 207.387 193.762 205.08 190.704C202.772 187.647 200.396 185.559 199.761 186.032C199.127 186.505 200.488 189.366 202.796 192.423Z" stroke="#1A1919" stroke-width="0.75" stroke-linecap="round" stroke-linejoin="round"/>
<path d="M215.489 192.157C212.432 194.464 210.344 196.841 210.817 197.475C211.29 198.11 214.151 196.749 217.208 194.441C220.266 192.134 222.354 189.757 221.881 189.123C221.408 188.488 218.547 189.849 215.489 192.157Z" fill="white"/>
<path d="M215.489 192.157C212.432 194.464 210.344 196.841 210.817 197.475C211.29 198.11 214.151 196.749 217.208 194.441C220.266 192.134 222.354 189.757 221.881 189.123C221.408 188.488 218.547 189.849 215.489 192.157Z" stroke="#1A1919" stroke-width="0.75" stroke-linecap="round" stroke-linejoin="round"/>
<path d="M203.064 205.113C206.121 202.806 208.209 200.429 207.736 199.794C207.263 199.16 204.402 200.521 201.345 202.829C198.287 205.136 196.199 207.513 196.672 208.147C197.145 208.782 200.007 207.42 203.064 205.113Z" fill="white"/>
<path d="M203.064 205.113C206.121 202.806 208.209 200.429 207.736 199.794C207.263 199.16 204.402 200.521 201.345 202.829C198.287 205.136 196.199 207.513 196.672 208.147C197.145 208.782 200.007 207.42 203.064 205.113Z" stroke="#1A1919" stroke-width="0.75" stroke-linecap="round" stroke-linejoin="round"/>
<path d="M200.308 198.826C204.092 199.357 207.253 199.149 207.368 198.376C207.472 197.592 204.496 196.53 200.7 196C196.916 195.469 193.755 195.677 193.639 196.45C193.536 197.234 196.512 198.296 200.308 198.826Z" fill="white"/>
<path d="M200.308 198.826C204.092 199.357 207.253 199.149 207.368 198.376C207.472 197.592 204.496 196.53 200.7 196C196.916 195.469 193.755 195.677 193.639 196.45C193.536 197.234 196.512 198.296 200.308 198.826Z" stroke="#1A1919" stroke-width="0.75" stroke-linecap="round" stroke-linejoin="round"/>
<path d="M218.247 198.445C214.463 197.914 211.302 198.122 211.186 198.895C211.082 199.68 214.059 200.741 217.855 201.272C221.639 201.802 224.8 201.595 224.915 200.822C225.019 200.037 222.043 198.976 218.247 198.445Z" fill="white"/>
<path d="M218.247 198.445C214.463 197.914 211.302 198.122 211.186 198.895C211.082 199.68 214.059 200.741 217.855 201.272C221.639 201.802 224.8 201.595 224.915 200.822C225.019 200.037 222.043 198.976 218.247 198.445Z" stroke="#1A1919" stroke-width="0.75" stroke-linecap="round" stroke-linejoin="round"/>
<path d="M209.465 207.606C209.996 203.822 209.788 200.661 209.015 200.546C208.231 200.442 207.169 203.418 206.638 207.214C206.108 210.998 206.315 214.159 207.088 214.275C207.873 214.379 208.934 211.402 209.465 207.606Z" fill="white"/>
<path d="M209.465 207.606C209.996 203.822 209.788 200.661 209.015 200.546C208.231 200.442 207.169 203.418 206.638 207.214C206.108 210.998 206.315 214.159 207.088 214.275C207.873 214.379 208.934 211.402 209.465 207.606Z" stroke="#1A1919" stroke-width="0.75" stroke-linecap="round" stroke-linejoin="round"/>
<path d="M209.088 189.665C208.557 193.449 208.765 196.61 209.538 196.726C210.322 196.83 211.383 193.853 211.914 190.057C212.445 186.273 212.237 183.112 211.464 182.997C210.68 182.893 209.618 185.87 209.088 189.665Z" fill="white"/>
<path d="M209.088 189.665C208.557 193.449 208.765 196.61 209.538 196.726C210.322 196.83 211.383 193.853 211.914 190.057C212.445 186.273 212.237 183.112 211.464 182.997C210.68 182.893 209.618 185.87 209.088 189.665Z" stroke="#1A1919" stroke-width="0.75" stroke-linecap="round" stroke-linejoin="round"/>
<path d="M210.709 207.49C210.709 203.66 210.074 200.557 209.278 200.557C208.482 200.557 207.848 203.66 207.848 207.49C207.848 211.321 208.482 214.424 209.278 214.424C210.074 214.424 210.709 211.321 210.709 207.49Z" fill="white"/>
<path d="M210.709 207.49C210.709 203.66 210.074 200.557 209.278 200.557C208.482 200.557 207.848 203.66 207.848 207.49C207.848 211.321 208.482 214.424 209.278 214.424C210.074 214.424 210.709 211.321 210.709 207.49Z" stroke="#1A1919" stroke-width="0.75" stroke-linecap="round" stroke-linejoin="round"/>
<path d="M207.848 189.781C207.848 193.612 208.482 196.715 209.278 196.715C210.074 196.715 210.709 193.612 210.709 189.781C210.709 185.951 210.074 182.848 209.278 182.848C208.482 182.848 207.848 185.951 207.848 189.781Z" fill="white"/>
<path d="M207.848 189.781C207.848 193.612 208.482 196.715 209.278 196.715C210.074 196.715 210.709 193.612 210.709 189.781C210.709 185.951 210.074 182.848 209.278 182.848C208.482 182.848 207.848 185.951 207.848 189.781Z" stroke="#1A1919" stroke-width="0.75" stroke-linecap="round" stroke-linejoin="round"/>
<path d="M218.141 200.072C221.97 200.072 225.075 199.432 225.075 198.642C225.075 197.851 221.97 197.211 218.141 197.211C214.311 197.211 211.207 197.851 211.207 198.642C211.207 199.432 214.311 200.072 218.141 200.072Z" fill="white"/>
<path d="M218.141 200.072C221.97 200.072 225.075 199.432 225.075 198.642C225.075 197.851 221.97 197.211 218.141 197.211C214.311 197.211 211.207 197.851 211.207 198.642C211.207 199.432 214.311 200.072 218.141 200.072Z" stroke="#1A1919" stroke-width="0.75" stroke-linecap="round" stroke-linejoin="round"/>
<path d="M200.422 200.072C204.251 200.072 207.356 199.432 207.356 198.642C207.356 197.851 204.251 197.211 200.422 197.211C196.593 197.211 193.488 197.851 193.488 198.642C193.488 199.432 196.593 200.072 200.422 200.072Z" fill="white"/>
<path d="M200.422 200.072C204.251 200.072 207.356 199.432 207.356 198.642C207.356 197.851 204.251 197.211 200.422 197.211C196.593 197.211 193.488 197.851 193.488 198.642C193.488 199.432 196.593 200.072 200.422 200.072Z" stroke="#1A1919" stroke-width="0.75" stroke-linecap="round" stroke-linejoin="round"/>
<path d="M202.002 193.381C204.714 196.092 207.356 197.823 207.909 197.269C208.463 196.715 206.721 194.062 204.021 191.362C201.31 188.651 198.668 186.92 198.114 187.474C197.561 188.028 199.303 190.682 202.002 193.381Z" fill="white"/>
<path d="M202.002 193.381C204.714 196.092 207.356 197.823 207.909 197.269C208.463 196.715 206.721 194.062 204.021 191.362C201.31 188.651 198.668 186.92 198.114 187.474C197.561 188.028 199.303 190.682 202.002 193.381Z" stroke="#1A1919" stroke-width="0.75" stroke-linecap="round" stroke-linejoin="round"/>
<path d="M216.549 203.892C213.837 201.18 211.196 199.45 210.642 200.004C210.088 200.557 211.83 203.211 214.53 205.911C217.241 208.622 219.883 210.352 220.437 209.798C220.99 209.245 219.248 206.591 216.549 203.892Z" fill="white"/>
<path d="M216.549 203.892C213.837 201.18 211.196 199.45 210.642 200.004C210.088 200.557 211.83 203.211 214.53 205.911C217.241 208.622 219.883 210.352 220.437 209.798C220.99 209.245 219.248 206.591 216.549 203.892Z" stroke="#1A1919" stroke-width="0.75" stroke-linecap="round" stroke-linejoin="round"/>
<path d="M204.022 205.91C206.733 203.199 208.464 200.557 207.91 200.003C207.356 199.449 204.703 201.191 202.003 203.891C199.292 206.602 197.561 209.244 198.115 209.798C198.669 210.352 201.322 208.61 204.022 205.91Z" fill="white"/>
<path d="M204.022 205.91C206.733 203.199 208.464 200.557 207.91 200.003C207.356 199.449 204.703 201.191 202.003 203.891C199.292 206.602 197.561 209.244 198.115 209.798C198.669 210.352 201.322 208.61 204.022 205.91Z" stroke="#1A1919" stroke-width="0.75" stroke-linecap="round" stroke-linejoin="round"/>
<path d="M214.53 191.362C211.819 194.073 210.088 196.715 210.642 197.269C211.196 197.823 213.849 196.08 216.549 193.381C219.26 190.67 220.991 188.028 220.437 187.474C219.883 186.92 217.23 188.662 214.53 191.362Z" fill="white"/>
<path d="M214.53 191.362C211.819 194.073 210.088 196.715 210.642 197.269C211.196 197.823 213.849 196.08 216.549 193.381C219.26 190.67 220.991 188.028 220.437 187.474C219.883 186.92 217.23 188.662 214.53 191.362Z" stroke="#1A1919" stroke-width="0.75" stroke-linecap="round" stroke-linejoin="round"/>
<path d="M202.207 198.643C202.207 202.554 205.368 205.715 209.279 205.715C213.19 205.715 216.351 202.554 216.351 198.643C216.351 194.731 213.19 191.57 209.279 191.57C205.368 191.57 202.207 194.731 202.207 198.643Z" fill="white"/>
<path d="M202.207 198.643C202.207 202.554 205.368 205.715 209.279 205.715C213.19 205.715 216.351 202.554 216.351 198.643C216.351 194.731 213.19 191.57 209.279 191.57C205.368 191.57 202.207 194.731 202.207 198.643Z" stroke="#1A1919" stroke-width="0.75" stroke-linecap="round" stroke-linejoin="round"/>
<path d="M203.938 198.643C203.938 201.585 206.326 203.973 209.268 203.973C212.21 203.973 214.598 201.585 214.598 198.643C214.598 195.701 212.21 193.312 209.268 193.312C206.326 193.312 203.938 195.701 203.938 198.643Z" fill="white"/>
<path d="M203.938 198.643C203.938 201.585 206.326 203.973 209.268 203.973C212.21 203.973 214.598 201.585 214.598 198.643C214.598 195.701 212.21 193.312 209.268 193.312C206.326 193.312 203.938 195.701 203.938 198.643Z" stroke="#1A1919" stroke-width="0.75" stroke-linecap="round" stroke-linejoin="round"/>
<path d="M54.6143 186.205C55.2642 186.205 55.7911 185.678 55.7911 185.028C55.7911 184.378 55.2642 183.852 54.6143 183.852C53.9643 183.852 53.4375 184.378 53.4375 185.028C53.4375 185.678 53.9643 186.205 54.6143 186.205Z" fill="#1A1919"/>
<path d="M47.371 181.199C48.0592 181.199 48.617 180.641 48.617 179.953C48.617 179.265 48.0592 178.707 47.371 178.707C46.6829 178.707 46.125 179.265 46.125 179.953C46.125 180.641 46.6829 181.199 47.371 181.199Z" fill="#1A1919"/>
<path d="M27.0408 75.4501C27.0408 76.0385 26.5678 76.5115 25.9794 76.5115C25.391 76.5115 24.918 76.0385 24.918 75.4501C24.918 74.8617 25.391 74.3887 25.9794 74.3887C26.5678 74.3887 27.0408 74.8617 27.0408 75.4501Z" fill="#1A1919"/>
<path d="M46.5054 56.8523C46.5054 57.3715 46.0785 57.7983 45.5593 57.7983C45.0402 57.7983 44.6133 57.3715 44.6133 56.8523C44.6133 56.3331 45.0402 55.9062 45.5593 55.9062C46.0785 55.9062 46.5054 56.3331 46.5054 56.8523Z" fill="#1A1919"/>
<path d="M40.1363 66.0694C40.8372 66.0694 41.4053 65.5012 41.4053 64.8003C41.4053 64.0994 40.8372 63.5312 40.1363 63.5312C39.4354 63.5312 38.8672 64.0994 38.8672 64.8003C38.8672 65.5012 39.4354 66.0694 40.1363 66.0694Z" fill="#1A1919"/>
<path d="M27.4801 195.504C27.4801 197.707 25.7034 199.484 23.4998 199.484C21.2962 199.484 19.5195 197.707 19.5195 195.504C19.5195 193.3 21.2962 191.523 23.4998 191.523C25.7034 191.523 27.4801 193.3 27.4801 195.504Z" fill="#1A1919"/>
<path d="M188.585 199.9C188.585 200.662 187.962 201.285 187.201 201.285C186.439 201.285 185.816 200.662 185.816 199.9C185.816 199.139 186.439 198.516 187.201 198.516C187.962 198.516 188.585 199.139 188.585 199.9Z" fill="#1A1919"/>
<path d="M188.586 191.893C189.262 191.893 189.809 191.346 189.809 190.67C189.809 189.995 189.262 189.447 188.586 189.447C187.911 189.447 187.363 189.995 187.363 190.67C187.363 191.346 187.911 191.893 188.586 191.893Z" fill="#1A1919"/>
<path d="M181.709 201.573C181.709 202.092 181.294 202.508 180.774 202.508C180.255 202.508 179.84 202.092 179.84 201.573C179.84 201.054 180.255 200.639 180.774 200.639C181.294 200.639 181.709 201.054 181.709 201.573Z" fill="#1A1919"/>
<path d="M233.046 171.357C233.046 172.268 232.307 173.007 231.396 173.007C230.484 173.007 229.746 172.268 229.746 171.357C229.746 170.445 230.484 169.707 231.396 169.707C232.307 169.707 233.046 170.445 233.046 171.357Z" fill="#1A1919"/>
<path d="M33.446 74.8379L32.2461 83.6176" stroke="#1A1919" stroke-linecap="round" stroke-linejoin="round"/>
<path d="M56.8438 32.5312L58.6897 37.8152" stroke="#1A1919" stroke-linecap="round" stroke-linejoin="round"/>
<path d="M223.507 163.246L222.445 164.965" stroke="#1A1919" stroke-linecap="round" stroke-linejoin="round"/>
<path d="M241.297 152.309V157.408" stroke="#1A1919" stroke-linecap="round" stroke-linejoin="round"/>
<path d="M239.73 173.008V174.531" stroke="#1A1919" stroke-linecap="round" stroke-linejoin="round"/>
<path d="M234.366 182.848L233.051 183.851" stroke="#1A1919" stroke-linecap="round" stroke-linejoin="round"/>
<path d="M214.822 177.207H213.195" stroke="#1A1919" stroke-linecap="round" stroke-linejoin="round"/>
<path fill-rule="evenodd" clip-rule="evenodd" d="M33.4427 147.256C33.4427 146.599 32.9004 146.057 32.2428 146.057C31.5852 146.057 31.043 146.599 31.043 147.256C31.043 147.914 31.5852 148.456 32.2428 148.456C32.9004 148.456 33.4427 147.914 33.4427 147.256Z" fill="#1A1919"/>
<path fill-rule="evenodd" clip-rule="evenodd" d="M239.728 34.1118C239.728 34.9771 239.024 35.6924 238.147 35.6924C237.27 35.6924 236.566 34.9886 236.566 34.1118C236.566 33.235 237.27 32.5312 238.147 32.5312C239.024 32.5312 239.728 33.235 239.728 34.1118Z" fill="#1A1919"/>
<path fill-rule="evenodd" clip-rule="evenodd" d="M233.048 56.7371C233.048 57.187 232.679 57.5562 232.229 57.5562C231.779 57.5562 231.41 57.187 231.41 56.7371C231.41 56.2872 231.779 55.918 232.229 55.918C232.679 55.918 233.048 56.2872 233.048 56.7371Z" fill="#1A1919"/>
<path fill-rule="evenodd" clip-rule="evenodd" d="M214.103 30.0396C214.103 30.2934 213.895 30.5011 213.641 30.5011C213.387 30.5011 213.18 30.2934 213.18 30.0396C213.18 29.7858 213.387 29.5781 213.641 29.5781C213.895 29.5781 214.103 29.7858 214.103 30.0396Z" fill="#1A1919"/>
<path d="M131.859 17.9141C131.859 17.9141 41.5817 18.5024 38.2244 114.641C34.8671 210.779 143.8 208.414 171.673 191.835C199.535 175.256 232.07 141.107 217.314 86.7787C202.558 32.4623 162.778 21.9636 131.859 17.9141Z" fill="white"/>
<path d="M129.253 201.203C110.551 201.203 89.8424 197.234 73.1021 187.186C48.8166 172.614 36.5874 147.521 37.7295 114.617C39.4716 64.7082 64.9801 40.9303 86.0698 29.774C108.902 17.6947 131.63 17.4062 131.86 17.4062H131.93C146.189 19.2868 164.637 22.7594 180.916 33.0736C199.064 44.576 211.131 62.1008 217.8 86.6517C234.332 147.51 191.23 180.794 171.929 192.273C162.918 197.638 146.985 201.215 129.253 201.215V201.203ZM131.837 18.4215C130.845 18.433 108.729 18.9291 86.5082 30.6969C65.6723 41.7379 40.4638 65.262 38.7333 114.664C37.6026 147.164 49.6588 171.945 73.6098 186.32C108.371 207.179 155.765 200.719 171.421 191.408C190.526 180.044 233.179 147.106 216.831 86.9285C202.606 34.5619 165.883 22.9094 131.837 18.433V18.4215Z" fill="#1A1919"/>
<path d="M53.1654 105.999C51.2041 77.5025 82.3773 24.3859 137.04 28.4008C196.975 32.7965 217.245 88.7973 212.538 117.628C208.454 142.629 188.414 183.367 140.397 186.412C67.979 191.004 55.6344 141.81 53.1654 105.988V105.999Z" fill="white"/>
<path d="M131.307 187.22C103.733 187.22 83.1857 178.648 70.1488 161.666C60.0539 148.525 54.343 130.331 52.6702 106.022C51.4934 88.9938 61.7037 66.1389 77.4748 50.4254C88.9657 38.9922 108.636 25.7823 137.087 27.882C167.464 30.1086 185.519 45.4068 195.326 57.8322C211.062 77.7798 215.562 102.273 213.047 117.698C209.09 141.949 189.338 183.805 140.433 186.909C137.306 187.105 134.272 187.209 131.307 187.209V187.22ZM131.157 28.6896C106.225 28.6896 88.7234 40.6766 78.1901 51.1638C62.6036 66.6811 52.5317 89.213 53.6854 105.965C55.3467 130.066 60.9999 148.087 70.9564 161.054C85.1816 179.571 108.533 187.924 140.375 185.905C188.634 182.848 208.132 141.499 212.055 117.548C214.535 102.342 210.093 78.1836 194.541 58.4783C184.862 46.2028 167.025 31.1124 137.018 28.9088C135.022 28.7588 133.072 28.6896 131.157 28.6896Z" fill="#1A1919"/>
<path d="M81.3953 129.892C81.3953 129.892 74.0346 141.822 79.6186 145.121C85.2025 148.421 84.1872 146.39 84.1872 146.39C84.1872 146.39 82.9182 151.213 88.2483 152.99C93.5784 154.766 98.4009 160.662 98.4009 160.662C98.4009 160.662 101.193 168.968 110.584 162.888C119.975 156.797 116.168 164.665 119.975 166.949C123.782 169.234 140.788 170.757 141.169 167.965C141.169 167.965 151.137 166.188 152.21 162.888C153.283 159.589 161.797 165.934 167.416 162.635C173.023 159.335 182.61 156.543 187.075 147.406C191.551 138.268 199.166 137.115 198.404 122.336C197.643 107.557 188.505 103.438 188.505 103.438C188.505 103.438 194.089 82.9481 185.206 73.0493C176.322 63.1505 165.154 55.7899 162.362 56.0437C159.57 56.2975 146.626 47.1602 141.169 47.1602C135.712 47.1602 130.635 39.7995 124.798 43.6068C118.96 47.414 116.422 40.3072 112.615 43.8606C108.807 47.414 107.792 52.2365 107.792 52.2365C107.792 52.2365 104.792 47.6678 101.089 51.475C97.3856 55.2823 95.6089 61.12 95.6089 61.12C95.6089 61.12 86.7254 62.8967 87.4868 69.2421C88.2483 75.5875 83.4258 81.7944 90.025 83.2596C96.6242 84.7248 81.1414 86.7553 84.1872 97.9232C87.233 109.091 87.6137 113.406 77.5303 108.837C67.4354 104.269 70.8735 125.335 77.5303 125.589C77.5303 125.589 75.0499 130.665 81.3953 129.904V129.892Z" fill="#FBC433"/>
<path d="M135.057 169.972C129.531 169.972 122.078 168.807 119.713 167.388C118.202 166.488 117.752 164.815 117.394 163.477C117.106 162.404 116.852 161.47 116.194 161.216C115.317 160.881 113.529 161.585 110.864 163.316C107.553 165.461 104.646 166.119 102.223 165.277C99.3386 164.273 98.1618 161.493 97.9541 160.927C97.4119 160.281 92.924 155.09 88.09 153.474C84.0981 152.148 83.5328 149.183 83.5559 147.498C82.8175 147.383 81.583 146.875 79.3564 145.56C78.2604 144.914 77.5335 143.922 77.2105 142.607C76.2298 138.615 79.2295 132.673 80.464 130.47C78.7911 130.516 77.6374 130.112 77.0259 129.235C76.276 128.185 76.5529 126.789 76.8182 125.993C74.8339 125.543 73.0456 123.501 71.8342 120.248C70.346 116.267 70.046 110.845 72.4111 108.641C73.2879 107.822 74.9377 107.095 77.7412 108.376C81.5715 110.107 83.902 110.557 84.8827 109.726C86.3825 108.445 85.1826 103.473 83.7059 98.0619C81.8023 91.082 86.8555 87.4478 89.5782 85.4866C90.2474 85.002 91.0896 84.4021 91.1819 84.1482C91.1473 84.1713 90.9281 83.9867 89.9243 83.7675C85.1365 82.7061 85.7941 79.2219 86.4863 75.5301C86.844 73.6149 87.2477 71.446 86.9939 69.3116C86.2671 63.2662 93.6393 61.0972 95.2198 60.705C95.6352 59.4705 97.4119 54.5557 100.723 51.1407C101.911 49.9178 103.157 49.3525 104.461 49.4909C105.834 49.6178 106.918 50.4947 107.565 51.1753C108.072 49.5486 109.387 46.2029 112.272 43.5147C114.325 41.5881 116.137 42.4418 117.879 43.2609C119.748 44.1377 121.686 45.0492 124.512 43.2032C128.297 40.7343 131.723 42.6149 135.046 44.4262C137.145 45.5799 139.141 46.6644 141.16 46.6644C144.368 46.6644 149.802 49.5602 154.601 52.1099C157.866 53.8519 161.223 55.6517 162.308 55.5479C162.365 55.5479 162.435 55.5479 162.492 55.5479C165.988 55.5479 177.11 63.3008 185.567 72.7266C193.942 82.0601 189.835 100.173 189.085 103.184C190.885 104.165 198.211 108.976 198.892 122.324C199.411 132.396 196.065 136.33 192.523 140.495C190.781 142.549 188.97 144.66 187.516 147.648C183.94 154.951 177.179 158.285 171.757 160.95C170.268 161.689 168.861 162.381 167.661 163.085C164.477 164.954 160.52 163.927 157.347 163.108C154.67 162.416 153.02 162.035 152.686 163.062C151.625 166.327 143.456 168.057 141.553 168.426C141.391 168.749 141.08 169.026 140.63 169.246C139.534 169.765 137.48 169.995 135.057 169.995V169.972ZM115.71 160.12C116.021 160.12 116.31 160.166 116.552 160.27C117.694 160.708 118.017 161.92 118.363 163.212C118.709 164.492 119.067 165.819 120.221 166.511C123.37 168.403 136.834 169.903 140.18 168.311C140.468 168.173 140.63 168.023 140.653 167.896L140.699 167.527L141.068 167.457C143.756 166.984 150.909 165.196 151.717 162.727C152.363 160.743 154.786 161.377 157.601 162.104C160.589 162.889 164.315 163.858 167.142 162.196C168.376 161.47 169.795 160.766 171.307 160.027C176.602 157.42 183.178 154.178 186.605 147.187C188.116 144.095 189.962 141.926 191.75 139.826C195.304 135.65 198.373 132.039 197.877 122.371C197.138 108.065 188.37 103.946 188.278 103.9L187.885 103.727L188.001 103.311C188.059 103.104 193.412 82.9715 184.817 73.3957C175.61 63.1393 164.788 56.367 162.4 56.5632C161.096 56.6901 158.408 55.2941 154.128 53.0097C149.663 50.6331 144.114 47.6796 141.16 47.6796C138.876 47.6796 136.684 46.4798 134.561 45.3145C131.365 43.5609 128.354 41.9111 125.078 44.0455C121.778 46.2029 119.378 45.0722 117.452 44.1724C115.744 43.3763 114.521 42.7994 112.964 44.2416C109.318 47.645 108.303 52.306 108.291 52.3521L108.038 53.5404L107.368 52.5252C107.368 52.5252 106.111 50.6562 104.357 50.4947C103.377 50.3908 102.407 50.8639 101.45 51.8445C97.8849 55.5133 96.1082 61.2241 96.0967 61.2818L96.0044 61.5702L95.7044 61.6279C95.6237 61.6395 87.2939 63.3931 87.9861 69.1962C88.263 71.4806 87.8361 73.7303 87.4669 75.7147C86.7055 79.7872 86.4747 81.9562 90.132 82.7753C91.1011 82.9945 92.0241 83.283 92.1625 83.9867C92.324 84.7597 91.5049 85.3481 90.1551 86.3172C87.4554 88.2554 82.956 91.4974 84.6634 97.7966C86.6824 105.18 87.317 108.964 85.5172 110.499C84.1789 111.641 81.6523 111.272 77.3028 109.299C75.4569 108.468 74.0378 108.491 73.0918 109.391C71.1305 111.226 71.3843 116.175 72.7803 119.902C73.9571 123.074 75.7453 125.012 77.5451 125.082L78.3181 125.116L77.9835 125.82C77.7412 126.328 77.2451 127.816 77.8566 128.67C78.3527 129.362 79.5525 129.616 81.3408 129.408L82.3906 129.281L81.8369 130.181C81.7907 130.262 77.1067 137.922 78.2142 142.387C78.468 143.437 79.0218 144.199 79.8871 144.706C82.2407 146.102 83.2559 146.437 83.6597 146.506C83.6828 146.368 83.7059 146.287 83.7059 146.287L84.052 144.983L84.6519 146.183C84.8019 146.483 84.8596 146.921 84.5827 147.244C84.4788 148.548 84.7442 151.305 88.413 152.528C93.8239 154.328 98.6002 160.12 98.7963 160.362L98.8886 160.524C98.8886 160.524 99.8923 163.408 102.569 164.331C104.68 165.058 107.288 164.435 110.31 162.473C112.768 160.881 114.487 160.131 115.71 160.131V160.12Z" fill="#1A1919"/>
<path d="M166.666 154.835C169.55 153.439 165.143 152.008 176.311 146.413C187.478 140.806 195.093 134.587 195.093 120.697C195.093 106.806 176.31 104.799 174.28 96.9189C172.249 89.0391 137.408 80.4786 126.909 87.5508C116.41 94.6231 102.716 110.129 101.193 124.204C99.6698 138.279 114.899 142.49 117.437 147.74C119.975 152.989 136.727 169.279 166.666 154.846V154.835Z" fill="white"/>
<path d="M143.825 161.101C128.642 161.101 119.263 152.702 116.978 147.96C116.217 146.391 114.152 144.856 111.763 143.068C106.641 139.249 99.6149 134.012 100.688 124.147C102.165 110.464 115.155 94.8663 126.635 87.1365C133.58 82.464 151.555 84.3676 163.992 89.0863C167.637 90.4707 173.879 93.3088 174.779 96.793C175.552 99.8157 179.174 102.042 183.005 104.419C188.912 108.065 195.603 112.207 195.603 120.709C195.603 134.542 188.312 140.98 176.544 146.887C169.345 150.498 168.814 152.263 168.468 153.417C168.26 154.098 168.076 154.744 166.899 155.309C158.189 159.508 150.459 161.112 143.836 161.112L143.825 161.101ZM139.21 85.4175C134.18 85.4175 129.842 86.1905 127.2 87.9672C115.917 95.5701 103.145 110.868 101.703 124.251C100.699 133.539 107.172 138.373 112.375 142.249C114.867 144.106 117.024 145.722 117.89 147.51C119.839 151.548 136.13 168.992 166.449 154.374C167.222 154.005 167.314 153.705 167.487 153.105C167.891 151.779 168.491 149.76 176.082 145.952C187.504 140.219 194.576 134 194.576 120.686C194.576 112.749 188.139 108.768 182.462 105.261C178.459 102.781 174.663 100.45 173.787 97.0353C173.21 94.8087 169.506 92.259 163.622 90.0208C156.25 87.2173 146.905 85.406 139.21 85.406V85.4175Z" fill="#1A1919"/>
<path d="M171.238 118.991C171.238 110.396 163.508 103.439 153.978 103.439C148.048 103.439 142.822 106.139 139.707 110.246C140.526 110.177 141.357 110.131 142.199 110.131C154.44 110.131 164.362 117.988 164.362 127.667C164.362 129.098 164.143 130.494 163.727 131.821C168.261 129.017 171.226 124.322 171.226 118.991H171.238Z" fill="#FA9600"/>
<path d="M142.195 110.131C141.353 110.131 140.522 110.177 139.703 110.246C137.822 112.738 136.715 115.749 136.715 118.991C136.715 127.586 144.445 134.543 153.974 134.543C157.597 134.543 160.954 133.528 163.723 131.821C164.127 130.494 164.358 129.098 164.358 127.667C164.358 117.976 154.436 110.131 142.195 110.131Z" fill="#F9A600"/>
<path d="M153.978 135.063C144.183 135.063 136.211 127.852 136.211 119.003C136.211 115.749 137.284 112.623 139.303 109.946C142.626 105.562 148.106 102.943 153.978 102.943C163.773 102.943 171.745 110.154 171.745 119.003C171.745 124.298 168.849 129.259 164.004 132.259C161.039 134.093 157.578 135.063 153.978 135.063ZM153.978 103.947C148.429 103.947 143.249 106.416 140.122 110.558C138.23 113.05 137.238 115.98 137.238 119.003C137.238 127.298 144.748 134.047 153.99 134.047C157.393 134.047 160.669 133.136 163.473 131.394C168.019 128.579 170.741 123.941 170.741 118.991C170.741 110.696 163.231 103.947 153.99 103.947H153.978Z" fill="#1A1919"/>
<path opacity="0.2" d="M167.233 116.614C166.448 117.733 164.637 114.525 161.268 112.183C157.899 109.841 154.265 109.241 155.049 108.122C155.834 107.003 159.191 107.995 162.56 110.337C165.929 112.679 168.017 115.494 167.233 116.614Z" fill="white"/>
<path d="M183.667 99.7009C191.074 89.3637 188.975 60.8787 150.545 61.1325C150.545 61.1325 149.575 68.747 154.952 76.6153C160.328 84.4835 166.927 79.2919 171.242 84.9335C175.557 90.5751 179.71 105.25 183.679 99.7125L183.667 99.7009Z" fill="url(#paint0_linear_2101_29251)"/>
<path d="M181.819 101.432C181.819 101.432 181.703 101.432 181.657 101.432C179.292 101.247 177.25 97.1398 174.873 92.398C173.547 89.7445 172.185 87.0102 170.824 85.2335C168.978 82.8223 166.74 82.5339 164.144 82.1993C161.064 81.807 157.568 81.3571 154.522 76.8922C149.1 68.9548 149.988 61.3749 150.034 61.0634L150.092 60.625H150.53C150.703 60.625 150.876 60.625 151.049 60.625C172.197 60.625 181.069 69.1509 184.795 76.3385C189.272 84.9682 187.818 94.7747 184.069 100.012C183.388 100.97 182.626 101.455 181.807 101.455L181.819 101.432ZM151.015 61.6287C150.923 63.3477 150.899 69.7739 155.376 76.3154C158.168 80.3995 161.283 80.8033 164.294 81.184C166.878 81.5186 169.543 81.8647 171.643 84.6105C173.051 86.4565 174.447 89.2369 175.785 91.9366C177.735 95.8476 179.95 100.278 181.738 100.416C182.234 100.451 182.742 100.128 183.261 99.401C186.826 94.4286 188.199 85.0605 183.907 76.7884C180.319 69.8546 171.701 61.6287 151.061 61.6287H151.003H151.015Z" fill="#1A1919"/>
<path d="M182.163 100.796C182.648 96.8391 182.209 92.755 181.09 88.9131C179.96 85.0713 178.068 81.4602 175.53 78.3798C172.98 75.2994 169.842 72.7267 166.392 70.7192C162.943 68.7002 159.205 67.1773 155.363 66.0467C155.167 65.989 155.04 65.7814 155.109 65.5737C155.167 65.3776 155.374 65.2506 155.582 65.3199C159.47 66.4966 163.243 68.0657 166.727 70.1539C170.222 72.219 173.395 74.861 175.956 78.0222C178.518 81.1833 180.41 84.8752 181.517 88.7862C182.613 92.6973 183.017 96.8045 182.498 100.842C182.486 100.935 182.406 101.004 182.313 100.992C182.221 100.981 182.163 100.9 182.163 100.808V100.796Z" fill="#394920"/>
<path d="M132.863 61.1213C132.863 61.1213 137.94 66.7052 142.889 74.1928C147.838 81.6803 159.641 75.2081 164.209 77.4924C168.778 79.7767 165.098 84.5992 171.697 88.2795C178.296 91.9599 178.423 85.9952 179.946 91.9599C179.946 91.9599 179.392 71.147 164.821 62.5173C150.25 53.8876 132.863 61.1213 132.863 61.1213Z" fill="url(#paint1_linear_2101_29251)"/>
<path d="M180.571 96.4585L179.452 92.0745C179.314 91.5322 178.898 89.894 178.506 89.6748C178.391 89.6055 178.137 89.6748 177.745 89.7786C176.649 90.0786 174.814 90.5862 171.457 88.7172C167.673 86.6059 167.073 84.0331 166.588 81.968C166.184 80.2374 165.861 78.8761 163.992 77.9416C162.423 77.157 159.724 77.5262 156.874 77.9185C151.925 78.5876 145.752 79.4298 142.476 74.4689C137.607 67.1083 132.554 61.5128 132.496 61.4551L132.012 60.9244L132.681 60.6475C132.854 60.5783 150.471 53.4253 165.088 62.0781C179.729 70.754 180.456 91.7283 180.456 91.936L180.571 96.4585ZM161.408 76.4648C162.573 76.4648 163.6 76.6148 164.442 77.0417C166.738 78.1838 167.165 79.9952 167.569 81.7373C168.053 83.8024 168.55 85.9483 171.953 87.8404C174.953 89.5132 176.476 89.0864 177.479 88.8095C178.021 88.6595 178.529 88.521 179.025 88.8095C179.071 88.8325 179.118 88.8672 179.164 88.9018C178.368 82.8333 175.403 69.3811 164.581 62.9665C151.994 55.5135 137.065 60.163 133.754 61.3513C135.15 62.9549 139.303 67.8351 143.33 73.9267C146.248 78.3454 151.821 77.5955 156.736 76.9263C158.443 76.6956 160.024 76.4764 161.408 76.4764V76.4648Z" fill="#1A1919"/>
<path d="M141.161 64.3631C145.418 64.4554 149.595 65.3437 153.633 66.6128C157.671 67.8934 161.57 69.5894 165.251 71.7237C168.885 73.9389 172.08 76.8808 174.549 80.3419C177.041 83.7915 178.76 87.7718 179.672 91.9136C179.695 92.0174 179.626 92.1213 179.533 92.1328C179.43 92.1559 179.337 92.0866 179.314 91.9943C178.276 87.9333 176.511 84.0799 174.053 80.7111C171.596 77.3423 168.446 74.4926 164.87 72.3583C161.259 70.2816 157.428 68.5164 153.448 67.2243C151.464 66.5782 149.433 66.0244 147.38 65.5976C145.338 65.1707 143.249 64.8246 141.173 64.7323H141.161C141.057 64.7323 140.977 64.64 140.977 64.5362C140.977 64.4323 141.069 64.3516 141.173 64.3516L141.161 64.3631Z" fill="#394920"/>
<path d="M132.405 74.3191C132.405 74.3191 111.338 61.1207 92.5676 74.3191C73.7853 87.5175 80.0499 106.461 86.6491 115.599C86.6491 115.599 95.9595 108.999 99.5014 96.3087C103.055 83.6179 105.085 90.3902 111.858 85.6485C118.63 80.9067 115.746 75.4036 121.329 75.1151C126.913 74.8267 126.071 72.4501 132.417 74.3191H132.405Z" fill="url(#paint2_linear_2101_29251)"/>
<path d="M86.5219 116.302L86.2219 115.899C84.2606 113.187 78.0075 103.439 79.9227 92.04C81.1225 84.9216 85.2643 78.8185 92.2673 73.9152C111.107 60.6822 132.462 73.7653 132.67 73.9037L135.785 75.8535L132.255 74.8151C128.551 73.7306 127.444 74.1344 125.909 74.6882C124.883 75.0574 123.602 75.5189 121.341 75.6343C118.779 75.7727 118.272 77.0302 117.418 79.1069C116.576 81.149 115.538 83.6987 112.134 86.0753C109.573 87.8635 107.646 88.0827 106.112 88.2558C103.643 88.5327 102.155 88.6942 99.9856 96.4586C96.4206 109.172 87.0295 115.956 86.9372 116.025L86.5219 116.314V116.302ZM111.188 69.0005C105.373 69.0005 98.9703 70.431 92.8557 74.7344C86.095 79.4876 82.0801 85.36 80.9379 92.2015C79.1728 102.689 84.5952 111.757 86.7526 114.883C88.5639 113.441 95.9707 107.038 99.0165 96.1818C101.266 88.1404 102.962 87.5866 106.008 87.2521C107.508 87.079 109.215 86.8944 111.569 85.2446C114.73 83.0295 115.711 80.6413 116.495 78.7262C117.36 76.6149 118.11 74.7921 121.306 74.619C123.417 74.5036 124.571 74.0883 125.586 73.7306C126.613 73.3615 127.513 73.0269 129.013 73.1307C125.333 71.4348 118.756 69.012 111.2 69.012L111.188 69.0005Z" fill="#1A1919"/>
<path d="M132.357 74.5259C129.935 73.9952 127.454 73.6837 124.985 73.4991C122.505 73.303 120.024 73.2453 117.555 73.4299C115.086 73.603 112.618 73.9491 110.264 74.6874C109.664 74.849 109.076 75.022 108.522 75.2758C107.957 75.5181 107.368 75.7142 106.814 75.9796C105.741 76.568 104.634 77.1102 103.688 77.8947C101.738 79.3484 99.9383 81.1136 98.6 83.1672C97.2155 85.1977 96.3849 87.5397 95.7157 89.9279C95.035 92.3045 94.4582 94.7965 93.2122 97.0347C92.0008 99.2729 90.2472 101.165 88.2859 102.746C88.1936 102.815 88.0667 102.803 87.9859 102.711C87.9167 102.619 87.9282 102.492 88.0205 102.411C89.9126 100.819 91.5624 98.9383 92.693 96.7463C93.8698 94.5773 94.4236 92.143 95.0927 89.7433C95.7388 87.3321 96.5925 84.8977 98.0001 82.7634C99.3845 80.6175 101.184 78.7946 103.226 77.2833C104.219 76.4757 105.372 75.9219 106.491 75.322C107.068 75.0566 107.668 74.849 108.257 74.6067C108.833 74.3529 109.445 74.1798 110.056 74.0183C112.479 73.2799 114.994 72.9453 117.498 72.7838C122.528 72.4608 127.558 73.003 132.45 74.1221C132.565 74.1452 132.634 74.2606 132.611 74.3759C132.588 74.4913 132.473 74.5605 132.357 74.5375V74.5259Z" fill="#394920"/>
<path d="M131.261 90.5065C136.695 90.3566 140.975 85.834 140.825 80.4001C140.675 74.9661 136.153 70.6859 130.719 70.8359L131.261 90.5181V90.5065Z" fill="#D7462A"/>
<path opacity="0.5" d="M131.189 87.9906C135.227 87.8753 138.411 84.518 138.307 80.4685C138.192 76.4305 134.835 73.2463 130.785 73.3501L131.189 87.9791V87.9906Z" fill="#FDC376"/>
<path d="M133.903 79.8574C134.307 79.8574 134.642 80.1689 134.653 80.5727C134.653 80.9765 134.342 81.3111 133.938 81.3226C133.534 81.3226 132.484 81.0342 132.473 80.6304C132.473 80.2266 133.499 79.869 133.903 79.8574Z" fill="#FDC376"/>
<path d="M133.704 83.2722C133.993 83.5491 134.004 84.0106 133.727 84.299C133.45 84.5874 132.989 84.6105 132.701 84.3336C132.412 84.0567 131.87 83.0991 132.147 82.8107C132.424 82.5223 133.404 82.9953 133.704 83.2722Z" fill="#FDC376"/>
<path d="M133.555 77.9306C133.832 77.6421 133.821 77.1807 133.532 76.9038C133.244 76.6269 132.782 76.6384 132.505 76.9269C132.228 77.2153 131.744 78.2075 132.044 78.4844C132.332 78.7612 133.29 78.2305 133.567 77.9306H133.555Z" fill="#FDC376"/>
<path d="M119.759 53.9221C120.405 53.1837 121.155 52.3992 122.02 51.5801L122.262 51.3494C133.223 52.4338 136.338 41.4044 136.338 41.4044C124.466 39.9161 122.32 48.9843 121.997 50.9456C121.813 51.1071 121.697 51.2109 121.697 51.2109C119.101 53.6452 117.521 55.8027 116.552 57.5332C117.059 54.7182 116.886 52.2031 116.044 50.0687C113.898 44.6002 108.037 43.3311 107.98 43.3196C107.957 43.3196 107.933 43.3196 107.922 43.3542C107.287 46.1 107.426 48.6612 108.337 50.9917C110.206 55.7565 114.81 58.1562 115.963 58.6869C115.871 58.883 115.79 59.0676 115.721 59.2407C114.671 61.8135 114.936 63.3479 114.948 63.4056C114.948 63.4171 114.948 63.4402 114.96 63.4517C115.006 63.5556 115.109 63.6248 115.225 63.6017C115.352 63.5786 115.444 63.4517 115.421 63.3248C115.421 63.3133 115.179 61.8365 116.194 59.3791C116.725 58.0985 117.682 56.3795 119.367 54.3836C125.343 63.7517 135.969 59.2868 135.969 59.2868C129.935 49.3996 121.847 52.803 119.759 53.9106V53.9221Z" fill="url(#paint3_linear_2101_29251)"/>
<path d="M128.652 94.2329C134.605 98.8938 143.201 97.844 147.862 91.8908C152.523 85.9377 151.473 77.3426 145.531 72.6816L128.664 94.2213L128.652 94.2329Z" fill="#D7462A"/>
<path opacity="0.5" d="M130.812 91.4761C135.231 94.9373 141.634 94.1643 145.095 89.734C148.556 85.3038 147.784 78.9123 143.365 75.4512L130.812 91.4761Z" fill="#FDC376"/>
<path d="M140.916 85.1766C141.354 85.5227 141.435 86.1572 141.089 86.6071C140.743 87.0456 140.108 87.1263 139.658 86.7802C139.22 86.4341 138.355 85.1765 138.701 84.7381C139.047 84.2997 140.466 84.8304 140.916 85.1766Z" fill="#FDC376"/>
<path d="M137.701 88.6604C137.771 89.2142 137.367 89.7218 136.813 89.791C136.259 89.8602 135.752 89.468 135.682 88.9027C135.613 88.3489 135.89 86.8491 136.444 86.7798C136.998 86.7106 137.632 88.0951 137.69 88.6488L137.701 88.6604Z" fill="#FDC376"/>
<path d="M142.278 82.8119C142.832 82.7426 143.235 82.235 143.166 81.6812C143.097 81.1275 142.589 80.7237 142.036 80.7929C141.482 80.8621 140.097 81.4851 140.167 82.0389C140.236 82.5927 141.736 82.8696 142.289 82.8003L142.278 82.8119Z" fill="#FDC376"/>
<path d="M143.159 55.2492C143.159 55.8953 142.639 56.4145 141.993 56.4145C141.347 56.4145 140.828 55.8953 140.828 55.2492C140.828 54.6032 141.347 54.084 141.993 54.084C142.639 54.084 143.159 54.6032 143.159 55.2492Z" fill="#FA9600"/>
<path d="M141.989 56.9219C141.066 56.9219 140.316 56.172 140.316 55.249C140.316 54.3261 141.066 53.5762 141.989 53.5762C142.912 53.5762 143.662 54.3261 143.662 55.249C143.662 56.172 142.912 56.9219 141.989 56.9219ZM141.989 54.5914C141.632 54.5914 141.332 54.8914 141.332 55.249C141.332 55.6067 141.632 55.9067 141.989 55.9067C142.347 55.9067 142.647 55.6067 142.647 55.249C142.647 54.8914 142.347 54.5914 141.989 54.5914Z" fill="#1A1919"/>
<path d="M161.62 84.2769C161.62 84.6346 161.332 84.923 160.974 84.923C160.617 84.923 160.328 84.6346 160.328 84.2769C160.328 83.9193 160.617 83.6309 160.974 83.6309C161.332 83.6309 161.62 83.9193 161.62 84.2769Z" fill="#FA9600"/>
<path d="M160.97 85.4305C160.336 85.4305 159.816 84.9113 159.816 84.2768C159.816 83.6422 160.336 83.123 160.97 83.123C161.605 83.123 162.124 83.6422 162.124 84.2768C162.124 84.9113 161.605 85.4305 160.97 85.4305ZM160.97 84.1268C160.889 84.1268 160.832 84.1845 160.832 84.2652C160.832 84.4152 161.109 84.4267 161.12 84.2652C161.12 84.1845 161.062 84.1268 160.982 84.1268H160.97Z" fill="#1A1919"/>
<path d="M114.918 90.5294C114.918 90.9332 114.584 91.2678 114.18 91.2678C113.776 91.2678 113.441 90.9332 113.441 90.5294C113.441 90.1256 113.776 89.791 114.18 89.791C114.584 89.791 114.918 90.1256 114.918 90.5294Z" fill="#FA9600"/>
<path d="M114.176 91.7752C113.483 91.7752 112.93 91.2214 112.93 90.5292C112.93 89.837 113.483 89.2832 114.176 89.2832C114.868 89.2832 115.422 89.837 115.422 90.5292C115.422 91.2214 114.868 91.7752 114.176 91.7752ZM114.176 90.2985C114.049 90.2985 113.945 90.4023 113.945 90.5292C113.945 90.783 114.406 90.783 114.406 90.5292C114.406 90.4023 114.303 90.2985 114.176 90.2985Z" fill="#1A1919"/>
<path d="M122.69 86.3294C122.69 87.1024 122.056 87.7369 121.283 87.7369C120.51 87.7369 119.875 87.1024 119.875 86.3294C119.875 85.5564 120.51 84.9219 121.283 84.9219C122.056 84.9219 122.69 85.5564 122.69 86.3294Z" fill="#FA9600"/>
<path d="M121.282 88.2444C120.221 88.2444 119.367 87.3791 119.367 86.3292C119.367 85.2793 120.232 84.4141 121.282 84.4141C122.332 84.4141 123.197 85.2678 123.197 86.3292C123.197 87.3906 122.332 88.2444 121.282 88.2444ZM121.282 85.4293C120.786 85.4293 120.382 85.8331 120.382 86.3292C120.382 86.8253 120.786 87.2291 121.282 87.2291C121.778 87.2291 122.182 86.8253 122.182 86.3292C122.182 85.8331 121.778 85.4293 121.282 85.4293Z" fill="#1A1919"/>
<path d="M99.4106 65.217C99.4106 65.69 99.0299 66.0708 98.5569 66.0708C98.0839 66.0708 97.7031 65.69 97.7031 65.217C97.7031 64.744 98.0839 64.3633 98.5569 64.3633C99.0299 64.3633 99.4106 64.744 99.4106 65.217Z" fill="#FA9600"/>
<path d="M98.5528 66.5782C97.8029 66.5782 97.1914 65.9668 97.1914 65.2168C97.1914 64.4669 97.8029 63.8555 98.5528 63.8555C99.3027 63.8555 99.9142 64.4669 99.9142 65.2168C99.9142 65.9668 99.3027 66.5782 98.5528 66.5782ZM98.5528 64.8707C98.3567 64.8707 98.2067 65.0207 98.2067 65.2168C98.2067 65.413 98.3682 65.563 98.5528 65.563C98.7374 65.563 98.8989 65.413 98.8989 65.2168C98.8989 65.0207 98.7374 64.8707 98.5528 64.8707Z" fill="#1A1919"/>
<path d="M102.797 149.125C102.797 149.598 102.417 149.979 101.944 149.979C101.471 149.979 101.09 149.598 101.09 149.125C101.09 148.652 101.471 148.271 101.944 148.271C102.417 148.271 102.797 148.652 102.797 149.125Z" fill="#FA9600"/>
<path d="M101.936 150.498C101.186 150.498 100.574 149.887 100.574 149.137C100.574 148.387 101.186 147.775 101.936 147.775C102.685 147.775 103.297 148.387 103.297 149.137C103.297 149.887 102.685 150.498 101.936 150.498ZM101.936 148.779C101.739 148.779 101.589 148.941 101.589 149.125C101.589 149.31 101.751 149.471 101.936 149.471C102.12 149.471 102.282 149.31 102.282 149.125C102.282 148.941 102.12 148.779 101.936 148.779Z" fill="#1A1919"/>
<path d="M113.436 153.441C113.436 154.629 112.467 155.598 111.279 155.598C110.09 155.598 109.121 154.629 109.121 153.441C109.121 152.252 110.09 151.283 111.279 151.283C112.467 151.283 113.436 152.252 113.436 153.441Z" fill="#FA9600"/>
<path d="M111.278 156.106C109.813 156.106 108.613 154.906 108.613 153.44C108.613 151.975 109.813 150.775 111.278 150.775C112.744 150.775 113.943 151.975 113.943 153.44C113.943 154.906 112.744 156.106 111.278 156.106ZM111.278 151.791C110.367 151.791 109.629 152.529 109.629 153.44C109.629 154.352 110.367 155.09 111.278 155.09C112.19 155.09 112.928 154.352 112.928 153.44C112.928 152.529 112.19 151.791 111.278 151.791Z" fill="#1A1919"/>
<path d="M91.8508 139.308C91.8508 139.862 91.4009 140.323 90.8356 140.323C90.2703 140.323 89.8203 139.874 89.8203 139.308C89.8203 138.743 90.2703 138.293 90.8356 138.293C91.4009 138.293 91.8508 138.743 91.8508 139.308Z" fill="#FA9600"/>
<path d="M90.8471 140.819C90.0049 140.819 89.3242 140.139 89.3242 139.296C89.3242 138.454 90.0049 137.773 90.8471 137.773C91.6893 137.773 92.37 138.454 92.37 139.296C92.37 140.139 91.6893 140.819 90.8471 140.819ZM90.8471 138.8C90.5702 138.8 90.3395 139.031 90.3395 139.308C90.3395 139.585 90.5702 139.815 90.8471 139.815C91.124 139.815 91.3547 139.585 91.3547 139.308C91.3547 139.031 91.124 138.8 90.8471 138.8Z" fill="#1A1919"/>
<path d="M98.7869 108.884C98.7869 110.026 97.8639 110.937 96.7333 110.937C95.6027 110.937 94.6797 110.014 94.6797 108.884C94.6797 107.753 95.6027 106.83 96.7333 106.83C97.8639 106.83 98.7869 107.753 98.7869 108.884Z" fill="#FA9600"/>
<path d="M96.7214 111.456C95.3023 111.456 94.1602 110.303 94.1602 108.895C94.1602 107.488 95.3139 106.334 96.7214 106.334C98.1289 106.334 99.2826 107.488 99.2826 108.895C99.2826 110.303 98.1289 111.456 96.7214 111.456ZM96.7214 107.338C95.8676 107.338 95.1754 108.03 95.1754 108.884C95.1754 109.737 95.8676 110.43 96.7214 110.43C97.5751 110.43 98.2673 109.737 98.2673 108.884C98.2673 108.03 97.5751 107.338 96.7214 107.338Z" fill="#1A1919"/>
<path d="M188.414 104.94C188.414 105.551 187.918 106.047 187.307 106.047C186.695 106.047 186.199 105.551 186.199 104.94C186.199 104.328 186.695 103.832 187.307 103.832C187.918 103.832 188.414 104.328 188.414 104.94Z" fill="#FA9600"/>
<path d="M187.318 106.555C186.43 106.555 185.703 105.828 185.703 104.939C185.703 104.051 186.43 103.324 187.318 103.324C188.207 103.324 188.934 104.051 188.934 104.939C188.934 105.828 188.207 106.555 187.318 106.555ZM187.318 104.351C186.995 104.351 186.718 104.616 186.718 104.951C186.718 105.286 186.984 105.551 187.318 105.551C187.653 105.551 187.918 105.286 187.918 104.951C187.918 104.616 187.653 104.351 187.318 104.351Z" fill="#1A1919"/>
<path d="M93.0397 127.17C93.0397 127.782 92.5436 128.266 91.9437 128.266C91.3438 128.266 90.8477 127.77 90.8477 127.17C90.8477 126.57 91.3438 126.074 91.9437 126.074C92.5436 126.074 93.0397 126.57 93.0397 127.17Z" fill="#FA9600"/>
<path d="M91.9435 128.785C91.0551 128.785 90.3398 128.07 90.3398 127.182C90.3398 126.293 91.0551 125.578 91.9435 125.578C92.8318 125.578 93.5472 126.293 93.5472 127.182C93.5472 128.07 92.8318 128.785 91.9435 128.785ZM91.9435 126.582C91.6205 126.582 91.3551 126.847 91.3551 127.17C91.3551 127.493 91.6205 127.759 91.9435 127.759C92.2665 127.759 92.5319 127.493 92.5319 127.17C92.5319 126.847 92.2665 126.582 91.9435 126.582Z" fill="#1A1919"/>
<path d="M130.72 162.901C130.72 163.755 130.028 164.459 129.163 164.459C128.298 164.459 127.605 163.767 127.605 162.901C127.605 162.036 128.298 161.344 129.163 161.344C130.028 161.344 130.72 162.036 130.72 162.901Z" fill="#FA9600"/>
<path d="M129.159 164.966C128.017 164.966 127.094 164.043 127.094 162.901C127.094 161.759 128.017 160.836 129.159 160.836C130.301 160.836 131.224 161.759 131.224 162.901C131.224 164.043 130.301 164.966 129.159 164.966ZM129.159 161.851C128.582 161.851 128.109 162.324 128.109 162.901C128.109 163.478 128.582 163.951 129.159 163.951C129.736 163.951 130.209 163.478 130.209 162.901C130.209 162.324 129.736 161.851 129.159 161.851Z" fill="#1A1919"/>
<path d="M108.328 100.739C108.761 100.739 109.112 99.7728 109.112 98.5813C109.112 97.3897 108.761 96.4238 108.328 96.4238C107.894 96.4238 107.543 97.3897 107.543 98.5813C107.543 99.7728 107.894 100.739 108.328 100.739Z" fill="#FA9600"/>
<path d="M108.327 101.258C107.427 101.258 107.035 99.9196 107.035 98.5928C107.035 97.266 107.439 95.9277 108.327 95.9277C109.216 95.9277 109.619 97.266 109.619 98.5928C109.619 99.9196 109.216 101.258 108.327 101.258ZM108.327 97.0468C108.2 97.2891 108.05 97.8313 108.05 98.5928C108.05 99.3542 108.2 99.8965 108.327 100.139C108.454 99.8965 108.604 99.3542 108.604 98.5928C108.604 97.8313 108.454 97.2891 108.327 97.0468Z" fill="#1A1919"/>
<path d="M153.987 55.1569C153.987 55.7453 153.203 56.2299 152.222 56.2299C151.242 56.2299 150.457 55.7453 150.457 55.1569C150.457 54.5685 151.242 54.084 152.222 54.084C153.203 54.084 153.987 54.5685 153.987 55.1569Z" fill="#FA9600"/>
<path d="M152.234 56.7373C150.965 56.7373 149.961 56.0451 149.961 55.1567C149.961 54.2684 150.953 53.5762 152.234 53.5762C153.514 53.5762 154.507 54.2684 154.507 55.1567C154.507 56.0451 153.514 56.7373 152.234 56.7373ZM152.234 54.5914C151.484 54.5914 150.976 54.926 150.976 55.1567C150.976 55.3875 151.472 55.7221 152.234 55.7221C152.995 55.7221 153.491 55.3875 153.491 55.1567C153.491 54.926 152.995 54.5914 152.234 54.5914Z" fill="#1A1919"/>
<path d="M180.781 149.771C180.781 150.602 180.723 151.271 180.642 151.271C180.562 151.271 180.504 150.602 180.504 149.771C180.504 148.941 180.562 148.271 180.642 148.271C180.723 148.271 180.781 148.941 180.781 149.771Z" fill="#FA9600"/>
<path d="M127.605 78.7382C127.605 79.3497 125.874 79.8573 123.74 79.8573C121.606 79.8573 119.875 79.3612 119.875 78.7382C119.875 78.1152 121.606 77.6191 123.74 77.6191C125.874 77.6191 127.605 78.1152 127.605 78.7382Z" fill="#FA9600"/>
<path d="M123.74 80.3648C123.29 80.3648 119.367 80.3186 119.367 78.7381C119.367 77.1575 123.301 77.1113 123.74 77.1113C124.178 77.1113 128.112 77.1575 128.112 78.7381C128.112 80.3186 124.178 80.3648 123.74 80.3648ZM120.429 78.7381C120.74 78.9919 121.951 79.3495 123.74 79.3495C125.528 79.3495 126.728 78.9919 127.051 78.7381C126.739 78.4842 125.528 78.1266 123.74 78.1266C121.951 78.1266 120.752 78.4842 120.429 78.7381Z" fill="#1A1919"/>
<path d="M128.321 64.4672C128.321 64.9287 127.94 65.3094 127.479 65.3094C127.017 65.3094 126.637 64.9287 126.637 64.4672C126.637 64.0057 127.017 63.625 127.479 63.625C127.94 63.625 128.321 64.0057 128.321 64.4672Z" fill="#FA9600"/>
<path d="M127.475 65.8169C126.736 65.8169 126.125 65.2169 126.125 64.467C126.125 63.7171 126.725 63.1172 127.475 63.1172C128.225 63.1172 128.825 63.7171 128.825 64.467C128.825 65.2169 128.225 65.8169 127.475 65.8169ZM127.475 64.1324C127.29 64.1324 127.14 64.2824 127.14 64.467C127.14 64.6516 127.29 64.8016 127.475 64.8016C127.659 64.8016 127.809 64.6516 127.809 64.467C127.809 64.2824 127.659 64.1324 127.475 64.1324Z" fill="#1A1919"/>
<path d="M137.056 97.6598C133.906 97.6598 130.86 96.6099 128.333 94.6371L127.93 94.3256L130.756 90.726L130.191 70.34H130.699C135.429 70.1785 139.605 73.2704 140.909 77.7584L145.431 71.9783L145.835 72.2898C148.823 74.6318 150.715 77.9891 151.177 81.7502C151.638 85.5113 150.6 89.2262 148.258 92.2143C145.927 95.2024 142.559 97.0945 138.798 97.5559C138.209 97.6252 137.632 97.6598 137.056 97.6598ZM129.372 94.141C132.071 96.0907 135.36 96.9445 138.682 96.5407C142.178 96.1138 145.293 94.3602 147.462 91.5797C149.631 88.8109 150.588 85.3613 150.173 81.8655C149.769 78.5429 148.154 75.5548 145.616 73.4089L140.378 80.1004L140.17 78.9928C139.374 74.5972 135.66 71.4476 131.252 71.3437L131.772 89.9761L132.694 89.9299L129.383 94.1525L129.372 94.141Z" fill="#1A1919"/>
<path d="M147.918 112.656L144.734 113.758L145.066 114.717L148.25 113.615L147.918 112.656Z" fill="#1A1919"/>
<path d="M140.369 122.939L139.508 124.545L140.402 125.025L141.264 123.418L140.369 122.939Z" fill="#1A1919"/>
<path d="M143.727 103.595L143.426 104.564L149.618 106.487L149.919 105.518L143.727 103.595Z" fill="#1A1919"/>
<path d="M138.206 103.656L134.441 104.531L134.671 105.52L138.436 104.645L138.206 103.656Z" fill="#1A1919"/>
<path d="M161.642 113.498L160.707 113.895L161.523 115.817L162.457 115.42L161.642 113.498Z" fill="#1A1919"/>
<path d="M129.773 117.188L129.223 118.041L132.335 120.049L132.885 119.196L129.773 117.188Z" fill="#1A1919"/>
<path d="M137.182 112.084L136.211 112.379L136.935 114.763L137.906 114.468L137.182 112.084Z" fill="#1A1919"/>
<path d="M152.916 119.572L152.102 120.178L155.054 124.15L155.869 123.545L152.916 119.572Z" fill="#1A1919"/>
<path d="M149.606 125.623L142.84 128.58L143.246 129.51L150.012 126.553L149.606 125.623Z" fill="#1A1919"/>
<path d="M161.248 128.61L161.09 129.613L163.768 130.036L163.926 129.034L161.248 128.61Z" fill="#1A1919"/>
<path d="M155.922 100.654L155.02 101.119L156.432 103.857L157.334 103.391L155.922 100.654Z" fill="#1A1919"/>
<path d="M107.4 105.504L107.129 106.482L113.133 108.145L113.404 107.167L107.4 105.504Z" fill="#1A1919"/>
<path d="M159.75 139.095L159.117 139.889L164.954 144.542L165.587 143.748L159.75 139.095Z" fill="#1A1919"/>
<path d="M178.849 135.198L178.137 135.922L183.718 141.418L184.431 140.695L178.849 135.198Z" fill="#1A1919"/>
<path d="M147.918 112.656L144.734 113.758L145.066 114.717L148.25 113.615L147.918 112.656Z" fill="#1A1919"/>
<path d="M140.369 122.939L139.508 124.545L140.402 125.025L141.264 123.418L140.369 122.939Z" fill="#1A1919"/>
<path d="M143.727 103.593L143.426 104.562L149.618 106.485L149.919 105.516L143.727 103.593Z" fill="#1A1919"/>
<path d="M138.206 103.656L134.441 104.531L134.671 105.52L138.436 104.645L138.206 103.656Z" fill="#1A1919"/>
<path d="M161.642 113.496L160.707 113.893L161.523 115.815L162.457 115.418L161.642 113.496Z" fill="#1A1919"/>
<path d="M129.773 117.188L129.223 118.041L132.335 120.049L132.885 119.196L129.773 117.188Z" fill="#1A1919"/>
<path d="M137.182 112.084L136.211 112.379L136.935 114.763L137.906 114.468L137.182 112.084Z" fill="#1A1919"/>
<path d="M152.916 119.57L152.102 120.176L155.054 124.148L155.869 123.543L152.916 119.57Z" fill="#1A1919"/>
<path d="M149.606 125.621L142.84 128.578L143.246 129.508L150.012 126.551L149.606 125.621Z" fill="#1A1919"/>
<path d="M161.248 128.609L161.09 129.611L163.768 130.035L163.926 129.032L161.248 128.609Z" fill="#1A1919"/>
<path d="M155.922 100.654L155.02 101.119L156.432 103.857L157.334 103.391L155.922 100.654Z" fill="#1A1919"/>
<path d="M107.4 105.504L107.129 106.482L113.133 108.145L113.404 107.167L107.4 105.504Z" fill="#1A1919"/>
<path d="M159.75 139.095L159.117 139.889L164.954 144.542L165.587 143.748L159.75 139.095Z" fill="#1A1919"/>
<path d="M178.849 135.198L178.137 135.922L183.718 141.418L184.431 140.695L178.849 135.198Z" fill="#1A1919"/>
<path d="M115.175 64.1322C114.875 64.1322 114.598 63.9476 114.483 63.6592L114.448 63.5323C114.414 63.3362 114.183 61.6979 115.256 59.0675C115.267 59.0213 115.291 58.9867 115.314 58.9405C113.583 58.0522 109.626 55.6179 107.884 51.1876C106.938 48.7649 106.788 46.0883 107.445 43.2502L107.561 42.7771L108.103 42.8348C108.368 42.8925 114.333 44.2539 116.548 49.8955C117.194 51.5338 117.46 53.3797 117.344 55.3987C118.417 53.8873 119.767 52.3644 121.371 50.8531L121.544 50.6916C121.959 48.4072 124.393 39.3968 136.415 40.9081L137.003 40.9774L136.842 41.5427C136.807 41.6465 133.784 51.9376 123.759 51.9376C123.343 51.9376 122.905 51.9145 122.455 51.8799L122.374 51.9606C122.167 52.1452 121.97 52.3414 121.774 52.5259C125.339 51.3953 131.512 51.0146 136.403 59.0328L136.715 59.5405L136.173 59.7712C136.069 59.8174 125.524 64.1091 119.329 55.2487C117.852 57.1062 117.067 58.6175 116.675 59.5866C115.729 61.871 115.937 63.2439 115.937 63.2554C115.971 63.44 115.937 63.6361 115.81 63.8092C115.694 63.9707 115.521 64.0861 115.325 64.1207C115.279 64.1207 115.233 64.1322 115.187 64.1322H115.175ZM114.921 63.4169C114.921 63.4169 114.921 63.4169 114.921 63.4285C114.921 63.4285 114.921 63.4285 114.921 63.4169ZM119.963 54.3949C124.947 61.871 132.988 59.8058 135.204 59.0444C129.504 50.2647 122.144 53.2297 119.998 54.3719L119.963 54.3949ZM108.322 43.9424C107.826 46.3998 107.988 48.7187 108.818 50.8185C110.491 55.0872 114.425 57.383 115.937 58.133L116.052 57.4638C116.537 54.7411 116.375 52.3183 115.579 50.2762C113.871 45.9152 109.707 44.3577 108.322 43.9539V43.9424ZM122.536 50.8761C131.362 51.6261 134.846 44.0231 135.665 41.8426C125.062 40.8389 122.917 48.8225 122.536 50.8761Z" fill="#1A1919"/>
<path d="M45.5508 103.438C45.5508 103.311 45.5508 90.3785 52.3692 74.665C58.6453 60.1744 72.1668 40.2615 100.871 27.7207L101.275 28.6552C46.9122 52.3985 46.5545 102.931 46.566 103.438H45.5508Z" fill="#1A1919"/>
<path d="M103.962 27.1664L103.547 26.2435C103.72 26.1627 107.712 24.3514 110.181 23.8438L110.388 24.8359C108.035 25.332 104.008 27.1549 103.962 27.1664Z" fill="#1A1919"/>
<path d="M87.745 187.174C74.4428 180.979 63.9671 168 63.8633 167.873L64.6593 167.238C64.7632 167.365 75.0888 180.171 88.1718 186.263L87.745 187.186V187.174Z" fill="#1A1919"/>
<path d="M134.008 197.269C117.671 197.269 96.7778 190.439 96.5586 190.369L96.8816 189.4C97.1008 189.47 119.287 196.726 135.658 196.23L135.692 197.246C135.139 197.257 134.585 197.269 134.019 197.269H134.008Z" fill="#1A1919"/>
<path d="M83.5991 158.169C83.5991 158.699 83.1722 159.115 82.6531 159.115C82.1339 159.115 81.707 158.688 81.707 158.169C81.707 157.65 82.1339 157.223 82.6531 157.223C83.1722 157.223 83.5991 157.65 83.5991 158.169Z" fill="#1A1919"/>
<path d="M89.8291 168.438C89.8291 168.899 89.4599 169.28 88.9869 169.28C88.5139 169.28 88.1562 168.911 88.1562 168.438C88.1562 167.965 88.5254 167.596 88.9869 167.596C89.4484 167.596 89.8291 167.965 89.8291 168.438Z" fill="#1A1919"/>
<path d="M93.0366 163.235C94.0816 163.235 94.9287 162.388 94.9287 161.343C94.9287 160.298 94.0816 159.451 93.0366 159.451C91.9917 159.451 91.1445 160.298 91.1445 161.343C91.1445 162.388 91.9917 163.235 93.0366 163.235Z" fill="#1A1919"/>
<path d="M104.597 170.722C104.597 171.069 104.309 171.357 103.963 171.357C103.617 171.357 103.328 171.069 103.328 170.722C103.328 170.376 103.617 170.088 103.963 170.088C104.309 170.088 104.597 170.376 104.597 170.722Z" fill="#1A1919"/>
<path d="M106.758 174.529C107.178 174.529 107.519 174.188 107.519 173.767C107.519 173.347 107.178 173.006 106.758 173.006C106.337 173.006 105.996 173.347 105.996 173.767C105.996 174.188 106.337 174.529 106.758 174.529Z" fill="#1A1919"/>
<path d="M116.622 177.137C116.622 177.61 116.241 177.991 115.768 177.991C115.295 177.991 114.914 177.61 114.914 177.137C114.914 176.664 115.295 176.283 115.768 176.283C116.241 176.283 116.622 176.664 116.622 177.137Z" fill="#1A1919"/>
<path d="M71.9968 136.527C72.5193 136.527 72.9429 136.103 72.9429 135.581C72.9429 135.058 72.5193 134.635 71.9968 134.635C71.4743 134.635 71.0508 135.058 71.0508 135.581C71.0508 136.103 71.4743 136.527 71.9968 136.527Z" fill="#1A1919"/>
<path d="M63.4678 112.251C63.4678 113.567 62.3948 114.64 61.0796 114.64C59.7644 114.64 58.6914 113.567 58.6914 112.251C58.6914 110.936 59.7644 109.863 61.0796 109.863C62.3948 109.863 63.4678 110.936 63.4678 112.251Z" fill="#1A1919"/>
<path d="M87.9483 56.2281C87.9483 57.4741 86.9331 58.4893 85.6871 58.4893C84.441 58.4893 83.4258 57.4741 83.4258 56.2281C83.4258 54.9821 84.441 53.9668 85.6871 53.9668C86.9331 53.9668 87.9483 54.9821 87.9483 56.2281Z" fill="#1A1919"/>
<path d="M147.264 38.7608C147.264 39.6146 146.572 40.3068 145.718 40.3068C144.864 40.3068 144.172 39.6146 144.172 38.7608C144.172 37.9071 144.864 37.2148 145.718 37.2148C146.572 37.2148 147.264 37.9071 147.264 38.7608Z" fill="#1A1919"/>
<path d="M182.749 58.8238C182.749 59.7237 182.011 60.4621 181.111 60.4621C180.211 60.4621 179.473 59.7237 179.473 58.8238C179.473 57.9239 180.211 57.1855 181.111 57.1855C182.011 57.1855 182.749 57.9239 182.749 58.8238Z" fill="#1A1919"/>
<path d="M194.82 66.8082C194.82 67.3735 194.37 67.8235 193.804 67.8235C193.239 67.8235 192.789 67.3735 192.789 66.8082C192.789 66.2429 193.239 65.793 193.804 65.793C194.37 65.793 194.82 66.2429 194.82 66.8082Z" fill="#1A1919"/>
<path d="M198.518 72.6928C198.518 73.062 198.218 73.3504 197.861 73.3504C197.503 73.3504 197.203 73.0504 197.203 72.6928C197.203 72.3351 197.503 72.0352 197.861 72.0352C198.218 72.0352 198.518 72.3351 198.518 72.6928Z" fill="#1A1919"/>
<path d="M199.902 83.6168C199.902 83.9744 199.613 84.2629 199.255 84.2629C198.898 84.2629 198.609 83.9744 198.609 83.6168C198.609 83.2591 198.898 82.9707 199.255 82.9707C199.613 82.9707 199.902 83.2591 199.902 83.6168Z" fill="#1A1919"/>
<path d="M201.649 94.5079C201.649 94.9924 201.256 95.3731 200.783 95.3731C200.31 95.3731 199.918 94.9809 199.918 94.5079C199.918 94.0348 200.31 93.6426 200.783 93.6426C201.256 93.6426 201.649 94.0348 201.649 94.5079Z" fill="#1A1919"/>
<path d="M205.953 104.42C205.953 105.32 205.226 106.046 204.326 106.046C203.426 106.046 202.699 105.32 202.699 104.42C202.699 103.52 203.426 102.793 204.326 102.793C205.226 102.793 205.953 103.52 205.953 104.42Z" fill="#1A1919"/>
<path d="M205.132 119.267C205.584 119.267 205.951 118.9 205.951 118.448C205.951 117.996 205.584 117.629 205.132 117.629C204.679 117.629 204.312 117.996 204.312 118.448C204.312 118.9 204.679 119.267 205.132 119.267Z" fill="#1A1919"/>
<path d="M200.956 132.073C201.53 132.073 201.995 131.608 201.995 131.034C201.995 130.461 201.53 129.996 200.956 129.996C200.383 129.996 199.918 130.461 199.918 131.034C199.918 131.608 200.383 132.073 200.956 132.073Z" fill="#1A1919"/>
<path d="M192.648 149.021C192.648 149.437 192.314 149.771 191.898 149.771C191.483 149.771 191.148 149.437 191.148 149.021C191.148 148.606 191.483 148.271 191.898 148.271C192.314 148.271 192.648 148.606 192.648 149.021Z" fill="#1A1919"/>
<path d="M190.627 155.436C190.627 155.886 190.257 156.267 189.807 156.267C189.357 156.267 188.988 155.898 188.988 155.436C188.988 154.975 189.357 154.617 189.807 154.617C190.257 154.617 190.627 154.986 190.627 155.436Z" fill="#1A1919"/>
<path d="M184.039 159.035C184.039 159.935 183.312 160.662 182.412 160.662C181.512 160.662 180.785 159.935 180.785 159.035C180.785 158.135 181.512 157.408 182.412 157.408C183.312 157.408 184.039 158.135 184.039 159.035Z" fill="#1A1919"/>
<path d="M173.252 168.634C173.252 168.876 173.056 169.072 172.802 169.072C172.548 169.072 172.363 168.876 172.363 168.634C172.363 168.391 172.559 168.195 172.802 168.195C173.044 168.195 173.252 168.391 173.252 168.634Z" fill="#1A1919"/>
<path d="M162.974 167.999C162.974 168.599 162.489 169.072 161.901 169.072C161.313 169.072 160.828 168.587 160.828 167.999C160.828 167.41 161.313 166.926 161.901 166.926C162.489 166.926 162.974 167.41 162.974 167.999Z" fill="#1A1919"/>
<path d="M138.739 179.952C138.739 181.036 137.862 181.913 136.778 181.913C135.693 181.913 134.816 181.036 134.816 179.952C134.816 178.867 135.693 177.99 136.778 177.99C137.862 177.99 138.739 178.867 138.739 179.952Z" fill="#1A1919"/>
<path d="M144.61 177.852C144.61 178.244 144.287 178.567 143.895 178.567C143.503 178.567 143.18 178.244 143.18 177.852C143.18 177.46 143.503 177.137 143.895 177.137C144.287 177.137 144.61 177.46 144.61 177.852Z" fill="#1A1919"/>
<path d="M114.911 168.737C114.911 169.741 114.092 170.56 113.088 170.56C112.085 170.56 111.266 169.741 111.266 168.737C111.266 167.733 112.085 166.914 113.088 166.914C114.092 166.914 114.911 167.733 114.911 168.737Z" fill="#1A1919"/>
<path d="M188.648 46.7213C156.518 17.4633 124.156 23.4165 123.845 23.4857L123.648 22.4935C123.971 22.4358 156.829 16.3788 189.34 45.9714L188.66 46.7213H188.648Z" fill="#1A1919"/>
<path d="M217.445 113.302L216.43 113.199C219.787 79.7296 197.059 54.5558 196.828 54.3135L197.578 53.6328C197.809 53.8866 220.848 79.3951 217.445 113.314V113.302Z" fill="#1A1919"/>
<path d="M216.392 132.28L215.457 131.888C216.761 128.773 216.772 118.551 216.772 118.447H217.788C217.788 118.874 217.764 128.981 216.392 132.28Z" fill="#1A1919"/>
<path d="M143.267 197.384C142.332 197.384 141.894 197.257 141.848 197.245L142.136 196.276C142.136 196.276 145.816 197.222 156.211 192.861L156.604 193.796C149.301 196.865 145.205 197.384 143.267 197.384Z" fill="#1A1919"/>
<defs>
<linearGradient id="paint0_linear_2101_29251" x1="150.475" y1="81.0224" x2="187.071" y2="81.0224" gradientUnits="userSpaceOnUse">
<stop stop-color="#0B383E"/>
<stop offset="0.5" stop-color="#56713A"/>
<stop offset="1" stop-color="#67844A"/>
</linearGradient>
<linearGradient id="paint1_linear_2101_29251" x1="132.863" y1="75.1273" x2="179.946" y2="75.1273" gradientUnits="userSpaceOnUse">
<stop offset="0.62" stop-color="#67844A"/>
<stop offset="0.81" stop-color="#56713A"/>
<stop offset="1" stop-color="#0B383E"/>
</linearGradient>
<linearGradient id="paint2_linear_2101_29251" x1="80.0845" y1="92.0285" x2="132.405" y2="92.0285" gradientUnits="userSpaceOnUse">
<stop offset="0.62" stop-color="#67844A"/>
<stop offset="0.81" stop-color="#56713A"/>
<stop offset="1" stop-color="#0B383E"/>
</linearGradient>
<linearGradient id="paint3_linear_2101_29251" x1="107.541" y1="52.4338" x2="136.349" y2="52.4338" gradientUnits="userSpaceOnUse">
<stop offset="0.62" stop-color="#67844A"/>
<stop offset="0.81" stop-color="#56713A"/>
<stop offset="1" stop-color="#0B383E"/>
</linearGradient>
</defs>
</svg>
