<svg width="260" height="240" viewBox="0 0 260 240" fill="none" xmlns="http://www.w3.org/2000/svg">
<path d="M100.545 218.598C110.474 223.243 123.216 225.97 136.818 225.97C155.066 225.97 174.849 221.068 191.425 209.333C208.935 196.947 228.828 172.286 224.171 125.163C220.067 83.7042 206.624 55.6761 184.212 41.8771C165.338 30.253 143.233 30.5233 126.091 32.0716C82.888 35.9545 54.1841 51.9161 43.0884 78.2362C13.6227 148.19 55.6341 197.561 100.558 218.598H100.545Z" fill="#1A1919"/>
<path d="M233.56 46.7684C232.847 52.9368 236.116 60.8009 244.054 64.6961C252.004 68.6035 249.153 79.0603 249.153 79.0603C254.166 73.6783 250.419 71.9826 249.743 69.3408C249.743 69.095 249.694 68.7633 249.645 68.4069C249.681 67.6451 250.013 66.7973 250.861 65.7651C255.285 60.2971 255.973 52.7402 254.068 45.3676C252.164 38.0073 246.13 32.1584 241.989 29.2831C237.849 26.4078 231.176 20.2148 231.176 20.2148C231.176 20.2148 233.99 23.9871 231.336 32.6376C228.682 41.2881 234.285 40.5877 233.56 46.7561V46.7684Z" fill="#1A1919"/>
<path d="M59.2092 226.352C63.1535 231.144 71.0913 234.241 79.4101 231.218C87.7288 228.195 93.2951 237.497 93.2951 237.497C92.8896 230.161 89.0804 231.672 86.6966 230.345C86.5123 230.173 86.2543 229.977 85.9471 229.768C85.431 229.215 85.0501 228.379 84.8781 227.065C84.0179 220.085 79.0292 214.347 72.4061 210.611C65.7831 206.876 57.3784 207.171 52.4387 208.166C47.4991 209.162 38.4062 209.665 38.4062 209.665C38.4062 209.665 43.0756 210.243 47.4745 218.156C51.8612 226.069 55.2403 221.547 59.1969 226.34L59.2092 226.352Z" fill="#1A1919"/>
<path d="M233.742 84.8731C237.121 84.5044 239.554 81.4571 239.186 78.078C238.817 74.6989 235.77 72.266 232.39 72.6346C229.011 73.0032 226.578 76.0505 226.947 79.4296C227.316 82.8087 230.363 85.2417 233.742 84.8731Z" fill="#1A1919"/>
<path d="M217.634 54.7437C220.964 54.0556 223.102 50.7871 222.402 47.4571C221.714 44.1272 218.445 41.9891 215.115 42.6895C211.785 43.3776 209.647 46.6461 210.348 49.9761C211.048 53.306 214.304 55.4441 217.634 54.7437Z" fill="#1A1919"/>
<path d="M224.847 69.918C225.621 69.918 226.26 69.2913 226.26 68.5049C226.26 67.7185 225.633 67.0918 224.847 67.0918C224.06 67.0918 223.434 67.7185 223.434 68.5049C223.434 69.2913 224.06 69.918 224.847 69.918Z" fill="#1A1919"/>
<path d="M239.533 92C238.906 92 238.402 92.5038 238.402 93.1305C238.402 93.7571 238.906 94.2609 239.533 94.2609C240.159 94.2609 240.663 93.7571 240.663 93.1305C240.663 92.5038 240.159 92 239.533 92Z" fill="#1A1919"/>
<path d="M220.965 92C220.965 92.8601 221.665 93.5605 222.525 93.5605C223.386 93.5605 224.086 92.8601 224.086 92C224.086 91.1398 223.386 90.4395 222.525 90.4395C221.665 90.4395 220.965 91.1398 220.965 92Z" fill="#1A1919"/>
<path d="M234.628 90.1932C234.628 89.7999 234.309 89.4805 233.916 89.4805C233.523 89.4805 233.203 89.7999 233.203 90.1932C233.203 90.5864 233.523 90.9058 233.916 90.9058C234.309 90.9058 234.628 90.5864 234.628 90.1932Z" fill="#1A1919"/>
<path d="M236.89 209.838C236.89 209.334 236.485 208.916 235.968 208.916C235.452 208.916 235.047 209.322 235.047 209.838C235.047 210.354 235.452 210.759 235.968 210.759C236.485 210.759 236.89 210.354 236.89 209.838Z" fill="#1A1919"/>
<path d="M228.213 198.177C224.269 198.484 220.779 199.922 217.744 202.453C217.658 202.527 217.584 202.625 217.486 202.65C217.4 202.674 217.339 202.539 217.24 202.502C217.216 202.478 217.204 202.465 217.179 202.441C216.356 201.765 215.41 201.335 214.365 201.151C211.527 200.659 208.443 202.134 207.275 205.033C206.784 206.262 206.722 207.516 207.079 208.794C207.115 209.015 207.201 209.224 207.287 209.42C208.111 211.362 209.512 212.713 211.441 213.549C211.625 213.635 211.834 213.672 212.018 213.782C211.981 214.9 212.264 215.945 212.805 216.928C212.805 216.94 212.805 216.953 212.817 216.965C213.468 218.157 214.39 219.091 215.545 219.791C216.073 220.11 216.638 220.381 217.24 220.553C217.941 220.762 218.654 220.872 219.379 220.811C220.595 220.7 221.652 220.209 222.573 219.422C222.905 219.14 223.225 218.845 223.483 218.488C223.483 218.488 223.507 218.488 223.507 218.476C223.974 217.886 224.355 217.26 224.638 216.547C224.896 215.871 225.068 215.171 225.043 214.434C225.019 213.266 224.638 212.209 224.036 211.226C223.814 210.87 223.581 210.526 223.298 210.207C223.286 210.182 223.274 210.157 223.261 210.145C223.151 210.047 223.175 209.973 223.261 209.863C223.814 209.236 224.38 208.634 224.969 208.044C227.23 205.795 229.725 203.891 232.625 202.539C234.025 201.888 235.488 201.384 237.011 201.101C237.294 201.052 237.527 201.101 237.749 201.273C238.129 201.568 238.559 201.63 239.026 201.532C239.518 201.421 239.764 201.052 239.69 200.549C239.616 200.094 239.358 199.762 238.977 199.504C238.891 199.455 238.805 199.418 238.719 199.369C238.67 199.357 238.633 199.332 238.584 199.32C238.338 199.234 238.093 199.283 237.835 199.295C237.576 199.32 237.306 199.344 237.048 199.258C236.778 199.172 236.507 199.086 236.237 199C233.608 198.251 230.917 197.919 228.189 198.128L228.213 198.177ZM235.647 200.155C235.426 200.241 235.18 200.278 234.959 200.352C234.283 200.561 233.608 200.807 232.944 201.077C231.912 201.507 230.917 202.011 229.958 202.588C228.963 203.178 228.017 203.829 227.107 204.542C226.358 205.132 225.633 205.746 224.933 206.397C224.072 207.208 223.249 208.056 222.475 208.941C222.401 209.027 222.328 209.113 222.205 209.027C222.192 209.027 222.18 209.027 222.155 209.027C222.155 209.015 222.155 209.002 222.155 208.99C222.131 208.941 222.094 208.916 222.057 208.892C221.418 208.437 220.73 208.118 219.968 207.933C219.968 207.933 219.956 207.933 219.944 207.933C219.956 207.909 219.981 207.897 219.981 207.872C219.981 207.675 219.981 207.466 219.956 207.27C219.956 207.233 219.931 207.196 219.907 207.184C219.956 207.11 219.931 207.024 219.907 206.95C219.833 206.459 219.698 205.98 219.501 205.525C219.268 204.935 218.948 204.382 218.568 203.866C218.531 203.817 218.506 203.768 218.432 203.756C218.432 203.731 218.457 203.719 218.432 203.694C218.346 203.559 218.432 203.485 218.518 203.412C219.206 202.846 219.931 202.318 220.693 201.851C221.676 201.249 222.696 200.745 223.777 200.364C224.281 200.192 224.785 200.032 225.301 199.897C226.026 199.713 226.763 199.578 227.513 199.479C228.791 199.332 230.081 199.307 231.371 199.406C232.809 199.516 234.234 199.762 235.61 200.155H235.647Z" fill="#1A1919"/>
<path d="M200.837 35.4525C202.287 35.4525 203.466 34.2729 203.466 32.8229C203.466 31.373 202.287 30.1934 200.837 30.1934C199.387 30.1934 198.207 31.373 198.207 32.8229C198.207 34.2729 199.387 35.4525 200.837 35.4525Z" fill="#1A1919"/>
<path d="M146.833 13.3093C147.313 13.3093 147.706 12.9161 147.706 12.4369C147.706 11.9577 147.313 11.5645 146.833 11.5645C146.354 11.5645 145.961 11.9577 145.961 12.4369C145.961 12.9161 146.354 13.3093 146.833 13.3093Z" fill="#1A1919"/>
<path d="M106.517 16.7997C108.446 16.7997 110.007 15.2392 110.007 13.31C110.007 11.3808 108.446 9.82031 106.517 9.82031C104.588 9.82031 103.027 11.3808 103.027 13.31C103.027 15.2392 104.588 16.7997 106.517 16.7997Z" fill="#1A1919"/>
<path d="M75.4666 25.314C76.8919 25.314 78.0347 24.1589 78.0347 22.7458C78.0347 21.3328 76.8796 20.1777 75.4666 20.1777C74.0535 20.1777 72.8984 21.3328 72.8984 22.7458C72.8984 24.1589 74.0535 25.314 75.4666 25.314Z" fill="#1A1919"/>
<path d="M42.5723 43.3282C42.7812 43.3282 42.9532 43.1562 42.9532 42.9473C42.9532 42.7384 42.7812 42.5664 42.5723 42.5664C42.3634 42.5664 42.1914 42.7384 42.1914 42.9473C42.1914 43.1562 42.3634 43.3282 42.5723 43.3282Z" fill="#1A1919"/>
<path d="M15.5751 65.9609C14.3586 65.9609 13.3633 66.9439 13.3633 68.1727C13.3633 69.4015 14.3463 70.3845 15.5751 70.3845C16.8038 70.3845 17.7868 69.4015 17.7868 68.1727C17.7868 66.9439 16.8038 65.9609 15.5751 65.9609Z" fill="#1A1919"/>
<path d="M8.23889 90.4387C8.61892 90.4387 8.927 90.1306 8.927 89.7506C8.927 89.3706 8.61892 89.0625 8.23889 89.0625C7.85886 89.0625 7.55078 89.3706 7.55078 89.7506C7.55078 90.1306 7.85886 90.4387 8.23889 90.4387Z" fill="#1A1919"/>
<path d="M147.191 26.2852C147.191 26.8258 147.621 27.2559 148.162 27.2559C148.703 27.2559 149.133 26.8258 149.133 26.2852C149.133 25.7445 148.703 25.3145 148.162 25.3145C147.621 25.3145 147.191 25.7568 147.191 26.2852Z" fill="#1A1919"/>
<path d="M132.445 27.2562C133.698 27.2562 134.705 26.2486 134.705 24.9953C134.705 23.742 133.698 22.7344 132.445 22.7344C131.191 22.7344 130.184 23.742 130.184 24.9953C130.184 26.2486 131.191 27.2562 132.445 27.2562Z" fill="#1A1919"/>
<path d="M89.532 19.8707C90.3799 19.8707 91.068 19.1826 91.068 18.3348C91.068 17.4869 90.3799 16.7988 89.532 16.7988C88.6842 16.7988 87.9961 17.4869 87.9961 18.3348C87.9961 19.1826 88.6842 19.8707 89.532 19.8707Z" fill="#1A1919"/>
<path d="M97.5357 12.2041C98.1992 12.2041 98.7276 11.6757 98.7276 11.0122C98.7276 10.3487 98.1992 9.82031 97.5357 9.82031C96.8721 9.82031 96.3438 10.3487 96.3438 11.0122C96.3438 11.6757 96.8721 12.2041 97.5357 12.2041Z" fill="#1A1919"/>
<path d="M30.372 78.2988C30.6163 78.2988 30.8144 78.1007 30.8144 77.8564C30.8144 77.6121 30.6163 77.4141 30.372 77.4141C30.1277 77.4141 29.9297 77.6121 29.9297 77.8564C29.9297 78.1007 30.1277 78.2988 30.372 78.2988Z" fill="#1A1919"/>
<path d="M7.88312 84.3815C8.07972 84.3815 8.22717 84.2217 8.22717 84.0374C8.22717 83.8531 8.06743 83.6934 7.88312 83.6934C7.6988 83.6934 7.53906 83.8531 7.53906 84.0374C7.53906 84.2217 7.6988 84.3815 7.88312 84.3815Z" fill="#1A1919"/>
<path d="M20.0997 84.123C18.8218 84.123 17.7773 85.1552 17.7773 86.4454C17.7773 87.7356 18.8095 88.7678 20.0997 88.7678C21.3899 88.7678 22.4221 87.7356 22.4221 86.4454C22.4221 85.1552 21.3899 84.123 20.0997 84.123Z" fill="#1A1919"/>
<path d="M39.8964 184.17C40.7074 184.17 41.3709 183.506 41.3709 182.695C41.3709 181.884 40.7074 181.221 39.8964 181.221C39.0854 181.221 38.4219 181.884 38.4219 182.695C38.4219 183.506 39.0854 184.17 39.8964 184.17Z" fill="#1A1919"/>
<path d="M232.612 177.287C233.718 177.287 234.615 176.39 234.615 175.284C234.615 174.178 233.718 173.281 232.612 173.281C231.506 173.281 230.609 174.178 230.609 175.284C230.609 176.39 231.506 177.287 232.612 177.287Z" fill="#1A1919"/>
<path d="M252.998 72.2414C252.998 72.2414 255.849 61.7846 247.899 57.8771C239.949 53.9697 236.68 46.1179 237.405 39.9495C238.118 33.7811 232.527 34.4815 235.181 25.831C237.835 17.1805 235.021 13.4082 235.021 13.4082C235.021 13.4082 241.681 19.6012 245.834 22.4765C249.975 25.3518 256.021 31.1884 257.913 38.561C259.818 45.9213 259.142 53.4905 254.706 58.9585C250.282 64.4264 259.879 64.8688 253.01 72.2537L252.998 72.2414Z" fill="white"/>
<path d="M237.848 29.0496C237.848 29.0496 241.239 27.5628 243.144 30.1924Z" fill="white"/>
<path d="M97.1422 230.678C97.1422 230.678 91.5759 221.376 83.2572 224.399C74.9384 227.422 67.0006 224.325 63.0563 219.533C59.112 214.741 55.7329 219.25 51.3339 211.349C46.9472 203.436 42.2656 202.859 42.2656 202.859C42.2656 202.859 51.3462 202.355 56.2981 201.36C61.2377 200.364 69.6425 200.069 76.2655 203.805C82.8885 207.54 87.8773 213.279 88.7374 220.258C89.5976 227.237 96.5892 220.627 97.1422 230.702V230.678Z" fill="white"/>
<path d="M49.5664 204.26C49.5664 204.26 69.3864 204.37 84.8811 219.619C86.1221 220.848 89.5012 222.531 90.5457 223.514" fill="white"/>
<path d="M63.2891 216.719C63.2891 216.719 64.8865 208.609 70.6862 209.715Z" fill="white"/>
<path d="M55.5117 211.656C55.5117 211.656 56.7896 208.19 60.009 208.633Z" fill="white"/>
<path d="M73.8427 209.271C73.8427 209.271 70.9305 206.372 72.405 204.504Z" fill="white"/>
<path d="M77.0251 210.722C77.0251 210.722 74.371 206.36 75.3172 205.082Z" fill="white"/>
<path d="M62.7461 204.222C62.7461 204.222 61.8983 203.89 62.2423 202.551Z" fill="white"/>
<path d="M237.594 78.041C234.215 78.4097 231.167 75.9767 230.799 72.5976C230.43 69.2185 232.863 66.1712 236.242 65.8025C239.621 65.4339 242.669 67.8669 243.037 71.246C243.406 74.6251 240.973 77.6601 237.594 78.041Z" fill="white"/>
<path d="M236.916 71.9334C235.233 72.1177 233.733 71.1961 233.586 69.8691C233.439 68.542 234.692 67.3132 236.375 67.1289C238.059 66.9446 239.558 67.8662 239.705 69.1933C239.853 70.5203 238.599 71.7491 236.916 71.9334Z" fill="white"/>
<path d="M221.482 47.9237C218.152 48.6118 214.896 46.4861 214.195 43.1561C213.495 39.8262 215.633 36.5699 218.963 35.8695C222.293 35.1814 225.549 37.3072 226.25 40.6371C226.938 43.9671 224.812 47.2233 221.482 47.9237Z" fill="white"/>
<path d="M220.229 41.8911C218.571 42.2351 216.998 41.461 216.727 40.1462C216.457 38.8314 217.588 37.4921 219.246 37.148C220.905 36.804 222.478 37.5781 222.748 38.8929C223.019 40.2077 221.888 41.547 220.229 41.8911Z" fill="white"/>
<path d="M230.092 61.6865C230.092 62.4606 229.465 63.0996 228.679 63.0996C227.892 63.0996 227.266 62.4729 227.266 61.6865C227.266 60.9001 227.892 60.2734 228.679 60.2734C229.465 60.2734 230.092 60.9001 230.092 61.6865Z" fill="#1A1919"/>
<path d="M227.945 85.1797C227.945 86.0398 227.245 86.7402 226.385 86.7402C225.525 86.7402 224.824 86.0398 224.824 85.1797C224.824 84.3195 225.525 83.6191 226.385 83.6191C227.245 83.6191 227.945 84.3195 227.945 85.1797Z" fill="#1A1919"/>
<path d="M238.472 83.3728C238.472 83.766 238.153 84.0855 237.76 84.0855C237.366 84.0855 237.047 83.766 237.047 83.3728C237.047 82.9796 237.366 82.6602 237.76 82.6602C238.153 82.6602 238.472 82.9796 238.472 83.3728Z" fill="#1A1919"/>
<path d="M230.313 210.022C230.971 210.022 231.505 209.489 231.505 208.831C231.505 208.172 230.971 207.639 230.313 207.639C229.655 207.639 229.121 208.172 229.121 208.831C229.121 209.489 229.655 210.022 230.313 210.022Z" fill="#1A1919"/>
<path d="M244.975 214.175C244.975 216.522 243.082 218.414 240.735 218.414C238.388 218.414 236.496 216.522 236.496 214.175C236.496 211.828 238.388 209.936 240.735 209.936C243.082 209.936 244.975 211.828 244.975 214.175Z" fill="#1A1919"/>
<path fill-rule="evenodd" clip-rule="evenodd" d="M216.652 210.107C216.652 210.107 216.738 210.169 216.775 210.206C217.316 210.82 217.943 211.348 218.643 211.779C219.97 212.626 221.42 213.106 222.993 213.204C223.558 213.241 224.111 213.179 224.652 213.044C225.622 212.798 226.482 212.344 227.257 211.729C227.281 211.705 227.318 211.693 227.355 211.668C227.097 212.024 226.777 212.319 226.446 212.602C225.512 213.376 224.467 213.867 223.251 213.99C222.514 214.064 221.801 213.941 221.113 213.732C220.511 213.56 219.945 213.29 219.417 212.97C218.262 212.27 217.34 211.324 216.689 210.144C216.689 210.144 216.689 210.12 216.677 210.107H216.652Z" fill="white"/>
<path fill-rule="evenodd" clip-rule="evenodd" d="M216.649 210.108C216.108 209.125 215.826 208.081 215.863 206.962C215.801 206.901 215.789 206.815 215.801 206.729C215.838 206.225 215.924 205.746 216.096 205.267C216.108 205.218 216.133 205.168 216.157 205.119C216.157 205.095 216.158 205.082 216.17 205.058C216.194 204.984 216.244 204.923 216.268 204.849C216.268 204.824 216.293 204.787 216.305 204.751C216.354 204.628 216.452 204.542 216.526 204.431C216.612 204.296 216.637 204.136 216.71 203.989C216.723 203.964 216.747 203.94 216.772 203.903C216.809 203.854 216.846 203.792 216.882 203.731C216.895 203.718 216.907 203.694 216.919 203.682C216.944 203.645 216.968 203.596 217.005 203.559C217.399 203.018 217.878 202.551 218.418 202.158C218.848 201.851 219.315 201.593 219.807 201.396C220.47 201.138 221.159 200.966 221.871 200.929C222.51 200.892 223.137 200.929 223.751 201.089C223.776 201.089 223.8 201.089 223.825 201.089C224.587 201.273 225.275 201.593 225.914 202.047C225.951 202.072 225.988 202.096 226.012 202.146C226.061 202.711 226.491 203.202 227.044 203.325C227.093 203.325 227.143 203.362 227.192 203.374C227.474 203.682 227.708 204.038 227.929 204.394C228.519 205.377 228.912 206.434 228.937 207.601C228.949 208.339 228.789 209.027 228.531 209.715C228.261 210.415 227.868 211.054 227.401 211.644C227.401 211.644 227.388 211.644 227.376 211.656C226.946 212.123 226.418 212.418 225.852 212.688C224.71 213.229 223.53 213.377 222.289 213.18C221.576 213.069 220.864 212.897 220.2 212.627C219.659 212.406 219.143 212.135 218.64 211.816C218.074 211.472 217.571 211.054 217.091 210.587C216.932 210.44 216.833 210.243 216.686 210.083L216.649 210.108Z" fill="white"/>
<path fill-rule="evenodd" clip-rule="evenodd" d="M210.938 201.972C210.582 200.695 210.643 199.441 211.135 198.212C212.302 195.313 215.386 193.838 218.225 194.33C219.281 194.514 220.215 194.944 221.038 195.62C221.063 195.632 221.075 195.657 221.1 195.681C221.137 195.73 221.149 195.78 221.149 195.841C221.174 196.222 221.395 196.48 221.69 196.713C221.862 196.849 222.071 196.91 222.279 196.935C222.353 196.935 222.39 196.996 222.415 197.045C222.796 197.561 223.115 198.114 223.348 198.704C223.533 199.171 223.668 199.638 223.754 200.129C223.766 200.215 223.791 200.301 223.754 200.375C223.705 200.461 223.619 200.437 223.545 200.424C223.152 200.314 222.759 200.277 222.353 200.264C221.813 200.252 221.272 200.301 220.743 200.412C220.35 200.498 219.969 200.584 219.588 200.707C218.9 200.928 218.274 201.26 217.672 201.653C217.033 202.058 216.431 202.501 215.779 202.882C215.202 203.226 214.6 203.508 213.936 203.607C213.346 203.693 212.793 203.607 212.253 203.336C211.909 203.164 211.577 202.968 211.319 202.685C211.135 202.476 211.012 202.243 210.926 201.985L210.938 201.972Z" fill="white"/>
<path fill-rule="evenodd" clip-rule="evenodd" d="M222.279 196.96C222.156 197.009 222.033 196.96 221.923 196.923C221.542 196.751 221.247 196.48 221.112 196.075C221.075 195.952 221.062 195.817 221.087 195.682C221.173 195.719 221.234 195.854 221.333 195.829C221.431 195.805 221.505 195.706 221.591 195.633C224.626 193.101 228.116 191.664 232.06 191.356C234.8 191.135 237.479 191.467 240.108 192.229C240.379 192.303 240.649 192.401 240.919 192.487C241.177 192.573 241.448 192.548 241.706 192.524C241.951 192.499 242.209 192.462 242.455 192.548C242.504 192.561 242.541 192.585 242.59 192.597C242.676 192.647 242.762 192.684 242.848 192.733C243.217 192.991 243.487 193.322 243.561 193.777C243.635 194.281 243.389 194.65 242.898 194.76C242.431 194.871 242.001 194.797 241.62 194.502C241.386 194.33 241.165 194.281 240.882 194.33C239.359 194.613 237.896 195.116 236.496 195.768C233.596 197.119 231.101 199.024 228.84 201.273C228.251 201.862 227.685 202.464 227.133 203.091C227.034 203.202 227.022 203.275 227.133 203.374C227.145 203.386 227.157 203.411 227.169 203.435C227.01 203.484 226.862 203.435 226.715 203.361C226.395 203.189 226.15 202.944 226.014 202.612C225.965 202.501 225.928 202.378 225.953 202.256C225.977 202.231 226.014 202.219 226.039 202.243C226.162 202.329 226.236 202.243 226.309 202.157C227.083 201.273 227.907 200.425 228.767 199.614C229.467 198.962 230.192 198.348 230.942 197.758C231.851 197.046 232.797 196.394 233.792 195.805C234.751 195.239 235.746 194.723 236.778 194.293C237.442 194.023 238.105 193.777 238.793 193.568C239.027 193.494 239.26 193.458 239.482 193.372C238.093 192.991 236.68 192.733 235.242 192.622C233.952 192.524 232.662 192.548 231.384 192.696C230.634 192.782 229.897 192.929 229.172 193.114C228.656 193.236 228.152 193.396 227.649 193.581C226.567 193.961 225.535 194.465 224.564 195.067C223.803 195.534 223.078 196.05 222.389 196.628C222.291 196.702 222.217 196.775 222.303 196.91C222.316 196.935 222.303 196.972 222.291 196.996L222.279 196.96Z" fill="white"/>
<path fill-rule="evenodd" clip-rule="evenodd" d="M210.938 201.973C211.097 202.317 211.318 202.625 211.613 202.846C212.437 203.472 213.346 203.718 214.378 203.423C215.078 203.227 215.693 202.858 216.283 202.465C216.922 202.047 217.548 201.592 218.212 201.224C218.802 200.892 219.428 200.646 220.092 200.474C220.657 200.327 221.235 200.216 221.824 200.179C222.402 200.142 222.979 200.179 223.545 200.327C223.606 200.339 223.667 200.376 223.717 200.327C223.778 200.327 223.803 200.388 223.803 200.437C223.827 200.634 223.84 200.843 223.827 201.039C223.827 201.089 223.803 201.125 223.754 201.15C223.36 201.089 222.979 201.015 222.574 200.99C221.996 200.966 221.431 201.015 220.866 201.138C220.116 201.297 219.416 201.58 218.765 201.998C218.126 202.391 217.585 202.883 217.118 203.472C217.094 203.509 217.069 203.546 217.044 203.595C216.995 203.62 217.008 203.681 216.958 203.706C216.958 203.718 216.934 203.743 216.934 203.755C216.872 203.792 216.885 203.878 216.823 203.915C216.811 203.939 216.799 203.964 216.786 203.988C216.627 204.247 216.479 204.517 216.356 204.787C216.356 204.812 216.332 204.836 216.319 204.861C216.319 204.935 216.233 204.996 216.233 205.07C216.233 205.082 216.221 205.107 216.209 205.119C216.209 205.168 216.16 205.205 216.172 205.254C216.012 205.623 215.951 206.028 215.902 206.434C215.877 206.593 215.865 206.765 215.877 206.925C215.693 206.815 215.496 206.778 215.3 206.692C213.37 205.856 211.97 204.505 211.146 202.563C211.06 202.354 210.974 202.158 210.938 201.936V201.973Z" fill="white"/>
<path fill-rule="evenodd" clip-rule="evenodd" d="M220.067 203.767C220.436 203.055 221.321 202.784 222.033 203.153C222.746 203.521 223.016 204.418 222.635 205.131C222.267 205.832 221.382 206.114 220.669 205.733C219.957 205.365 219.686 204.48 220.067 203.767Z" fill="white"/>
<path fill-rule="evenodd" clip-rule="evenodd" d="M215.705 198.717C214.992 198.348 214.722 197.476 215.09 196.763C215.459 196.05 216.331 195.768 217.044 196.149C217.769 196.517 218.039 197.402 217.658 198.115C217.29 198.827 216.417 199.098 215.705 198.729V198.717Z" fill="white"/>
<path fill-rule="evenodd" clip-rule="evenodd" d="M207.31 26.0026C207.31 27.4525 206.13 28.6322 204.68 28.6322C203.23 28.6322 202.051 27.4525 202.051 26.0026C202.051 24.5527 203.23 23.373 204.68 23.373C206.13 23.373 207.31 24.5527 207.31 26.0026Z" fill="#1A1919"/>
<path fill-rule="evenodd" clip-rule="evenodd" d="M151.55 5.61656C151.55 6.09578 151.156 6.48898 150.677 6.48898C150.198 6.48898 149.805 6.09578 149.805 5.61656C149.805 5.13735 150.198 4.74414 150.677 4.74414C151.156 4.74414 151.55 5.13735 151.55 5.61656Z" fill="#1A1919"/>
<path d="M110.365 9.97937C112.292 9.97937 113.854 8.41699 113.854 6.48969C113.854 4.56239 112.292 3 110.365 3C108.437 3 106.875 4.56239 106.875 6.48969C106.875 8.41699 108.437 9.97937 110.365 9.97937Z" fill="#1A1919"/>
<path fill-rule="evenodd" clip-rule="evenodd" d="M81.894 15.9138C81.894 17.3392 80.739 18.4819 79.3259 18.4819C77.9128 18.4819 76.7578 17.3269 76.7578 15.9138C76.7578 14.5007 77.9128 13.3457 79.3259 13.3457C80.739 13.3457 81.894 14.5007 81.894 15.9138Z" fill="#1A1919"/>
<path fill-rule="evenodd" clip-rule="evenodd" d="M46.8009 36.127C46.8009 36.3359 46.6289 36.5079 46.42 36.5079C46.2111 36.5079 46.0391 36.3359 46.0391 36.127C46.0391 35.9181 46.2111 35.7461 46.42 35.7461C46.6289 35.7461 46.8009 35.9181 46.8009 36.127Z" fill="#1A1919"/>
<path d="M19.4227 63.5525C20.6442 63.5525 21.6345 62.5622 21.6345 61.3407C21.6345 60.1192 20.6442 59.1289 19.4227 59.1289C18.2012 59.1289 17.2109 60.1192 17.2109 61.3407C17.2109 62.5622 18.2012 63.5525 19.4227 63.5525Z" fill="#1A1919"/>
<path d="M12.0865 83.6067C12.4666 83.6067 12.7747 83.2986 12.7747 82.9186C12.7747 82.5385 12.4666 82.2305 12.0865 82.2305C11.7065 82.2305 11.3984 82.5385 11.3984 82.9186C11.3984 83.2986 11.7065 83.6067 12.0865 83.6067Z" fill="#1A1919"/>
<path fill-rule="evenodd" clip-rule="evenodd" d="M4.6787 102.296C4.6787 103.034 4.07661 103.636 3.33935 103.636C2.60209 103.636 2 103.034 2 102.296C2 101.559 2.60209 100.957 3.33935 100.957C4.07661 100.957 4.6787 101.559 4.6787 102.296Z" fill="#1A1919"/>
<path fill-rule="evenodd" clip-rule="evenodd" d="M152.988 19.4649C152.988 20.0055 152.558 20.4356 152.018 20.4356C151.477 20.4356 151.047 20.0055 151.047 19.4649C151.047 18.9242 151.477 18.4941 152.018 18.4941C152.558 18.4941 152.988 18.9242 152.988 19.4649Z" fill="#1A1919"/>
<path fill-rule="evenodd" clip-rule="evenodd" d="M138.565 18.175C138.565 19.4283 137.557 20.4359 136.304 20.4359C135.051 20.4359 134.043 19.4283 134.043 18.175C134.043 16.9216 135.051 15.9141 136.304 15.9141C137.557 15.9141 138.565 16.9216 138.565 18.175Z" fill="#1A1919"/>
<path fill-rule="evenodd" clip-rule="evenodd" d="M94.9196 11.5145C94.9196 12.3623 94.2315 13.0504 93.3836 13.0504C92.5358 13.0504 91.8477 12.3623 91.8477 11.5145C91.8477 10.6666 92.5358 9.97852 93.3836 9.97852C94.2315 9.97852 94.9196 10.6666 94.9196 11.5145Z" fill="#1A1919"/>
<path fill-rule="evenodd" clip-rule="evenodd" d="M102.571 4.1919C102.571 4.85543 102.043 5.3838 101.379 5.3838C100.716 5.3838 100.188 4.85543 100.188 4.1919C100.188 3.52837 100.716 3 101.379 3C102.043 3 102.571 3.52837 102.571 4.1919Z" fill="#1A1919"/>
<path fill-rule="evenodd" clip-rule="evenodd" d="M34.6581 71.0361C34.6581 70.7904 34.4615 70.5938 34.2158 70.5938C33.97 70.5938 33.7734 70.7904 33.7734 71.0361C33.7734 71.2819 33.97 71.4785 34.2158 71.4785C34.4615 71.4785 34.6581 71.2819 34.6581 71.0361Z" fill="#1A1919"/>
<path fill-rule="evenodd" clip-rule="evenodd" d="M12.0865 77.2054C12.0865 77.402 11.9268 77.5494 11.7425 77.5494C11.5582 77.5494 11.3984 77.3897 11.3984 77.2054C11.3984 77.0211 11.5582 76.8613 11.7425 76.8613C11.9268 76.8613 12.0865 77.0211 12.0865 77.2054Z" fill="#1A1919"/>
<path fill-rule="evenodd" clip-rule="evenodd" d="M26.2541 79.6134C26.2541 80.8913 25.2219 81.9357 23.9317 81.9357C22.6415 81.9357 21.6094 80.9036 21.6094 79.6134C21.6094 78.3232 22.6415 77.291 23.9317 77.291C25.2219 77.291 26.2541 78.3232 26.2541 79.6134Z" fill="#1A1919"/>
<path d="M43.7401 177.349C44.5545 177.349 45.2147 176.689 45.2147 175.875C45.2147 175.061 44.5545 174.4 43.7401 174.4C42.9258 174.4 42.2656 175.061 42.2656 175.875C42.2656 176.689 42.9258 177.349 43.7401 177.349Z" fill="#1A1919"/>
<path d="M236.46 170.469C237.566 170.469 238.463 169.572 238.463 168.466C238.463 167.36 237.566 166.463 236.46 166.463C235.354 166.463 234.457 167.36 234.457 168.466C234.457 169.572 235.354 170.469 236.46 170.469Z" fill="#1A1919"/>
<path d="M129.987 25.9906C163.397 22.9924 217.929 24.0615 227.268 118.43C236.606 212.799 147.324 231.071 104.699 211.128C62.0852 191.173 17.5057 143.104 47.5858 71.7129C63.1173 34.85 109.319 27.8461 129.974 25.9906H129.987Z" fill="white"/>
<path d="M140.654 219.153C127.064 219.153 114.321 216.425 104.381 211.78C59.4448 190.744 17.4334 141.36 46.9114 71.4184C58.0071 45.0983 86.711 29.1366 129.914 25.2537C147.056 23.7178 169.161 23.4352 188.035 35.0593C210.447 48.8583 223.89 76.8864 227.994 118.345C232.663 165.468 212.758 190.129 195.248 202.515C178.672 214.237 158.889 219.153 140.654 219.153ZM130.049 26.716C87.4114 30.5374 59.1376 46.1919 48.2753 71.9836C19.2151 140.966 60.6735 189.687 105.02 210.441C127.334 220.885 166.249 221.241 194.412 201.311C211.602 189.146 231.128 164.903 226.544 118.492C217.808 30.2548 170.39 23.1034 130.062 26.716H130.049Z" fill="#1A1919"/>
<path d="M68.8552 180.127C68.6586 180.127 68.462 180.054 68.3146 179.894C59.7501 170.85 53.1885 160.848 48.8141 150.182C41.847 133.213 40.4954 114.831 44.7961 95.5392C44.8821 95.146 45.2876 94.9002 45.6808 94.974C46.074 95.06 46.332 95.4532 46.246 95.8587C42.0191 114.855 43.3461 132.943 50.1903 149.629C54.5033 160.123 60.9666 169.978 69.4082 178.886C69.6908 179.181 69.6785 179.648 69.3836 179.931C69.2362 180.066 69.0641 180.127 68.8798 180.127H68.8552Z" fill="#1A1919"/>
<path d="M206.698 183.518C206.538 183.518 206.378 183.468 206.243 183.358C205.923 183.112 205.862 182.645 206.108 182.326C211.895 174.818 216.159 166.081 218.764 156.35C218.875 155.956 219.28 155.735 219.661 155.821C220.054 155.932 220.288 156.325 220.177 156.718C217.523 166.634 213.173 175.555 207.263 183.21C207.115 183.395 206.894 183.493 206.673 183.493L206.698 183.518Z" fill="#1A1919"/>
<path d="M212.943 77.9673C212.648 77.9673 212.365 77.783 212.255 77.488C210.67 73.3594 208.876 69.4519 206.934 65.8885C206.738 65.5322 206.873 65.0775 207.229 64.8932C207.585 64.6966 208.04 64.8318 208.224 65.1881C210.203 68.813 212.021 72.7819 213.631 76.972C213.778 77.3529 213.582 77.783 213.201 77.9181C213.115 77.955 213.029 77.9673 212.943 77.9673Z" fill="#1A1919"/>
<path d="M193.243 47.7394C193.071 47.7394 192.887 47.6779 192.752 47.5551C190.393 45.417 187.837 43.4633 185.183 41.7553C182.676 40.1456 179.997 38.6957 177.233 37.4669C176.864 37.3072 176.692 36.8648 176.864 36.4962C177.024 36.1276 177.466 35.9555 177.835 36.1276C180.673 37.3932 183.413 38.8677 185.981 40.5265C188.709 42.2837 191.314 44.2866 193.735 46.4738C194.042 46.7441 194.054 47.211 193.784 47.5182C193.637 47.6779 193.44 47.764 193.231 47.764L193.243 47.7394Z" fill="#1A1919"/>
<path d="M52.3642 75.2405C52.2659 75.2405 52.1676 75.2159 52.0816 75.179C51.7007 75.0193 51.5287 74.5892 51.6884 74.2083C59.3313 56.0718 75.5756 43.2312 99.9788 36.0675C100.372 35.9569 100.778 36.1781 100.888 36.5713C100.999 36.9645 100.778 37.37 100.384 37.4806C76.4234 44.5214 60.4987 57.0671 53.0401 74.7858C52.9172 75.0684 52.6469 75.2405 52.3642 75.2405Z" fill="#1A1919"/>
<path d="M136.72 139.429C120.746 132.683 122.467 140.055 109.442 135.632C99.4028 132.228 85.2966 124.29 82.8268 112.064L82.4336 112.027C82.4336 112.027 89.0321 135.878 104.281 144.97C119.518 154.063 112.637 145.462 127.382 150.623C142.127 155.784 156.381 157.995 165.977 143.25C172.686 132.916 175.156 125.863 176.041 122.546C175.709 123.639 175.23 124.733 174.579 125.802C167.452 137.598 152.707 146.187 136.72 139.441V139.429Z" fill="#E09B40"/>
<path d="M154.411 90.3902C139.666 80.5601 130.328 81.5431 108.443 83.5091C86.5713 85.4751 84.1138 99.9745 84.1138 99.9745C82.369 104.373 82.0741 108.404 82.8113 112.041C85.2811 124.267 99.3873 132.205 109.426 135.609C122.451 140.032 120.731 132.66 136.705 139.406C152.679 146.151 167.424 137.575 174.563 125.766C175.214 124.697 175.694 123.616 176.025 122.51C176.246 121.699 176.369 121.097 176.431 120.741C176.455 120.605 176.48 120.483 176.492 120.347C177.881 109.927 166.945 98.7212 154.411 90.3656V90.3902Z" fill="url(#paint0_linear_2101_28524)"/>
<path d="M145.898 155.281C139.865 155.281 133.476 153.536 127.123 151.312C120.672 149.051 118.497 149.505 116.752 149.862C114.282 150.366 112.501 150.734 103.875 145.586C88.552 136.444 81.9659 113.183 81.6955 112.2C81.6341 111.967 81.6955 111.721 81.843 111.524C81.8676 111.488 81.9044 111.451 81.9413 111.426C81.3269 107.654 81.8184 103.734 83.3912 99.7528C83.6493 98.5118 87.0775 84.6759 108.372 82.759L109.183 82.6853C130.355 80.7807 140.025 79.9083 154.807 89.763C170.265 100.072 178.436 111.254 177.22 120.457L177.17 120.789C177.084 121.256 176.962 121.871 176.74 122.706C175.856 126.048 173.349 133.212 166.578 143.62C160.926 152.307 153.726 155.256 145.898 155.256V155.281ZM119.247 148.092C121.004 148.092 123.51 148.486 127.614 149.923C141.635 154.826 155.901 157.37 165.337 142.846C171.997 132.598 174.443 125.606 175.303 122.35C175.512 121.563 175.634 120.986 175.696 120.642L175.757 120.285C176.9 111.672 168.975 100.994 153.996 91.0163C139.644 81.4565 130.772 82.2552 109.318 84.1844L108.507 84.2581C87.4461 86.1504 84.8535 99.974 84.8289 100.109C84.8289 100.158 84.8043 100.207 84.792 100.257C83.2069 104.262 82.7768 108.182 83.5264 111.905C83.5755 112.139 83.5141 112.372 83.3544 112.544C84.62 116.599 91.329 136.37 104.649 144.32C112.783 149.174 114.331 148.854 116.47 148.412C117.231 148.252 118.079 148.08 119.247 148.08V148.092Z" fill="#1A1919"/>
<path d="M156.208 107.039L154.254 88.3984C154.254 88.3984 160.336 94.1982 156.208 107.039Z" fill="#67A359"/>
<path d="M156.222 107.038L149.562 89.209C149.562 89.209 156.579 92.6864 156.222 107.038Z" fill="#395F2E"/>
<path d="M156.207 107.039L159.144 89.4434C159.144 89.4434 163.69 96.9757 156.207 107.039Z" fill="#395F2E"/>
<path d="M156.212 107.04L147.758 90.0703C147.758 90.0703 154.971 92.4664 156.212 107.04Z" fill="#67A359"/>
<path d="M156.207 107.039L160.975 94.1738C160.975 94.1738 163.641 100.821 156.207 107.039Z" fill="#67A359"/>
<path d="M156.222 107.04C156.222 107.04 149.599 92.8597 145.605 91.5449C145.605 91.5449 148.69 100.736 156.222 107.04Z" fill="#395F2E"/>
<path d="M156.194 107.002C156.194 107.002 146.229 95.6969 142.297 96.0286C142.297 96.0286 147.679 103.856 156.194 107.002Z" fill="#67A359"/>
<path d="M160.743 123.554C160.743 123.554 152.694 125.311 147.57 113.466C142.446 101.608 154.267 101.227 158.383 101.018C161.554 100.859 166.874 100.466 165.989 111.168C165.105 121.858 160.743 123.566 160.743 123.566V123.554Z" fill="url(#paint1_linear_2101_28524)"/>
<path d="M157.522 112.078C157.522 112.078 158.763 109.35 157.178 109.571C155.606 109.78 157.522 112.078 157.522 112.078Z" fill="#F6EA69"/>
<path d="M155.387 108.894C155.387 108.894 156.616 106.167 155.043 106.388C153.458 106.609 155.387 108.894 155.387 108.894Z" fill="#F6EA69"/>
<path d="M154.453 112.68C154.453 112.68 154.834 109.719 153.397 110.382C151.947 111.046 154.453 112.68 154.453 112.68Z" fill="#F6EA69"/>
<path d="M157.856 117.939C157.856 117.939 158.655 115.051 157.131 115.506C155.607 115.96 157.856 117.939 157.856 117.939Z" fill="#F6EA69"/>
<path d="M156.673 121.034C156.673 121.034 156.083 118.098 154.928 119.191C153.773 120.285 156.673 121.034 156.673 121.034Z" fill="#F6EA69"/>
<path d="M153.936 115.887C153.936 115.887 153.605 112.914 152.364 113.897C151.11 114.892 153.936 115.887 153.936 115.887Z" fill="#F6EA69"/>
<path d="M150.715 110.505C150.715 110.505 151.735 107.692 150.174 108.023C148.614 108.367 150.715 110.505 150.715 110.505Z" fill="#F6EA69"/>
<path d="M147.771 108.514C147.771 108.514 149.381 105.982 147.783 105.982C146.186 105.982 147.771 108.514 147.771 108.514Z" fill="#F6EA69"/>
<path d="M149.733 113.859C149.733 113.859 150.052 110.885 148.627 111.585C147.201 112.286 149.733 113.859 149.733 113.859Z" fill="#F6EA69"/>
<path d="M152.55 118.872C152.55 118.872 152.021 115.923 150.842 117.004C149.662 118.073 152.55 118.872 152.55 118.872Z" fill="#F6EA69"/>
<path d="M163.018 106.585C163.018 106.585 165.021 104.361 163.448 104.091C161.875 103.821 163.018 106.585 163.018 106.585Z" fill="#F6EA69"/>
<path d="M162.233 110.836C162.233 110.836 163.929 108.366 162.344 108.304C160.759 108.231 162.233 110.836 162.233 110.836Z" fill="#F6EA69"/>
<path d="M160.571 115.346C160.571 115.346 162.291 112.901 160.706 112.815C159.121 112.729 160.571 115.346 160.571 115.346Z" fill="#F6EA69"/>
<path d="M160.195 122.117C160.195 122.117 161.337 119.352 159.777 119.622C158.204 119.88 160.195 122.117 160.195 122.117Z" fill="#F6EA69"/>
<path d="M162.49 119.818C162.49 119.818 164.297 117.434 162.724 117.299C161.139 117.151 162.49 119.818 162.49 119.818Z" fill="#F6EA69"/>
<path d="M164.062 114.166C164.062 114.166 165.795 111.721 164.21 111.635C162.625 111.549 164.062 114.166 164.062 114.166Z" fill="#F6EA69"/>
<path d="M159.53 108.502C159.53 108.502 160.759 105.774 159.186 105.995C157.613 106.216 159.53 108.502 159.53 108.502Z" fill="#F6EA69"/>
<path d="M157.183 105.541C157.183 105.541 158.424 102.813 156.839 103.034C155.266 103.243 157.183 105.541 157.183 105.541Z" fill="#F6EA69"/>
<path d="M152.41 106.683C152.41 106.683 153.393 103.856 151.844 104.213C150.296 104.569 152.41 106.683 152.41 106.683Z" fill="#F6EA69"/>
<path d="M109.564 88.7073L93.4922 79.0738C93.4922 79.0738 101.774 77.6853 109.564 88.7073Z" fill="#67A359"/>
<path d="M109.564 88.6936L91.3047 83.3116C91.3047 83.3116 98.2964 79.7851 109.564 88.6936Z" fill="#395F2E"/>
<path d="M109.562 88.7067L97.25 75.8047C97.25 75.8047 105.999 76.6894 109.562 88.7067Z" fill="#395F2E"/>
<path d="M109.566 88.7072L90.9258 85.279C90.9258 85.279 97.1679 80.9537 109.566 88.7072Z" fill="#67A359"/>
<path d="M109.563 88.7061L102.129 77.168C102.129 77.168 109.047 79.0234 109.563 88.7061Z" fill="#67A359"/>
<path d="M109.564 88.694C109.564 88.694 94.2536 85.4869 90.8008 87.883C90.8008 87.883 100.004 90.9303 109.564 88.694Z" fill="#395F2E"/>
<path d="M109.539 88.6816C109.539 88.6816 94.5108 89.8613 92.4219 93.2035C92.4219 93.2035 101.92 93.5967 109.539 88.6816Z" fill="#67A359"/>
<path d="M125.5 94.9853C125.5 94.9853 122.072 102.481 109.526 99.458C96.9682 96.4353 103.751 86.7526 106.061 83.3367C107.83 80.7071 110.718 76.2221 118.742 83.3367C126.766 90.4635 125.512 94.9731 125.512 94.9731L125.5 94.9853Z" fill="url(#paint2_linear_2101_28524)"/>
<path d="M114.379 90.6729C114.379 90.6729 112.941 88.0434 112.167 89.4442C111.393 90.8327 114.379 90.6729 114.379 90.6729Z" fill="#F6EA69"/>
<path d="M110.559 90.4632C110.559 90.4632 109.121 87.846 108.347 89.2222C107.573 90.6107 110.559 90.4632 110.559 90.4632Z" fill="#F6EA69"/>
<path d="M113.019 93.4979C113.019 93.4979 110.88 91.409 110.549 92.9695C110.205 94.53 113.019 93.4979 113.019 93.4979Z" fill="#F6EA69"/>
<path d="M119.273 93.9156C119.273 93.9156 117.455 91.5441 116.902 93.0309C116.349 94.5177 119.273 93.9156 119.273 93.9156Z" fill="#F6EA69"/>
<path d="M121.04 96.7178C121.04 96.7178 118.336 95.4276 118.521 97.0127C118.705 98.5978 121.04 96.7178 121.04 96.7178Z" fill="#F6EA69"/>
<path d="M115.262 95.8215C115.262 95.8215 112.682 94.2978 112.731 95.8829C112.768 97.4803 115.262 95.8215 115.262 95.8215Z" fill="#F6EA69"/>
<path d="M109.032 95.1703C109.032 95.1703 107.397 92.6636 106.722 94.1135C106.058 95.5635 109.032 95.1703 109.032 95.1703Z" fill="#F6EA69"/>
<path d="M105.666 96.3369C105.666 96.3369 104.61 93.5353 103.651 94.801C102.693 96.0666 105.666 96.3369 105.666 96.3369Z" fill="#F6EA69"/>
<path d="M111.139 97.9715C111.139 97.9715 108.951 95.9317 108.656 97.4922C108.349 99.0528 111.139 97.9715 111.139 97.9715Z" fill="#F6EA69"/>
<path d="M116.827 98.72C116.827 98.72 114.148 97.3807 114.308 98.9658C114.455 100.551 116.827 98.72 116.827 98.72Z" fill="#F6EA69"/>
<path d="M113.282 82.9797C113.282 82.9797 112.705 80.043 111.537 81.1366C110.382 82.2302 113.282 82.9797 113.282 82.9797Z" fill="#F6EA69"/>
<path d="M116.21 86.1623C116.21 86.1623 115.251 83.3239 114.244 84.5527C113.236 85.7814 116.21 86.1623 116.21 86.1623Z" fill="#F6EA69"/>
<path d="M118.827 90.1941C118.827 90.1941 117.905 87.3434 116.886 88.5599C115.866 89.7763 118.827 90.1941 118.827 90.1941Z" fill="#F6EA69"/>
<path d="M124.014 94.5669C124.014 94.5669 122.49 91.9865 121.766 93.3995C121.028 94.8126 124.014 94.5669 124.014 94.5669Z" fill="#F6EA69"/>
<path d="M123.555 91.3489C123.555 91.3489 122.732 88.4736 121.675 89.6532C120.606 90.8328 123.555 91.3489 123.555 91.3489Z" fill="#F6EA69"/>
<path d="M119.983 86.6902C119.983 86.6902 119.074 83.8395 118.042 85.056C117.022 86.2724 119.983 86.6902 119.983 86.6902Z" fill="#F6EA69"/>
<path d="M112.734 86.924C112.734 86.924 111.297 84.3067 110.523 85.6952C109.749 87.0837 112.734 86.924 112.734 86.924Z" fill="#F6EA69"/>
<path d="M108.945 87.0225C108.945 87.0225 107.508 84.393 106.734 85.7938C105.96 87.1823 108.945 87.0225 108.945 87.0225Z" fill="#F6EA69"/>
<path d="M106.995 91.52C106.995 91.52 105.324 89.0379 104.672 90.4878C104.033 91.9377 106.995 91.52 106.995 91.52Z" fill="#F6EA69"/>
<path d="M119.246 114.093L132.812 101.166C132.812 101.166 124.419 101.633 119.246 114.093Z" fill="#67A359"/>
<path d="M119.234 114.081L135.872 104.828C135.872 104.828 128.266 102.924 119.234 114.081Z" fill="#395F2E"/>
<path d="M119.246 114.093L128.425 98.7949C128.425 98.7949 120.082 101.584 119.246 114.093Z" fill="#395F2E"/>
<path d="M119.246 114.094L136.682 106.659C136.682 106.659 129.641 103.809 119.246 114.094Z" fill="#67A359"/>
<path d="M119.246 114.093L123.964 101.203C123.964 101.203 117.624 104.533 119.246 114.093Z" fill="#67A359"/>
<path d="M119.234 114.081C119.234 114.081 133.476 107.593 137.371 109.166C137.371 109.166 129.064 114.155 119.234 114.081Z" fill="#395F2E"/>
<path d="M119.27 114.068C119.27 114.068 134.187 111.917 136.964 114.719C136.964 114.719 127.785 117.189 119.27 114.068Z" fill="#67A359"/>
<path d="M105.078 123.714C105.078 123.714 110.067 130.276 121.654 124.574C133.241 118.873 124.493 110.911 121.495 108.084C119.184 105.909 115.388 102.162 109.133 110.874C102.879 119.586 105.091 123.714 105.091 123.714H105.078Z" fill="url(#paint3_linear_2101_28524)"/>
<path d="M114.984 117.066C114.984 117.066 115.808 114.19 116.877 115.37C117.933 116.55 114.984 117.066 114.984 117.066Z" fill="#F6EA69"/>
<path d="M118.668 116.034C118.668 116.034 119.491 113.159 120.56 114.339C121.629 115.531 118.668 116.034 118.668 116.034Z" fill="#F6EA69"/>
<path d="M116.922 119.524C116.922 119.524 118.556 117.017 119.22 118.455C119.895 119.905 116.922 119.524 116.922 119.524Z" fill="#F6EA69"/>
<path d="M110.926 121.318C110.926 121.318 112.179 118.602 113.052 119.942C113.924 121.281 110.926 121.318 110.926 121.318Z" fill="#F6EA69"/>
<path d="M109.809 124.438C109.809 124.438 112.156 122.583 112.328 124.168C112.5 125.753 109.809 124.438 109.809 124.438Z" fill="#F6EA69"/>
<path d="M115.242 122.288C115.242 122.288 117.417 120.236 117.724 121.797C118.031 123.357 115.242 122.288 115.242 122.288Z" fill="#F6EA69"/>
<path d="M121.188 120.286C121.188 120.286 122.232 117.485 123.203 118.75C124.161 120.016 121.188 120.286 121.188 120.286Z" fill="#F6EA69"/>
<path d="M124.727 120.679C124.727 120.679 125.144 117.717 126.361 118.737C127.577 119.757 124.727 120.679 124.727 120.679Z" fill="#F6EA69"/>
<path d="M119.75 123.468C119.75 123.468 121.433 120.999 122.072 122.461C122.711 123.923 119.75 123.468 119.75 123.468Z" fill="#F6EA69"/>
<path d="M114.355 125.472C114.355 125.472 116.666 123.579 116.874 125.152C117.071 126.737 114.355 125.472 114.355 125.472Z" fill="#F6EA69"/>
<path d="M114.356 109.326C114.356 109.326 114.282 106.34 115.646 107.151C117.01 107.962 114.356 109.326 114.356 109.326Z" fill="#F6EA69"/>
<path d="M112.195 113.073C112.195 113.073 112.502 110.099 113.756 111.07C115.009 112.053 112.195 113.073 112.195 113.073Z" fill="#F6EA69"/>
<path d="M110.531 117.582C110.531 117.582 110.802 114.596 112.067 115.567C113.333 116.538 110.531 117.582 110.531 117.582Z" fill="#F6EA69"/>
<path d="M106.445 122.989C106.445 122.989 107.367 120.138 108.387 121.355C109.407 122.571 106.445 122.989 106.445 122.989Z" fill="#F6EA69"/>
<path d="M106.168 119.745C106.168 119.745 106.34 116.759 107.63 117.68C108.933 118.602 106.168 119.745 106.168 119.745Z" fill="#F6EA69"/>
<path d="M108.641 114.424C108.641 114.424 108.911 111.438 110.177 112.409C111.442 113.367 108.641 114.424 108.641 114.424Z" fill="#F6EA69"/>
<path d="M115.77 113.049C115.77 113.049 116.593 110.174 117.662 111.366C118.719 112.557 115.77 113.049 115.77 113.049Z" fill="#F6EA69"/>
<path d="M119.465 112.312C119.465 112.312 120.288 109.437 121.357 110.616C122.414 111.808 119.465 112.312 119.465 112.312Z" fill="#F6EA69"/>
<path d="M122.363 116.28C122.363 116.28 123.445 113.491 124.403 114.769C125.349 116.047 122.363 116.28 122.363 116.28Z" fill="#F6EA69"/>
<path d="M102.511 110.825C100.741 113.725 96.9567 114.647 94.0568 112.89C91.1569 111.12 90.2353 107.336 91.9925 104.436C93.7619 101.536 97.5465 100.614 100.446 102.371C103.346 104.141 104.268 107.925 102.511 110.825Z" fill="#573B38"/>
<path opacity="0.2" d="M97.2546 107.63C96.3699 109.08 94.7357 109.694 93.5929 109.006C92.4502 108.305 92.2413 106.573 93.126 105.123C94.0107 103.673 95.6449 103.059 96.7877 103.747C97.9304 104.447 98.1393 106.18 97.2546 107.63Z" fill="white"/>
<path d="M137.355 133.016C133.976 133.384 130.929 130.951 130.56 127.572C130.192 124.193 132.625 121.146 136.004 120.777C139.383 120.409 142.43 122.841 142.799 126.221C143.167 129.6 140.735 132.635 137.355 133.016Z" fill="#573B38"/>
<path opacity="0.2" d="M136.678 126.896C134.994 127.081 133.495 126.159 133.348 124.832C133.2 123.505 134.454 122.276 136.137 122.092C137.82 121.908 139.32 122.829 139.467 124.156C139.614 125.483 138.361 126.712 136.678 126.896Z" fill="white"/>
<path d="M136.547 98.5C133.168 98.8686 130.12 96.4357 129.752 93.0566C129.383 89.6775 131.816 86.6425 135.195 86.2615C138.574 85.8929 141.622 88.3259 141.99 91.705C142.359 95.0841 139.926 98.1314 136.547 98.5Z" fill="#573B38"/>
<path opacity="0.2" d="M135.869 92.3807C134.186 92.565 132.687 91.6434 132.539 90.3163C132.392 88.9893 133.645 87.7605 135.328 87.5762C137.012 87.3919 138.511 88.3135 138.658 89.6405C138.806 90.9676 137.552 92.1963 135.869 92.3807Z" fill="white"/>
<path d="M159.551 124.378C156.836 124.378 150.962 123.174 146.895 113.749C144.806 108.92 145.175 105.32 147.964 103.035C144.044 99.8521 141.783 96.5959 141.685 96.4484C141.537 96.2273 141.513 95.9569 141.623 95.7112C141.734 95.4777 141.967 95.318 142.226 95.2934C143.528 95.1705 145.359 96.0306 147.767 97.8861C145.826 94.5193 144.941 91.9266 144.88 91.7791C144.794 91.5088 144.855 91.2262 145.052 91.0296C145.248 90.833 145.543 90.7593 145.801 90.8453C146.477 91.0664 147.239 91.6071 148.074 92.455L147.055 90.4152C146.919 90.1449 146.969 89.8254 147.165 89.6042C147.362 89.383 147.681 89.297 147.964 89.3953C148.001 89.3953 148.394 89.5428 149.008 89.9114L148.849 89.4691C148.738 89.1864 148.824 88.867 149.045 88.6581C149.266 88.4615 149.598 88.4123 149.868 88.5475C149.991 88.6089 152.092 89.6902 153.972 92.9219L153.506 88.486C153.469 88.1789 153.641 87.8839 153.911 87.7488C154.194 87.6136 154.525 87.6628 154.747 87.8839C154.857 87.9823 156.688 89.7885 157.696 93.4994L158.384 89.3462C158.433 89.039 158.666 88.8055 158.974 88.7441C159.281 88.6949 159.588 88.8301 159.748 89.0881C159.797 89.1741 160.743 90.7715 161.087 93.4625C161.333 93.5117 161.542 93.6714 161.64 93.9172C161.689 94.04 162.734 96.7679 161.677 100.393C163.065 100.651 164.147 101.265 164.982 102.236C166.506 104.018 167.071 106.967 166.715 111.23C165.805 122.252 161.198 124.182 161.001 124.255C160.89 124.28 160.362 124.391 159.539 124.391L159.551 124.378ZM144.278 97.3454C145.433 98.6971 147.263 100.651 149.647 102.482C149.844 102.629 149.942 102.863 149.93 103.108C149.93 103.354 149.795 103.575 149.586 103.698C146.71 105.504 146.28 108.601 148.246 113.172C153.063 124.304 160.473 122.855 160.583 122.842C160.583 122.842 164.429 121.024 165.253 111.108C165.572 107.311 165.105 104.644 163.864 103.194C163.127 102.322 162.107 101.867 160.645 101.744C160.411 101.732 160.202 101.597 160.079 101.4C159.957 101.204 159.932 100.958 160.006 100.749C160.682 98.9428 160.731 97.3331 160.62 96.1904C160.534 96.215 160.436 96.2027 160.35 96.1904C159.993 96.1289 159.748 95.8218 159.748 95.4654C159.748 94.2489 159.6 93.1922 159.391 92.3321L158.347 98.5988C158.285 98.9797 157.954 99.2377 157.56 99.2131C157.18 99.1886 156.885 98.8691 156.885 98.4882C156.86 95.2442 156.074 92.8604 155.287 91.2753L155.975 97.8738C156.012 98.2547 155.754 98.5988 155.373 98.6725C154.992 98.7462 154.624 98.5127 154.525 98.1441C153.665 94.9493 152.338 92.885 151.22 91.6194L151.318 91.8897C151.441 92.2092 151.318 92.5778 151.023 92.7744C150.729 92.9587 150.348 92.9219 150.102 92.6638C149.93 92.4918 149.758 92.3321 149.598 92.1846L154.083 101.191C154.181 101.4 154.181 101.634 154.083 101.843C153.985 102.052 153.788 102.199 153.567 102.236C153.248 102.31 152.867 102.162 152.707 101.88C150.262 97.4437 148.492 95.0108 147.251 93.696C148.16 95.6743 149.709 98.6233 151.994 101.572C152.142 101.769 152.191 102.027 152.105 102.26C152.019 102.494 151.822 102.678 151.589 102.74C151.318 102.838 151.073 102.764 150.864 102.568C147.669 99.508 145.58 98.0335 144.241 97.3331L144.278 97.3454Z" fill="#1A1919"/>
<path d="M115.157 100.92C113.473 100.92 111.544 100.699 109.357 100.171C104.245 98.942 101.579 96.4845 101.432 92.8842C96.5288 94.1007 92.5722 93.9533 92.4002 93.9533C92.1422 93.9533 91.8964 93.7935 91.7735 93.5601C91.6507 93.3266 91.663 93.044 91.7981 92.8228C92.093 92.3559 92.8426 91.164 97.1924 89.9475C93.3341 89.4806 90.7291 88.6327 90.5694 88.5836C90.299 88.4976 90.1147 88.2641 90.0656 87.9938C90.0287 87.7234 90.1393 87.4408 90.3727 87.2811C90.9626 86.8756 91.8473 86.5807 93.0269 86.4209L90.7905 86.0155C90.4956 85.9663 90.2622 85.7328 90.2007 85.4379C90.1393 85.143 90.2622 84.8481 90.5079 84.6761C90.5325 84.6515 90.8888 84.4181 91.5524 84.16L91.0977 84.0249C90.8028 83.9389 90.5939 83.6808 90.5694 83.3859C90.5448 83.091 90.7045 82.7961 90.9748 82.6609C91.0977 82.5995 93.2235 81.5796 96.9343 82.0097L93.1129 79.7242C92.8426 79.5644 92.7074 79.2573 92.7688 78.9501C92.8303 78.6429 93.0637 78.4094 93.3709 78.3603C93.5184 78.3357 96.0619 77.9548 99.6376 79.3679L96.7255 76.3205C96.5166 76.0993 96.4551 75.7676 96.6026 75.485C96.7377 75.2023 97.0204 75.0426 97.3398 75.0795C97.4381 75.0795 99.2813 75.3006 101.641 76.64C101.825 76.468 102.083 76.4065 102.329 76.468C102.451 76.5048 105.265 77.3035 107.526 80.3263C108.571 79.3678 109.701 78.8641 110.979 78.7903C113.314 78.6429 116.017 79.9577 119.212 82.8084C127.481 90.1564 126.253 94.9854 126.203 95.1943C126.203 95.2312 126.179 95.268 126.167 95.3049C126.044 95.5752 123.476 100.933 115.145 100.933L115.157 100.92ZM102.181 91.1763C102.353 91.1763 102.513 91.2377 102.648 91.3483C102.832 91.508 102.931 91.7415 102.918 91.975C102.636 95.3541 104.86 97.5658 109.701 98.7332C120.957 101.436 124.409 95.4892 124.803 94.7397C124.889 94.2236 125.27 90.1441 118.253 83.8897C115.403 81.3584 112.994 80.1174 111.09 80.2403C109.947 80.314 108.964 80.8547 108.006 81.9483C107.858 82.1203 107.625 82.2063 107.391 82.194C107.158 82.1817 106.949 82.0465 106.826 81.8499C105.781 80.2157 104.528 79.2081 103.557 78.6183C103.521 78.7043 103.459 78.778 103.385 78.8518C103.127 79.0975 102.722 79.1098 102.439 78.9009C101.456 78.1637 100.522 77.6476 99.7114 77.2912L104.098 81.8991C104.368 82.1694 104.368 82.6118 104.123 82.8944C103.865 83.177 103.435 83.2262 103.127 83.005C100.522 81.0758 98.1385 80.2771 96.406 79.9577L102.107 83.3736C102.439 83.5702 102.562 83.988 102.39 84.3321C102.218 84.6761 101.813 84.8236 101.456 84.6884C98.3843 83.4596 95.939 83.2753 94.2556 83.4105L94.5383 83.4965C94.87 83.5948 95.0912 83.9143 95.0666 84.2583C95.042 84.6024 94.7717 84.885 94.4277 84.9341C94.1819 84.971 93.9485 85.0079 93.7396 85.0447L103.643 86.8633C103.877 86.9002 104.061 87.0476 104.172 87.2565C104.27 87.4654 104.27 87.7112 104.172 87.92C104.024 88.2027 103.705 88.4238 103.385 88.3747C99.1584 87.7726 95.767 87.6006 93.5798 87.834C95.7056 88.301 98.9741 88.817 102.71 88.7679C102.968 88.731 103.176 88.8785 103.324 89.0751C103.459 89.2717 103.496 89.5297 103.422 89.7509C103.336 90.0089 103.103 90.2178 102.832 90.267C98.458 90.9797 96.0251 91.7784 94.6611 92.4296C96.4306 92.319 99.1092 92.0241 101.997 91.2131C102.058 91.1886 102.132 91.1885 102.193 91.1885L102.181 91.1763Z" fill="#1A1919"/>
<path d="M112.844 127.659C107.241 127.659 104.636 124.366 104.489 124.157C104.329 123.875 102.068 119.426 108.519 110.444C111.013 106.967 113.348 105.099 115.67 104.718C116.924 104.509 118.14 104.755 119.369 105.455C120.917 102.003 123.485 100.602 123.596 100.54C123.829 100.417 124.1 100.43 124.309 100.553C126.312 98.7341 128.069 98.1197 128.167 98.0828C128.462 97.9845 128.781 98.0828 128.978 98.3163C129.175 98.562 129.199 98.8938 129.039 99.1518L126.865 102.764C130.035 100.589 132.603 100.417 132.75 100.405C133.057 100.381 133.352 100.565 133.475 100.848C133.598 101.13 133.537 101.462 133.303 101.671L130.084 104.743C133.61 103.502 135.908 104.042 136.043 104.079C136.338 104.153 136.559 104.399 136.596 104.694C136.633 104.988 136.486 105.283 136.228 105.431L135.822 105.664C136.523 105.775 136.916 105.935 136.953 105.947C137.235 106.057 137.42 106.328 137.42 106.623C137.42 106.918 137.248 107.2 136.977 107.311L134.876 108.208C136.068 108.11 136.99 108.196 137.653 108.466C137.911 108.576 138.083 108.81 138.108 109.093C138.132 109.375 137.997 109.633 137.751 109.781C137.616 109.867 135.257 111.267 131.595 112.57C136.117 112.791 137.1 113.786 137.493 114.18C137.678 114.364 137.751 114.634 137.678 114.892C137.604 115.15 137.407 115.347 137.162 115.408C136.99 115.458 133.168 116.453 128.118 116.355C128.769 119.906 126.705 122.879 121.986 125.202C118.337 126.996 115.314 127.635 112.857 127.635L112.844 127.659ZM116.531 106.131C116.322 106.131 116.125 106.143 115.916 106.18C114.036 106.488 111.96 108.208 109.736 111.304C103.911 119.414 105.718 123.322 105.742 123.371C105.865 123.518 110.485 129.244 121.335 123.911C125.796 121.712 127.479 119.07 126.459 115.826C126.385 115.593 126.434 115.347 126.582 115.15C126.729 114.966 126.963 114.843 127.209 114.868C130.207 115.027 132.873 114.733 134.63 114.438C133.168 114.094 130.612 113.86 126.189 114.118C125.931 114.155 125.673 114.008 125.537 113.786C125.402 113.578 125.365 113.307 125.464 113.086C125.562 112.853 125.746 112.681 125.992 112.631C129.654 111.87 132.75 110.628 134.716 109.707C132.922 109.904 129.998 110.604 125.255 112.398C124.948 112.508 124.604 112.41 124.407 112.152C124.272 111.968 124.21 111.71 124.26 111.489C124.321 111.267 124.456 111.071 124.665 110.973L133.918 107.028C133.696 107.028 133.463 107.04 133.217 107.065C132.873 107.09 132.554 106.881 132.443 106.549C132.345 106.217 132.48 105.861 132.787 105.689L133.045 105.541C131.374 105.787 129.027 106.5 126.299 108.368C125.98 108.589 125.55 108.527 125.304 108.22C125.058 107.925 125.095 107.483 125.365 107.225L130.17 102.642C128.548 103.33 126.398 104.632 124.284 107.09C124.038 107.372 123.608 107.434 123.289 107.2C122.982 106.979 122.896 106.549 123.092 106.23L126.361 100.786C125.648 101.314 124.849 102.015 124.063 102.936C123.829 103.207 123.436 103.28 123.129 103.096C123.043 103.047 122.982 102.986 122.92 102.912C122.097 103.711 121.089 104.964 120.438 106.782C120.364 107.004 120.18 107.163 119.959 107.237C119.738 107.311 119.492 107.262 119.308 107.127C118.349 106.426 117.452 106.094 116.543 106.094L116.531 106.131Z" fill="#1A1919"/>
<path d="M129.716 149.014C129.716 149.014 129.618 149.014 129.556 149.001C121.655 147.293 118.031 141.543 117.871 141.297C117.662 140.953 117.76 140.498 118.104 140.277C118.448 140.068 118.903 140.166 119.124 140.511C119.161 140.56 122.602 145.979 129.864 147.551C130.257 147.637 130.515 148.031 130.429 148.424C130.355 148.768 130.048 149.001 129.704 149.001L129.716 149.014Z" fill="#1A1919"/>
<path d="M125.266 147.514C125.07 147.514 124.873 147.441 124.726 147.281C122.354 144.737 121.85 140.879 121.826 140.719C121.777 140.314 122.059 139.945 122.465 139.896C122.87 139.859 123.239 140.129 123.288 140.535C123.288 140.572 123.767 144.086 125.807 146.285C126.09 146.58 126.065 147.047 125.77 147.33C125.623 147.465 125.451 147.527 125.266 147.527V147.514Z" fill="#1A1919"/>
<path d="M131.003 143.706C131.003 143.977 130.781 144.198 130.511 144.198C130.241 144.198 130.02 143.977 130.02 143.706C130.02 143.436 130.241 143.215 130.511 143.215C130.781 143.215 131.003 143.436 131.003 143.706Z" fill="#1A1919"/>
<path d="M113.396 141.802C113.396 141.9 113.31 141.986 113.212 141.986C113.113 141.986 113.027 141.9 113.027 141.802C113.027 141.703 113.113 141.617 113.212 141.617C113.31 141.617 113.396 141.703 113.396 141.802Z" fill="#1A1919"/>
<path d="M109.811 140.905C110.116 140.905 110.364 140.657 110.364 140.352C110.364 140.046 110.116 139.799 109.811 139.799C109.505 139.799 109.258 140.046 109.258 140.352C109.258 140.657 109.505 140.905 109.811 140.905Z" fill="#1A1919"/>
<path d="M126.654 138.632C126.654 138.939 126.408 139.197 126.089 139.197C125.769 139.197 125.523 138.951 125.523 138.632C125.523 138.312 125.769 138.066 126.089 138.066C126.408 138.066 126.654 138.312 126.654 138.632Z" fill="#1A1919"/>
<path d="M115.621 145.697C115.621 145.906 115.449 146.078 115.24 146.078C115.031 146.078 114.859 145.906 114.859 145.697C114.859 145.488 115.031 145.316 115.24 145.316C115.449 145.316 115.621 145.488 115.621 145.697Z" fill="#1A1919"/>
<path d="M135.675 146.557C135.947 146.557 136.167 146.337 136.167 146.066C136.167 145.794 135.947 145.574 135.675 145.574C135.404 145.574 135.184 145.794 135.184 146.066C135.184 146.337 135.404 146.557 135.675 146.557Z" fill="#1A1919"/>
<path d="M132.64 148.584C132.64 148.977 132.32 149.296 131.939 149.296C131.558 149.296 131.227 148.977 131.227 148.584C131.227 148.191 131.546 147.871 131.939 147.871C132.332 147.871 132.64 148.191 132.64 148.584Z" fill="#1A1919"/>
<path d="M143.882 144.197C143.882 144.774 143.415 145.241 142.837 145.241C142.26 145.241 141.793 144.774 141.793 144.197C141.793 143.619 142.26 143.152 142.837 143.152C143.415 143.152 143.882 143.619 143.882 144.197Z" fill="#1A1919"/>
<path d="M97.2522 134.502C97.9308 134.502 98.481 133.952 98.481 133.274C98.481 132.595 97.9308 132.045 97.2522 132.045C96.5736 132.045 96.0234 132.595 96.0234 133.274C96.0234 133.952 96.5736 134.502 97.2522 134.502Z" fill="#1A1919"/>
<path d="M135.861 99.274C134.301 99.274 132.801 98.7457 131.573 97.7627C130.135 96.6076 129.238 94.9734 129.029 93.1425C128.833 91.3117 129.349 89.5177 130.504 88.08C131.659 86.6424 133.293 85.7454 135.124 85.5365C138.908 85.1064 142.312 87.8588 142.73 91.6311C142.926 93.462 142.41 95.256 141.255 96.6936C140.1 98.1313 138.466 99.0283 136.635 99.2372C136.377 99.2618 136.119 99.2863 135.861 99.2863V99.274ZM135.873 86.9618C135.677 86.9618 135.48 86.9618 135.271 86.9987C133.834 87.1584 132.543 87.8711 131.634 89.0016C130.725 90.132 130.319 91.5451 130.479 92.9828C130.639 94.4204 131.352 95.7106 132.482 96.6199C133.612 97.5292 135.038 97.947 136.463 97.7749C137.901 97.6152 139.191 96.9025 140.1 95.7721C141.01 94.6416 141.415 93.2285 141.255 91.7909C140.948 89.0262 138.601 86.9741 135.873 86.9741V86.9618Z" fill="#1A1919"/>
<path d="M136.67 133.79C133.205 133.79 130.207 131.172 129.826 127.658C129.629 125.827 130.146 124.033 131.301 122.596C132.456 121.158 134.09 120.261 135.921 120.052C139.693 119.622 143.109 122.374 143.527 126.147C143.723 127.978 143.207 129.772 142.052 131.209C140.897 132.647 139.263 133.544 137.432 133.753C137.174 133.777 136.928 133.79 136.67 133.79ZM136.683 121.477C136.486 121.477 136.289 121.477 136.08 121.514C134.643 121.674 133.353 122.387 132.443 123.517C131.534 124.648 131.129 126.061 131.288 127.498C131.62 130.46 134.299 132.622 137.272 132.291C138.71 132.131 140 131.418 140.909 130.288C141.819 129.157 142.224 127.744 142.065 126.306C141.757 123.542 139.41 121.49 136.683 121.49V121.477Z" fill="#1A1919"/>
<path d="M97.2484 114.536C93.7833 114.536 90.7974 111.918 90.4042 108.404C90.2076 106.573 90.7236 104.779 91.8787 103.342C93.0337 101.904 94.668 101.007 96.4988 100.798C100.283 100.368 103.687 103.121 104.105 106.893C104.301 108.724 103.785 110.518 102.63 111.955C101.475 113.393 99.8411 114.29 98.0102 114.499C97.7522 114.523 97.5064 114.536 97.2484 114.536ZM97.2607 102.236C97.0641 102.236 96.8675 102.236 96.6586 102.273C95.2209 102.432 93.9307 103.145 93.0214 104.276C92.1121 105.406 91.7066 106.819 91.8664 108.257C92.1981 111.23 94.8646 113.381 97.8505 113.049C99.2881 112.889 100.578 112.177 101.488 111.046C102.397 109.916 102.802 108.503 102.643 107.065C102.335 104.3 99.9885 102.248 97.2607 102.248V102.236Z" fill="#1A1919"/>
<path d="M81.6734 141.568L67.8867 128.875C67.8867 128.875 76.2792 129.207 81.6734 141.568Z" fill="#67A359"/>
<path d="M81.6872 141.557L64.9023 132.587C64.9023 132.587 72.4715 130.559 81.6872 141.557Z" fill="#395F2E"/>
<path d="M81.6713 141.568L72.2344 126.43C72.2344 126.43 80.6268 129.072 81.6713 141.568Z" fill="#395F2E"/>
<path d="M81.6723 141.568L64.1133 134.429C64.1133 134.429 71.1049 131.456 81.6723 141.568Z" fill="#67A359"/>
<path d="M81.6734 141.567L76.7461 128.764C76.7461 128.764 83.1357 131.983 81.6734 141.567Z" fill="#67A359"/>
<path d="M81.6868 141.556C81.6868 141.556 67.3472 135.301 63.4766 136.948C63.4766 136.948 71.869 141.802 81.6868 141.556Z" fill="#395F2E"/>
<path d="M81.6467 141.543C81.6467 141.543 66.6927 139.651 63.9648 142.502C63.9648 142.502 73.1806 144.824 81.6467 141.543Z" fill="#67A359"/>
<path d="M96.0026 150.944C96.0026 150.944 91.1244 157.591 79.4511 152.074C67.7779 146.569 76.3792 138.459 79.3282 135.584C81.6015 133.372 85.3369 129.563 91.7388 138.165C98.1406 146.778 96.0026 150.931 96.0026 150.931V150.944Z" fill="url(#paint4_linear_2101_28524)"/>
<path d="M85.9877 144.468C85.9877 144.468 85.1152 141.605 84.0708 142.809C83.0263 144.014 85.9877 144.468 85.9877 144.468Z" fill="#F6EA69"/>
<path d="M82.2884 143.497C82.2884 143.497 81.416 140.634 80.3716 141.839C79.3271 143.043 82.2884 143.497 82.2884 143.497Z" fill="#F6EA69"/>
<path d="M84.0794 146.963C84.0794 146.963 82.4083 144.481 81.7694 145.931C81.1181 147.381 84.0794 146.963 84.0794 146.963Z" fill="#F6EA69"/>
<path d="M90.1178 148.645C90.1178 148.645 88.8153 145.954 87.9674 147.294C87.1196 148.645 90.1178 148.645 90.1178 148.645Z" fill="#F6EA69"/>
<path d="M91.271 151.742C91.271 151.742 88.8872 149.935 88.752 151.521C88.6045 153.106 91.271 151.742 91.271 151.742Z" fill="#F6EA69"/>
<path d="M85.8115 149.703C85.8115 149.703 83.5997 147.688 83.3171 149.249C83.0345 150.822 85.8115 149.703 85.8115 149.703Z" fill="#F6EA69"/>
<path d="M79.8422 147.785C79.8422 147.785 78.7486 144.996 77.8024 146.286C76.8563 147.564 79.8422 147.785 79.8422 147.785Z" fill="#F6EA69"/>
<path d="M76.3022 148.24C76.3022 148.24 75.8352 145.278 74.6433 146.323C73.4391 147.367 76.3022 148.24 76.3022 148.24Z" fill="#F6EA69"/>
<path d="M81.329 150.955C81.329 150.955 79.5965 148.51 78.9944 149.985C78.38 151.459 81.329 150.955 81.329 150.955Z" fill="#F6EA69"/>
<path d="M86.7456 152.848C86.7456 152.848 84.3987 150.993 84.2267 152.578C84.0546 154.163 86.7456 152.848 86.7456 152.848Z" fill="#F6EA69"/>
<path d="M86.4737 136.714C86.4737 136.714 86.4983 133.716 85.1467 134.551C83.795 135.387 86.4737 136.714 86.4737 136.714Z" fill="#F6EA69"/>
<path d="M88.7043 140.426C88.7043 140.426 88.348 137.453 87.107 138.46C85.8659 139.456 88.7043 140.426 88.7043 140.426Z" fill="#F6EA69"/>
<path d="M90.4481 144.911C90.4481 144.911 90.1286 141.937 88.8753 142.92C87.6219 143.903 90.4481 144.911 90.4481 144.911Z" fill="#F6EA69"/>
<path d="M94.6275 150.243C94.6275 150.243 93.6568 147.405 92.6615 148.646C91.6539 149.887 94.6275 150.243 94.6275 150.243Z" fill="#F6EA69"/>
<path d="M94.8353 146.998C94.8353 146.998 94.6141 144.013 93.3362 144.959C92.0583 145.905 94.8353 146.998 94.8353 146.998Z" fill="#F6EA69"/>
<path d="M92.2762 141.715C92.2762 141.715 91.9567 138.742 90.7034 139.725C89.45 140.708 92.2762 141.715 92.2762 141.715Z" fill="#F6EA69"/>
<path d="M85.1361 140.462C85.1361 140.462 84.2637 137.599 83.2192 138.803C82.1748 140.008 85.1361 140.462 85.1361 140.462Z" fill="#F6EA69"/>
<path d="M81.4173 139.798C81.4173 139.798 80.5449 136.935 79.5005 138.139C78.456 139.344 81.4173 139.798 81.4173 139.798Z" fill="#F6EA69"/>
<path d="M78.5886 143.804C78.5886 143.804 77.4581 141.039 76.5242 142.329C75.6027 143.62 78.5886 143.804 78.5886 143.804Z" fill="#F6EA69"/>
<path d="M88.0365 155.023C85.6281 155.023 82.6791 154.421 79.128 152.75C74.3727 150.502 72.2592 147.565 72.849 144.001C67.8111 144.198 63.9528 143.252 63.7807 143.203C63.5227 143.141 63.3261 142.945 63.2524 142.699C63.1786 142.441 63.2524 142.17 63.4244 141.986C64.3337 141.04 66.2628 140.475 69.2856 140.266C65.5993 139.025 63.2278 137.661 63.0803 137.587C62.8346 137.452 62.6994 137.182 62.7117 136.899C62.724 136.616 62.896 136.371 63.1541 136.26C63.8176 135.978 64.7392 135.879 65.9311 135.965L63.8176 135.105C63.535 134.995 63.363 134.724 63.363 134.429C63.363 134.134 63.5473 133.864 63.8176 133.741C63.8422 133.729 64.2354 133.569 64.9358 133.446L64.518 133.225C64.2477 133.078 64.1002 132.795 64.1371 132.488C64.1739 132.193 64.3828 131.935 64.6777 131.861C64.8129 131.824 67.0984 131.259 70.6495 132.426L67.3687 129.404C67.1353 129.195 67.0738 128.863 67.1844 128.58C67.3073 128.298 67.5899 128.138 67.8971 128.126C68.0445 128.126 70.6127 128.273 73.8197 130.387L71.5957 126.811C71.4359 126.553 71.4482 126.209 71.6448 125.963C71.8291 125.717 72.1609 125.619 72.4558 125.717C72.5418 125.742 74.3112 126.332 76.351 128.113C76.5722 127.991 76.8425 127.978 77.0637 128.089C77.1865 128.15 79.7669 129.502 81.3766 132.93C82.5931 132.205 83.8096 131.947 85.0629 132.131C87.3853 132.463 89.7568 134.306 92.3126 137.735C98.9111 146.606 96.7362 151.091 96.6379 151.276C96.4413 151.546 93.8117 155.011 88.0242 155.011L88.0365 155.023ZM73.7829 142.478C74.004 142.478 74.2129 142.576 74.3604 142.748C74.5078 142.932 74.557 143.19 74.4955 143.424C73.5371 146.68 75.2574 149.297 79.7547 151.423C90.6784 156.572 95.2002 150.772 95.3968 150.514C95.3968 150.514 97.0556 146.582 91.133 138.619C88.8598 135.56 86.7463 133.864 84.8663 133.594C83.7359 133.434 82.6668 133.766 81.4995 134.638C81.3152 134.773 81.0694 134.822 80.8483 134.761C80.6271 134.7 80.4428 134.528 80.369 134.319C79.6809 132.5 78.6611 131.271 77.8255 130.485C77.7641 130.559 77.7026 130.62 77.6166 130.669C77.3094 130.854 76.9162 130.792 76.6827 130.522C75.884 129.613 75.0608 128.912 74.3481 128.408L77.7026 133.803C77.8992 134.122 77.8255 134.552 77.5183 134.786C77.2111 135.007 76.781 134.97 76.523 134.687C74.3604 132.267 72.1855 131.001 70.5512 130.337L75.4294 134.835C75.712 135.093 75.7489 135.523 75.5154 135.83C75.282 136.137 74.8519 136.199 74.5324 135.99C71.7677 134.171 69.4085 133.495 67.7373 133.274L67.9954 133.409C68.3026 133.569 68.45 133.925 68.3517 134.27C68.2534 134.601 67.9094 134.822 67.5899 134.798C67.3441 134.786 67.1107 134.773 66.8895 134.773L76.2158 138.57C76.437 138.656 76.5967 138.841 76.6459 139.074C76.7073 139.295 76.6459 139.541 76.4984 139.725C76.3018 139.971 75.9332 140.106 75.6383 140.008C70.8707 138.3 67.934 137.649 66.1277 137.477C68.1183 138.361 71.227 139.553 74.901 140.254C75.1345 140.303 75.3311 140.45 75.4294 140.671C75.5277 140.893 75.5154 141.138 75.4048 141.347C75.2697 141.581 74.9993 141.753 74.7167 141.753C70.2932 141.568 67.7496 141.839 66.2874 142.207C68.0445 142.465 70.711 142.711 73.7091 142.502C73.7214 142.502 73.746 142.502 73.7583 142.502L73.7829 142.478Z" fill="#1A1919"/>
<path d="M158.721 68.8265L142.648 59.193C142.648 59.193 150.93 57.8045 158.721 68.8265Z" fill="#67A359"/>
<path d="M158.72 68.8128L140.461 63.4308C140.461 63.4308 147.453 59.9042 158.72 68.8128Z" fill="#395F2E"/>
<path d="M158.718 68.8258L146.406 55.9238C146.406 55.9238 155.155 56.8085 158.718 68.8258Z" fill="#395F2E"/>
<path d="M158.722 68.8264L140.082 65.3981C140.082 65.3981 146.324 61.0729 158.722 68.8264Z" fill="#67A359"/>
<path d="M158.719 68.8271L151.285 57.2891C151.285 57.2891 158.203 59.1445 158.719 68.8271Z" fill="#67A359"/>
<path d="M158.72 68.8131C158.72 68.8131 143.41 65.6061 139.957 68.0022C139.957 68.0022 149.16 71.0495 158.72 68.8131Z" fill="#395F2E"/>
<path d="M158.679 68.8008C158.679 68.8008 143.651 69.9804 141.562 73.3226C141.562 73.3226 151.061 73.7158 158.679 68.8008Z" fill="#67A359"/>
<path d="M174.645 75.1045C174.645 75.1045 171.216 82.5999 158.671 79.5772C146.113 76.5544 152.896 66.8718 155.206 63.4558C156.975 60.8263 159.863 56.3413 167.886 63.4558C175.91 70.5826 174.657 75.0922 174.657 75.0922L174.645 75.1045Z" fill="url(#paint5_linear_2101_28524)"/>
<path d="M163.539 70.7921C163.539 70.7921 162.101 68.1625 161.327 69.5633C160.553 70.9518 163.539 70.7921 163.539 70.7921Z" fill="#F6EA69"/>
<path d="M159.715 70.5824C159.715 70.5824 158.277 67.9651 157.503 69.3413C156.729 70.7298 159.715 70.5824 159.715 70.5824Z" fill="#F6EA69"/>
<path d="M162.175 73.617C162.175 73.617 160.037 71.5281 159.705 73.0886C159.361 74.6492 162.175 73.617 162.175 73.617Z" fill="#F6EA69"/>
<path d="M168.425 74.0348C168.425 74.0348 166.607 71.6633 166.054 73.1501C165.501 74.6369 168.425 74.0348 168.425 74.0348Z" fill="#F6EA69"/>
<path d="M170.184 76.8369C170.184 76.8369 167.481 75.5467 167.665 77.1318C167.85 78.7169 170.184 76.8369 170.184 76.8369Z" fill="#F6EA69"/>
<path d="M164.423 75.9406C164.423 75.9406 161.842 74.4169 161.891 76.002C161.928 77.5994 164.423 75.9406 164.423 75.9406Z" fill="#F6EA69"/>
<path d="M158.192 75.2894C158.192 75.2894 156.558 72.7827 155.882 74.2327C155.218 75.6826 158.192 75.2894 158.192 75.2894Z" fill="#F6EA69"/>
<path d="M154.823 76.4561C154.823 76.4561 153.766 73.6545 152.807 74.9201C151.849 76.1857 154.823 76.4561 154.823 76.4561Z" fill="#F6EA69"/>
<path d="M160.295 78.0906C160.295 78.0906 158.108 76.0508 157.813 77.6114C157.506 79.1719 160.295 78.0906 160.295 78.0906Z" fill="#F6EA69"/>
<path d="M165.983 78.8411C165.983 78.8411 163.304 77.5018 163.464 79.0869C163.611 80.672 165.983 78.8411 165.983 78.8411Z" fill="#F6EA69"/>
<path d="M162.442 63.0989C162.442 63.0989 161.865 60.1621 160.698 61.2557C159.543 62.3493 162.442 63.0989 162.442 63.0989Z" fill="#F6EA69"/>
<path d="M165.366 66.2815C165.366 66.2815 164.407 63.443 163.4 64.6718C162.392 65.9006 165.366 66.2815 165.366 66.2815Z" fill="#F6EA69"/>
<path d="M167.987 70.3133C167.987 70.3133 167.066 67.4625 166.046 68.679C165.026 69.8955 167.987 70.3133 167.987 70.3133Z" fill="#F6EA69"/>
<path d="M173.17 74.686C173.17 74.686 171.647 72.1056 170.922 73.5187C170.185 74.9318 173.17 74.686 173.17 74.686Z" fill="#F6EA69"/>
<path d="M172.715 71.4681C172.715 71.4681 171.892 68.5928 170.835 69.7724C169.766 70.952 172.715 71.4681 172.715 71.4681Z" fill="#F6EA69"/>
<path d="M169.14 66.8113C169.14 66.8113 168.23 63.9606 167.198 65.1771C166.178 66.3935 169.14 66.8113 169.14 66.8113Z" fill="#F6EA69"/>
<path d="M161.891 67.0431C161.891 67.0431 160.453 64.4258 159.679 65.8143C158.905 67.2028 161.891 67.0431 161.891 67.0431Z" fill="#F6EA69"/>
<path d="M158.106 67.1417C158.106 67.1417 156.668 64.5121 155.894 65.9129C155.12 67.3014 158.106 67.1417 158.106 67.1417Z" fill="#F6EA69"/>
<path d="M156.155 71.6391C156.155 71.6391 154.484 69.157 153.832 70.6069C153.194 72.0569 156.155 71.6391 156.155 71.6391Z" fill="#F6EA69"/>
<path d="M164.298 81.0395C162.614 81.0395 160.685 80.8183 158.498 80.29C153.386 79.0612 150.72 76.6037 150.572 73.0034C145.669 74.2199 141.713 74.0724 141.541 74.0724C141.283 74.0724 141.037 73.9127 140.914 73.6792C140.791 73.4457 140.804 73.1631 140.939 72.9419C141.234 72.475 141.983 71.2831 146.333 70.0666C142.475 69.5997 139.87 68.7519 139.71 68.7027C139.44 68.6167 139.255 68.3832 139.206 68.1129C139.169 67.8426 139.28 67.56 139.513 67.4002C140.103 66.9947 140.988 66.6998 142.167 66.5401L139.931 66.1346C139.636 66.0854 139.403 65.852 139.341 65.5571C139.28 65.2622 139.403 64.9673 139.649 64.7952C139.673 64.7707 140.029 64.5372 140.693 64.2792L140.238 64.144C139.943 64.058 139.735 63.8 139.71 63.505C139.685 63.2101 139.845 62.9152 140.115 62.7801C140.238 62.7186 142.364 61.6988 146.075 62.1288L142.254 59.8433C141.983 59.6836 141.848 59.3764 141.909 59.0692C141.971 58.762 142.204 58.5286 142.512 58.4794C142.659 58.4548 145.203 58.0739 148.778 59.487L145.866 56.4397C145.657 56.2185 145.596 55.8867 145.743 55.6041C145.878 55.3215 146.173 55.1617 146.48 55.1986C146.579 55.1986 148.422 55.4198 150.781 56.7591C150.965 56.5871 151.223 56.5257 151.482 56.5871C151.604 56.624 154.418 57.4227 156.679 60.4454C157.724 59.487 158.854 58.9832 160.132 58.9095C162.467 58.7497 165.17 60.0768 168.365 62.9275C176.634 70.2755 175.406 75.1046 175.356 75.3135C175.356 75.3503 175.332 75.3872 175.32 75.424C175.197 75.6944 172.629 81.0518 164.298 81.0518V81.0395ZM151.334 71.2954C151.506 71.2954 151.666 71.3568 151.801 71.4674C151.985 71.6272 152.084 71.8606 152.071 72.0941C151.789 75.4732 154.013 77.685 158.854 78.8523C170.06 81.5433 173.587 75.5469 173.956 74.8588C174.042 74.3427 174.423 70.251 167.394 64.0211C164.543 61.4899 162.135 60.2488 160.23 60.3717C159.088 60.4454 158.105 60.9861 157.146 62.0797C156.999 62.2517 156.765 62.3377 156.532 62.3254C156.298 62.3131 156.089 62.178 155.967 61.9814C154.934 60.3594 153.681 59.3518 152.698 58.7497C152.661 58.8357 152.6 58.9095 152.538 58.9709C152.28 59.2167 151.875 59.2289 151.592 59.0201C150.609 58.2828 149.675 57.7667 148.864 57.4104L153.251 62.0182C153.521 62.3009 153.521 62.7309 153.276 63.0135C153.017 63.2962 152.587 63.3453 152.28 63.1241C149.675 61.195 147.279 60.3963 145.559 60.0768L151.26 63.4928C151.592 63.6894 151.715 64.1071 151.543 64.4512C151.371 64.7952 150.965 64.9427 150.609 64.8075C147.537 63.5788 145.092 63.4067 143.409 63.5296L143.679 63.6156C144.011 63.7139 144.232 64.0334 144.207 64.3775C144.183 64.7215 143.912 65.0041 143.568 65.0533C143.323 65.0902 143.089 65.127 142.88 65.1639L152.784 66.9824C153.005 67.0193 153.202 67.1668 153.3 67.3634C153.411 67.5723 153.411 67.8057 153.312 68.0146C153.177 68.3095 152.833 68.5307 152.514 68.4938C148.287 67.8917 144.895 67.7074 142.708 67.9532C144.834 68.4201 148.102 68.9362 151.838 68.887C152.059 68.8502 152.305 68.9976 152.452 69.1942C152.587 69.3908 152.624 69.6489 152.551 69.87C152.465 70.1281 152.231 70.337 151.961 70.3738C147.586 71.0865 145.153 71.8852 143.802 72.5365C145.571 72.4259 148.238 72.131 151.137 71.32C151.199 71.2954 151.273 71.2954 151.334 71.2954Z" fill="#1A1919"/>
<path d="M189.262 154.604L202.827 141.678C202.827 141.678 194.435 142.145 189.262 154.604Z" fill="#67A359"/>
<path d="M189.25 154.593L205.887 145.34C205.887 145.34 198.281 143.436 189.25 154.593Z" fill="#395F2E"/>
<path d="M189.262 154.605L198.441 139.307C198.441 139.307 190.097 142.096 189.262 154.605Z" fill="#395F2E"/>
<path d="M189.262 154.605L206.698 147.171C206.698 147.171 199.657 144.32 189.262 154.605Z" fill="#67A359"/>
<path d="M189.262 154.605L193.98 141.715C193.98 141.715 187.64 145.045 189.262 154.605Z" fill="#67A359"/>
<path d="M189.25 154.593C189.25 154.593 203.491 148.105 207.387 149.678C207.387 149.678 199.08 154.666 189.25 154.593Z" fill="#395F2E"/>
<path d="M189.285 154.579C189.285 154.579 204.202 152.429 206.979 155.231C206.979 155.231 197.8 157.701 189.285 154.579Z" fill="#67A359"/>
<path d="M175.094 164.226C175.094 164.226 180.083 170.788 191.67 165.086C203.257 159.385 194.508 151.422 191.51 148.596C189.2 146.421 185.403 142.673 179.149 151.385C172.894 160.097 175.106 164.226 175.106 164.226H175.094Z" fill="url(#paint6_linear_2101_28524)"/>
<path d="M184.996 157.577C184.996 157.577 185.819 154.702 186.888 155.882C187.945 157.061 184.996 157.577 184.996 157.577Z" fill="#F6EA69"/>
<path d="M188.668 156.546C188.668 156.546 189.491 153.671 190.56 154.85C191.629 156.042 188.668 156.546 188.668 156.546Z" fill="#F6EA69"/>
<path d="M186.938 160.035C186.938 160.035 188.572 157.529 189.235 158.966C189.911 160.416 186.938 160.035 186.938 160.035Z" fill="#F6EA69"/>
<path d="M180.941 161.829C180.941 161.829 182.195 159.114 183.067 160.453C183.94 161.793 180.941 161.829 180.941 161.829Z" fill="#F6EA69"/>
<path d="M179.824 164.95C179.824 164.95 182.171 163.095 182.343 164.68C182.515 166.265 179.824 164.95 179.824 164.95Z" fill="#F6EA69"/>
<path d="M185.258 162.8C185.258 162.8 187.433 160.748 187.74 162.308C188.047 163.869 185.258 162.8 185.258 162.8Z" fill="#F6EA69"/>
<path d="M191.203 160.798C191.203 160.798 192.248 157.996 193.218 159.262C194.177 160.528 191.203 160.798 191.203 160.798Z" fill="#F6EA69"/>
<path d="M194.727 161.19C194.727 161.19 195.144 158.229 196.361 159.249C197.577 160.269 194.727 161.19 194.727 161.19Z" fill="#F6EA69"/>
<path d="M189.766 163.992C189.766 163.992 191.449 161.522 192.088 162.984C192.727 164.447 189.766 163.992 189.766 163.992Z" fill="#F6EA69"/>
<path d="M184.371 165.983C184.371 165.983 186.681 164.091 186.89 165.664C187.087 167.249 184.371 165.983 184.371 165.983Z" fill="#F6EA69"/>
<path d="M184.372 149.838C184.372 149.838 184.298 146.852 185.662 147.663C187.026 148.474 184.372 149.838 184.372 149.838Z" fill="#F6EA69"/>
<path d="M182.211 153.584C182.211 153.584 182.518 150.611 183.771 151.581C185.025 152.564 182.211 153.584 182.211 153.584Z" fill="#F6EA69"/>
<path d="M180.547 158.094C180.547 158.094 180.817 155.108 182.083 156.079C183.348 157.05 180.547 158.094 180.547 158.094Z" fill="#F6EA69"/>
<path d="M176.445 163.501C176.445 163.501 177.367 160.65 178.387 161.867C179.407 163.083 176.445 163.501 176.445 163.501Z" fill="#F6EA69"/>
<path d="M176.184 160.257C176.184 160.257 176.356 157.271 177.646 158.192C178.948 159.114 176.184 160.257 176.184 160.257Z" fill="#F6EA69"/>
<path d="M178.656 154.936C178.656 154.936 178.927 151.95 180.192 152.921C181.458 153.879 178.656 154.936 178.656 154.936Z" fill="#F6EA69"/>
<path d="M185.785 153.561C185.785 153.561 186.608 150.685 187.677 151.877C188.734 153.069 185.785 153.561 185.785 153.561Z" fill="#F6EA69"/>
<path d="M189.48 152.835C189.48 152.835 190.304 149.96 191.373 151.14C192.429 152.331 189.48 152.835 189.48 152.835Z" fill="#F6EA69"/>
<path d="M192.379 156.792C192.379 156.792 193.46 154.002 194.419 155.28C195.365 156.558 192.379 156.792 192.379 156.792Z" fill="#F6EA69"/>
<path d="M182.86 168.171C177.257 168.171 174.652 164.878 174.504 164.669C174.345 164.386 172.084 159.938 178.535 150.956C181.029 147.478 183.376 145.611 185.686 145.23C186.939 145.033 188.156 145.267 189.385 145.967C190.933 142.514 193.501 141.113 193.612 141.052C193.833 140.929 194.103 140.941 194.324 141.052C196.327 139.233 198.084 138.619 198.183 138.595C198.478 138.496 198.797 138.595 198.994 138.828C199.19 139.074 199.215 139.406 199.055 139.664L196.892 143.276C200.063 141.101 202.631 140.929 202.778 140.917C203.085 140.88 203.38 141.077 203.503 141.359C203.626 141.642 203.565 141.974 203.331 142.183L200.112 145.254C203.638 144.013 205.936 144.554 206.071 144.591C206.366 144.665 206.587 144.91 206.624 145.205C206.661 145.5 206.514 145.795 206.256 145.943L205.85 146.176C206.551 146.287 206.944 146.446 206.981 146.459C207.263 146.569 207.448 146.84 207.448 147.134C207.448 147.429 207.275 147.712 207.005 147.823L204.916 148.72C206.108 148.621 207.03 148.707 207.693 148.978C207.951 149.088 208.123 149.322 208.148 149.604C208.172 149.887 208.037 150.145 207.792 150.292C207.656 150.378 205.297 151.779 201.635 153.082C206.157 153.303 207.14 154.31 207.534 154.704C207.718 154.888 207.792 155.158 207.718 155.416C207.644 155.674 207.448 155.871 207.202 155.932C207.03 155.982 203.221 156.989 198.158 156.879C198.809 160.43 196.745 163.403 192.027 165.726C188.377 167.52 185.354 168.146 182.897 168.146L182.86 168.171ZM186.546 146.643C186.337 146.643 186.141 146.655 185.932 146.692C184.052 146.999 181.975 148.72 179.739 151.816C173.902 159.95 175.733 163.846 175.745 163.882C175.868 164.018 180.488 169.756 191.338 164.411C195.799 162.211 197.482 159.57 196.462 156.326C196.389 156.092 196.438 155.846 196.585 155.65C196.733 155.465 196.966 155.343 197.212 155.367C200.222 155.515 202.889 155.232 204.634 154.937C203.171 154.593 200.616 154.36 196.192 154.618C195.922 154.642 195.651 154.495 195.504 154.249C195.381 154.04 195.369 153.782 195.467 153.561C195.565 153.34 195.75 153.18 195.983 153.131C199.62 152.369 202.717 151.128 204.683 150.219C202.496 150.464 199.239 151.386 195.234 152.897C194.926 153.008 194.582 152.91 194.386 152.652C194.251 152.467 194.189 152.209 194.238 151.988C194.3 151.767 194.435 151.57 194.644 151.472L203.909 147.528C203.688 147.528 203.454 147.54 203.208 147.564C202.864 147.589 202.545 147.38 202.434 147.048C202.336 146.717 202.471 146.36 202.778 146.188L203.036 146.053C201.365 146.299 199.018 147.012 196.29 148.879C195.971 149.1 195.541 149.039 195.295 148.732C195.049 148.437 195.086 147.995 195.356 147.737L200.161 143.153C198.539 143.841 196.389 145.144 194.275 147.601C194.029 147.884 193.599 147.945 193.28 147.712C192.973 147.491 192.887 147.061 193.083 146.741L196.352 141.298C195.639 141.826 194.84 142.527 194.054 143.448C193.821 143.718 193.427 143.792 193.12 143.608C193.034 143.559 192.973 143.497 192.911 143.424C192.088 144.222 191.08 145.476 190.429 147.294C190.355 147.515 190.171 147.675 189.95 147.749C189.729 147.823 189.483 147.773 189.299 147.638C188.34 146.938 187.443 146.606 186.534 146.606L186.546 146.643Z" fill="#1A1919"/>
<path d="M154.872 180.2C154.872 180.949 154.258 181.564 153.508 181.564C152.759 181.564 152.145 180.949 152.145 180.2C152.145 179.45 152.759 178.836 153.508 178.836C154.258 178.836 154.872 179.45 154.872 180.2Z" fill="#1A1919"/>
<path d="M152.915 82.6257C152.915 83.3752 152.301 83.9896 151.551 83.9896C150.802 83.9896 150.188 83.3752 150.188 82.6257C150.188 81.8761 150.802 81.2617 151.551 81.2617C152.301 81.2617 152.915 81.8761 152.915 82.6257Z" fill="#1A1919"/>
<path d="M194.924 175.962C194.924 176.724 194.31 177.338 193.548 177.338C192.786 177.338 192.172 176.724 192.172 175.962C192.172 175.2 192.786 174.586 193.548 174.586C194.31 174.586 194.924 175.2 194.924 175.962Z" fill="#1A1919"/>
<path d="M165.424 88.8293C165.424 89.5912 164.81 90.2056 164.048 90.2056C163.286 90.2056 162.672 89.5912 162.672 88.8293C162.672 88.0675 163.286 87.4531 164.048 87.4531C164.81 87.4531 165.424 88.0675 165.424 88.8293Z" fill="#1A1919"/>
<path d="M125.651 162.788C125.651 161.117 124.299 159.766 122.628 159.766C120.957 159.766 119.605 161.117 119.605 162.788C119.605 164.459 120.957 165.811 122.628 165.811C124.299 165.811 125.651 164.459 125.651 162.788Z" fill="#1A1919"/>
<path d="M73.9322 116.759C73.9322 115.088 72.5806 113.736 70.9095 113.736C69.2384 113.736 67.8867 115.088 67.8867 116.759C67.8867 118.43 69.2384 119.782 70.9095 119.782C72.5806 119.782 73.9322 118.43 73.9322 116.759Z" fill="#1A1919"/>
<path d="M124.508 72.6231C121.129 72.9917 118.081 70.5587 117.713 67.1796C117.344 63.8005 119.777 60.7655 123.156 60.3846C126.535 60.016 129.583 62.4489 129.951 65.828C130.32 69.2071 127.887 72.2544 124.508 72.6231Z" fill="#573B38"/>
<path opacity="0.2" d="M123.83 66.5037C122.147 66.688 120.648 65.7664 120.5 64.4394C120.353 63.1123 121.606 61.8836 123.289 61.6992C124.973 61.5149 126.472 62.4365 126.619 63.7636C126.767 65.0906 125.513 66.3194 123.83 66.5037Z" fill="white"/>
<path d="M123.823 73.3968C122.262 73.3968 120.763 72.8685 119.522 71.8855C118.084 70.7304 117.187 69.0962 116.978 67.2653C116.782 65.4345 117.298 63.6405 118.453 62.2028C119.608 60.7652 121.242 59.8682 123.073 59.6593C126.858 59.2415 130.261 61.9816 130.679 65.7539C130.876 67.5848 130.36 69.3788 129.205 70.8164C128.05 72.2541 126.415 73.1511 124.584 73.36C124.326 73.3846 124.068 73.3968 123.81 73.3968H123.823ZM123.835 61.0969C123.638 61.0969 123.442 61.0969 123.233 61.1338C121.795 61.2935 120.505 62.0062 119.596 63.1367C118.686 64.2671 118.281 65.6802 118.441 67.1179C118.6 68.5555 119.313 69.8457 120.443 70.755C121.574 71.6643 122.987 72.0821 124.425 71.91C125.862 71.7503 127.153 71.0376 128.062 69.9072C128.971 68.7767 129.377 67.3636 129.217 65.926C128.91 63.1613 126.563 61.1092 123.835 61.1092V61.0969Z" fill="#1A1919"/>
<path d="M149.156 168.564C145.777 168.933 142.73 166.5 142.361 163.121C141.993 159.742 144.425 156.707 147.805 156.326C151.184 155.957 154.219 158.39 154.6 161.769C154.968 165.149 152.535 168.196 149.156 168.564Z" fill="#573B38"/>
<path opacity="0.2" d="M148.478 162.445C146.795 162.629 145.296 161.708 145.149 160.381C145.001 159.054 146.254 157.825 147.938 157.641C149.621 157.456 151.12 158.378 151.268 159.705C151.415 161.032 150.162 162.261 148.478 162.445Z" fill="white"/>
<path d="M148.468 169.338C146.907 169.338 145.408 168.81 144.18 167.827C142.742 166.672 141.845 165.038 141.636 163.207C141.218 159.434 143.946 156.018 147.731 155.601C151.515 155.195 154.919 157.911 155.337 161.695C155.533 163.526 155.017 165.32 153.862 166.758C152.707 168.195 151.073 169.092 149.242 169.301C148.984 169.326 148.726 169.351 148.468 169.351V169.338ZM148.48 157.026C148.284 157.026 148.087 157.026 147.878 157.063C144.905 157.395 142.766 160.073 143.086 163.047C143.246 164.485 143.958 165.775 145.089 166.684C146.219 167.593 147.632 168.011 149.07 167.839C150.508 167.679 151.798 166.967 152.707 165.836C153.616 164.706 154.022 163.293 153.862 161.855C153.555 159.09 151.208 157.038 148.48 157.038V157.026Z" fill="#1A1919"/>
<path d="M113.249 177.265C111.48 180.165 107.695 181.086 104.795 179.329C101.895 177.56 100.974 173.775 102.731 170.875C104.5 167.975 108.285 167.054 111.185 168.811C114.085 170.58 115.006 174.365 113.249 177.265Z" fill="#573B38"/>
<path opacity="0.2" d="M107.989 174.057C107.104 175.507 105.47 176.122 104.327 175.434C103.185 174.733 102.976 173.001 103.86 171.551C104.745 170.101 106.379 169.486 107.522 170.175C108.665 170.875 108.874 172.607 107.989 174.057Z" fill="white"/>
<path d="M107.98 180.975C106.419 180.975 104.92 180.446 103.691 179.463C102.254 178.308 101.357 176.674 101.148 174.843C100.73 171.071 103.458 167.655 107.242 167.237C111.027 166.832 114.431 169.56 114.848 173.332C115.045 175.163 114.529 176.957 113.374 178.394C112.219 179.832 110.585 180.729 108.754 180.938C108.496 180.962 108.238 180.987 107.98 180.987V180.975ZM107.992 168.663C107.795 168.663 107.599 168.663 107.39 168.699C104.416 169.031 102.278 171.71 102.598 174.684C102.757 176.121 103.47 177.411 104.601 178.321C105.731 179.23 107.156 179.635 108.582 179.476C110.019 179.316 111.31 178.603 112.219 177.473C113.128 176.342 113.534 174.929 113.374 173.492C113.067 170.727 110.72 168.675 107.992 168.675V168.663Z" fill="#1A1919"/>
<path d="M142.273 79.0252C142.273 79.4184 141.954 79.7379 141.56 79.7379C141.167 79.7379 140.848 79.4184 140.848 79.0252C140.848 78.632 141.167 78.3125 141.56 78.3125C141.954 78.3125 142.273 78.632 142.273 79.0252Z" fill="#1A1919"/>
<path d="M137.24 72.6589C137.24 73.7893 136.33 74.6986 135.2 74.6986C134.069 74.6986 133.16 73.7893 133.16 72.6589C133.16 71.5284 134.069 70.6191 135.2 70.6191C136.33 70.6191 137.24 71.5284 137.24 72.6589Z" fill="#1A1919"/>
<path d="M184.594 97.6151C184.594 97.8977 184.372 98.1189 184.09 98.1189C183.807 98.1189 183.586 97.8977 183.586 97.6151C183.586 97.3325 183.807 97.1113 184.09 97.1113C184.372 97.1113 184.594 97.3325 184.594 97.6151Z" fill="#1A1919"/>
<path d="M187.742 105.32C187.742 106.242 186.992 107.004 186.058 107.004C185.125 107.004 184.375 106.254 184.375 105.32C184.375 104.386 185.125 103.637 186.058 103.637C186.992 103.637 187.742 104.386 187.742 105.32Z" fill="#1A1919"/>
<path d="M192.604 98.9055C192.604 99.4584 192.162 99.9008 191.609 99.9008C191.056 99.9008 190.613 99.4584 190.613 98.9055C190.613 98.3525 191.056 97.9102 191.609 97.9102C192.162 97.9102 192.604 98.3525 192.604 98.9055Z" fill="#1A1919"/>
<path d="M190.06 119.598C190.06 120.889 189.015 121.933 187.725 121.933C186.435 121.933 185.391 120.889 185.391 119.598C185.391 118.308 186.435 117.264 187.725 117.264C189.015 117.264 190.06 118.308 190.06 119.598Z" fill="#1A1919"/>
<path d="M196.97 110.813C196.97 111.931 196.061 112.853 194.93 112.853C193.8 112.853 192.891 111.944 192.891 110.813C192.891 109.683 193.8 108.773 194.93 108.773C196.061 108.773 196.97 109.683 196.97 110.813Z" fill="#1A1919"/>
<path d="M70.5512 104.694C70.5512 105.16 70.1702 105.541 69.7033 105.541C69.2364 105.541 68.8555 105.16 68.8555 104.694C68.8555 104.227 69.2364 103.846 69.7033 103.846C70.1702 103.846 70.5512 104.227 70.5512 104.694Z" fill="#1A1919"/>
<path d="M66.6432 109.572C66.6432 110.542 65.8568 111.329 64.886 111.329C63.9153 111.329 63.1289 110.542 63.1289 109.572C63.1289 108.601 63.9153 107.814 64.886 107.814C65.8568 107.814 66.6432 108.601 66.6432 109.572Z" fill="#1A1919"/>
<path d="M195.096 48.0226C195.096 48.3666 194.826 48.637 194.482 48.637C194.138 48.637 193.867 48.3666 193.867 48.0226C193.867 47.6785 194.138 47.4082 194.482 47.4082C194.826 47.4082 195.096 47.6785 195.096 48.0226Z" fill="#1A1919"/>
<path d="M206.478 62.3756C206.478 62.7565 206.171 63.0637 205.79 63.0637C205.409 63.0637 205.102 62.7565 205.102 62.3756C205.102 61.9947 205.409 61.6875 205.79 61.6875C206.171 61.6875 206.478 61.9947 206.478 62.3756Z" fill="#1A1919"/>
<path d="M133.992 213.661C127.725 213.489 120.611 211.854 112.845 208.795C110.302 207.799 107.647 206.62 104.969 205.317L105.62 203.99C108.274 205.28 110.891 206.435 113.398 207.418C121.016 210.417 127.959 212.014 134.054 212.174L134.017 213.648L133.992 213.661Z" fill="#1A1919"/>
<path d="M94.4498 199.627C86.5857 194.934 81.2406 190.793 81.1914 190.743L82.1007 189.576C82.1007 189.576 87.4335 193.705 95.2116 198.35L94.4498 199.615V199.627Z" fill="#1A1919"/>
<path d="M123.471 193.655C123.471 194.159 123.065 194.565 122.562 194.565C122.058 194.565 121.652 194.159 121.652 193.655C121.652 193.152 122.058 192.746 122.562 192.746C123.065 192.746 123.471 193.152 123.471 193.655Z" fill="#1A1919"/>
<path d="M142.827 201.619C143.56 201.619 144.154 201.025 144.154 200.292C144.154 199.559 143.56 198.965 142.827 198.965C142.094 198.965 141.5 199.559 141.5 200.292C141.5 201.025 142.094 201.619 142.827 201.619Z" fill="#1A1919"/>
<path d="M144.152 196.788C146.385 196.788 148.195 194.978 148.195 192.746C148.195 190.513 146.385 188.703 144.152 188.703C141.919 188.703 140.109 190.513 140.109 192.746C140.109 194.978 141.919 196.788 144.152 196.788Z" fill="#1A1919"/>
<path d="M126.66 29.9608C126.66 30.5629 126.168 31.0544 125.566 31.0544C124.964 31.0544 124.473 30.5629 124.473 29.9608C124.473 29.3587 124.964 28.8672 125.566 28.8672C126.168 28.8672 126.66 29.3587 126.66 29.9608Z" fill="#1A1919"/>
<path d="M134.422 31.041C134.422 31.7414 133.857 32.3066 133.156 32.3066C132.456 32.3066 131.891 31.7414 131.891 31.041C131.891 30.3406 132.456 29.7754 133.156 29.7754C133.857 29.7754 134.422 30.3406 134.422 31.041Z" fill="#1A1919"/>
<path d="M138.994 42.4928C140.42 42.4928 141.575 41.3376 141.575 39.9124C141.575 38.4873 140.42 37.332 138.994 37.332C137.569 37.332 136.414 38.4873 136.414 39.9124C136.414 41.3376 137.569 42.4928 138.994 42.4928Z" fill="#1A1919"/>
<path d="M125.688 45.2578C125.688 45.7862 125.257 46.2286 124.717 46.2286C124.176 46.2286 123.746 45.7985 123.746 45.2578C123.746 44.7172 124.176 44.2871 124.717 44.2871C125.257 44.2871 125.688 44.7172 125.688 45.2578Z" fill="#1A1919"/>
<defs>
<linearGradient id="paint0_linear_2101_28524" x1="82.4304" y1="112.016" x2="176.615" y2="112.016" gradientUnits="userSpaceOnUse">
<stop stop-color="white"/>
<stop offset="1" stop-color="#F0EFEA"/>
</linearGradient>
<linearGradient id="paint1_linear_2101_28524" x1="150.113" y1="118.303" x2="165.117" y2="103.314" gradientUnits="userSpaceOnUse">
<stop stop-color="#B70314"/>
<stop offset="0.5" stop-color="#FF0314"/>
<stop offset="1" stop-color="#FF5B66"/>
</linearGradient>
<linearGradient id="paint2_linear_2101_28524" x1="114.842" y1="100.316" x2="111.861" y2="79.3176" gradientUnits="userSpaceOnUse">
<stop stop-color="#B70314"/>
<stop offset="0.5" stop-color="#FF0314"/>
<stop offset="1" stop-color="#FF5B66"/>
</linearGradient>
<linearGradient id="paint3_linear_2101_28524" x1="116.625" y1="126.459" x2="114.92" y2="105.319" gradientUnits="userSpaceOnUse">
<stop stop-color="#B70314"/>
<stop offset="0.5" stop-color="#FF0314"/>
<stop offset="1" stop-color="#FF5B66"/>
</linearGradient>
<linearGradient id="paint4_linear_2101_28524" x1="84.4965" y1="154.073" x2="85.843" y2="132.907" gradientUnits="userSpaceOnUse">
<stop stop-color="#B70314"/>
<stop offset="0.5" stop-color="#FF0314"/>
<stop offset="1" stop-color="#FF5B66"/>
</linearGradient>
<linearGradient id="paint5_linear_2101_28524" x1="163.992" y1="80.4446" x2="161.011" y2="59.4467" gradientUnits="userSpaceOnUse">
<stop stop-color="#B70314"/>
<stop offset="0.5" stop-color="#FF3D6F"/>
<stop offset="1" stop-color="#FF5B66"/>
</linearGradient>
<linearGradient id="paint6_linear_2101_28524" x1="186.633" y1="166.967" x2="184.928" y2="145.828" gradientUnits="userSpaceOnUse">
<stop stop-color="#B70314"/>
<stop offset="0.5" stop-color="#FF0314"/>
<stop offset="1" stop-color="#FF5B66"/>
</linearGradient>
</defs>
</svg>
