<svg width="260" height="240" viewBox="0 0 260 240" fill="none" xmlns="http://www.w3.org/2000/svg">
<path d="M205.986 142.545C205.986 122.59 199.826 40 112.62 40C36.4927 40 18 109.353 18 130.623C18 170.391 52.2087 230 112 230C183.392 230 206 162.485 206 142.545H205.986Z" fill="#1A1919" stroke="#1A1919" stroke-miterlimit="10"/>
<path d="M248.845 68C241.108 71.3621 244.271 74.8509 243.791 77.9457C243.678 78.213 243.579 78.5788 243.466 78.9727C243.085 79.7464 242.337 80.492 240.981 81.1953C233.809 84.9232 229.644 92.5619 228.289 101.157C226.934 109.752 230.618 118.643 233.682 123.553C236.746 128.448 240.939 138 240.939 138C240.939 138 239.696 132.753 246.445 124.875C253.194 116.997 246.967 115.182 250.553 109.035C254.125 102.873 254.281 93.1387 247.673 85.4156C241.08 77.6925 248.859 68 248.859 68H248.845Z" fill="#1A1919" stroke="#1A1919" stroke-miterlimit="10"/>
<path d="M227.881 219.212C227.597 219.184 227.212 219.198 226.785 219.212C225.917 219.072 224.977 218.595 223.895 217.516C218.144 211.823 209.517 210.141 200.804 211.389C192.091 212.651 184.603 218.792 180.788 223.138C176.972 227.484 169 234.298 169 234.298C169 234.298 173.698 231.564 183.322 235.63C192.96 239.696 192.846 233.261 199.864 234.831C206.883 236.401 216.336 233.653 221.817 225.101C227.298 216.562 239 221.063 239 221.063C233.419 214.726 230.999 218.763 227.881 219.212Z" fill="#1A1919" stroke="#1A1919" stroke-miterlimit="10"/>
<path d="M59.2315 21.042C55.3893 21.4611 52.6228 24.9262 53.042 28.7684C53.4611 32.6107 56.9262 35.3772 60.7685 34.958C64.6107 34.5389 67.3772 31.0738 66.958 27.2316C66.5389 23.3893 63.0738 20.6228 59.2315 21.042Z" fill="#1A1919" stroke="#1A1919" stroke-miterlimit="10"/>
<path d="M247.554 45.5774L248 45.3944C245.645 39.7903 239.555 36.2702 234.635 34.834C230.928 33.7498 227.472 33.1443 223.877 32.6515C227.375 32.5248 234.231 31.4688 234.371 25.1607C234.524 17.7262 229.814 19.5144 227.026 18.6555C224.239 17.7966 220.699 12.7417 215.501 13.5021C210.303 14.2624 209.732 11.0662 205.314 12.2771C200.91 13.488 194.876 17.8389 190.221 16.0506C185.943 14.4173 179.825 20.4719 175.268 19.8383C174.613 19.5144 174.237 19.3314 174.223 19.3173L174 19.7538C174 19.7538 174.307 19.9087 174.794 20.1621C176.035 21.359 178.46 24.2032 178.223 27.7938C177.902 32.567 186.64 34.7636 187.894 36.2421C189.148 37.7205 190.876 47.2952 201.008 49.3932C211.139 51.4912 209.941 53.6033 212.282 56.8559C214.609 60.1085 219.25 60.0803 224.574 53.8285C229.897 47.5768 231.054 52.6317 234.635 45.507C237.813 39.1989 229.312 34.7917 223.821 33.1443C227.403 33.6371 230.845 34.2426 234.51 35.3127C239.332 36.7208 245.282 40.1564 247.568 45.6056L247.554 45.5774Z" fill="#1A1919" stroke="#1A1919" stroke-miterlimit="10"/>
<path d="M83 28C84.6569 28 86 26.6569 86 25C86 23.3432 84.6569 22 83 22C81.3431 22 80 23.3432 80 25C80 26.6569 81.3431 28 83 28Z" fill="#1A1919" stroke="#1A1919" stroke-miterlimit="10"/>
<path d="M95.5 27C96.3293 27 97 26.1057 97 25C97 23.8943 96.3293 23 95.5 23C94.6707 23 94 23.8943 94 25C94 26.1057 94.6707 27 95.5 27Z" fill="#1A1919" stroke="#1A1919" stroke-miterlimit="10"/>
<path d="M105 26C105.552 26 106 25.5523 106 25C106 24.4477 105.552 24 105 24C104.448 24 104 24.4477 104 25C104 25.5523 104.448 26 105 26Z" fill="#1A1919" stroke="#1A1919" stroke-miterlimit="10"/>
<path d="M108 15C108 15.5536 108.446 16 109 16C109.554 16 110 15.5536 110 15C110 14.4464 109.554 14 109 14C108.446 14 108 14.4464 108 15Z" fill="#1A1919" stroke="#1A1919" stroke-miterlimit="10"/>
<path d="M241.5 203C240.672 203 240 203.448 240 204C240 204.552 240.672 205 241.5 205C242.328 205 243 204.552 243 204C243 203.448 242.328 203 241.5 203Z" fill="#1A1919" stroke="#1A1919" stroke-miterlimit="10"/>
<path d="M7.44118 209.441C6.85294 210.029 6.85294 210.985 7.44118 211.559C8.02941 212.147 8.98529 212.147 9.55882 211.559C10.1471 210.971 10.1471 210.015 9.55882 209.441C8.97059 208.853 8.01471 208.853 7.44118 209.441Z" fill="#1A1919" stroke="#1A1919" stroke-miterlimit="10"/>
<path d="M43.5 230C42.1257 230 41 230.901 41 232C41 233.099 42.1257 234 43.5 234C44.8743 234 46 233.099 46 232C46 230.901 44.8743 230 43.5 230Z" fill="#1A1919" stroke="#1A1919" stroke-miterlimit="10"/>
<path d="M9 184C9 183.455 8.55682 183 8 183C7.44318 183 7 183.443 7 184C7 184.557 7.44318 185 8 185C8.55682 185 9 184.557 9 184Z" fill="#1A1919" stroke="#1A1919" stroke-miterlimit="10"/>
<path d="M252.863 60C252.863 60 245.082 69.6925 251.677 77.4156C258.271 85.1387 258.13 94.8734 254.557 101.035C250.985 107.197 257.198 108.997 250.448 116.875C243.699 124.753 244.941 130 244.941 130C244.941 130 240.747 120.462 237.683 115.553C234.619 110.657 230.933 101.766 232.289 93.1572C233.645 84.5619 237.824 76.9232 244.984 73.1953C252.157 69.4674 242.23 64.6282 252.849 60H252.863Z" fill="white" stroke="#1A1919" stroke-linecap="round" stroke-linejoin="round"/>
<path d="M243.822 122C243.822 122 236.144 100.552 246.118 77.6875C246.921 75.847 247.364 71.529 248 70" fill="white"/>
<path d="M243.822 122C243.822 122 236.144 100.552 246.118 77.6875C246.921 75.847 247.364 71.529 248 70" stroke="#1A1919" stroke-linecap="round" stroke-linejoin="round"/>
<path d="M252 101.855C252 101.855 242.196 103.309 241 97Z" fill="white"/>
<path d="M252 101.855C252 101.855 242.196 103.309 241 97" stroke="#1A1919" stroke-linecap="round" stroke-linejoin="round"/>
<path d="M239 94C239 94 237.286 97.6105 235 96.9098Z" fill="white"/>
<path d="M239 94C239 94 237.286 97.6105 235 96.9098" stroke="#1A1919" stroke-linecap="round" stroke-linejoin="round"/>
<path d="M240 90C240 90 235.963 94.441 234 93.9642Z" fill="white"/>
<path d="M240 90C240 90 235.963 94.441 234 93.9642" stroke="#1A1919" stroke-linecap="round" stroke-linejoin="round"/>
<path d="M238 108C238 108 238 108.86 237 109Z" fill="white"/>
<path d="M238 108C238 108 238 108.86 237 109" stroke="#1A1919" stroke-linecap="round" stroke-linejoin="round"/>
<path d="M243.005 213.303C243.005 213.303 231.401 208.772 225.966 217.369C220.532 225.966 211.158 228.733 204.199 227.166C197.239 225.585 197.352 232.064 187.795 227.97C178.238 223.877 173.594 226.629 173.594 226.629C173.594 226.629 181.485 219.783 185.282 215.393C189.066 211.016 196.491 204.833 205.13 203.563C213.77 202.292 222.338 204 228.027 209.732C233.731 215.463 235.425 204.537 243.005 213.303Z" fill="white" stroke="#1A1919" stroke-linecap="round" stroke-linejoin="round"/>
<path d="M181.215 222.776C181.215 222.776 199.298 208.928 224.101 211.878C226.092 212.118 230.355 211.271 231.992 211.441" fill="white"/>
<path d="M181.215 222.776C181.215 222.776 199.298 208.928 224.101 211.878C226.092 212.118 230.355 211.271 231.992 211.441" stroke="#1A1919" stroke-linecap="round" stroke-linejoin="round"/>
<path d="M202.435 224.44C202.435 224.44 198.186 215.956 204.213 212.879Z" fill="white"/>
<path d="M202.435 224.44C202.435 224.44 198.186 215.956 204.213 212.879" stroke="#1A1919" stroke-linecap="round" stroke-linejoin="round"/>
<path d="M206.982 221.829C206.982 221.829 204.526 218.173 207.575 213.727Z" fill="white"/>
<path d="M206.982 221.829C206.982 221.829 204.526 218.173 207.575 213.727" stroke="#1A1919" stroke-linecap="round" stroke-linejoin="round"/>
<path d="M210.806 222.762C210.806 222.762 210.03 218.951 211.879 217.469Z" fill="white"/>
<path d="M210.806 222.762C210.806 222.762 210.03 218.951 211.879 217.469" stroke="#1A1919" stroke-linecap="round" stroke-linejoin="round"/>
<path d="M191.818 225.317C191.818 225.317 190.547 221.266 193.766 219.402Z" fill="white"/>
<path d="M191.818 225.317C191.818 225.317 190.547 221.266 193.766 219.402" stroke="#1A1919" stroke-linecap="round" stroke-linejoin="round"/>
<path d="M206.784 210.239C206.784 210.239 202.097 209.661 202.125 206.922Z" fill="white"/>
<path d="M206.784 210.239C206.784 210.239 202.097 209.661 202.125 206.922" stroke="#1A1919" stroke-linecap="round" stroke-linejoin="round"/>
<path d="M210.707 209.323C210.707 209.323 205.23 207.234 205.188 205.398Z" fill="white"/>
<path d="M210.707 209.323C210.707 209.323 205.23 207.234 205.188 205.398" stroke="#1A1919" stroke-linecap="round" stroke-linejoin="round"/>
<path d="M193.161 213.472C193.161 213.472 192.159 213.769 191.523 212.301Z" fill="white"/>
<path d="M193.161 213.472C193.161 213.472 192.159 213.769 191.523 212.301" stroke="#1A1919" stroke-linecap="round" stroke-linejoin="round"/>
<path d="M65.3255 26.7666C61.4434 27.1901 57.9425 24.395 57.519 20.513C57.0955 16.6309 59.8906 13.13 63.7726 12.7065C67.6547 12.283 71.1415 15.0781 71.5792 18.9601C72.0027 22.8422 69.2076 26.3431 65.3255 26.7666Z" fill="white" stroke="#1A1919" stroke-width="0.75" stroke-linecap="round" stroke-linejoin="round"/>
<path d="M64.5462 19.7497C62.6122 19.9614 60.89 18.9027 60.7206 17.3781C60.5512 15.8535 61.9911 14.4418 63.925 14.2301C65.859 14.0183 67.5812 15.0771 67.7506 16.6017C67.92 18.1263 66.4802 19.5379 64.5462 19.7497Z" fill="white" stroke="#1A1919" stroke-width="0.75" stroke-linecap="round" stroke-linejoin="round"/>
<path d="M226.405 24.6763C226.405 24.6763 238.898 25.6786 239.082 17.1945C239.237 9.74092 234.466 11.5337 231.642 10.6726C228.819 9.81151 225.233 4.74363 219.968 5.50593C214.702 6.26823 214.124 3.06376 209.649 4.27779C205.188 5.49182 199.075 9.85385 194.36 8.06104C189.645 6.26823 182.728 13.623 178.027 11.5478C178.027 11.5478 182.531 15.0205 182.206 19.8202C181.881 24.6057 190.732 26.8079 192.003 28.2902C193.273 29.7724 195.024 39.3717 205.287 41.461C215.549 43.5644 214.335 45.6819 216.707 48.9428C219.064 52.2037 223.765 52.1755 229.158 45.9077C234.55 39.6399 235.722 44.7078 239.35 37.5648C242.978 30.4218 231.529 25.7068 226.405 24.6763Z" fill="white" stroke="#1A1919" stroke-width="0.75" stroke-linecap="round" stroke-linejoin="round"/>
<path d="M252.891 37.4662L252.44 37.6498C250.125 32.1866 244.083 28.7422 239.212 27.3305C233.721 25.7495 228.78 25.1707 223.063 24.5072C218.771 24.0131 213.901 23.4484 207.845 22.3615C193.743 19.8346 178.073 11.8305 177.918 11.7599L178.144 11.3223C178.299 11.407 193.898 19.3687 207.93 21.8815C213.972 22.9685 218.828 23.5331 223.119 24.0272C228.865 24.6907 233.82 25.2695 239.354 26.8647C244.337 28.3046 250.52 31.8337 252.891 37.4521V37.4662Z" fill="white" stroke="#1A1919" stroke-width="0.75" stroke-linecap="round" stroke-linejoin="round"/>
<path d="M221.117 47.7572L220.665 47.5737C225.451 35.8428 217.884 23.9142 217.8 23.8013L217.715 23.6743L217.8 23.5472C222.176 16.4042 221.922 8.06126 221.922 7.97656H222.402C222.402 7.97656 222.656 16.4324 218.28 23.6601C219.098 25.0012 225.719 36.4639 221.103 47.7572H221.117Z" fill="white" stroke="#1A1919" stroke-width="0.75" stroke-linecap="round" stroke-linejoin="round"/>
<path d="M211.47 40.6146L211.047 40.3887C216.552 29.9707 212.614 23.1382 212.571 23.0676L212.487 22.9406L212.571 22.8135C216.214 17.3786 214.618 8.75338 214.604 8.66868L215.084 8.58398C215.155 8.9369 216.694 17.3645 213.051 22.9688C213.588 23.9993 216.665 30.7894 211.456 40.6287L211.47 40.6146Z" fill="white" stroke="#1A1919" stroke-width="0.75" stroke-linecap="round" stroke-linejoin="round"/>
<path d="M205.655 30.4355C204.484 32.4824 202.79 34.8822 200.347 37.635L199.98 37.3103C208.69 27.5133 207.66 22.2337 207.646 22.1772L207.618 22.0643L207.688 21.9796C211.161 17.4199 206.841 8.5406 206.799 8.4559L207.236 8.24414C207.42 8.61117 211.683 17.3917 208.14 22.2055C208.225 22.7984 208.422 25.5935 205.655 30.4496V30.4355Z" fill="white" stroke="#1A1919" stroke-width="0.75" stroke-linecap="round" stroke-linejoin="round"/>
<path d="M204.418 21.4721L204.065 21.5427C204.065 21.5427 198.616 22.799 195.327 30.5914L194.875 30.4079C197.825 23.4061 202.343 21.5568 203.613 21.1615C200.239 15.9243 200.832 10.574 200.832 10.5176L201.312 10.5741C201.312 10.5741 200.719 16.0089 204.192 21.1756L204.39 21.4721H204.418Z" fill="white" stroke="#1A1919" stroke-width="0.75" stroke-linecap="round" stroke-linejoin="round"/>
<path d="M196.426 19.1843L196.398 19.2125C196.285 19.3537 193.645 22.7982 186.559 22.9958V22.5158C193.038 22.3323 195.72 19.2831 195.989 18.9584C197.217 15.2317 192.742 10.6155 192.685 10.5732L193.038 10.2344C193.236 10.432 197.795 15.1469 196.44 19.1561V19.1984L196.426 19.1843Z" fill="white" stroke="#1A1919" stroke-width="0.75" stroke-linecap="round" stroke-linejoin="round"/>
<path d="M236.644 38.596L236.39 39.0053C224.758 31.7494 223.332 24.6628 223.29 24.3664L223.262 24.2393L223.361 24.1546C229.035 18.8891 229.995 12.6214 229.995 12.5508L230.475 12.6214C230.475 12.6214 229.487 19.0444 223.784 24.4087C224.038 25.3969 226.043 31.9894 236.644 38.596Z" fill="white" stroke="#1A1919" stroke-width="0.75" stroke-linecap="round" stroke-linejoin="round"/>
<path d="M87 20C88.6568 20 90 18.6568 90 17C90 15.3432 88.6568 14 87 14C85.3431 14 84 15.3432 84 17C84 18.6568 85.3431 20 87 20Z" fill="#1A1919"/>
<path d="M102 17C102 18.1057 101.106 19 100 19C98.8943 19 98 18.1057 98 17C98 15.8943 98.8943 15 100 15C101.106 15 102 15.8943 102 17Z" fill="#1A1919"/>
<path d="M110 17C110 16.44 109.78 16 109.5 16C109.22 16 109 16.44 109 17C109 17.56 109.22 18 109.5 18C109.78 18 110 17.56 110 17Z" fill="#1A1919"/>
<path d="M20 17L22 20" stroke="#1A1919" stroke-linecap="round" stroke-linejoin="round"/>
<path d="M225 70L227 73" stroke="#1A1919" stroke-linecap="round" stroke-linejoin="round"/>
<path fill-rule="evenodd" clip-rule="evenodd" d="M13.5588 203.705C12.9706 204.098 12.0147 204.098 11.4412 203.705C10.8529 203.312 10.8529 202.674 11.4412 202.291C12.0294 201.908 12.9853 201.898 13.5588 202.291C14.1471 202.684 14.1471 203.322 13.5588 203.705Z" fill="#1A1919"/>
<path fill-rule="evenodd" clip-rule="evenodd" d="M51 224.5C51 225.874 49.8743 227 48.5 227C47.1257 227 46 225.874 46 224.5C46 223.126 47.1257 222 48.5 222C49.8743 222 51 223.126 51 224.5Z" fill="#1A1919"/>
<path fill-rule="evenodd" clip-rule="evenodd" d="M14 176C14 176.545 13.3352 177 12.5 177C11.6648 177 11 176.557 11 176C11 175.443 11.6648 175 12.5 175C13.3352 175 14 175.443 14 176Z" fill="#1A1919"/>
<path d="M3 183L5 187" stroke="#1A1919" stroke-miterlimit="10"/>
<path d="M26 203L28 206" stroke="#1A1919" stroke-miterlimit="10"/>
<path d="M27 218L21 222" stroke="#1A1919" stroke-miterlimit="10"/>
<path d="M28 193L32 196" stroke="#1A1919" stroke-miterlimit="10"/>
<path d="M237 173V179" stroke="#1A1919" stroke-miterlimit="10"/>
<path d="M21.9711 122.477C21.9711 101.231 40.4922 32.0176 116.736 32.0176C204.076 32.0176 210.245 114.459 210.245 134.377C210.245 154.296 187.616 221.674 116.101 221.674C56.2181 221.674 21.957 162.173 21.957 122.477H21.9711Z" fill="white" stroke="#1A1919" stroke-miterlimit="10"/>
<path d="M117.75 124.637C117.75 124.637 113.247 126.049 106.09 121.094C98.9329 116.139 85.1974 117.212 78.3791 126.599C71.5608 135.987 61.0298 132.726 60.8039 142.65C60.5639 152.574 49.0448 161.227 60.7757 173.396C72.5066 185.564 75.7816 195.39 90.8723 199.808C105.963 204.227 109.28 199.455 119.938 200.796C130.611 202.137 135.834 186.595 138.488 179.861C141.142 173.128 145.264 167.904 143.513 156.611C141.763 145.318 132.813 125.484 117.764 124.637H117.75Z" fill="#F2C57E" stroke="#33081E" stroke-miterlimit="10"/>
<path d="M139.932 162.469C139.932 162.469 136.996 158.757 139.071 150.315C141.146 141.859 135.231 129.422 124.023 126.401C112.814 123.395 112.094 112.398 102.735 115.729C93.3897 119.061 81.1788 111.395 74.0076 126.698C66.8364 142 58.8322 148.579 60.1027 164.248C61.3873 179.932 67.0199 181.301 69.575 191.747C72.1301 202.194 88.5195 201.516 95.7613 201.573C103.003 201.643 109.342 203.619 119.266 197.945C129.189 192.27 144.506 176.812 139.918 162.469H139.932Z" fill="#F2C57E" stroke="#33081E" stroke-miterlimit="10"/>
<path opacity="0.5" d="M93.8801 181.795C93.8801 181.795 101.616 183.658 99.8797 188.74C98.1292 193.822 92.5391 192.58 92.5391 192.58" stroke="#33081E" stroke-linecap="round" stroke-linejoin="round"/>
<path opacity="0.5" d="M119.277 168.639C119.277 168.639 115.747 162.739 111.611 167.087C107.461 171.435 114.18 172.084 114.18 172.084" stroke="#33081E" stroke-linecap="round" stroke-linejoin="round"/>
<path opacity="0.5" d="M96.7925 149.935C96.7925 149.935 90.0588 144.5 86.5297 149.469C83.0005 154.438 85.8097 156.937 85.8097 156.937" stroke="#33081E" stroke-linecap="round" stroke-linejoin="round"/>
<path opacity="0.5" d="M130.412 155.525C130.412 155.525 128.704 149.92 125.443 152.729C122.182 155.539 124.667 161.157 129.48 159.661" stroke="#33081E" stroke-linecap="round" stroke-linejoin="round"/>
<path opacity="0.5" d="M133.591 170.543C133.591 171.277 132.998 171.856 132.278 171.856C131.558 171.856 130.965 171.263 130.965 170.543C130.965 169.823 131.558 169.23 132.278 169.23C132.998 169.23 133.591 169.823 133.591 170.543Z" stroke="#33081E" stroke-linecap="round" stroke-linejoin="round"/>
<path d="M107.208 159.661C107.208 160.324 106.672 160.861 106.009 160.861C105.345 160.861 104.809 160.324 104.809 159.661C104.809 158.997 105.345 158.461 106.009 158.461C106.672 158.461 107.208 158.997 107.208 159.661Z" fill="#FFEECA"/>
<path d="M91.9198 142.636C91.9198 143.779 90.9881 144.711 89.8447 144.711C88.7012 144.711 87.7695 143.779 87.7695 142.636C87.7695 141.492 88.7012 140.561 89.8447 140.561C90.9881 140.561 91.9198 141.492 91.9198 142.636Z" fill="#FFEECA"/>
<path opacity="0.5" d="M83.334 176.361C84.636 176.361 85.6915 175.736 85.6915 174.964C85.6915 174.192 84.636 173.566 83.334 173.566C82.032 173.566 80.9766 174.192 80.9766 174.964C80.9766 175.736 82.032 176.361 83.334 176.361Z" stroke="#33081E" stroke-linecap="round" stroke-linejoin="round"/>
<path d="M89.8437 187.145C89.8437 188.556 88.7003 189.686 87.3027 189.686C85.9052 189.686 84.7617 188.542 84.7617 187.145C84.7617 185.747 85.9052 184.604 87.3027 184.604C88.7003 184.604 89.8437 185.747 89.8437 187.145Z" fill="#FFEECA"/>
<path opacity="0.5" d="M116.753 153.04C116.753 153.478 116.4 152.729 115.962 152.729C115.525 152.729 115.172 152.377 115.172 151.939C115.172 151.501 115.525 151.148 115.962 151.148C116.4 151.148 116.753 152.588 116.753 153.026V153.04Z" stroke="#33081E" stroke-linecap="round" stroke-linejoin="round"/>
<path opacity="0.5" d="M102.127 149.157C102.127 149.581 101.774 149.934 101.351 149.934C100.927 149.934 100.574 149.581 100.574 149.157C100.574 148.734 100.927 148.381 101.351 148.381C101.774 148.381 102.127 148.734 102.127 149.157Z" stroke="#33081E" stroke-linecap="round" stroke-linejoin="round"/>
<path d="M83.7902 135.633C83.7902 135.887 83.5925 136.085 83.3385 136.085C83.0844 136.085 82.8867 135.887 82.8867 135.633C82.8867 135.379 83.0844 135.182 83.3385 135.182C83.5925 135.182 83.7902 135.379 83.7902 135.633Z" stroke="#33081E" stroke-linecap="round" stroke-linejoin="round"/>
<path opacity="0.5" d="M79.1648 138.773C79.2947 137.973 78.7512 137.219 77.9509 137.089C77.1505 136.959 76.3964 137.502 76.2665 138.303C76.1366 139.103 76.6801 139.857 77.4804 139.987C78.2808 140.117 79.0349 139.574 79.1648 138.773Z" stroke="#33081E" stroke-linecap="round" stroke-linejoin="round"/>
<path opacity="0.5" d="M91.708 152.729C91.708 153.251 91.2845 153.675 90.7622 153.675C90.2399 153.675 89.8164 153.251 89.8164 152.729C89.8164 152.207 90.2399 151.783 90.7622 151.783C91.2845 151.783 91.708 152.207 91.708 152.729Z" stroke="#33081E" stroke-linecap="round" stroke-linejoin="round"/>
<path d="M115.537 183.827C115.537 184.251 115.184 184.604 114.761 184.604C114.337 184.604 113.984 184.251 113.984 183.827C113.984 183.404 114.337 183.051 114.761 183.051C115.184 183.051 115.537 183.404 115.537 183.827Z" stroke="#33081E" stroke-linecap="round" stroke-linejoin="round"/>
<path opacity="0.5" d="M119.281 128.336C119.281 128.336 126.636 127.122 129.121 137.06C131.605 146.998 137.407 152.885 136.376 159.675" stroke="#33081E" stroke-linecap="round" stroke-linejoin="round"/>
<path opacity="0.5" d="M125.394 172.703C125.394 172.703 121.865 179.409 119.281 179.154" stroke="#33081E" stroke-linecap="round" stroke-linejoin="round"/>
<path opacity="0.5" d="M119.281 184.604C121.145 185.267 120.058 187.794 123.968 183.051" stroke="#33081E" stroke-linecap="round" stroke-linejoin="round"/>
<path opacity="0.1" d="M114.181 140.701C114.181 139.501 113.024 138.527 111.612 138.527C110.201 138.527 109.043 139.501 109.043 140.701C109.043 141.901 110.201 140.377 111.612 140.377C113.024 140.377 114.181 141.901 114.181 140.701Z" fill="white"/>
<path opacity="0.1" d="M99.8806 171.631C99.8806 170.431 98.7231 169.457 97.3114 169.457C95.8998 169.457 94.7422 170.431 94.7422 171.631C94.7422 172.831 95.8998 171.306 97.3114 171.306C98.7231 171.306 99.8806 172.831 99.8806 171.631Z" fill="white"/>
<path d="M96.7325 154.24C98.9064 155.157 101.899 156.964 101.899 156.964C101.899 156.964 104.511 159.279 106.035 161.086C107.56 162.893 112.952 165.688 119.94 156.202C126.928 146.715 118.077 134.999 115.07 139.064C118.063 134.984 104.243 130.029 97.2689 139.516C90.2812 149.002 94.5585 153.336 96.7325 154.24Z" fill="#EF5704"/>
<path d="M98.3582 153.349C100.236 154.14 102.833 155.707 102.833 155.707C102.833 155.707 105.092 157.711 106.405 159.278C107.718 160.845 112.39 163.259 118.446 155.043C124.488 146.827 116.837 136.692 114.239 140.207C116.837 136.678 104.866 132.386 98.8241 140.588C92.7822 148.804 96.4807 152.545 98.3582 153.335V153.349Z" fill="#F5F2C5"/>
<path d="M107.967 143.369C109.012 141.957 110.988 141.661 112.4 142.691C113.811 143.736 114.108 145.712 113.077 147.124L109.661 151.754C108.616 153.166 106.64 153.462 105.228 152.432C103.817 151.387 103.52 149.411 104.551 147.999L107.967 143.369Z" fill="#E2B675"/>
<path d="M108.223 144.682C108.929 143.722 110.298 143.51 111.258 144.216C112.218 144.922 112.43 146.291 111.724 147.251L109.395 150.428C108.689 151.387 107.32 151.599 106.36 150.893C105.4 150.188 105.188 148.818 105.894 147.858L108.223 144.682Z" fill="#F7E7B6"/>
<path d="M109.819 147.196C110.003 146.956 110.342 146.9 110.596 147.083C110.836 147.267 110.892 147.606 110.709 147.86C110.525 148.1 109.664 148.862 109.424 148.678C109.184 148.495 109.636 147.45 109.819 147.21V147.196Z" fill="#6A0747"/>
<path d="M108.87 146.491C109.054 146.251 108.998 145.898 108.758 145.714C108.518 145.531 108.165 145.587 107.981 145.827C107.798 146.067 107.332 147.126 107.586 147.309C107.826 147.493 108.687 146.73 108.87 146.491Z" fill="#6A0747"/>
<path d="M107.629 156.244C105.836 157.769 102.871 159.618 102.871 159.618C102.871 159.618 99.6246 160.903 97.3236 161.439C95.0226 161.976 90.0817 165.533 95.3896 176.05C100.697 186.567 115.139 183.969 112.866 179.452C115.139 183.969 125.825 173.89 120.517 163.373C115.209 152.856 109.422 154.706 107.629 156.244Z" fill="#EF5704"/>
<path d="M107.699 158.094C106.146 159.421 103.577 161.016 103.577 161.016C103.577 161.016 100.768 162.131 98.7771 162.597C96.7867 163.063 92.5093 166.14 97.1113 175.245C101.699 184.351 114.221 182.106 112.244 178.196C114.221 182.106 123.467 173.382 118.865 164.277C114.277 155.172 109.252 156.781 107.699 158.094Z" fill="#F5F2C5"/>
<path d="M112.26 171.181C113.051 172.748 112.415 174.653 110.862 175.444C109.296 176.235 107.39 175.599 106.599 174.046L104.016 168.908C103.225 167.341 103.861 165.435 105.428 164.645C106.994 163.854 108.9 164.49 109.691 166.056L112.274 171.195L112.26 171.181Z" fill="#E2B675"/>
<path d="M110.963 170.813C111.5 171.885 111.076 173.198 110.003 173.735C108.93 174.271 107.618 173.848 107.081 172.775L105.302 169.26C104.766 168.187 105.189 166.874 106.262 166.338C107.335 165.801 108.648 166.225 109.184 167.298L110.963 170.813Z" fill="#F7E7B6"/>
<path d="M107.996 171.11C108.137 171.378 108.024 171.717 107.756 171.858C107.488 171.999 107.149 171.886 107.008 171.618C106.867 171.35 106.585 170.234 106.867 170.093C107.135 169.952 107.869 170.841 107.996 171.11Z" fill="#6A0747"/>
<path d="M109.056 170.573C109.198 170.841 109.522 170.954 109.805 170.813C110.073 170.672 110.186 170.347 110.045 170.065C109.904 169.796 109.184 168.907 108.915 169.048C108.647 169.189 108.915 170.291 109.056 170.573Z" fill="#6A0747"/>
<path d="M81.7681 152.262C80.2718 154.083 77.6884 156.427 77.6743 156.427C77.6743 156.427 74.7098 158.262 72.5359 159.207C70.376 160.139 66.141 164.515 73.2276 173.931C80.3141 183.347 94.0778 178.223 91.0286 174.171C94.0778 178.208 102.788 166.393 95.7012 156.991C88.6147 147.575 83.2363 150.441 81.7399 152.262H81.7681Z" fill="#EF5704"/>
<path d="M82.1648 154.068C80.8661 155.649 78.6357 157.682 78.6215 157.682C78.6215 157.682 76.0523 159.277 74.1748 160.082C72.2973 160.901 68.6411 164.684 74.7818 172.829C80.9226 180.974 92.837 176.542 90.1972 173.041C92.837 176.542 100.375 166.307 94.2487 158.162C88.1079 150.017 83.4636 152.487 82.1648 154.068Z" fill="#F5F2C5"/>
<path d="M82.7427 162.059C82.9544 162.341 82.898 162.751 82.6156 162.977C82.3333 163.188 81.9239 163.132 81.6981 162.85L73.0305 151.345C72.8187 151.062 72.8752 150.653 73.1575 150.427C73.4398 150.215 73.8492 150.272 74.0751 150.554L82.7427 162.059Z" fill="#6A0747"/>
<path d="M88.9688 166.14C90.0275 167.537 89.7452 169.528 88.3476 170.586C86.9501 171.645 84.9596 171.363 83.9009 169.965L80.4423 165.377C79.3836 163.98 79.6659 161.989 81.0634 160.931C82.461 159.872 84.4514 160.154 85.5102 161.552L88.9688 166.14Z" fill="#E2B675"/>
<path d="M87.6306 166.012C88.3506 166.972 88.1671 168.327 87.2071 169.061C86.2472 169.781 84.892 169.598 84.1579 168.638L81.7863 165.49C81.0664 164.53 81.2499 163.175 82.2098 162.441C83.1698 161.721 84.5391 161.904 85.259 162.864L87.6306 166.012Z" fill="#F7E7B6"/>
<path d="M84.7737 166.829C84.9572 167.069 84.9149 167.422 84.6608 167.606C84.4208 167.789 84.0679 167.747 83.8843 167.493C83.7008 167.253 83.2209 166.208 83.475 166.025C83.7291 165.841 84.5902 166.589 84.7737 166.829Z" fill="#6A0747"/>
<path d="M85.7227 166.11C85.9062 166.35 86.2591 166.407 86.4991 166.223C86.7391 166.039 86.7955 165.687 86.612 165.447C86.4285 165.207 85.5533 164.458 85.3133 164.642C85.0733 164.825 85.5392 165.87 85.7227 166.11Z" fill="#6A0747"/>
<path d="M78.2956 150.356C76.8134 152.982 77.0957 155.537 77.0957 155.537C84.6904 150.935 81.6271 143.453 81.6271 143.453C81.9377 145.401 79.7637 147.716 78.2956 150.342V150.356Z" fill="#69893F"/>
<path d="M78.2825 154.817C77.9296 155.085 77.5343 155.353 77.1391 155.593C77.1249 155.593 77.0967 155.593 77.0826 155.593C77.0685 155.593 77.0544 155.565 77.0544 155.551C77.0544 155.523 76.7861 152.939 78.2543 150.328C78.6778 149.58 79.1577 148.846 79.6236 148.14C80.7388 146.446 81.7975 144.836 81.5858 143.467C81.5858 143.439 81.5858 143.411 81.6281 143.396C81.6564 143.396 81.6846 143.397 81.6987 143.425C81.6987 143.439 82.3905 145.133 82.3058 147.363C82.2352 149.424 81.4729 152.389 78.2825 154.803V154.817ZM77.1673 155.438C77.5343 155.212 77.8872 154.972 78.226 154.718C81.3741 152.346 82.1222 149.41 82.1928 147.377C82.2493 145.81 81.9246 144.526 81.727 143.891C81.6987 145.203 80.7388 146.657 79.7224 148.196C79.2566 148.902 78.7766 149.622 78.3531 150.37C77.0685 152.671 77.1249 154.944 77.1532 155.424L77.1673 155.438Z" fill="#69893F"/>
<path d="M75.9706 149.24C74.446 153.348 77.114 155.536 77.114 155.536C77.114 155.536 76.8317 152.981 78.3139 150.356C79.782 147.73 81.956 145.415 81.6454 143.467C81.1514 146.925 77.4951 145.133 75.9706 149.255V149.24Z" fill="#87AA4F"/>
<path d="M77.1416 155.58C77.1275 155.58 77.0992 155.58 77.071 155.58C77.0428 155.551 74.3888 153.321 75.9134 149.213C76.2805 148.211 76.8169 147.463 77.551 146.912C78.1015 146.503 78.6662 146.248 79.2308 146.023C79.7249 145.811 80.1767 145.613 80.5719 145.317C81.1507 144.879 81.4754 144.286 81.5883 143.439C81.5883 143.411 81.6165 143.383 81.6448 143.383C81.673 143.383 81.7013 143.411 81.7013 143.439C81.9271 144.851 80.8543 146.474 79.7249 148.197C79.2591 148.902 78.7791 149.622 78.3556 150.371C76.9016 152.954 77.1698 155.495 77.1698 155.523C77.1698 155.551 77.1698 155.565 77.1416 155.58ZM77.6215 147.011C76.9157 147.547 76.3934 148.281 76.0264 149.255C74.7135 152.799 76.5628 154.916 77.0428 155.382C77.0145 154.789 76.9863 152.559 78.2568 150.314C78.6803 149.566 79.1603 148.832 79.6261 148.126C80.6284 146.615 81.5742 145.176 81.6165 143.905C81.4471 144.554 81.1366 145.034 80.6425 145.401C80.2472 145.698 79.7814 145.896 79.2732 146.121C78.7226 146.361 78.158 146.601 77.6215 146.997V147.011Z" fill="#87AA4F"/>
<path d="M117.696 158.884C118.416 158.122 119.165 157.233 119.941 156.188C126.929 146.702 118.078 134.985 115.071 139.05C118.063 134.971 104.243 130.016 97.2697 139.502C90.282 148.989 94.5593 153.322 96.7333 154.226C98.9072 155.143 101.9 156.95 101.9 156.95C101.9 156.95 102.874 157.811 103.975 158.898C103.326 159.322 102.874 159.604 102.874 159.604C102.874 159.604 100.135 160.691 97.9049 161.284C97.4814 159.844 96.7756 158.39 95.731 156.979C88.6444 147.563 83.266 150.428 81.7696 152.25C80.6685 153.591 78.9746 155.214 78.1699 155.976L77.6194 155.256C77.8452 155.101 78.0711 154.96 78.2828 154.805C81.4732 152.405 82.2355 149.44 82.3061 147.365C82.3908 145.135 81.6991 143.441 81.6991 143.427C81.6991 143.427 81.6849 143.427 81.6708 143.427C81.6708 143.427 81.6567 143.398 81.6426 143.398C81.6426 143.398 81.6426 143.413 81.6285 143.427C81.6285 143.427 81.6002 143.427 81.6002 143.455C81.4732 144.302 81.1485 144.895 80.5838 145.332C80.2027 145.629 79.7369 145.826 79.2428 146.038C78.6922 146.278 78.1134 146.518 77.5629 146.928C76.8288 147.478 76.3065 148.226 75.9254 149.229C75.4595 150.471 75.3889 151.544 75.5019 152.447L74.0761 150.556C73.8643 150.273 73.4549 150.217 73.1585 150.428C72.8762 150.64 72.8197 151.05 73.0315 151.346L77.1253 156.781C76.1653 157.36 74.1467 158.531 72.5515 159.223C70.3916 160.155 66.1567 164.531 73.2432 173.947C80.3298 183.363 94.0935 178.238 91.0443 174.187C91.9054 175.33 93.2323 175.203 94.517 174.201C94.7711 174.794 95.0534 175.415 95.3781 176.05C100.686 186.567 115.127 183.97 112.854 179.452C115.127 183.97 125.814 173.89 120.506 163.373C119.56 161.51 118.614 160.042 117.668 158.884H117.696Z" stroke="#33081E" stroke-miterlimit="10"/>
<path d="M89.8417 129.423C89.8417 130.566 88.91 131.498 87.7665 131.498C86.6231 131.498 85.6914 130.566 85.6914 129.423C85.6914 128.279 86.6231 127.348 87.7665 127.348C88.91 127.348 89.8417 128.279 89.8417 129.423Z" fill="#FFEECA"/>
<path opacity="0.5" d="M105.541 124.905C105.541 126.359 104.356 127.545 102.902 127.545C101.448 127.545 100.262 126.359 100.262 124.905C100.262 123.451 101.448 122.266 102.902 122.266C104.356 122.266 105.541 123.451 105.541 124.905Z" stroke="#33081E" stroke-linecap="round" stroke-linejoin="round"/>
<path opacity="0.5" d="M75.3036 171.744C75.3036 172.28 74.866 172.718 74.3295 172.718C73.7931 172.718 73.3555 172.28 73.3555 171.744C73.3555 171.207 73.7931 170.77 74.3295 170.77C74.866 170.77 75.3036 171.207 75.3036 171.744Z" stroke="#33081E" stroke-linecap="round" stroke-linejoin="round"/>
<path opacity="0.5" d="M109.861 130.665C109.861 131.131 109.48 131.498 109.028 131.498C108.576 131.498 108.195 131.131 108.195 130.665C108.195 130.199 108.562 129.832 109.028 129.832C109.494 129.832 109.861 130.199 109.861 130.665Z" stroke="#33081E" stroke-linecap="round" stroke-linejoin="round"/>
<path d="M93.0603 128.335C93.0603 128.617 92.8344 128.857 92.5379 128.857C92.2415 128.857 92.0156 128.631 92.0156 128.335C92.0156 128.038 92.2415 127.812 92.5379 127.812C92.8344 127.812 93.0603 128.038 93.0603 128.335Z" stroke="#33081E" stroke-linecap="round" stroke-linejoin="round"/>
<path opacity="0.5" d="M180.011 86.7488C180.822 86.7488 181.479 86.0915 181.479 85.2806C181.479 84.4698 180.822 83.8125 180.011 83.8125C179.2 83.8125 178.543 84.4698 178.543 85.2806C178.543 86.0915 179.2 86.7488 180.011 86.7488Z" stroke="#33081E" stroke-linecap="round" stroke-linejoin="round"/>
<path opacity="0.5" d="M176.622 119.47C177.16 119.47 177.597 119.033 177.597 118.496C177.597 117.958 177.16 117.521 176.622 117.521C176.085 117.521 175.648 117.958 175.648 118.496C175.648 119.033 176.085 119.47 176.622 119.47Z" stroke="#33081E" stroke-linecap="round" stroke-linejoin="round"/>
<path d="M166.481 73.1546C166.481 73.1546 161.978 74.5663 154.821 69.6113C147.663 64.6564 133.928 65.7292 127.11 75.1168C120.291 84.5044 109.76 81.2434 109.534 91.1674C109.294 101.091 97.7752 109.745 109.506 121.913C121.237 134.082 124.512 143.907 139.603 148.326C154.693 152.744 158.011 147.973 168.669 149.314C179.341 150.655 184.564 135.112 187.218 128.379C189.872 121.645 193.994 116.422 192.244 105.129C190.493 93.8355 181.543 74.0016 166.495 73.1546H166.481Z" fill="#F2C57E" stroke="#33081E" stroke-miterlimit="10"/>
<path d="M188.643 110.987C188.643 110.987 185.707 107.274 187.782 98.8326C189.857 90.3768 183.942 77.94 172.734 74.9191C161.525 71.9122 160.805 60.9154 151.446 64.2469C142.101 67.5784 129.89 59.9131 122.719 75.2155C115.547 90.5179 107.543 97.0963 108.814 112.766C110.098 128.449 115.731 129.819 118.286 140.265C120.841 150.711 137.23 150.034 144.472 150.09C151.714 150.161 158.052 152.137 167.976 146.462C177.9 140.787 193.217 125.33 188.629 110.987H188.643Z" fill="#F2C57E" stroke="#33081E" stroke-miterlimit="10"/>
<path opacity="0.5" d="M142.611 130.312C142.611 130.312 150.347 132.176 148.61 137.258C146.86 142.34 141.27 141.098 141.27 141.098" stroke="#33081E" stroke-linecap="round" stroke-linejoin="round"/>
<path opacity="0.5" d="M167.991 117.155C167.991 117.155 164.462 111.254 160.326 115.602C156.176 119.95 162.895 120.6 162.895 120.6" stroke="#33081E" stroke-linecap="round" stroke-linejoin="round"/>
<path opacity="0.5" d="M145.503 98.4523C145.503 98.4523 138.77 93.0174 135.241 97.9864C131.711 102.955 134.521 105.454 134.521 105.454" stroke="#33081E" stroke-linecap="round" stroke-linejoin="round"/>
<path opacity="0.5" d="M179.131 104.042C179.131 104.042 177.423 98.4378 174.162 101.247C170.901 104.056 173.385 109.675 178.199 108.178" stroke="#33081E" stroke-linecap="round" stroke-linejoin="round"/>
<path opacity="0.5" d="M182.321 119.061C182.321 119.795 181.728 120.374 181.008 120.374C180.288 120.374 179.695 119.781 179.695 119.061C179.695 118.341 180.288 117.748 181.008 117.748C181.728 117.748 182.321 118.341 182.321 119.061Z" stroke="#33081E" stroke-linecap="round" stroke-linejoin="round"/>
<path d="M155.923 108.178C155.923 108.842 155.387 109.378 154.723 109.378C154.06 109.378 153.523 108.842 153.523 108.178C153.523 107.515 154.06 106.979 154.723 106.979C155.387 106.979 155.923 107.515 155.923 108.178Z" fill="#FFEECA"/>
<path d="M140.65 91.1532C140.65 92.2967 139.719 93.2284 138.575 93.2284C137.432 93.2284 136.5 92.2967 136.5 91.1532C136.5 90.0098 137.432 89.0781 138.575 89.0781C139.719 89.0781 140.65 90.0098 140.65 91.1532Z" fill="#FFEECA"/>
<path opacity="0.5" d="M132.053 124.877C133.355 124.877 134.41 124.251 134.41 123.48C134.41 122.708 133.355 122.082 132.053 122.082C130.751 122.082 129.695 122.708 129.695 123.48C129.695 124.251 130.751 124.877 132.053 124.877Z" stroke="#33081E" stroke-linecap="round" stroke-linejoin="round"/>
<path d="M138.562 135.662C138.562 137.074 137.419 138.203 136.021 138.203C134.624 138.203 133.48 137.06 133.48 135.662C133.48 134.265 134.624 133.121 136.021 133.121C137.419 133.121 138.562 134.265 138.562 135.662Z" fill="#FFEECA"/>
<path opacity="0.5" d="M165.464 101.558C165.464 101.995 165.111 101.247 164.673 101.247C164.236 101.247 163.883 100.894 163.883 100.457C163.883 100.019 164.236 99.666 164.673 99.666C165.111 99.666 165.464 101.106 165.464 101.544V101.558Z" stroke="#33081E" stroke-linecap="round" stroke-linejoin="round"/>
<path opacity="0.5" d="M150.842 97.6749C150.842 98.0984 150.489 98.4513 150.065 98.4513C149.642 98.4513 149.289 98.0984 149.289 97.6749C149.289 97.2514 149.642 96.8984 150.065 96.8984C150.489 96.8984 150.842 97.2514 150.842 97.6749Z" stroke="#33081E" stroke-linecap="round" stroke-linejoin="round"/>
<path d="M132.049 84.6027C132.299 84.6027 132.501 84.4004 132.501 84.151C132.501 83.9015 132.299 83.6992 132.049 83.6992C131.8 83.6992 131.598 83.9015 131.598 84.151C131.598 84.4004 131.8 84.6027 132.049 84.6027Z" stroke="#33081E" stroke-linecap="round" stroke-linejoin="round"/>
<path opacity="0.5" d="M140.438 101.247C140.438 101.769 140.015 102.192 139.493 102.192C138.97 102.192 138.547 101.769 138.547 101.247C138.547 100.724 138.97 100.301 139.493 100.301C140.015 100.301 140.438 100.724 140.438 101.247Z" stroke="#33081E" stroke-linecap="round" stroke-linejoin="round"/>
<path d="M164.268 132.331C164.268 132.755 163.915 133.108 163.491 133.108C163.068 133.108 162.715 132.755 162.715 132.331C162.715 131.908 163.068 131.555 163.491 131.555C163.915 131.555 164.268 131.908 164.268 132.331Z" stroke="#33081E" stroke-linecap="round" stroke-linejoin="round"/>
<path opacity="0.5" d="M167.992 76.8534C167.992 76.8534 175.347 75.6394 177.831 85.5775C180.316 95.5156 186.118 101.402 185.087 108.192" stroke="#33081E" stroke-linecap="round" stroke-linejoin="round"/>
<path opacity="0.5" d="M174.105 121.221C174.105 121.221 170.576 127.926 167.992 127.672" stroke="#33081E" stroke-linecap="round" stroke-linejoin="round"/>
<path opacity="0.5" d="M167.992 133.108C169.856 133.771 168.769 136.298 172.679 131.555" stroke="#33081E" stroke-linecap="round" stroke-linejoin="round"/>
<path opacity="0.1" d="M162.896 89.2052C162.896 88.0053 161.739 87.0312 160.327 87.0312C158.915 87.0312 157.758 88.0053 157.758 89.2052C157.758 90.4051 158.915 88.8805 160.327 88.8805C161.739 88.8805 162.896 90.4051 162.896 89.2052Z" fill="white"/>
<path opacity="0.1" d="M148.599 120.149C148.599 118.949 147.442 117.975 146.03 117.975C144.619 117.975 143.461 118.949 143.461 120.149C143.461 121.348 144.619 119.824 146.03 119.824C147.442 119.824 148.599 121.348 148.599 120.149Z" fill="white"/>
<path d="M138.56 77.9404C138.56 79.0838 137.629 80.0155 136.485 80.0155C135.342 80.0155 134.41 79.0838 134.41 77.9404C134.41 76.7969 135.342 75.8652 136.485 75.8652C137.629 75.8652 138.56 76.7969 138.56 77.9404Z" fill="#FFEECA"/>
<path opacity="0.5" d="M154.272 73.423C154.272 74.877 153.086 76.0628 151.632 76.0628C150.178 76.0628 148.992 74.877 148.992 73.423C148.992 71.969 150.178 70.7832 151.632 70.7832C153.086 70.7832 154.272 71.969 154.272 73.423Z" stroke="#33081E" stroke-linecap="round" stroke-linejoin="round"/>
<path opacity="0.5" d="M158.592 79.1825C158.592 79.6483 158.225 80.0154 157.759 80.0154C157.293 80.0154 156.926 79.6483 156.926 79.1825C156.926 78.7166 157.293 78.3496 157.759 78.3496C158.225 78.3496 158.592 78.7166 158.592 79.1825Z" stroke="#33081E" stroke-linecap="round" stroke-linejoin="round"/>
<path d="M141.779 76.8524C141.779 77.1347 141.553 77.3747 141.257 77.3747C140.96 77.3747 140.734 77.1489 140.734 76.8524C140.734 76.556 140.96 76.3301 141.257 76.3301C141.553 76.3301 141.779 76.556 141.779 76.8524Z" stroke="#33081E" stroke-linecap="round" stroke-linejoin="round"/>
<path d="M150.246 130.975C161.003 131.497 170.136 123.197 170.659 112.44C171.181 101.683 162.88 92.5497 152.124 92.0273L150.246 130.975Z" fill="#DD9117"/>
<path opacity="0.5" d="M150.487 125.993C158.491 126.374 165.281 120.205 165.662 112.201C166.043 104.197 159.874 97.407 151.87 97.0117L150.473 125.979L150.487 125.993Z" fill="#FDC376"/>
<path d="M157.052 110.337C157.856 110.38 158.463 111.057 158.435 111.848C158.393 112.653 157.715 113.26 156.925 113.217C156.134 113.175 154.087 112.427 154.13 111.636C154.172 110.832 156.261 110.295 157.066 110.323L157.052 110.337Z" fill="#FDC376"/>
<path d="M156.176 117.043C156.712 117.635 156.67 118.553 156.077 119.089C155.484 119.626 154.567 119.584 154.03 118.991C153.494 118.398 152.576 116.436 153.169 115.899C153.762 115.363 155.625 116.464 156.162 117.043H156.176Z" fill="#FDC376"/>
<path d="M156.687 106.469C157.28 105.932 157.322 105.015 156.785 104.422C156.249 103.829 155.331 103.787 154.739 104.323C154.146 104.859 153.045 106.737 153.595 107.316C154.131 107.909 156.094 106.991 156.687 106.455V106.469Z" fill="#FDC376"/>
<path d="M121.371 111.679C126.171 121.32 137.873 125.245 147.515 120.431C157.157 115.631 161.081 103.929 156.282 94.2871L121.371 111.679Z" fill="#DD9117"/>
<path opacity="0.5" d="M125.848 109.448C129.419 116.619 138.129 119.541 145.286 115.97C152.458 112.398 155.366 103.688 151.808 96.5312L125.848 109.462V109.448Z" fill="#FDC376"/>
<path d="M142.715 107.529C143.068 108.249 142.785 109.111 142.065 109.478C141.345 109.845 140.484 109.548 140.131 108.828C139.778 108.108 139.426 105.977 140.146 105.624C140.865 105.271 142.362 106.824 142.715 107.544V107.529Z" fill="#FDC376"/>
<path d="M136.434 110.041C136.179 110.803 135.361 111.213 134.598 110.959C133.836 110.705 133.427 109.886 133.681 109.123C133.935 108.361 135.205 106.611 135.968 106.865C136.73 107.119 136.688 109.279 136.434 110.041Z" fill="#FDC376"/>
<path d="M145.905 105.313C146.667 105.567 147.486 105.158 147.74 104.395C147.994 103.633 147.585 102.814 146.822 102.56C146.06 102.306 143.9 102.264 143.646 103.026C143.392 103.788 145.142 105.059 145.905 105.313Z" fill="#FDC376"/>
<path d="M162.433 112.525C169.082 104.055 167.614 91.802 159.144 85.1531C150.674 78.5042 138.421 79.9723 131.758 88.4423L162.419 112.539L162.433 112.525Z" fill="#DD9117"/>
<path opacity="0.5" d="M158.494 109.433C163.434 103.137 162.348 94.0175 156.051 89.0767C149.755 84.1359 140.636 85.2229 135.695 91.5189L158.494 109.433Z" fill="#FDC376"/>
<path d="M149.544 95.0217C150.038 94.3865 150.942 94.2877 151.577 94.7818C152.212 95.2758 152.311 96.1793 151.817 96.8146C151.323 97.4357 149.53 98.6638 148.909 98.1697C148.288 97.6757 149.05 95.6429 149.544 95.0217Z" fill="#FDC376"/>
<path d="M154.504 99.6225C155.294 99.5237 156.014 100.088 156.113 100.893C156.212 101.684 155.647 102.404 154.857 102.502C154.066 102.601 151.934 102.206 151.836 101.401C151.737 100.611 153.713 99.7214 154.504 99.6225Z" fill="#FDC376"/>
<path d="M146.189 93.0719C146.09 92.2813 145.37 91.7167 144.58 91.8014C143.789 91.9002 143.224 92.6201 143.309 93.4107C143.408 94.2012 144.297 96.1775 145.088 96.0787C145.878 95.9799 146.274 93.8483 146.189 93.0578V93.0719Z" fill="#FDC376"/>
<path d="M166.553 99.5243C166.285 94.0752 163.772 88.7674 159.142 85.1394C150.672 78.4905 138.419 79.9586 131.756 88.4286L145.83 99.4819L128.72 108.008L125.827 109.448L121.352 111.679C126.151 121.32 137.854 125.245 147.496 120.431C148.71 119.824 149.825 119.118 150.841 118.313L150.615 122.873L150.46 125.979L150.22 130.976C160.977 131.498 170.11 123.198 170.633 112.441C170.873 107.585 169.292 103.082 166.525 99.5243H166.553Z" stroke="#1A1919" stroke-miterlimit="10"/>
<path d="M129.034 105.749C129.034 105.749 126.804 101.584 130.333 93.6226C133.862 85.6608 130.248 72.377 119.745 67.4221C109.242 62.4813 110.485 51.5268 100.688 53.1502C90.8908 54.7736 80.2469 45.0614 70.4782 58.8674C60.7236 72.6594 51.6748 77.7131 50.1643 93.3685C48.6539 109.024 53.9476 111.381 54.6252 122.11C55.3028 132.839 71.551 135.069 78.6517 136.41C85.7665 137.751 91.6531 140.829 102.424 137.003C113.195 133.177 130.996 120.67 129.02 105.735L129.034 105.749Z" fill="#F2C57E" stroke="#33081E" stroke-miterlimit="10"/>
<path d="M129.678 89.6977C129.678 89.6977 125.952 86.7897 125.952 78.0938C125.952 69.398 117.242 58.7117 105.638 58.4576C94.0339 58.2035 90.7165 47.7007 82.43 53.1497C74.1435 58.6129 60.4645 54.0673 57.1471 70.6402C53.8297 87.2132 47.6184 95.4996 52.5875 110.421C57.5565 125.342 63.3585 125.342 68.3416 134.871C73.3107 144.4 89.0648 139.84 96.109 138.188C103.153 136.537 109.788 136.946 118.074 129.069C126.361 121.192 137.555 102.544 129.678 89.6977Z" fill="#FFD78C" stroke="#33081E" stroke-miterlimit="10"/>
<path d="M67.0038 90.6868C67.1308 90.2209 67.2155 89.7409 67.2155 89.2327C67.2155 86.1412 64.7169 83.6426 61.6253 83.6426C58.5338 83.6426 56.0352 86.1412 56.0352 89.2327C56.0352 89.7409 56.1199 90.2209 56.2469 90.6868C57.588 89.7974 59.4937 89.2327 61.6253 89.2327C63.7569 89.2327 65.6627 89.7974 67.0038 90.6868Z" fill="#6D4A47"/>
<path d="M61.6245 94.8231C64.2079 94.8231 66.3677 93.0585 67.003 90.6728C65.6619 89.7834 63.7561 89.2188 61.6245 89.2188C59.4929 89.2188 57.5872 89.7834 56.2461 90.6728C56.8813 93.0585 59.0412 94.8231 61.6245 94.8231Z" fill="#573B38"/>
<path d="M107.191 80.5794C107.318 80.1135 107.403 79.6335 107.403 79.1253C107.403 76.0338 104.904 73.5352 101.813 73.5352C98.7213 73.5352 96.2227 76.0338 96.2227 79.1253C96.2227 79.6335 96.3073 80.1135 96.4344 80.5794C97.7755 79.69 99.6812 79.1253 101.813 79.1253C103.944 79.1253 105.85 79.69 107.191 80.5794Z" fill="#6D4A47"/>
<path d="M101.812 84.7293C104.395 84.7293 106.555 82.9647 107.19 80.579C105.849 79.6897 103.944 79.125 101.812 79.125C99.6804 79.125 97.7747 79.6897 96.4336 80.579C97.0688 82.9647 99.2287 84.7293 101.812 84.7293Z" fill="#573B38"/>
<path d="M92.8944 111.523C93.0215 111.057 93.1062 110.577 93.1062 110.069C93.1062 106.977 90.6075 104.479 87.516 104.479C84.4244 104.479 81.9258 106.977 81.9258 110.069C81.9258 110.577 82.0105 111.057 82.1375 111.523C83.4786 110.633 85.3844 110.069 87.516 110.069C89.6476 110.069 91.5533 110.633 92.8944 111.523Z" fill="#6D4A47"/>
<path d="M87.5151 115.659C90.0985 115.659 92.2583 113.894 92.8936 111.509C91.5525 110.619 89.6468 110.055 87.5151 110.055C85.3835 110.055 83.4778 110.619 82.1367 111.509C82.772 113.894 84.9318 115.659 87.5151 115.659Z" fill="#573B38"/>
<path opacity="0.5" d="M84.0833 118.299C84.0833 118.299 91.8192 120.162 90.0828 125.244C88.3324 130.326 82.7422 129.084 82.7422 129.084" stroke="#33081E" stroke-linecap="round" stroke-linejoin="round"/>
<path opacity="0.5" d="M109.482 105.141C109.482 105.141 105.952 99.2406 101.816 103.589C97.6801 107.936 104.386 108.586 104.386 108.586" stroke="#33081E" stroke-linecap="round" stroke-linejoin="round"/>
<path opacity="0.5" d="M86.9917 86.4366C86.9917 86.4366 80.2581 81.0017 76.7289 85.9708C73.1997 90.9398 76.009 93.4385 76.009 93.4385" stroke="#33081E" stroke-linecap="round" stroke-linejoin="round"/>
<path opacity="0.5" d="M120.619 92.0285C120.619 92.0285 118.911 86.4242 115.65 89.2334C112.389 92.0426 114.874 97.661 119.687 96.1646" stroke="#33081E" stroke-linecap="round" stroke-linejoin="round"/>
<path opacity="0.5" d="M123.809 107.047C123.809 107.781 123.216 108.36 122.496 108.36C121.776 108.36 121.184 107.767 121.184 107.047C121.184 106.327 121.776 105.734 122.496 105.734C123.216 105.734 123.809 106.327 123.809 107.047Z" stroke="#33081E" stroke-linecap="round" stroke-linejoin="round"/>
<path d="M97.4115 96.1628C97.4115 96.8263 96.8751 97.3627 96.2116 97.3627C95.5481 97.3627 95.0117 96.8263 95.0117 96.1628C95.0117 95.4993 95.5481 94.9629 96.2116 94.9629C96.8751 94.9629 97.4115 95.4993 97.4115 96.1628Z" fill="#FFEECA"/>
<path d="M82.1229 79.1396C82.1229 80.283 81.1912 81.2147 80.0478 81.2147C78.9044 81.2147 77.9727 80.283 77.9727 79.1396C77.9727 77.9962 78.9044 77.0645 80.0478 77.0645C81.1912 77.0645 82.1229 77.9962 82.1229 79.1396Z" fill="#FFEECA"/>
<path d="M80.0487 65.9267C80.0487 67.0702 79.117 68.0019 77.9736 68.0019C76.8301 68.0019 75.8984 67.0702 75.8984 65.9267C75.8984 64.7833 76.8301 63.8516 77.9736 63.8516C79.117 63.8516 80.0487 64.7833 80.0487 65.9267Z" fill="#FFEECA"/>
<path opacity="0.5" d="M95.7484 61.4093C95.7484 62.8633 94.5626 64.0491 93.1086 64.0491C91.6546 64.0491 90.4688 62.8633 90.4688 61.4093C90.4688 59.9553 91.6546 58.7695 93.1086 58.7695C94.5626 58.7695 95.7484 59.9553 95.7484 61.4093Z" stroke="#33081E" stroke-linecap="round" stroke-linejoin="round"/>
<path opacity="0.5" d="M65.5067 108.247C65.5067 108.784 65.0691 109.222 64.5326 109.222C63.9962 109.222 63.5586 108.784 63.5586 108.247C63.5586 107.711 63.9962 107.273 64.5326 107.273C65.0691 107.273 65.5067 107.711 65.5067 108.247Z" stroke="#33081E" stroke-linecap="round" stroke-linejoin="round"/>
<path opacity="0.5" d="M75.8986 111.466C75.8986 112.242 74.8398 112.863 73.5411 112.863C72.2423 112.863 71.1836 112.242 71.1836 111.466C71.1836 110.689 72.2423 110.068 73.5411 110.068C74.8398 110.068 75.8986 110.689 75.8986 111.466Z" stroke="#33081E" stroke-linecap="round" stroke-linejoin="round"/>
<path d="M80.0468 123.648C80.0468 125.06 78.9034 126.189 77.5058 126.189C76.1083 126.189 74.9648 125.046 74.9648 123.648C74.9648 122.251 76.1083 121.107 77.5058 121.107C78.9034 121.107 80.0468 122.251 80.0468 123.648Z" fill="#FFEECA"/>
<path opacity="0.5" d="M106.952 89.544C106.952 89.9816 106.599 89.2334 106.162 89.2334C105.724 89.2334 105.371 88.8805 105.371 88.4429C105.371 88.0053 105.724 87.6523 106.162 87.6523C106.599 87.6523 106.952 89.0922 106.952 89.5299V89.544Z" stroke="#33081E" stroke-linecap="round" stroke-linejoin="round"/>
<path opacity="0.5" d="M92.3302 85.6612C92.3302 86.0847 91.9773 86.4376 91.5538 86.4376C91.1303 86.4376 90.7773 86.0847 90.7773 85.6612C90.7773 85.2377 91.1303 84.8848 91.5538 84.8848C91.9773 84.8848 92.3302 85.2377 92.3302 85.6612Z" stroke="#33081E" stroke-linecap="round" stroke-linejoin="round"/>
<path opacity="0.5" d="M100.064 67.1688C100.064 67.6347 99.6972 68.0017 99.2313 68.0017C98.7655 68.0017 98.3984 67.6347 98.3984 67.1688C98.3984 66.703 98.7796 66.3359 99.2313 66.3359C99.683 66.3359 100.064 66.703 100.064 67.1688Z" stroke="#33081E" stroke-linecap="round" stroke-linejoin="round"/>
<path d="M83.2673 64.8387C83.2673 65.121 83.0414 65.361 82.745 65.361C82.4485 65.361 82.2227 65.1352 82.2227 64.8387C82.2227 64.5423 82.4485 64.3164 82.745 64.3164C83.0414 64.3164 83.2673 64.5423 83.2673 64.8387Z" stroke="#33081E" stroke-linecap="round" stroke-linejoin="round"/>
<path d="M73.5377 72.589C73.7872 72.589 73.9894 72.3868 73.9894 72.1373C73.9894 71.8878 73.7872 71.6855 73.5377 71.6855C73.2882 71.6855 73.0859 71.8878 73.0859 72.1373C73.0859 72.3868 73.2882 72.589 73.5377 72.589Z" stroke="#33081E" stroke-linecap="round" stroke-linejoin="round"/>
<path opacity="0.5" d="M67.9213 76.4851C68.7321 76.4851 69.3894 75.8278 69.3894 75.0169C69.3894 74.2061 68.7321 73.5488 67.9213 73.5488C67.1104 73.5488 66.4531 74.2061 66.4531 75.0169C66.4531 75.8278 67.1104 76.4851 67.9213 76.4851Z" stroke="#33081E" stroke-linecap="round" stroke-linejoin="round"/>
<path opacity="0.5" d="M81.9112 89.2329C81.9112 89.7552 81.4877 90.1788 80.9653 90.1788C80.443 90.1788 80.0195 89.7552 80.0195 89.2329C80.0195 88.7106 80.443 88.2871 80.9653 88.2871C81.4877 88.2871 81.9112 88.7106 81.9112 89.2329Z" stroke="#33081E" stroke-linecap="round" stroke-linejoin="round"/>
<path d="M105.74 120.331C105.74 120.755 105.387 121.108 104.964 121.108C104.54 121.108 104.188 120.755 104.188 120.331C104.188 119.908 104.54 119.555 104.964 119.555C105.387 119.555 105.74 119.908 105.74 120.331Z" stroke="#33081E" stroke-linecap="round" stroke-linejoin="round"/>
<path opacity="0.5" d="M109.48 64.8398C109.48 64.8398 116.835 63.6258 119.32 73.5639C121.804 83.502 127.606 89.3886 126.576 96.1787" stroke="#33081E" stroke-linecap="round" stroke-linejoin="round"/>
<path opacity="0.5" d="M115.593 109.207C115.593 109.207 112.064 115.912 109.48 115.658" stroke="#33081E" stroke-linecap="round" stroke-linejoin="round"/>
<path opacity="0.5" d="M109.48 121.108C111.344 121.771 110.257 124.298 114.167 119.555" stroke="#33081E" stroke-linecap="round" stroke-linejoin="round"/>
<path opacity="0.1" d="M104.385 77.2052C104.385 76.0053 103.227 75.0312 101.815 75.0312C100.404 75.0312 99.2461 76.0053 99.2461 77.2052C99.2461 78.4051 100.404 76.8805 101.815 76.8805C103.227 76.8805 104.385 78.4051 104.385 77.2052Z" fill="white"/>
<path opacity="0.1" d="M90.0877 108.135C90.0877 106.935 88.9301 105.961 87.5184 105.961C86.1068 105.961 84.9492 106.935 84.9492 108.135C84.9492 109.335 86.1068 107.81 87.5184 107.81C88.9301 107.81 90.0877 109.335 90.0877 108.135Z" fill="white"/>
<path opacity="0.1" d="M64.197 87.299C64.197 86.099 63.0395 85.125 61.6278 85.125C60.2162 85.125 59.0586 86.099 59.0586 87.299C59.0586 88.4989 60.2162 86.9743 61.6278 86.9743C63.0395 86.9743 64.197 88.4989 64.197 87.299Z" fill="white"/>
<path d="M61.6253 83.6426C58.5338 83.6426 56.0352 86.1412 56.0352 89.2327C56.0352 89.7409 56.1199 90.2209 56.2469 90.6868C56.8822 93.0725 59.042 94.8371 61.6253 94.8371C64.2087 94.8371 66.3685 93.0725 67.0038 90.6868C67.1308 90.2209 67.2155 89.7409 67.2155 89.2327C67.2155 86.1412 64.7169 83.6426 61.6253 83.6426Z" stroke="#33081E" stroke-miterlimit="10"/>
<path d="M101.813 73.5352C98.7213 73.5352 96.2227 76.0338 96.2227 79.1253C96.2227 79.6335 96.3073 80.1135 96.4344 80.5794C97.0696 82.9651 99.2295 84.7297 101.813 84.7297C104.396 84.7297 106.556 82.9651 107.191 80.5794C107.318 80.1135 107.403 79.6335 107.403 79.1253C107.403 76.0338 104.904 73.5352 101.813 73.5352Z" stroke="#33081E" stroke-miterlimit="10"/>
<path d="M87.516 104.465C84.4244 104.465 81.9258 106.963 81.9258 110.055C81.9258 110.563 82.0105 111.043 82.1375 111.509C82.7728 113.895 84.9326 115.659 87.516 115.659C90.0993 115.659 92.2592 113.895 92.8944 111.509C93.0215 111.043 93.1062 110.563 93.1062 110.055C93.1062 106.963 90.6075 104.465 87.516 104.465Z" stroke="#33081E" stroke-miterlimit="10"/>
<path d="M40.8456 167.721C32.5168 152.701 28.1406 136.481 28.1406 122.773" stroke="#1A1919" stroke-linecap="round" stroke-linejoin="round"/>
<path d="M86.9892 210C81.9919 208.024 77.2911 205.582 72.8867 202.744" stroke="#1A1919" stroke-linecap="round" stroke-linejoin="round"/>
<path d="M107.447 215.011C104.2 214.672 101.038 214.136 97.9609 213.416" stroke="#1A1919" stroke-linecap="round" stroke-linejoin="round"/>
<path d="M203.062 118.496C203.895 125.046 204.092 130.453 204.092 133.883C204.092 147.703 192.418 186.03 158.99 204.819C153.273 208.038 146.906 210.678 139.848 212.527" stroke="#1A1919" stroke-linecap="round" stroke-linejoin="round"/>
<path d="M153.539 44.8223C169.999 51.5418 181.137 62.708 188.661 75.0177C192.487 81.2855 195.381 87.8497 197.569 94.2869C198.331 96.5315 199.009 98.7619 199.602 100.95" stroke="#1A1919" stroke-linecap="round" stroke-linejoin="round"/>
<path d="M78.5781 45.7946C81.4015 44.5382 84.3801 43.4089 87.4998 42.4348C96.0404 39.7668 105.724 38.2422 116.693 38.2422" stroke="#1A1919" stroke-linecap="round" stroke-linejoin="round"/>
<path d="M51.8555 65.3476C54.5376 62.3549 57.5021 59.4751 60.7631 56.793" stroke="#1A1919" stroke-linecap="round" stroke-linejoin="round"/>
<path d="M156.547 161.495C157.396 161.495 158.085 160.806 158.085 159.957C158.085 159.107 157.396 158.418 156.547 158.418C155.697 158.418 155.008 159.107 155.008 159.957C155.008 160.806 155.697 161.495 156.547 161.495Z" fill="#33081E"/>
<path d="M151.56 155.932C151.856 155.932 152.096 155.692 152.096 155.396C152.096 155.1 151.856 154.859 151.56 154.859C151.264 154.859 151.023 155.1 151.023 155.396C151.023 155.692 151.264 155.932 151.56 155.932Z" fill="#33081E"/>
<path d="M162.531 154.861C162.531 155.242 162.22 155.539 161.853 155.539C161.486 155.539 161.176 155.228 161.176 154.861C161.176 154.494 161.486 154.184 161.853 154.184C162.22 154.184 162.531 154.494 162.531 154.861Z" fill="#33081E"/>
<path d="M128.552 62.4809C128.552 62.7632 128.326 62.9891 128.043 62.9891C127.761 62.9891 127.535 62.7632 127.535 62.4809C127.535 62.1985 127.761 61.9727 128.043 61.9727C128.326 61.9727 128.552 62.1985 128.552 62.4809Z" fill="#33081E"/>
<path d="M129.034 59.0093C129.034 59.2775 128.822 59.4892 128.554 59.4892C128.286 59.4892 128.074 59.2775 128.074 59.0093C128.074 58.7411 128.286 58.5293 128.554 58.5293C128.822 58.5293 129.034 58.7411 129.034 59.0093Z" fill="#33081E"/>
<path d="M123.977 57.4555C123.977 57.6391 123.836 57.7802 123.653 57.7802C123.469 57.7802 123.328 57.6391 123.328 57.4555C123.328 57.272 123.469 57.1309 123.653 57.1309C123.836 57.1309 123.977 57.272 123.977 57.4555Z" fill="#33081E"/>
<path d="M123.982 60.4209C123.982 60.7738 123.7 61.0702 123.333 61.0702C122.966 61.0702 122.684 60.7879 122.684 60.4209C122.684 60.0538 122.966 59.7715 123.333 59.7715C123.7 59.7715 123.982 60.0538 123.982 60.4209Z" fill="#33081E"/>
<path d="M131.643 60.0821C131.814 60.0821 131.953 59.943 131.953 59.7715C131.953 59.6 131.814 59.4609 131.643 59.4609C131.471 59.4609 131.332 59.6 131.332 59.7715C131.332 59.943 131.471 60.0821 131.643 60.0821Z" fill="#33081E"/>
<path d="M129.381 54.8433C129.856 54.8433 130.242 54.4578 130.242 53.9822C130.242 53.5066 129.856 53.1211 129.381 53.1211C128.905 53.1211 128.52 53.5066 128.52 53.9822C128.52 54.4578 128.905 54.8433 129.381 54.8433Z" fill="#33081E"/>
<path d="M54.7042 135.182C54.7042 135.436 54.5066 135.634 54.2525 135.634C53.9984 135.634 53.8008 135.436 53.8008 135.182C53.8008 134.928 53.9984 134.73 54.2525 134.73C54.5066 134.73 54.7042 134.928 54.7042 135.182Z" fill="#33081E"/>
<path d="M52.6039 133.163C53.0561 133.163 53.4227 132.796 53.4227 132.344C53.4227 131.892 53.0561 131.525 52.6039 131.525C52.1517 131.525 51.7852 131.892 51.7852 132.344C51.7852 132.796 52.1517 133.163 52.6039 133.163Z" fill="#33081E"/>
<path d="M50.7267 130.27C51.3114 130.27 51.7855 129.796 51.7855 129.211C51.7855 128.626 51.3114 128.152 50.7267 128.152C50.142 128.152 49.668 128.626 49.668 129.211C49.668 129.796 50.142 130.27 50.7267 130.27Z" fill="#33081E"/>
<path d="M49.8783 136.481C50.346 136.481 50.7252 136.102 50.7252 135.634C50.7252 135.166 50.346 134.787 49.8783 134.787C49.4105 134.787 49.0312 135.166 49.0312 135.634C49.0312 136.102 49.4105 136.481 49.8783 136.481Z" fill="#33081E"/>
<path d="M52.6084 138.88C52.6084 139.149 52.3966 139.36 52.1284 139.36C51.8602 139.36 51.6484 139.149 51.6484 138.88C51.6484 138.612 51.8602 138.4 52.1284 138.4C52.3966 138.4 52.6084 138.612 52.6084 138.88Z" fill="#33081E"/>
<path d="M56.5537 138.88C56.5537 139.149 56.3419 139.36 56.0737 139.36C55.8055 139.36 55.5938 139.149 55.5938 138.88C55.5938 138.612 55.8055 138.4 56.0737 138.4C56.3419 138.4 56.5537 138.612 56.5537 138.88Z" fill="#33081E"/>
<path d="M58.8873 137.045C58.8873 137.426 58.5768 137.737 58.1956 137.737C57.8145 137.737 57.5039 137.426 57.5039 137.045C57.5039 136.664 57.8145 136.354 58.1956 136.354C58.5768 136.354 58.8873 136.664 58.8873 137.045Z" fill="#33081E"/>
<path d="M163.491 188.302C163.491 188.937 162.969 189.46 162.333 189.46C161.698 189.46 161.176 188.937 161.176 188.302C161.176 187.667 161.698 187.145 162.333 187.145C162.969 187.145 163.491 187.667 163.491 188.302Z" fill="#33081E"/>
<path d="M150.253 190.222C150.253 190.518 150.013 190.758 149.716 190.758C149.42 190.758 149.18 190.518 149.18 190.222C149.18 189.926 149.42 189.686 149.716 189.686C150.013 189.686 150.253 189.926 150.253 190.222Z" fill="#33081E"/>
<path d="M140.553 195.771C140.943 195.771 141.259 195.455 141.259 195.065C141.259 194.675 140.943 194.359 140.553 194.359C140.164 194.359 139.848 194.675 139.848 195.065C139.848 195.455 140.164 195.771 140.553 195.771Z" fill="#33081E"/>
<path d="M157.677 175.655C157.677 176.036 157.367 176.361 156.971 176.361C156.576 176.361 156.266 176.05 156.266 175.655C156.266 175.26 156.576 174.949 156.971 174.949C157.367 174.949 157.677 175.26 157.677 175.655Z" fill="#33081E"/>
<path d="M173.741 167.439C173.741 168.173 173.134 168.78 172.4 168.78C171.666 168.78 171.059 168.173 171.059 167.439C171.059 166.705 171.666 166.098 172.4 166.098C173.134 166.098 173.741 166.705 173.741 167.439Z" fill="#33081E"/>
<path d="M188.732 156.907C188.732 157.74 188.054 158.417 187.221 158.417C186.389 158.417 185.711 157.74 185.711 156.907C185.711 156.074 186.389 155.396 187.221 155.396C188.054 155.396 188.732 156.074 188.732 156.907Z" fill="#33081E"/>
<path d="M54.8195 176.064C54.8195 176.219 54.6924 176.36 54.523 176.36C54.3536 176.36 54.2266 176.233 54.2266 176.064C54.2266 175.895 54.3536 175.768 54.523 175.768C54.6924 175.768 54.8195 175.895 54.8195 176.064Z" fill="#33081E"/>
<path d="M172.678 69.3568C172.678 70.0062 172.156 70.5143 171.521 70.5143C170.886 70.5143 170.363 69.992 170.363 69.3568C170.363 68.7215 170.886 68.1992 171.521 68.1992C172.156 68.1992 172.678 68.7215 172.678 69.3568Z" fill="#33081E"/>
<path d="M50.7252 67.4779C50.7252 67.9437 50.3441 68.3249 49.8783 68.3249C49.4124 68.3249 49.0312 67.9437 49.0312 67.4779C49.0312 67.012 49.4124 66.6309 49.8783 66.6309C50.3441 66.6309 50.7252 67.012 50.7252 67.4779Z" fill="#1A1919"/>
<path d="M203.212 115.659C203.212 116.11 202.845 116.477 202.393 116.477C201.941 116.477 201.574 116.11 201.574 115.659C201.574 115.207 201.941 114.84 202.393 114.84C202.845 114.84 203.212 115.207 203.212 115.659Z" fill="#1A1919"/>
</svg>
