<svg width="50" height="50" viewBox="0 0 50 50" fill="none" xmlns="http://www.w3.org/2000/svg">
<mask id="mask0_407_42575" style="mask-type:luminance" maskUnits="userSpaceOnUse" x="2" y="7" width="46" height="36">
<path d="M2.99805 7.61914H47.001V42.3806H2.99805V7.61914Z" fill="white"/>
</mask>
<g mask="url(#mask0_407_42575)">
<path d="M9.88255 7.64258C8.234 7.64258 7.37798 7.95168 6.96521 8.32356C6.55273 8.69578 6.38351 9.24884 6.38351 10.2161V24.5713V24.5904H7.22825V24.1459C7.22825 22.8955 7.9239 21.8099 8.94056 21.2237C8.93954 21.2111 8.93885 21.1981 8.93885 21.1855V15.2072C8.93885 14.8114 8.91327 14.0925 9.20804 13.3576C9.50417 12.6227 10.3359 11.8899 11.456 11.8899H21.6076C22.7004 11.8899 23.5427 12.5047 23.8685 13.1955C24.1951 13.8864 24.1701 14.5585 24.1695 14.9311L24.1568 20.7607H25.861V15.2074C25.861 14.8117 25.8354 14.0928 26.1302 13.3579C26.4263 12.623 27.2581 11.8901 28.3782 11.8901H38.5358C39.6286 11.8901 40.4645 12.5049 40.7903 13.1958C41.1168 13.8867 41.0919 14.5587 41.0912 14.9313L41.0786 21.1857C41.0775 21.2017 41.0769 21.2178 41.0755 21.2338C42.083 21.8227 42.7711 22.9024 42.7711 24.1461V24.5906H43.6159V24.5715V10.5918C43.6159 9.42093 43.4248 8.74229 43.0226 8.34245C42.62 7.94226 41.8159 7.64339 40.2225 7.64339L9.88255 7.64258ZM11.4543 13.5763C10.9013 13.5763 10.8955 13.6862 10.7733 13.9895C10.6519 14.2928 10.6294 14.812 10.6294 15.2074V20.7611H17.4985C18.6015 20.7866 18.6015 22.428 17.4985 22.4536H10.6113C9.65911 22.4536 8.91872 23.194 8.91872 24.1462V25.3908C8.92111 25.4259 8.92111 25.4614 8.91872 25.4965V33.03C8.91872 33.9822 9.65907 34.7226 10.6113 34.7226H39.3856C40.3377 34.7226 41.0781 33.9822 41.0781 33.03V24.1466C41.0781 23.1944 40.3378 22.454 39.3856 22.454H20.7698C19.6156 22.4796 19.6156 20.7359 20.7698 20.7615H22.4624L22.475 14.9271C22.4757 14.5681 22.443 14.1451 22.3379 13.9206C22.2321 13.6961 22.2137 13.5767 21.6074 13.5767L11.4543 13.5763ZM28.3774 13.5763C27.8244 13.5763 27.8254 13.6862 27.7029 13.9895C27.5814 14.2928 27.5524 14.812 27.5524 15.2074V20.7611H39.3853L39.3979 14.9266C39.3986 14.5677 39.3658 14.1447 39.2608 13.9202C39.155 13.6957 39.1434 13.5763 38.5368 13.5763H28.3774ZM4.69069 26.2834C3.73851 26.2834 2.99813 27.0238 2.99813 27.976V37.2647C2.99813 37.7481 3.3642 38.1094 3.84765 38.1094H46.1579C46.6414 38.1094 47.001 37.7484 47.001 37.2647V27.976C47.001 27.0238 46.2606 26.2834 45.3084 26.2834H42.7714V33.0301C42.7714 34.8909 41.2471 36.4153 39.3863 36.4153H10.612C8.75122 36.4153 7.22687 34.8909 7.22687 33.0301V26.2834H4.69069ZM2.99813 39.643V40.6628C2.99813 41.615 3.73847 42.357 4.69069 42.357H45.3083C46.2605 42.357 47.0009 41.6153 47.0009 40.6628V39.6448C46.7354 39.7399 46.4543 39.8017 46.1578 39.8017H3.84757C3.54904 39.8017 3.26553 39.7393 2.99805 39.6431L2.99813 39.643Z" fill="#C40D3C"/>
</g>
</svg>
