<svg width="50" height="50" viewBox="0 0 50 50" fill="none" xmlns="http://www.w3.org/2000/svg">
<path d="M9.22054 41.4364H40.7791H40.7788C40.9531 41.4364 41.1205 41.3674 41.2438 41.2438C41.367 41.1205 41.4364 40.9534 41.4364 40.7787V38.1489C41.4364 37.9745 41.367 37.8074 41.2438 37.6842C41.1205 37.5606 40.9531 37.4916 40.7788 37.4916H38.8066V17.7679H40.7788C41.0446 17.7679 41.2846 17.6077 41.3861 17.3621C41.4879 17.1164 41.4318 16.8337 41.2438 16.6457L33.3542 8.75612C33.231 8.63291 33.0639 8.56348 32.8896 8.56348H17.1103C16.936 8.56348 16.7689 8.6329 16.6457 8.75612L8.75611 16.6457C8.56805 16.8337 8.51197 17.1164 8.61383 17.3621C8.7153 17.6077 8.95524 17.7679 9.22113 17.7679H11.1933V37.4916H9.22113C9.0468 37.4916 8.87934 37.5606 8.75612 37.6842C8.63291 37.8074 8.56348 37.9745 8.56348 38.1492V40.7791V40.7787C8.56348 41.1419 8.85797 41.4364 9.22113 41.4364H9.22054ZM32.8895 20.3973C33.4869 20.3958 34.0526 20.6655 34.4272 21.1309C34.8018 21.5967 34.9445 22.2071 34.8148 22.7903C34.6854 23.3735 34.2979 23.8664 33.7615 24.1296C33.4915 24.2673 33.1928 24.3402 32.8895 24.3421C32.1845 24.3421 31.5333 23.9664 31.1813 23.356C30.8288 22.7456 30.8288 21.9938 31.1813 21.3834C31.5334 20.7734 32.1845 20.3973 32.8895 20.3973ZM24.9996 20.3973C25.5229 20.3973 26.0246 20.6052 26.3942 20.9753C26.7642 21.3449 26.9721 21.8465 26.9721 22.3699C26.9721 22.8929 26.7642 23.3945 26.3942 23.7645C26.0245 24.1342 25.5229 24.3421 24.9996 24.3421C24.4766 24.3421 23.9749 24.1342 23.6049 23.7645C23.2353 23.3945 23.0274 22.8929 23.0274 22.3695C23.0278 21.8469 23.236 21.3453 23.6057 20.9757C23.9753 20.606 24.477 20.3981 24.9996 20.3973ZM21.7124 36.6151V31.5744C21.7128 31.0518 21.9211 30.5502 22.2907 30.1805C22.6604 29.8109 23.162 29.603 23.685 29.6022H26.3149H26.3145C26.8375 29.603 27.3391 29.8109 27.7087 30.1805C28.0784 30.5502 28.2867 31.0518 28.287 31.5744V37.4914L21.7124 37.4918L21.7124 36.6151ZM17.11 20.3973C17.815 20.3973 18.4661 20.7735 18.8182 21.3835C19.1707 21.9938 19.1707 22.7457 18.8182 23.356C18.4661 23.9664 17.815 24.3422 17.11 24.3422C16.8067 24.3403 16.508 24.2674 16.2376 24.1297C15.7012 23.8661 15.314 23.3736 15.1843 22.7903C15.055 22.2071 15.1977 21.5967 15.5723 21.1309C15.9469 20.6656 16.5126 20.3958 17.11 20.3973Z" fill="#C40D3C"/>
</svg>
