<svg width="50" height="50" viewBox="0 0 50 50" fill="none" xmlns="http://www.w3.org/2000/svg">
<path d="M38.001 23.003C38.0016 23.7985 38.3184 24.5608 38.8806 25.1236C39.4428 25.6858 40.2058 26.0021 41.0012 26.0026C41.4469 26.0003 41.8861 25.8976 42.2864 25.7027L38.3015 21.7178C38.106 22.1181 38.0033 22.5574 38.001 23.003Z" fill="#C40D3C"/>
<path d="M38.001 37.0016C38.0022 37.7971 38.3184 38.5594 38.8806 39.1222C39.4428 39.6845 40.2058 40.0007 41.0012 40.0018C41.4469 39.9995 41.8861 39.8968 42.2864 39.7007L38.3015 35.7158V35.7164C38.106 36.1167 38.0033 36.556 38.001 37.0016Z" fill="#C40D3C"/>
<path d="M40.9996 34.002C40.554 34.0043 40.1142 34.107 39.7139 34.3025L43.6988 38.2874C43.8943 37.8865 43.997 37.4473 43.9993 37.0016C43.9987 36.2062 43.6819 35.4438 43.1197 34.8816C42.5575 34.3188 41.795 34.0025 40.9996 34.002Z" fill="#C40D3C"/>
<path d="M40.9996 20.002C40.554 20.0043 40.1142 20.107 39.7139 20.3025L43.6988 24.2874V24.2868C43.8943 23.8865 43.997 23.4473 43.9993 23.0016C43.9982 22.2062 43.6819 21.4438 43.1197 20.8816C42.5575 20.3194 41.7944 20.0025 40.9996 20.002Z" fill="#C40D3C"/>
<path d="M43.2408 16.6208H28.7235C28.6137 16.0961 28.3941 15.6005 28.0789 15.1677L37.5 10.4455C37.6817 10.3557 37.8202 10.197 37.8846 10.0047C37.9489 9.8129 37.9344 9.60249 37.844 9.42126C37.7536 9.23958 37.5944 9.10211 37.4026 9.03845C37.2103 8.9748 37.0009 8.99071 36.8205 9.08221L26.8539 14.0778C26.2916 13.7476 25.6519 13.5734 25.0005 13.5734C24.3488 13.5734 23.709 13.7476 23.1467 14.0778L13.18 9.08221C12.8052 8.897 12.351 9.05039 12.164 9.42523C11.9771 9.80008 12.1274 10.2558 12.5001 10.4455L21.9212 15.1678H21.9217C21.6064 15.6005 21.3868 16.096 21.277 16.6208H6.75978C6.55826 16.6208 6.36512 16.7008 6.22269 16.844C6.08026 16.9868 6 17.1804 6 17.3824V40.2379C6 40.4399 6.08026 40.634 6.22269 40.7768C6.36512 40.9195 6.55827 41 6.75978 41H43.2402C43.6596 41 44 40.6587 44 40.2379V17.3824C44 16.9616 43.6596 16.6208 43.2402 16.6208H43.2408ZM30.3209 36.4288H10.5601V21.1914H30.3198L30.3209 36.4288ZM40.7382 36.652H40.7377C40.8811 36.7948 40.9618 36.9884 40.9622 37.1909C40.9622 37.3933 40.8824 37.5878 40.7395 37.7306C40.5966 37.8738 40.403 37.9543 40.2011 37.9538C39.9991 37.9534 39.8055 37.8725 39.6631 37.7293L39.2526 37.3177C38.2723 37.9702 37.0451 38.1298 35.9312 37.7492C34.8174 37.369 33.9425 36.492 33.5632 35.3754C33.1835 34.2588 33.3427 33.0286 33.9936 32.0459L33.5831 31.6343C33.2867 31.3368 33.2872 30.8546 33.5835 30.5575C33.8803 30.26 34.3609 30.26 34.6577 30.5571L35.0682 30.9686V30.9682C36.0485 30.3157 37.2757 30.1561 38.3896 30.5367C39.5039 30.9169 40.3787 31.7939 40.7579 32.9106C41.1371 34.0276 40.9784 35.2573 40.3271 36.2405L40.7382 36.652ZM40.3276 25.5744L40.7382 25.9859H40.7377C40.8811 26.1283 40.9613 26.3223 40.9618 26.5248C40.9622 26.7272 40.8819 26.9213 40.7391 27.0645C40.5966 27.2073 40.4026 27.2878 40.2011 27.2873C39.9991 27.2873 39.8055 27.2064 39.6631 27.0632L39.2526 26.6517C38.2723 27.3041 37.0451 27.4632 35.9312 27.0831C34.8174 26.7029 33.9425 25.826 33.5632 24.7093C33.1835 23.5922 33.3427 22.3625 33.9936 21.3793L33.5831 20.9678V20.9682C33.4402 20.8255 33.3599 20.6314 33.3599 20.4294C33.3599 20.2269 33.4397 20.0333 33.5826 19.8901C33.725 19.7473 33.9186 19.6669 34.1201 19.6673C34.3221 19.6673 34.5152 19.7478 34.6577 19.891L35.0682 20.3025V20.3021C36.0485 19.6496 37.2757 19.4901 38.3896 19.8707C39.5039 20.2508 40.3787 21.1278 40.7579 22.2445C41.1371 23.3615 40.978 24.5912 40.3271 25.5744H40.3276Z" fill="#C40D3C"/>
</svg>
