<svg width="50" height="50" viewBox="0 0 50 50" fill="none" xmlns="http://www.w3.org/2000/svg">
<mask id="mask0_407_42567" style="mask-type:luminance" maskUnits="userSpaceOnUse" x="4" y="8" width="42" height="34">
<path d="M4.99805 8.88184H45.001V41.1186H4.99805V8.88184Z" fill="white"/>
</mask>
<g mask="url(#mask0_407_42567)">
<path d="M38.5682 8.92188C38.4919 8.92188 38.4159 8.93552 38.3436 8.95816C37.8176 9.01958 37.3632 9.27639 37.0394 9.61787C36.6694 10.0081 36.4271 10.5095 36.4271 11.0688V20.3539H34.2467C33.909 16.8742 31.1247 14.062 27.4769 13.1669C27.3512 11.908 26.2858 10.9055 24.9965 10.9055C23.7079 10.9055 22.6474 11.907 22.5218 13.1653C18.8727 14.0592 16.0893 16.8724 15.7519 20.3536H13.5715V11.0684C13.5715 10.5092 13.3289 10.0083 12.9592 9.61756C12.5892 9.22706 12.0554 8.93272 11.4304 8.93272C10.8055 8.93272 10.2713 9.22706 9.90165 9.61756C9.53163 10.0084 9.28506 10.5092 9.28506 11.0684V33.924H7.32362C6.09259 33.924 4.99805 34.8426 4.99805 36.0653C4.99805 37.2879 6.09259 38.2051 7.32362 38.2051H9.14118C9.12505 38.3214 9.10644 38.4374 9.10644 38.5581C9.10644 39.9302 10.2327 41.0636 11.6048 41.0636C12.9769 41.0636 14.1046 39.9303 14.1046 38.5581C14.1046 38.4371 14.0857 38.3217 14.0684 38.2051H35.7281C35.7092 38.3282 35.689 38.452 35.689 38.5804C35.689 39.9525 36.8168 41.0787 38.1889 41.0787C39.561 41.0787 40.6872 39.9525 40.6872 38.5804C40.6872 38.4523 40.6683 38.3282 40.6497 38.2051H42.6754C43.9064 38.2051 45.0009 37.2876 45.0009 36.0653C45.0009 34.8427 43.9064 33.924 42.6754 33.924H40.7139V16.7837C41.6314 16.7843 42.7222 16.7859 43.5724 16.7784V18.207C43.5506 19.1813 45.023 19.1813 45.0009 18.207V16.7576C45.0009 16.6621 45.0025 16.5322 44.9687 16.3516C44.9352 16.1714 44.839 15.923 44.652 15.745C44.278 15.3886 43.8329 15.3545 43.2389 15.3545H40.7139V11.069C40.7139 10.8156 40.6571 10.5764 40.5672 10.3519H43.572V11.7805C43.5503 12.7547 45.0227 12.7547 45.0006 11.7805V10.3311C45.0006 10.2356 45.0022 10.1056 44.9683 9.92509C44.9348 9.74489 44.8387 9.49645 44.6517 9.31842C44.2776 8.96174 43.8326 8.92235 43.2386 8.92235L38.5682 8.92188ZM24.9962 12.334C25.4121 12.334 25.7639 12.5647 25.9435 12.9047C25.6318 12.8764 25.3157 12.8619 24.9962 12.8615C24.6783 12.8615 24.3635 12.8752 24.0533 12.9034C24.2314 12.5644 24.5809 12.3343 24.9962 12.3343V12.334ZM13.5712 21.7819H36.4268V23.2104H13.5712V21.7819ZM7.3231 35.3523H42.6747C43.2243 35.3523 43.5717 35.7049 43.5717 36.065C43.5717 36.4251 43.2243 36.7821 42.6747 36.7821H39.9965C39.9674 36.7799 39.9379 36.7793 39.9084 36.7805C39.4587 36.35 38.8546 36.0802 38.1883 36.0802C37.5218 36.0802 36.9151 36.3497 36.4654 36.7805H13.3463C12.8947 36.3379 12.2809 36.0594 11.6038 36.0594C10.9246 36.0594 10.3052 36.3364 9.85294 36.7821H7.32235C6.77275 36.7821 6.42536 36.4251 6.42536 36.065C6.42536 35.7049 6.77274 35.3523 7.32235 35.3523L7.3231 35.3523ZM11.6042 37.488C12.2044 37.488 12.6743 37.9579 12.6743 38.5581C12.6743 39.1583 12.2044 39.6337 11.6042 39.6337C11.0041 39.6337 10.5342 39.1582 10.5342 38.5581C10.5342 37.9579 11.004 37.488 11.6042 37.488ZM38.1884 37.5097C38.7886 37.5097 39.2641 37.9808 39.2641 38.581C39.2641 39.1811 38.7886 39.6511 38.1884 39.6511C37.5883 39.6511 37.1171 39.1812 37.1171 38.581C37.1171 37.9808 37.5883 37.5097 38.1884 37.5097Z" fill="#C40D3C"/>
</g>
</svg>
