<svg width="56" height="56" viewBox="0 0 56 56" fill="none" xmlns="http://www.w3.org/2000/svg">
<g clip-path="url(#clip0_494_30356)">
<circle cx="28" cy="28" r="27.75" stroke="#7ABACB" stroke-width="0.5"/>
<circle cx="28" cy="28" r="25" fill="#7ABACB"/>
<path d="M24.675 18.0019C25.0874 18.094 25.5026 18.1704 25.9086 18.2914C26.7232 18.5344 27.4894 18.9263 28.3105 19.1498C29.9341 19.592 31.3883 19.6367 32.9803 20.3572C34.4159 21.0071 36.7908 22.3263 36.5292 24.1892C37.0859 24.542 38.3604 25.055 38.4405 25.7998C38.6555 27.8079 35.3506 26.3984 34.3898 26.3351C33.4737 26.2755 32.4478 26.7419 31.514 26.8089C30.6947 26.8676 29.8075 26.7885 28.991 26.7214C28.7704 27.3443 28.5302 27.954 28.1234 28.4819C27.6532 29.0926 26.1813 30.1809 25.4757 30.5133C25.214 30.6362 25.0009 30.6827 24.7588 30.4854C24.2728 30.0888 24.8826 29.4306 25.0493 28.9697C25.1005 28.8273 25.2317 28.4652 25.2317 28.3357V26.9821C24.2719 27.2875 23.2394 27.7278 22.5989 28.5331C21.7759 29.5684 20.9213 32.0978 21.2639 33.3854C21.4054 33.916 21.7499 33.6917 22.2079 33.728C22.8345 33.7773 23.3363 33.89 23.8883 34.1925C24.3315 34.4355 25.5008 35.1729 24.8249 35.7473C24.6043 35.9344 23.7906 35.9298 23.4303 36.0256C22.9843 36.1448 22.5877 36.4278 22.1669 36.5647C21.9826 36.6243 21.5544 36.6438 21.4603 36.7155C21.4017 36.7602 21.2807 37.0376 21.1997 37.1419C20.5815 37.9379 19.658 37.8653 19.1198 38.7962C18.8713 39.2273 18.8471 39.8166 18.3704 40H18.1135C17.5186 39.7728 17.5595 38.7115 17.5968 38.1725C17.675 37.0376 18.2382 36.263 18.6478 35.2725C19.1217 34.1246 18.6544 32.8985 18.5426 31.6854C18.3881 30.005 18.3993 28.1803 18.8117 26.5417C19.4708 23.9248 21.3244 21.7519 23.6016 20.3852C23.1091 19.9364 22.422 19.7735 21.8029 19.5668C20.9111 18.6787 22.5905 18.2793 23.2152 18.1061L23.8176 18H24.675V18.0019Z" fill="white"/>
<circle opacity="0.5" cx="28" cy="28" r="21.75" stroke="white" stroke-width="0.5"/>
</g>
<defs>
<clipPath id="clip0_494_30356">
<rect width="56" height="56" fill="white"/>
</clipPath>
</defs>
</svg>
