<svg width="56" height="56" viewBox="0 0 56 56" fill="none" xmlns="http://www.w3.org/2000/svg">
<g clip-path="url(#clip0_494_30370)">
<circle cx="28" cy="28" r="27.75" stroke="#B49A37" stroke-width="0.5"/>
<circle cx="28" cy="28" r="25" fill="#B49A37"/>
<circle opacity="0.5" cx="28" cy="28" r="21.75" stroke="white" stroke-width="0.5"/>
<path d="M20.0588 35.8244C19.6397 35.4717 19.2953 35.1804 18.9997 34.9317C19.7534 33.8448 20.4486 32.8091 21.1811 31.8006C21.8097 30.9352 22.7014 30.6405 23.65 31.0391C24.6408 31.4548 25.5439 31.4939 26.4958 30.879C27.0805 30.5008 27.7741 30.31 28.401 30.0425C28.4514 30.0885 28.4871 30.1038 28.4904 30.126C28.8136 32.0544 30.2625 32.5961 31.7747 33.0237C32.6193 33.2622 33.3129 33.6421 33.714 34.5126C33.8018 34.7017 34.0665 34.8022 34.2501 34.9436C34.393 34.7239 34.6009 34.5228 34.6642 34.2792C34.9355 33.2367 34.4677 32.1754 33.537 31.6234C32.348 30.9164 32.0946 30.0595 32.7476 28.7802C32.8532 28.5724 33.1261 28.4071 33.3535 28.3304C34.4287 27.9676 35.5008 27.569 36.602 27.3288C37.2533 27.1874 37.9908 27.1925 38.6324 27.3628C39.3324 27.5485 39.6037 27.017 39.9773 26.7002C40.0666 26.6252 39.8782 25.9796 39.6654 25.7581C38.967 25.0341 38.3205 24.201 37.255 24.0188C36.4266 23.8774 35.6015 23.7292 34.7763 23.5707C34.0925 23.4396 33.4184 23.2454 32.7314 23.1585C31.9225 23.058 31.1022 23.0018 30.2868 23C28.8948 22.9966 27.4914 23.1721 26.1108 23.0477C24.3046 22.8842 22.6365 23.1943 21.0008 23.9762C19.7355 24.5809 18.8617 25.5673 18.186 26.7938C18.1405 26.8773 18.1551 26.9966 18.1275 27.2197C18.4994 27.0852 18.7853 26.9812 19.1313 26.8552C19.2888 29.4531 18.7723 31.8125 17.2926 33.884C16.9125 34.4155 16.8735 34.8022 17.3495 35.269C18.0771 35.9811 18.886 36.1872 20.0571 35.8244H20.0588Z" fill="white"/>
<path d="M24.4925 31.7505C23.4727 31.4543 22.4529 30.6999 21.6 31.7505C21.9708 32.8293 22.286 33.8286 22.672 34.8015C22.758 35.0182 23.085 35.2681 23.3159 35.283C24.1941 35.3392 25.0774 35.3061 26.2 35.3061C25.8865 35.0414 25.7415 34.818 25.5561 34.7783C24.5886 34.5732 24.4959 33.8683 24.4925 33.0956C24.4908 32.6622 24.4925 32.2287 24.4925 31.7522V31.7505Z" fill="white"/>
<path d="M31.4571 35.1218C30.6185 34.7551 30.2821 34.205 30.6952 33.423C30.0302 33.123 29.431 32.8502 28.8286 32.5789C28.935 33.3139 29.0288 34.0959 29.1759 34.8657C29.2025 35.0036 29.4372 35.1824 29.5952 35.2021C30.1538 35.2734 30.7218 35.2825 31.285 35.3158C31.3414 35.2506 31.3993 35.187 31.4556 35.1218H31.4571Z" fill="white"/>
</g>
<defs>
<clipPath id="clip0_494_30370">
<rect width="56" height="56" fill="white"/>
</clipPath>
</defs>
</svg>
