<svg width="56" height="56" viewBox="0 0 56 56" fill="none" xmlns="http://www.w3.org/2000/svg">
<g clip-path="url(#clip0_494_30322)">
<circle cx="28" cy="28" r="27.75" stroke="#A3AC6F" stroke-width="0.5"/>
<circle cx="28" cy="28" r="25" fill="#4D634B"/>
<circle opacity="0.5" cx="28" cy="28" r="21.75" stroke="white" stroke-width="0.5"/>
<path d="M16.0252 29.1364L18.6543 22.104H20.441L23.0632 29.1364H21.4124L19.9586 24.9501C19.9315 24.8781 19.8907 24.7484 19.8364 24.5538C19.782 24.3593 19.7209 24.1575 19.6665 23.9413C19.6054 23.7252 19.5714 23.5451 19.551 23.4081C19.5307 23.5523 19.4899 23.7252 19.4355 23.9413C19.3812 24.1575 19.3269 24.3593 19.2725 24.5538C19.2182 24.7484 19.1774 24.8781 19.157 24.9573L17.6964 29.1436H16.0252V29.1364Z" fill="white"/>
<path d="M27.6591 29.2355H23.2094V22.203H27.6591V23.4279H24.8466V24.9699H27.4621V26.1948H24.8466V28.0105H27.6591V29.2355Z" fill="white"/>
<path d="M31.6185 29.1391H29.9813V23.3532H27.8821V22.1139H33.7177V23.3532H31.6185V29.1391Z" fill="white"/>
<path d="M40.7363 25.6171C40.7363 26.1575 40.6616 26.6547 40.5121 27.0942C40.3626 27.5409 40.1385 27.9228 39.8396 28.2399C39.5406 28.5569 39.1602 28.8091 38.6983 28.9748C38.2363 29.1477 37.6928 29.2342 37.061 29.2342C36.4292 29.2342 35.8858 29.1477 35.4238 28.9748C34.9619 28.8019 34.5814 28.5569 34.2825 28.2399C33.9836 27.9228 33.7594 27.5337 33.61 27.0942C33.4605 26.6475 33.3858 26.1503 33.3858 25.6099C33.3858 24.8822 33.5149 24.2481 33.7798 23.7077C34.0447 23.1673 34.4456 22.7494 34.989 22.4467C35.5325 22.1513 36.2254 22 37.0678 22C37.9034 22 38.5964 22.1513 39.133 22.4467C39.6765 22.7422 40.0773 23.1673 40.3355 23.7077C40.6072 24.2481 40.7363 24.8894 40.7363 25.6171ZM35.1045 25.6171C35.1045 26.1071 35.1725 26.5322 35.3083 26.8853C35.4442 27.2383 35.6548 27.5121 35.9469 27.6995C36.239 27.8868 36.6059 27.9877 37.0678 27.9877C37.5298 27.9877 37.9102 27.894 38.1955 27.6995C38.4877 27.5121 38.6983 27.2383 38.8273 26.8853C38.9564 26.5322 39.0243 26.1071 39.0243 25.6171C39.0243 24.8822 38.8749 24.2985 38.5692 23.8734C38.2635 23.4483 37.7676 23.2393 37.0746 23.2393C36.6127 23.2393 36.239 23.333 35.9469 23.5275C35.6548 23.7149 35.4442 23.9887 35.3083 24.3418C35.1657 24.702 35.1045 25.1199 35.1045 25.6171Z" fill="white"/>
<path d="M40.9917 31.6053C40.3871 31.0289 38.3219 29.3716 35.9442 30.7767C35.9306 30.7839 31.7934 33.5651 28.5937 31.8214C28.5869 31.8142 28.5801 31.8287 28.5869 31.8359C28.9877 32.1745 31.7119 34.2785 35.7744 31.735C36.5624 31.245 37.4591 30.9424 38.3898 30.9208C39.1847 30.8992 40.1086 31.0577 40.9645 31.6413C40.9917 31.6485 41.0121 31.6197 40.9917 31.6053Z" fill="white"/>
<path d="M22.2385 32.6922C22.4831 32.5121 25.1529 30.6387 27.4559 32.4328C27.4559 32.4328 30.4246 34.7025 33.9436 33.1246C33.9504 33.1246 33.9572 33.1318 33.9504 33.1318C33.6855 33.3191 32.0347 34.4143 29.7113 34.1405C28.7127 34.0252 27.7752 33.6217 26.9668 33.0309C26.1855 32.4545 24.5347 31.6475 22.2385 32.6922Z" fill="white"/>
<path d="M15.0136 32.2748C15.3193 32.4549 17.9619 33.5573 20.2242 31.8641C20.2242 31.8641 23.3967 29.2773 26.8749 31.2228C26.8817 31.23 26.8817 31.2444 26.8681 31.2372C26.5624 31.1651 25.1494 30.8913 23.5122 31.23C23.5122 31.23 22.1943 31.5758 20.6521 32.5053C20.6521 32.5053 17.1467 35.0488 15 32.282C15 32.282 15.0068 32.2676 15.0136 32.2748Z" fill="white"/>
<path d="M19.7219 35.0401C19.9121 35.0401 20.0616 35.0978 20.1703 35.2131C20.2858 35.3284 20.3401 35.5013 20.3401 35.7319C20.3401 35.8832 20.313 36.0129 20.2654 36.1137C20.2111 36.2146 20.1431 36.2939 20.048 36.3443C19.9529 36.3947 19.8442 36.4236 19.7151 36.4236C19.6336 36.4236 19.5657 36.4164 19.5045 36.3947C19.4434 36.3731 19.3891 36.3515 19.3483 36.3227C19.3075 36.2939 19.2668 36.2578 19.2396 36.2218H19.226C19.226 36.2506 19.2328 36.2939 19.2396 36.3371C19.2464 36.3803 19.2464 36.4236 19.2464 36.4524V37H19.0154V35.069H19.2056L19.2328 35.2635H19.2464C19.2736 35.2203 19.3143 35.1842 19.3551 35.1554C19.3958 35.1194 19.4502 35.0978 19.5113 35.0762C19.5657 35.0473 19.6404 35.0401 19.7219 35.0401ZM19.6812 35.2131C19.5793 35.2131 19.491 35.2275 19.4298 35.2635C19.3687 35.2995 19.3211 35.35 19.2871 35.422C19.2532 35.4941 19.2396 35.5805 19.2396 35.6886V35.7246C19.2396 35.8399 19.2532 35.9336 19.2804 36.0129C19.3075 36.0921 19.3551 36.1498 19.423 36.193C19.491 36.2362 19.5725 36.2506 19.6812 36.2506C19.7763 36.2506 19.851 36.229 19.9189 36.1858C19.9801 36.1426 20.0276 36.0777 20.0616 35.9985C20.0956 35.9192 20.1092 35.8255 20.1092 35.7246C20.1092 35.5661 20.0752 35.4436 20.0073 35.35C19.9325 35.2563 19.8238 35.2131 19.6812 35.2131Z" fill="white"/>
<path d="M22.1646 35.0401C22.2937 35.0401 22.4023 35.0618 22.4975 35.1122C22.5926 35.1626 22.6605 35.2347 22.7081 35.3211C22.7556 35.4148 22.7828 35.5157 22.7828 35.6382V35.7607H21.7366C21.7366 35.9192 21.7841 36.0345 21.8657 36.1209C21.954 36.2002 22.0695 36.2434 22.2257 36.2434C22.3208 36.2434 22.4091 36.2362 22.4771 36.2218C22.5518 36.2074 22.6265 36.1858 22.7081 36.157V36.3371C22.6333 36.3659 22.5586 36.3875 22.4839 36.402C22.4091 36.4164 22.3208 36.4236 22.2189 36.4236C22.0763 36.4236 21.9472 36.3948 21.8385 36.3443C21.7298 36.2939 21.6483 36.2146 21.5871 36.1137C21.526 36.0129 21.4988 35.8904 21.4988 35.7391C21.4988 35.5949 21.526 35.4725 21.5803 35.3644C21.6347 35.2563 21.7094 35.177 21.8113 35.1194C21.9132 35.0618 22.0287 35.0401 22.1646 35.0401ZM22.1646 35.2059C22.0423 35.2059 21.9472 35.2419 21.8725 35.3139C21.7977 35.386 21.757 35.4869 21.7434 35.6094H22.545C22.545 35.5301 22.5314 35.458 22.5043 35.4004C22.4771 35.3428 22.4363 35.2923 22.382 35.2563C22.3208 35.2203 22.2529 35.2059 22.1646 35.2059Z" fill="white"/>
<path d="M24.6238 36.4263C24.4879 36.4263 24.3657 36.4047 24.2638 36.3542C24.1619 36.3038 24.0803 36.2317 24.0192 36.1308C23.9581 36.03 23.9309 35.9003 23.9309 35.749C23.9309 35.5904 23.9649 35.4535 24.0192 35.3527C24.0803 35.2518 24.1619 35.1725 24.2706 35.1221C24.3793 35.0717 24.5015 35.05 24.6374 35.05C24.7121 35.05 24.7869 35.0572 24.8548 35.0717C24.9227 35.0861 24.9839 35.1005 25.0246 35.1221L24.9567 35.295C24.9091 35.2806 24.8548 35.2662 24.8004 35.2518C24.7393 35.2374 24.685 35.2302 24.6306 35.2302C24.5287 35.2302 24.4404 35.2518 24.3725 35.2878C24.3045 35.331 24.2502 35.3887 24.2162 35.4607C24.1822 35.54 24.1619 35.6337 24.1619 35.749C24.1619 35.857 24.1754 35.9507 24.2094 36.0228C24.2434 36.102 24.2909 36.1597 24.3589 36.1957C24.4268 36.2389 24.5083 36.2533 24.6102 36.2533C24.6918 36.2533 24.7597 36.2461 24.8276 36.2317C24.8888 36.2173 24.9499 36.1957 25.0042 36.1813V36.3614C24.9567 36.383 24.8956 36.4047 24.8344 36.4119C24.7801 36.4191 24.7121 36.4263 24.6238 36.4263Z" fill="white"/>
<path d="M26.7542 35.2329V36.4001H26.53V35.2329H26.0409V35.0599H27.2569V35.2329H26.7542Z" fill="white"/>
<path d="M29.7047 35.7319C29.7047 35.8399 29.6911 35.9408 29.6572 36.0273C29.6232 36.1137 29.5757 36.1858 29.5145 36.2434C29.4534 36.3011 29.3786 36.3515 29.2971 36.3803C29.2088 36.4092 29.1137 36.4308 29.005 36.4308C28.9031 36.4308 28.808 36.4164 28.7265 36.3803C28.645 36.3515 28.5702 36.3011 28.5091 36.2434C28.4479 36.1858 28.4004 36.1137 28.3664 36.0273C28.3325 35.9408 28.3189 35.8399 28.3189 35.7319C28.3189 35.5877 28.346 35.458 28.4004 35.3572C28.4547 35.2563 28.5363 35.177 28.6382 35.1194C28.7401 35.0618 28.8691 35.0401 29.0118 35.0401C29.1477 35.0401 29.27 35.069 29.3719 35.1194C29.4738 35.177 29.5553 35.2491 29.6164 35.3572C29.6776 35.4653 29.7047 35.5877 29.7047 35.7319ZM28.5566 35.7319C28.5566 35.8399 28.5702 35.9336 28.6042 36.0129C28.6382 36.0921 28.6857 36.1498 28.7536 36.193C28.8216 36.2362 28.9099 36.2578 29.0118 36.2578C29.1137 36.2578 29.202 36.2362 29.27 36.193C29.3379 36.1498 29.3854 36.0921 29.4194 36.0129C29.4534 35.9336 29.467 35.8399 29.467 35.7319C29.467 35.6238 29.4534 35.5301 29.4194 35.458C29.3854 35.3788 29.3379 35.3211 29.27 35.2779C29.202 35.2347 29.1137 35.2131 29.0118 35.2131C28.8556 35.2131 28.7401 35.2563 28.6653 35.35C28.5906 35.4364 28.5566 35.5661 28.5566 35.7319Z" fill="white"/>
<path d="M31.6582 35.0401C31.8484 35.0401 31.9979 35.0978 32.1065 35.2131C32.222 35.3284 32.2764 35.5013 32.2764 35.7319C32.2764 35.8832 32.2492 36.0129 32.2017 36.1137C32.1473 36.2146 32.0794 36.2939 31.9843 36.3443C31.8892 36.3947 31.7805 36.4236 31.6514 36.4236C31.5699 36.4236 31.5019 36.4164 31.4408 36.3947C31.3796 36.3731 31.3253 36.3515 31.2845 36.3227C31.2438 36.2939 31.203 36.2578 31.1758 36.2218H31.1623C31.1623 36.2506 31.1691 36.2939 31.1758 36.3371C31.1826 36.3803 31.1826 36.4236 31.1826 36.4524V37H30.9517V35.069H31.1419L31.1691 35.2635H31.1826C31.2098 35.2203 31.2506 35.1842 31.2913 35.1554C31.3321 35.1194 31.3864 35.0978 31.4476 35.0762C31.5019 35.0473 31.5699 35.0401 31.6582 35.0401ZM31.6174 35.2131C31.5155 35.2131 31.4272 35.2275 31.3661 35.2635C31.3049 35.2995 31.2574 35.35 31.2234 35.422C31.1962 35.4941 31.1758 35.5805 31.1758 35.6886V35.7246C31.1758 35.8399 31.1894 35.9336 31.2166 36.0129C31.2438 36.0921 31.2913 36.1498 31.3593 36.193C31.4272 36.2362 31.5087 36.2506 31.6174 36.2506C31.7125 36.2506 31.7873 36.229 31.8552 36.1858C31.9163 36.1426 31.9639 36.0777 31.9979 35.9985C32.0318 35.9192 32.0454 35.8255 32.0454 35.7246C32.0454 35.5661 32.0114 35.4436 31.9435 35.35C31.8688 35.2563 31.7601 35.2131 31.6174 35.2131Z" fill="white"/>
<path d="M34.0932 35.0401C34.2766 35.0401 34.4057 35.0762 34.494 35.1482C34.5823 35.2203 34.6231 35.3356 34.6231 35.4941V36.402H34.4533L34.4057 36.2074H34.3921C34.3514 36.2578 34.3038 36.2939 34.263 36.3299C34.2155 36.3659 34.1611 36.3875 34.1068 36.402C34.0456 36.4164 33.9709 36.4236 33.8826 36.4236C33.7875 36.4236 33.706 36.4092 33.638 36.3803C33.5701 36.3515 33.509 36.3083 33.4682 36.2506C33.4274 36.193 33.4071 36.1209 33.4071 36.0345C33.4071 35.9048 33.4682 35.7967 33.5837 35.7246C33.706 35.6526 33.8826 35.6166 34.1272 35.6094L34.3853 35.6022V35.5229C34.3853 35.4076 34.3581 35.3284 34.3038 35.2779C34.2495 35.2347 34.1679 35.2059 34.066 35.2059C33.9845 35.2059 33.9098 35.2131 33.8418 35.2347C33.7739 35.2563 33.6992 35.2779 33.638 35.3067L33.5701 35.1554C33.638 35.1266 33.7196 35.0978 33.8079 35.0762C33.903 35.0545 33.9913 35.0401 34.0932 35.0401ZM34.3989 35.7391L34.1679 35.7463C33.9777 35.7535 33.8486 35.7823 33.7671 35.8255C33.6924 35.876 33.6516 35.9408 33.6516 36.0273C33.6516 36.1065 33.6788 36.157 33.7331 36.2002C33.7875 36.2434 33.8554 36.2578 33.9437 36.2578C34.0796 36.2578 34.1883 36.2218 34.2766 36.157C34.3649 36.0921 34.4057 35.9912 34.4057 35.8616V35.7391H34.3989Z" fill="white"/>
<path d="M36.1681 35.0599V35.622H37.0105V35.0599H37.2415V36.3929H37.0105V35.7877H36.1681V36.3929H35.9372V35.0599H36.1681Z" fill="white"/>
</g>
<defs>
<clipPath id="clip0_494_30322">
<rect width="56" height="56" fill="white"/>
</clipPath>
</defs>
</svg>
