<svg width="56" height="56" viewBox="0 0 56 56" fill="none" xmlns="http://www.w3.org/2000/svg">
<g clip-path="url(#clip0_494_30315)">
<circle cx="28" cy="28" r="27.75" stroke="#DEC7B7" stroke-width="0.5"/>
<circle cx="28" cy="28" r="25" fill="#DEC7B7"/>
<circle opacity="0.5" cx="28" cy="28" r="21.75" stroke="white" stroke-width="0.5"/>
<path d="M37.4982 29.7849L37.4382 31.6984C37.7531 31.6908 38.9855 30.2186 39.018 29.8027L40.3754 29.7849L38.5031 31.7571C38.9505 32.8083 39.6655 33.8085 40.4379 34.63C40.6904 34.63 42.0978 30.3589 42.0003 29.7849H43.3751C43.5576 31.4714 44.3126 33.214 45 34.7601H43.6251C43.8826 34.3136 43.6001 33.8876 43.5151 33.4334L43.3176 33.3518L41.7803 33.5176C41.6103 33.9309 41.3778 34.3366 41.6253 34.7627H39.0005C39.073 34.5662 39.1505 34.4897 39.068 34.2626C38.968 33.9896 38.0481 32.4613 37.8156 32.4588C37.1082 32.668 37.2732 34.255 37.6257 34.7601H36.2508C36.4583 33.1808 36.4583 31.3667 36.2508 29.7874H37.5007L37.4982 29.7849ZM43.2477 32.8466L42.6852 30.808L41.9978 32.8466H43.2477Z" fill="#1A1919"/>
<path d="M34.123 31.5713C33.7131 32.0765 32.1832 33.9033 32.1382 34.4391C32.1282 34.5514 32.2857 34.7274 32.2482 34.7606H30.9983C31.2033 33.1634 31.2033 31.3825 30.9983 29.7878H32.2482C32.2782 29.8108 31.9982 30.3951 31.9982 30.4895V32.9771C32.2382 33.0358 32.2382 32.8878 32.3507 32.7628C32.6282 32.4515 33.9531 30.5966 34.0655 30.2879C34.148 30.0634 34.0705 29.9818 33.998 29.7878H35.2479C35.0405 31.3672 35.0405 33.1812 35.2479 34.7606H33.998C33.9356 34.7147 34.123 34.5973 34.123 34.5692V31.5713Z" fill="#1A1919"/>
<path d="M26.7487 34.4408C26.7687 34.5199 27.0087 34.6194 26.9987 34.7572H25.7488C26.0188 33.1115 25.8263 31.4326 25.7488 29.7819H26.9987C26.5887 30.384 26.7912 31.1367 26.7487 31.823H28.8735V29.9732C28.8735 29.9452 28.686 29.8278 28.7485 29.7844H29.9984C29.7909 31.3638 29.7909 33.1778 29.9984 34.7572H28.7485C28.686 34.7112 28.8735 34.5939 28.8735 34.5658V32.5884H26.7487C26.8337 33.0987 26.6312 33.9917 26.7487 34.4382V34.4408Z" fill="#1A1919"/>
<path d="M36.9678 22.1634C40.7799 21.6505 40.445 27.9296 36.8653 27.1769C34.3655 26.6514 34.508 22.4951 36.9678 22.1634ZM36.9603 22.9237C35.4879 23.2682 35.5529 26.9499 37.7827 26.4421C39.3001 26.0951 39.2126 22.3981 36.9603 22.9237Z" fill="#1A1919"/>
<path d="M19.8114 29.7846C19.8639 29.777 19.9839 29.6086 20.1238 29.6571V30.8052L19.9989 30.5501H17.6241V31.8258L19.3739 31.762V32.7188L17.6216 32.5912V33.9945H19.8089C19.8614 33.9945 19.9914 33.7266 20.1189 33.7394V34.9513C20.0489 35.1299 19.8564 34.7599 19.8089 34.7599H16.4967C17.0916 33.1653 16.4967 31.4354 16.6217 29.7846C17.6341 29.6979 18.819 29.902 19.8089 29.7846H19.8114Z" fill="#1A1919"/>
<path d="M22.2496 22.4495C22.2446 22.4061 22.0971 22.3602 22.1246 22.2581L25.7493 22.003V23.1511C25.4868 23.1894 25.4718 23.1588 25.4993 22.896H23.1245L23.242 24.2431C23.4195 24.3682 24.4294 24.2482 24.6619 24.1692C24.8068 24.1181 24.7119 23.7609 24.8743 23.9803V25.1923C24.6419 24.8682 23.342 24.8172 23.1795 25.0571L23.142 26.3226C23.9469 26.5369 25.0743 26.6747 25.7493 26.0853V27.361C25.7218 27.3993 25.2693 27.1059 25.1893 27.1059H22.1271C22.0946 27.0115 22.2521 26.9528 22.2521 26.9145C22.2521 25.6082 22.4146 23.6614 22.2521 22.4495H22.2496Z" fill="#1A1919"/>
<path d="M22.2491 29.7844C22.1241 30.1697 22.699 31.3204 23.0615 31.3178C23.309 30.8433 23.8339 30.3585 23.5015 29.787H24.8764L23.509 32.1445L24.9988 34.7597H23.624C23.9414 34.1627 23.2165 33.5988 22.934 33.1013C22.729 33.0503 21.7741 34.4382 22.1241 34.7572H20.7492L22.3741 32.2619C22.4216 31.7669 21.1617 30.287 20.8742 29.7819H22.2491V29.7844Z" fill="#1A1919"/>
<path d="M17.6247 22.4497C17.6197 22.414 17.4347 22.3043 17.4997 22.2584C18.3046 22.1793 19.8295 22.0772 20.5719 22.3758C21.1968 22.6258 21.3093 23.2407 21.2593 23.8581C21.1468 25.241 19.532 25.2002 18.4996 25.19C18.5321 25.838 18.3571 26.5371 18.7496 27.1036H17.4997C17.4372 27.0576 17.6247 26.9403 17.6247 26.9122C17.6247 25.6059 17.7871 23.6591 17.6247 22.4472V22.4497ZM18.4996 24.4271C21.0594 24.8302 21.0644 22.4931 18.4996 22.8937V24.4271Z" fill="#1A1919"/>
<path d="M33.5606 22.2586C33.8131 22.3096 34.3555 22.7382 34.4405 23.0164C35.0055 24.8508 33.1432 25.3586 31.7458 25.1902C31.7458 25.8433 31.6633 26.5144 31.9958 27.1037H30.7459C30.6984 26.966 30.8709 26.8256 30.8709 26.7848V22.575C30.8709 22.5367 30.6984 22.3938 30.7459 22.256C31.5708 22.3708 32.7907 22.0978 33.5581 22.256L33.5606 22.2586ZM31.7483 24.4273C34.3081 24.8304 34.3131 22.4933 31.7483 22.8939V24.4273Z" fill="#1A1919"/>
<path d="M27.6236 22.8956C27.1237 22.8751 26.6737 22.842 26.2487 23.1507L26.3112 22C27.5586 22.3572 28.8685 22.3138 30.1209 22V23.1481C29.6059 22.8802 29.206 22.842 28.621 22.893V26.7839C28.621 26.8248 28.7935 26.9651 28.746 27.1029H27.6211V22.893L27.6236 22.8956Z" fill="#1A1919"/>
<path d="M13.4999 30.5503L12 30.6779V29.6573C13.1824 29.8512 14.5723 29.8793 15.7472 29.6573V30.6141L14.3723 30.5503L14.4973 34.7601H13.3724C13.2974 34.5815 13.4974 34.3774 13.4974 34.3136V30.5503H13.4999Z" fill="#1A1919"/>
</g>
<defs>
<clipPath id="clip0_494_30315">
<rect width="56" height="56" fill="white"/>
</clipPath>
</defs>
</svg>
