<svg width="56" height="56" viewBox="0 0 56 56" fill="none" xmlns="http://www.w3.org/2000/svg">
<g clip-path="url(#clip0_494_30334)">
<circle cx="28" cy="28" r="27.75" stroke="#C40D3C" stroke-opacity="0.3" stroke-width="0.5"/>
<circle cx="28" cy="28" r="24.75" fill="#C40D3C" stroke="#C40D3C" stroke-width="0.5"/>
<circle opacity="0.5" cx="28" cy="28" r="21.75" fill="#C40D3C" stroke="white" stroke-width="0.5"/>
<path d="M28.1245 15.523C30.2333 16.0753 32.409 17.5816 33.1621 20.41C33.8149 22.887 32.7772 24.728 31.6224 25.8159C30.4508 26.9205 28.8609 27.4226 28.8609 27.4226C29.6308 27.5398 31.2877 28.0586 32.3253 29.4979C33.2626 30.8201 33.7814 32.9456 34.2835 35.0879C34.819 37.364 36.3421 37.6485 37.363 37.5649C37.9153 37.5146 38.4676 37.3138 39.0031 36.6611C40.6098 34.7029 42.0157 31.4728 42.0157 28.0084C41.999 20.2594 35.7395 14 28.0073 14C25.9487 14 24.0073 14.4519 22.25 15.2552C23.5052 14.9874 25.6308 14.8536 28.1245 15.523Z" fill="white"/>
<path d="M32.646 36.777C31.3908 35.3377 31.8594 32.3419 30.7882 30.1996C29.7171 28.0574 27.123 27.4214 27.123 27.4214C31.1564 25.8314 31.3405 21.9151 30.4033 19.6055C29.282 16.844 26.738 15.7896 24.2443 15.5553C22.1523 15.3544 20.8134 16.0574 20.4786 16.2415C20.2276 16.3754 19.9933 16.526 19.8594 16.6264C22.0016 15.9569 23.9933 16.2749 25.8845 17.7979C27.4075 19.0197 28.2945 21.2624 27.5581 23.8063C26.9221 26.0155 23.4577 27.4046 23.4577 27.4046C25.0477 27.5887 27.2903 29.0448 27.8928 32.0239C28.3615 34.367 29.3824 36.4925 30.2192 37.4297C32.2945 39.7394 35.2569 39.3042 36.3615 38.8858C36.7799 38.7185 37.4326 38.367 37.7506 38.0323C35.0058 38.7854 33.3991 37.6641 32.646 36.7938" fill="white"/>
<path d="M29.2301 38.9209C25.9163 37.013 26.1674 32.9628 25.2636 30.9544C24.0418 28.2598 22.0167 27.423 22.0167 27.423C22.6025 27.1887 26.251 24.7619 25.1632 20.9293C23.7741 16.0422 19.3389 17.2138 18.4017 17.9167C16.0251 19.6908 14 23.9753 14 28.0088C14 35.741 20.2594 42.0171 28.0084 42.0171C30.9372 42.0171 33.6485 41.1134 35.8912 39.5904C34.1339 40.1929 31.3389 40.1427 29.2469 38.9376" fill="white"/>
</g>
<defs>
<clipPath id="clip0_494_30334">
<rect width="56" height="56" fill="white"/>
</clipPath>
</defs>
</svg>
