<svg width="115" height="115" viewBox="0 0 115 115" fill="none" xmlns="http://www.w3.org/2000/svg">
<path d="M74.1347 36.3307C74.1347 30.3874 70.9648 24.8959 65.8181 21.925C60.6714 18.9534 54.3305 18.9534 49.1838 21.925C44.0371 24.8959 40.8672 30.3874 40.8672 36.3307C40.8672 36.7317 41.026 37.116 41.3103 37.3994C41.5937 37.6837 41.9788 37.8425 42.3798 37.8425H51.4529C52.2882 37.8425 52.9646 37.1651 52.9646 36.3299C52.9646 35.4955 52.2882 34.8181 51.4529 34.8181H43.9759C44.3672 31.3183 46.1 28.1061 48.811 25.8567C51.5212 23.6079 54.9983 22.4972 58.5106 22.7586C62.0228 23.0192 65.2971 24.6318 67.645 27.2569C69.9928 29.8819 71.2318 33.3153 71.1019 36.8354C70.9712 40.3545 69.4805 43.6868 66.9449 46.1304C64.4084 48.5748 61.0235 49.94 57.5016 49.94C57.3349 49.94 40.8673 50.1304 40.8673 66.5734V81.6959C40.8673 82.0969 41.0261 82.4812 41.3104 82.7654C41.5938 83.0488 41.9789 83.2076 42.3799 83.2076H72.6235C73.0245 83.2076 73.4097 83.0488 73.6931 82.7654C73.9764 82.4812 74.1353 82.0969 74.1353 81.6959L74.1347 36.3307ZM65.0617 69.5976C65.0652 71.4278 64.4027 73.1965 63.199 74.575C61.9952 75.9533 60.3316 76.8474 58.5172 77.0913C56.7037 77.3343 54.8628 76.9105 53.3379 75.898L52.5211 76.7149C52.2377 77 51.8534 77.1597 51.4516 77.1606C51.0497 77.1615 50.6646 77.0018 50.3803 76.7175C50.096 76.4341 49.9372 76.0481 49.9372 75.6471C49.9381 75.2453 50.0987 74.8601 50.3829 74.5767L51.1998 73.7599C49.9048 71.8095 49.588 69.3676 50.3435 67.1514C51.098 64.9352 52.8386 63.1945 55.0551 62.4398C57.2714 61.6844 59.713 62.0011 61.6635 63.2961L62.4804 62.4793C62.7638 62.195 63.149 62.0353 63.5499 62.0353C63.9517 62.0353 64.336 62.195 64.6203 62.4784C64.9037 62.7618 65.0625 63.147 65.0625 63.5479C65.0625 63.9498 64.9028 64.334 64.6185 64.6174L63.8017 65.4343H63.8026C64.6238 66.667 65.0617 68.1159 65.0617 69.5976Z" fill="#C40D3C"/>
<path d="M42.3789 86.2305H72.6226C73.4578 86.2305 74.1343 86.9078 74.1343 87.7431V93.7918C74.1343 94.1928 73.9755 94.5771 73.6912 94.8605C73.4078 95.1447 73.0235 95.3035 72.6226 95.3035H42.3789C41.5445 95.3035 40.8672 94.6271 40.8672 93.7918V87.7431C40.8672 86.9078 41.5445 86.2305 42.3798 86.2305H42.3789Z" fill="#C40D3C"/>
</svg>
