<svg width="115" height="115" viewBox="0 0 115 115" fill="none" xmlns="http://www.w3.org/2000/svg">
<path d="M34.8178 67.984V84.6945C34.8178 85.5298 35.4952 86.2062 36.3296 86.2062H54.4764C54.9415 86.2062 55.381 85.9913 55.6679 85.6245C55.9548 85.2578 56.0557 84.7787 55.9434 84.3269L51.0941 64.9314L55.9881 63.8829V69.5727C55.9881 70.4071 56.6655 71.0845 57.4999 71.0845C58.3351 71.0845 59.0125 70.4071 59.0125 69.5727V63.2345L78.987 58.9537C79.6845 58.8045 80.1828 58.1886 80.1828 57.4753V45.378C80.1828 44.6647 79.6845 44.0479 78.987 43.8988L42.9551 36.1778C38.4874 34.2345 33.3926 34.3485 29.0161 36.4893C24.6396 38.6301 21.4223 42.5827 20.2141 47.3031C19.0068 52.0235 19.9299 57.0359 22.7401 61.0158C25.5504 64.9956 29.9653 67.5427 34.8173 67.9838L34.8178 67.984ZM36.3296 46.89C37.5333 46.89 38.6871 47.3682 39.5381 48.2184C40.3883 49.0695 40.8665 50.2232 40.8665 51.426C40.8665 52.6298 40.3883 53.7835 39.5381 54.6346C38.6871 55.4848 37.5333 55.9629 36.3305 55.9629C35.1267 55.9629 33.973 55.4848 33.1219 54.6346C32.2717 53.7835 31.7936 52.6298 31.7936 51.4269C31.7953 50.224 32.2735 49.0712 33.1237 48.2202C33.9739 47.37 35.1268 46.8918 36.3296 46.89Z" fill="#C40D3C"/>
<path d="M85.5539 46.6376L94.627 40.5888L94.6279 40.588C95.3192 40.1238 95.5052 39.1876 95.0429 38.4936C94.5805 37.8005 93.6443 37.6119 92.9494 38.0716L83.8773 44.1204C83.1824 44.5836 82.9937 45.5224 83.457 46.2182C83.9202 46.9131 84.859 47.1008 85.5539 46.6376Z" fill="#C40D3C"/>
<path d="M93.7886 49.9141H84.7149C83.8805 49.9141 83.2031 50.5914 83.2031 51.4267C83.2031 52.262 83.8805 52.9384 84.7149 52.9384H93.7886C94.623 52.9384 95.3004 52.262 95.3004 51.4267C95.3004 50.5914 94.623 49.9141 93.7886 49.9141Z" fill="#C40D3C"/>
<path d="M85.5535 56.2171C85.2201 55.9942 84.8121 55.9135 84.4182 55.9925C84.0251 56.0705 83.6794 56.3022 83.4566 56.6365C82.9942 57.3314 83.182 58.2701 83.8769 58.7334L92.95 64.7821H92.9491C93.644 65.2454 94.5828 65.0576 95.0469 64.3627C95.5101 63.6678 95.3224 62.729 94.6275 62.2658L85.5535 56.2171Z" fill="#C40D3C"/>
</svg>
