<svg width="115" height="115" viewBox="0 0 115 115" fill="none" xmlns="http://www.w3.org/2000/svg">
<path d="M27.2593 78.9989H32.3002C32.9954 78.9989 33.5598 78.4343 33.5598 77.7373V73.9513H81.4399V77.7373C81.4399 78.0719 81.5729 78.3926 81.8091 78.6291C82.0452 78.8663 82.3662 78.9989 82.7003 78.9989H87.7404C88.4356 78.9989 89 78.4336 89 77.7373V55.0238C89 54.3268 88.4356 53.7615 87.7404 53.7615H83.1039C82.772 53.5302 82.2003 53.1516 81.44 52.6948V27.2615C81.44 26.9269 81.3077 26.6062 81.0708 26.3698C80.8347 26.1333 80.5145 26 80.1804 26H75.1403C74.8061 26 74.4852 26.1333 74.2491 26.3698C74.0129 26.6062 73.8799 26.9269 73.8799 27.2615V28.5238H41.1201V27.2615C41.1201 26.5653 40.5558 26 39.8605 26H34.8196C34.1244 26 33.56 26.5652 33.56 27.2615V52.6966C32.7997 53.1528 32.228 53.5313 31.8961 53.7634L27.2597 53.7627C26.5644 53.7627 26 54.3279 26 55.0249V77.7385C26 78.4347 26.5644 79 27.2597 79L27.2593 78.9989ZM41.1199 36.0947H73.8796V38.6185H41.1199V36.0947ZM41.1199 46.1898H73.8796V49.1223C63.3083 45.2125 51.6904 45.2125 41.1199 49.1223V46.1898ZM33.5597 63.2561C33.812 63.0877 34.1768 62.8571 34.6096 62.5942V62.5949C41.5328 58.4648 49.4416 56.2851 57.5006 56.2851C65.5586 56.2851 73.4672 58.4648 80.3916 62.5949C80.8244 62.8571 81.1885 63.0884 81.4414 63.2568V66.381H33.5614L33.5597 63.2561Z" fill="#C40D3C"/>
</svg>
