<svg width="14" height="14" viewBox="0 0 14 14" fill="none" xmlns="http://www.w3.org/2000/svg">
<path d="M10.3947 8.33073C7.86724 8.34312 7.4584 9.86565 7.32214 11.153L7.2602 11.7224H6.75219L6.69026 11.153C6.554 9.86565 6.13276 8.34312 3.69203 8.33073C3.28319 7.48896 3.10974 6.80815 3.10974 6.04069C3.10974 4.12207 4.6832 2.32715 7.01236 2.32715C9.34157 2.32715 10.8902 4.10962 10.8902 6.05313C10.8903 6.80815 10.8159 7.48896 10.3947 8.33073ZM6.98763 0C3.14694 0 0 3.14415 0 6.99378C0 10.8559 3.14694 14 6.98763 14C10.8655 14 14 10.8559 14 6.99378C14 3.14416 10.8655 0 6.98763 0Z" fill="#29B24A"/>
</svg>
