<svg width="15" height="15" viewBox="0 0 15 15" fill="none" xmlns="http://www.w3.org/2000/svg">
<path d="M7.5 0C4.1862 0 1.5 2.6862 1.5 6C1.5 7.6563 2.1711 9.156 3.2565 10.2417C4.3422 11.328 6.9 12.9 7.05 14.55C7.07249 14.7974 7.2516 15 7.5 15C7.7484 15 7.92751 14.7974 7.95 14.55C8.1 12.9 10.6578 11.328 11.7435 10.2417C12.8289 9.156 13.5 7.6563 13.5 6C13.5 2.6862 10.8138 0 7.5 0Z" fill="#FF4433"/>
<path d="M7.32422 7.6875C8.41153 7.6875 9.29295 6.80605 9.29295 5.71875C9.29295 4.63144 8.41153 3.75 7.32422 3.75C6.23692 3.75 5.35547 4.63144 5.35547 5.71875C5.35547 6.80605 6.23692 7.6875 7.32422 7.6875Z" fill="white"/>
</svg>
