<svg width="137" height="137" viewBox="0 0 137 137" fill="none" xmlns="http://www.w3.org/2000/svg">
<circle cx="68.5" cy="68.5" r="68" stroke="white"/>
<path d="M25.9375 70.715L35.1992 47.3574L41.4932 47.3574L50.731 70.715L44.9155 70.715L39.7941 56.8105C39.6983 56.5712 39.5548 56.1404 39.3633 55.4943C39.1718 54.8481 38.9565 54.178 38.765 53.4601C38.5496 52.7421 38.43 52.1438 38.3582 51.6891C38.2864 52.1677 38.1428 52.7421 37.9513 53.4601C37.7599 54.178 37.5684 54.8481 37.377 55.4943C37.1855 56.1404 37.0419 56.5712 36.9701 56.8345L31.8247 70.7389L25.9375 70.7389V70.715Z" fill="white"/>
<path d="M66.9293 71.0294L51.2539 71.0294L51.2539 47.6719L66.9293 47.6719L66.9293 51.7403L57.0215 51.7403L57.0215 56.8617L66.2353 56.8617L66.2353 60.9302L57.0215 60.9302L57.0215 66.961L66.9293 66.961L66.9293 71.0294Z" fill="white"/>
<path d="M80.8891 70.7184L75.1215 70.7184L75.1215 51.5011L67.7266 51.5011L67.7266 47.3848L88.2841 47.3848L88.2841 51.5011L80.8891 51.5011L80.8891 70.7184Z" fill="white"/>
<path d="M113 59.0138C113 60.8087 112.737 62.46 112.21 63.9199C111.684 65.4036 110.894 66.672 109.841 67.725C108.788 68.778 107.448 69.6157 105.82 70.1661C104.193 70.7404 102.278 71.0276 100.053 71.0276C97.827 71.0276 95.9124 70.7404 94.285 70.1661C92.6577 69.5917 91.3175 68.778 90.2645 67.725C89.2115 66.672 88.4217 65.3797 87.8952 63.9199C87.3687 62.4361 87.1055 60.7848 87.1055 58.9899C87.1055 56.5728 87.5602 54.4668 88.4935 52.6719C89.4269 50.877 90.8388 49.4889 92.7534 48.4838C94.6679 47.5026 97.109 47 100.077 47C103.02 47 105.461 47.5026 107.352 48.4838C109.266 49.465 110.678 50.877 111.588 52.6719C112.545 54.4668 113 56.5967 113 59.0138ZM93.1602 59.0138C93.1602 60.6412 93.3996 62.0532 93.8782 63.2258C94.3568 64.3985 95.0987 65.3079 96.1278 65.9301C97.1569 66.5524 98.4492 66.8874 100.077 66.8874C101.704 66.8874 103.044 66.5763 104.049 65.9301C105.078 65.3079 105.82 64.3985 106.275 63.2258C106.73 62.0532 106.969 60.6412 106.969 59.0138C106.969 56.5728 106.442 54.6343 105.366 53.2223C104.289 51.8103 102.542 51.1163 100.1 51.1163C98.4731 51.1163 97.1569 51.4274 96.1278 52.0736C95.0987 52.6958 94.3568 53.6052 93.8782 54.7779C93.3756 55.9745 93.1602 57.3625 93.1602 59.0138Z" fill="white"/>
<path d="M113.885 78.9007C111.755 76.9862 104.48 71.4818 96.104 76.1485C96.0561 76.1725 81.4816 85.4102 70.2096 79.6187C70.1857 79.5947 70.1618 79.6426 70.1857 79.6665C71.5977 80.7913 81.1944 87.7795 95.5057 79.3315C98.2818 77.7041 101.441 76.699 104.719 76.6272C107.519 76.5554 110.774 77.0819 113.79 79.0204C113.885 79.0443 113.957 78.9486 113.885 78.9007Z" fill="white"/>
<path d="M47.8114 82.5154C48.673 81.9171 58.0782 75.6948 66.1911 81.6538C66.1911 81.6538 76.6494 89.1924 89.0461 83.9513C89.07 83.9513 89.094 83.9752 89.07 83.9752C88.1367 84.5975 82.3212 88.2351 74.1365 87.3257C70.6185 86.9428 67.3159 85.6026 64.468 83.6402C61.7159 81.7256 55.9004 79.0453 47.8114 82.5154Z" fill="white"/>
<path d="M22.3721 81.1281C23.449 81.7264 32.7585 85.388 40.7279 79.764C40.7279 79.764 51.9041 71.1724 64.1572 77.634C64.1811 77.658 64.1811 77.7058 64.1333 77.6819C63.0563 77.4426 58.0785 76.5331 52.3109 77.6579C52.3109 77.6579 47.6681 78.8067 42.2356 81.8939C42.2356 81.8939 29.8867 90.3419 22.3242 81.152C22.3242 81.152 22.3481 81.1041 22.3721 81.1281Z" fill="white"/>
<path d="M38.9811 90.3164C39.6512 90.3164 40.1777 90.5079 40.5606 90.8908C40.9675 91.2737 41.1589 91.848 41.1589 92.6139C41.1589 93.1164 41.0632 93.5472 40.8957 93.8823C40.7042 94.2173 40.4649 94.4806 40.1298 94.6481C39.7948 94.8156 39.4119 94.9113 38.9572 94.9113C38.67 94.9113 38.4307 94.8874 38.2153 94.8156C37.9999 94.7438 37.8084 94.672 37.6649 94.5763C37.5213 94.4806 37.3777 94.3609 37.2819 94.2412L37.2341 94.2412C37.2341 94.337 37.258 94.4806 37.2819 94.6241C37.3059 94.7677 37.3059 94.9113 37.3059 95.0071L37.3059 96.8259L36.4922 96.8259L36.4922 90.4121L37.1623 90.4121L37.258 91.0583L37.3059 91.0583C37.4016 90.9147 37.5452 90.795 37.6888 90.6993C37.8324 90.5797 38.0238 90.5079 38.2392 90.4361C38.4307 90.3403 38.6939 90.3164 38.9811 90.3164ZM38.8375 90.8908C38.4785 90.8908 38.1674 90.9386 37.952 91.0583C37.7366 91.178 37.5691 91.3455 37.4495 91.5848C37.3298 91.8241 37.2819 92.1113 37.2819 92.4703L37.2819 92.5899C37.2819 92.9728 37.3298 93.284 37.4255 93.5472C37.5213 93.8105 37.6888 94.0019 37.9281 94.1455C38.1674 94.2891 38.4546 94.337 38.8375 94.337C39.1726 94.337 39.4358 94.2652 39.6751 94.1216C39.8905 93.978 40.058 93.7626 40.1777 93.4993C40.2974 93.2361 40.3452 92.925 40.3452 92.5899C40.3452 92.0634 40.2256 91.6566 39.9862 91.3455C39.723 91.0344 39.3401 90.8908 38.8375 90.8908Z" fill="white"/>
<path d="M47.5953 90.3164C48.05 90.3164 48.4329 90.3882 48.768 90.5557C49.103 90.7232 49.3424 90.9626 49.5099 91.2497C49.6774 91.5609 49.7731 91.8959 49.7731 92.3028L49.7731 92.7096L46.0876 92.7096C46.0876 93.2361 46.2551 93.619 46.5423 93.9062C46.8534 94.1694 47.2603 94.313 47.8107 94.313C48.1458 94.313 48.4569 94.2891 48.6962 94.2412C48.9594 94.1934 49.2227 94.1216 49.5099 94.0259L49.5099 94.6241C49.2466 94.7199 48.9834 94.7917 48.7201 94.8395C48.4569 94.8874 48.1458 94.9113 47.7868 94.9113C47.2842 94.9113 46.8295 94.8156 46.4466 94.6481C46.0637 94.4806 45.7765 94.2173 45.5611 93.8823C45.3457 93.5472 45.25 93.1404 45.25 92.6378C45.25 92.1592 45.3457 91.7523 45.5372 91.3933C45.7286 91.0344 45.9919 90.7711 46.3509 90.5797C46.7098 90.3882 47.1167 90.3164 47.5953 90.3164ZM47.5953 90.8668C47.1646 90.8668 46.8295 90.9865 46.5663 91.2258C46.303 91.4651 46.1594 91.8002 46.1115 92.207L48.9355 92.207C48.9355 91.9438 48.8877 91.7045 48.7919 91.513C48.6962 91.3215 48.5526 91.154 48.3611 91.0344C48.1458 90.9147 47.9064 90.8668 47.5953 90.8668Z" fill="white"/>
<path d="M56.2575 94.9128C55.7788 94.9128 55.348 94.841 54.9891 94.6735C54.6301 94.5059 54.3429 94.2666 54.1275 93.9316C53.9121 93.5965 53.8164 93.1658 53.8164 92.6632C53.8164 92.1367 53.9361 91.682 54.1275 91.3469C54.3429 91.0119 54.6301 90.7486 55.013 90.5811C55.3959 90.4136 55.8267 90.3418 56.3053 90.3418C56.5686 90.3418 56.8318 90.3657 57.0711 90.4136C57.3105 90.4615 57.5259 90.5093 57.6694 90.5811L57.4301 91.1555C57.2626 91.1076 57.0711 91.0598 56.8797 91.0119C56.6643 90.964 56.4728 90.9401 56.2814 90.9401C55.9224 90.9401 55.6113 91.0119 55.372 91.1315C55.1327 91.2751 54.9412 91.4666 54.8215 91.7059C54.7019 91.9692 54.6301 92.2803 54.6301 92.6632C54.6301 93.0222 54.678 93.3333 54.7976 93.5726C54.9173 93.8359 55.0848 94.0273 55.3241 94.147C55.5634 94.2906 55.8506 94.3384 56.2096 94.3384C56.4968 94.3384 56.7361 94.3145 56.9754 94.2666C57.1908 94.2188 57.4062 94.147 57.5976 94.0991L57.5976 94.6974C57.4301 94.7692 57.2147 94.841 56.9993 94.8649C56.8079 94.8889 56.5686 94.9128 56.2575 94.9128Z" fill="white"/>
<path d="M65.4982 90.963L63.7511 90.963L63.7511 94.84L62.9614 94.84L62.9614 90.963L61.2383 90.963L61.2383 90.3887L65.5221 90.3887L65.5221 90.963H65.4982Z" fill="white"/>
<path d="M74.136 92.6139C74.136 92.9728 74.0881 93.3079 73.9685 93.5951C73.8488 93.8823 73.6813 94.1216 73.4659 94.313C73.2505 94.5045 72.9873 94.672 72.7001 94.7677C72.389 94.8635 72.0539 94.9353 71.671 94.9353C71.3121 94.9353 70.977 94.8874 70.6898 94.7677C70.4026 94.672 70.1394 94.5045 69.924 94.313C69.7086 94.1216 69.5411 93.8823 69.4214 93.5951C69.3018 93.3079 69.2539 92.9728 69.2539 92.6139C69.2539 92.1352 69.3496 91.7045 69.5411 91.3694C69.7325 91.0344 70.0197 90.7711 70.3787 90.5797C70.7377 90.3882 71.1924 90.3164 71.695 90.3164C72.1736 90.3164 72.6044 90.4121 72.9634 90.5797C73.3223 90.7711 73.6095 91.0104 73.8249 91.3694C74.0403 91.7284 74.136 92.1352 74.136 92.6139ZM70.0915 92.6139C70.0915 92.9728 70.1394 93.284 70.259 93.5472C70.3787 93.8105 70.5462 94.0019 70.7855 94.1455C71.0249 94.2891 71.336 94.3609 71.695 94.3609C72.0539 94.3609 72.3651 94.2891 72.6044 94.1455C72.8437 94.0019 73.0112 93.8105 73.1309 93.5472C73.2505 93.284 73.2984 92.9728 73.2984 92.6139C73.2984 92.2549 73.2505 91.9438 73.1309 91.7045C73.0112 91.4412 72.8437 91.2497 72.6044 91.1062C72.3651 90.9626 72.0539 90.8908 71.695 90.8908C71.1445 90.8908 70.7377 91.0344 70.4744 91.3455C70.2112 91.6327 70.0915 92.0634 70.0915 92.6139Z" fill="white"/>
<path d="M81.028 90.3164C81.6981 90.3164 82.2246 90.5079 82.6075 90.8908C83.0143 91.2737 83.2058 91.848 83.2058 92.6139C83.2058 93.1164 83.1101 93.5472 82.9425 93.8823C82.7511 94.2173 82.5118 94.4806 82.1767 94.6481C81.8417 94.8156 81.4588 94.9113 81.0041 94.9113C80.7169 94.9113 80.4776 94.8874 80.2622 94.8156C80.0468 94.7438 79.8553 94.672 79.7117 94.5763C79.5681 94.4806 79.4245 94.3609 79.3288 94.2412L79.281 94.2412C79.281 94.337 79.3049 94.4806 79.3288 94.6241C79.3528 94.7677 79.3527 94.9113 79.3527 95.0071L79.3527 96.8259L78.5391 96.8259L78.5391 90.4121L79.2092 90.4121L79.3049 91.0583H79.3527C79.4485 90.9147 79.5921 90.795 79.7357 90.6993C79.8792 90.5797 80.0707 90.5079 80.2861 90.4361C80.4776 90.3403 80.7169 90.3164 81.028 90.3164ZM80.8844 90.8908C80.5254 90.8908 80.2143 90.9386 79.9989 91.0583C79.7835 91.178 79.616 91.3455 79.4963 91.5848C79.4006 91.8241 79.3288 92.1113 79.3288 92.4703L79.3288 92.5899C79.3288 92.9728 79.3767 93.284 79.4724 93.5472C79.5681 93.8105 79.7357 94.0019 79.975 94.1455C80.2143 94.2891 80.5015 94.337 80.8844 94.337C81.2194 94.337 81.4827 94.2652 81.722 94.1216C81.9374 93.978 82.1049 93.7626 82.2246 93.4993C82.3442 93.2361 82.3921 92.925 82.3921 92.5899C82.3921 92.0634 82.2724 91.6566 82.0331 91.3455C81.7699 91.0344 81.387 90.8908 80.8844 90.8908Z" fill="white"/>
<path d="M89.5968 90.3164C90.243 90.3164 90.6977 90.4361 91.0088 90.6754C91.3199 90.9147 91.4635 91.2976 91.4635 91.8241L91.4635 94.8395L90.8652 94.8395L90.6977 94.1934H90.6498C90.5062 94.3609 90.3387 94.4806 90.1951 94.6002C90.0276 94.7199 89.8361 94.7917 89.6447 94.8395C89.4293 94.8874 89.166 94.9113 88.8549 94.9113C88.5199 94.9113 88.2327 94.8635 87.9934 94.7677C87.7541 94.672 87.5387 94.5284 87.3951 94.337C87.2515 94.1455 87.1797 93.9062 87.1797 93.619C87.1797 93.1882 87.3951 92.8293 87.8019 92.5899C88.2327 92.3506 88.8549 92.231 89.7165 92.207L90.6259 92.1831L90.6259 91.9198C90.6259 91.5369 90.5302 91.2737 90.3387 91.1062C90.1472 90.9626 89.8601 90.8668 89.5011 90.8668C89.2139 90.8668 88.9506 90.8908 88.7113 90.9626C88.472 91.0344 88.2088 91.1062 87.9934 91.2019L87.7541 90.6993C87.9934 90.6036 88.2806 90.5079 88.5917 90.4361C88.9267 90.3643 89.2378 90.3164 89.5968 90.3164ZM90.6737 92.6378L89.8601 92.6617C89.19 92.6857 88.7353 92.7814 88.4481 92.925C88.1848 93.0925 88.0412 93.3079 88.0412 93.5951C88.0412 93.8583 88.137 94.0259 88.3284 94.1694C88.5199 94.313 88.7592 94.3609 89.0703 94.3609C89.5489 94.3609 89.9319 94.2412 90.243 94.0259C90.5541 93.8105 90.6977 93.4754 90.6977 93.0446L90.6977 92.6378H90.6737Z" fill="white"/>
<path d="M96.9192 90.3887L96.9192 92.2554L99.8867 92.2554L99.8867 90.3887L100.7 90.3887L100.7 94.8161L99.8867 94.8161L99.8867 92.8058L96.9192 92.8058L96.9192 94.8161L96.1055 94.8161L96.1055 90.3887L96.9192 90.3887Z" fill="white"/>
</svg>
