<svg width="137" height="137" viewBox="0 0 137 137" fill="none" xmlns="http://www.w3.org/2000/svg">
<circle cx="68.5" cy="68.5" r="68" stroke="white"/>
<path fill-rule="evenodd" clip-rule="evenodd" d="M82.398 78.4846C81.7737 78.5782 81.1375 78.5559 80.5214 78.4188H80.4441C80.4007 78.403 80.361 78.3788 80.3274 78.3474C80.2937 78.316 80.2667 78.2782 80.2481 78.2362C80.2296 78.1942 80.2198 78.1489 80.2193 78.103C80.2188 78.0572 80.2277 78.0117 80.2454 77.9693C80.4756 77.3636 80.812 76.8031 81.239 76.3139C81.6627 75.826 82.1712 75.4175 82.7402 75.1081C83.3038 74.8041 83.9165 74.6001 84.5506 74.5051C85.1789 74.4169 85.8178 74.4392 86.4382 74.5709H86.5155C86.6012 74.6051 86.6701 74.6713 86.7072 74.7554C86.7444 74.8394 86.7469 74.9345 86.7142 75.0203C86.4841 75.6261 86.1477 76.1865 85.7207 76.6757C84.8724 77.6553 83.6963 78.2976 82.409 78.4846M49.1488 38.5804C49.887 40.3095 51.2382 41.7098 52.9463 42.516C52.9692 42.7068 53.0251 42.8923 53.1118 43.0641C53.2109 43.2816 53.3452 43.4816 53.5093 43.6561C53.6775 43.8209 53.8712 43.9579 54.0832 44.0617C54.2944 44.1621 54.523 44.2217 54.7567 44.2371C54.7893 44.235 54.8202 44.2219 54.8443 44.2C54.8683 44.178 54.8842 44.1486 54.8891 44.1165C54.8711 43.8731 54.8074 43.6352 54.7014 43.4149C54.62 43.2322 54.5121 43.0623 54.3813 42.9106C54.5798 42.9222 54.7789 42.9222 54.9774 42.9106C55.7334 42.9096 56.4812 42.7544 57.1743 42.4545C57.8674 42.1547 58.491 41.7167 59.0066 41.1676C59.2526 40.9441 59.4848 40.7061 59.7021 40.455C60.0311 40.5715 60.3796 40.6236 60.7286 40.6085C61.0768 40.5989 61.4191 40.5167 61.7332 40.3673C62.0547 40.2296 62.347 40.0324 62.5943 39.7863C62.8348 39.5347 63.0324 39.2459 63.1794 38.9312C63.1911 38.8804 63.1841 38.8271 63.1598 38.7809C63.1355 38.7347 63.0954 38.6986 63.0468 38.679C62.7173 38.5651 62.3685 38.5167 62.0202 38.5365C61.6736 38.5489 61.3326 38.627 61.0156 38.7667C60.9092 38.815 60.8059 38.8699 60.7065 38.9312L60.9053 38.4817C61.3468 37.3854 61.8216 36.9798 62.2079 36.914C62.9365 37.1333 63.974 36.4098 64.2942 35.5766C64.6143 34.7434 64.2942 32.4742 62.2851 32.4961C61.9027 32.504 61.5269 32.5977 61.186 32.7701C60.8451 32.9426 60.5478 33.1893 60.3164 33.4918C60.085 33.7944 59.9254 34.1449 59.8496 34.5173C59.7738 34.8897 59.7837 35.2743 59.8786 35.6424C59.9785 35.8318 60.132 35.988 60.3202 36.0918C60.8501 36.6948 60.3202 37.7034 59.8235 38.5036C59.3267 39.3039 58.9514 39.5999 58.4768 38.7119C58.0021 37.824 58.1455 37.6157 58.3884 37.3087C58.6983 37.0439 58.9053 36.6799 58.9739 36.2796C59.0424 35.8793 58.9682 35.4678 58.7638 35.1162C58.5848 34.8465 58.3428 34.6237 58.0585 34.4668C57.7742 34.3099 57.456 34.2234 57.1309 34.2148C56.8057 34.2062 56.4834 34.2757 56.1911 34.4173C55.8988 34.559 55.6453 34.7686 55.4521 35.0285C54.3482 36.4865 55.452 38.3173 56.291 38.3173C56.5228 38.3415 56.7563 38.2874 56.9534 38.1638C57.3618 38.5146 58.4989 40.0165 57.7924 40.6962C57.2711 41.1574 56.6471 41.4893 55.9716 41.6646C55.2961 41.8399 54.5885 41.8537 53.9067 41.7047C52.7877 41.3526 51.8248 40.6287 51.1799 39.6547C51.4486 39.8446 51.747 39.9891 52.0631 40.0823C52.3749 40.1711 52.7007 40.2009 53.0235 40.17C53.3401 40.1445 53.6483 40.0549 53.9288 39.9069C53.9501 39.8964 53.9691 39.8818 53.9847 39.8639C54.0002 39.846 54.0118 39.8252 54.019 39.8026C54.0263 39.7801 54.0288 39.7564 54.0266 39.7328C54.0243 39.7093 54.0173 39.6865 54.006 39.6657C53.8147 39.3953 53.5797 39.1582 53.3105 38.9641C53.0432 38.772 52.7444 38.6274 52.4273 38.5365C52.1156 38.4477 51.7898 38.4179 51.467 38.4488C51.1962 38.4689 50.931 38.5357 50.6833 38.6462C50.2417 37.4951 49.1267 37.8897 49.1378 38.5804H49.1488ZM90.059 42.0775C90.5918 41.9394 91.1453 41.8985 91.6928 41.9569H91.7589C91.8358 41.9798 91.9006 42.0315 91.9398 42.1011C91.9789 42.1707 91.9893 42.2526 91.9688 42.3296C91.8224 42.8704 91.5834 43.3822 91.2622 43.8425C90.9435 44.3014 90.5433 44.6989 90.0811 45.0155C89.6239 45.3357 89.1112 45.5698 88.5688 45.7061C88.0399 45.8446 87.4898 45.8854 86.946 45.8267H86.8798C86.803 45.8038 86.7381 45.7521 86.699 45.6825C86.6599 45.6129 86.6494 45.531 86.67 45.454C86.8115 44.9114 87.0509 44.3989 87.3765 43.9411C87.6953 43.4822 88.0956 43.0847 88.5578 42.7681C89.0079 42.4495 89.5129 42.2154 90.048 42.0775H90.059ZM64.6033 45.1141C64.6714 45.0529 64.7513 45.0059 64.8382 44.976C64.925 44.9461 65.0169 44.9338 65.1086 44.9399C65.2003 44.9461 65.2898 44.9705 65.3718 45.0117C65.4538 45.0529 65.5265 45.1101 65.5858 45.1799C65.7139 45.3126 65.7855 45.4894 65.7855 45.6732C65.7855 45.8571 65.7139 46.0339 65.5858 46.1666C65.4554 46.2958 65.2788 46.3683 65.0946 46.3683C64.9104 46.3683 64.7337 46.2958 64.6033 46.1666C64.5318 46.0989 64.4747 46.0176 64.4354 45.9276C64.396 45.8377 64.3752 45.7408 64.3742 45.6427C64.3732 45.5446 64.3919 45.4473 64.4293 45.3565C64.4668 45.2657 64.5222 45.1833 64.5922 45.1141H64.6033ZM72.4961 28.2426C73.3713 28.7883 74.0959 29.5418 74.6046 30.4351C74.6575 30.569 74.6575 30.7178 74.6046 30.8517C74.2734 31.5862 73.7767 32.2878 73.2247 31.9479C72.441 31.3889 71.7675 31.652 71.9331 30.8517C72.3017 30.0308 72.4898 29.1413 72.4851 28.2426H72.4961ZM66.5793 36.1247C66.387 37.1053 65.8464 37.9845 65.0559 38.6023C63.4884 39.6986 66.0493 38.4927 66.9104 39.2601L67.076 39.4026C68.1298 40.9829 69.7204 42.1345 71.5578 42.6475C74.8143 43.7438 77.7175 42.5269 80.389 39.9726C83.9435 36.6071 84.8045 33.5156 89.3857 31.7397C92.9512 30.3693 94.6733 30.6434 91.9577 28.9223C91.9577 28.9223 89.2421 27.4532 88.2044 27.9466C86.7844 28.8608 85.4274 29.8679 84.1422 30.9613C83.6455 31.356 83.6344 31.4327 83.6013 31.8493C83.5001 33.1525 83.0035 34.3947 82.1772 35.4122C81.2181 36.524 80.0231 37.4113 78.6779 38.0103C78.5344 38.0103 78.435 38.0103 78.6779 37.802L78.8766 37.5828C80.0585 36.4395 80.9578 35.0399 81.5039 33.4937C83.0604 28.5934 80.2565 24.1096 79.2961 24C78.8546 27.4752 76.1389 29.569 74.5162 33.4389C74.1324 33.2582 73.738 33.1008 73.3351 32.9675C69.9241 32.1234 67.3078 33.8226 66.7117 36.0918L66.5793 36.1247ZM68.202 36.4755C68.8533 36.4098 68.9527 36.7606 68.9637 37.0895C68.9615 37.2558 68.8969 37.4154 68.7826 37.537C68.6683 37.6586 68.5125 37.7336 68.3455 37.7472C67.5507 37.7691 67.5286 36.5413 68.1909 36.4755H68.202ZM43.232 36.2563C42.6138 36.7167 41.6203 37.6595 42.1281 38.2953C42.3238 38.4914 42.5653 38.6361 42.8312 38.7165C43.0971 38.7968 43.379 38.8103 43.6515 38.7558C44.4518 38.6666 45.2255 38.4167 45.9256 38.0213C48.997 35.6343 52.453 33.781 56.1475 32.5399C59.4862 31.2816 63.0303 30.6461 66.6014 30.6653C67.2085 30.6653 68.0143 30.6653 68.6215 30.6653C70.5091 30.5009 70.3766 27.8479 67.5176 27.8479C63.3745 27.8941 59.2691 28.6354 55.3748 30.0404C51.0222 31.4711 46.9215 33.5683 43.2209 36.2563H43.232ZM88.4915 36.4207C90.0731 37.2914 91.5538 38.3318 92.907 39.5232C93.0503 39.6395 93.2158 39.7258 93.3936 39.7768C93.5714 39.8278 93.7577 39.8425 93.9414 39.8199C94.125 39.7974 94.3023 39.7381 94.4622 39.6456C94.6221 39.5532 94.7616 39.4295 94.872 39.282C95.1036 38.9853 95.2089 38.6104 95.1656 38.2374C95.1223 37.8645 94.9338 37.5233 94.6402 37.2868C93.3826 36.0961 91.9981 35.0448 90.5115 34.1515C89.1317 33.6801 87.0233 35.6095 88.4473 36.4207H88.4915ZM42.5255 72.8497C41.4989 72.6092 40.4291 72.6181 39.4068 72.8757C38.3844 73.1334 37.4397 73.6321 36.6529 74.3297C36.2223 74.6915 38.121 76.599 40.8807 77.0375C42.4761 77.2282 44.0943 77.0288 45.5943 76.4565C46.0182 76.3142 46.4738 76.2932 46.9091 76.396C47.3444 76.4987 47.7419 76.721 48.056 77.0375C48.2082 77.1759 48.3002 77.3677 48.3126 77.5723C48.3249 77.7769 48.2567 77.9782 48.1223 78.1338C47.758 78.6271 47.3827 78.5284 46.8638 78.5503C43.2585 78.5157 39.7084 79.4312 36.5755 81.2033C34.9926 82.2894 33.5144 83.5189 32.16 84.8758C31.2989 85.6542 31.332 85.4788 31.0561 84.5798C30.7906 83.9494 30.7215 83.2545 30.8574 82.5846C31.3015 79.1417 32.9135 75.9517 35.4276 73.5404C37.4747 71.6859 40.0313 70.4787 42.7718 70.0726C45.5124 69.6665 48.3126 70.0799 50.8157 71.2601C54.9603 73.2364 58.3769 76.4531 60.5851 80.4578C62.3293 83.1985 62.5722 85.2156 62.1858 84.6237C59.9106 82.0088 56.8884 80.143 53.5203 79.2739C51.9086 78.8463 51.3125 78.8025 50.043 77.2458C48.0647 75.0103 45.4128 73.4685 42.4814 72.8497H42.5255ZM43.8613 50.749C45.5723 52.503 47.9567 55.8356 57.3729 56.4386C60.2627 56.5934 63.1598 56.3274 65.9721 55.6493C66.2701 56.0659 66.6897 56.7456 67.1644 57.4143C65.4251 58.2346 63.8416 59.3472 62.4839 60.7031C61.5014 61.6349 61.5676 61.4157 60.8942 61.021C58.3686 59.7606 55.5737 59.125 52.7475 59.1683C50.9261 59.1683 51.4891 59.4424 50.1313 58.2145C46.9813 55.3671 43.3185 53.1355 39.3352 51.6369C35.9463 50.4091 34.9197 50.0364 35.4716 49.1155C35.554 48.9777 35.6278 48.8349 35.6925 48.688C36.2334 47.8658 36.7963 47.0655 37.4255 46.2871L37.6022 46.0569C37.7248 45.7621 37.7498 45.4361 37.6733 45.1262C37.5969 44.8163 37.4232 44.5387 37.1772 44.3335C36.9312 44.1283 36.6257 44.0062 36.3052 43.9849C35.9847 43.9637 35.6657 44.0443 35.3944 44.2152C32.852 47.4275 30.7817 50.982 29.2457 54.7723C27.1032 60.0242 26.0013 65.6374 26.0003 71.304C25.9581 82.7059 30.4163 93.6703 38.4191 101.846C44.3607 107.917 52.0162 112.057 60.3754 113.719C62.9696 114.256 65.2547 114.3 66.0605 111.296C66.439 109.752 66.7119 108.184 66.8774 106.604C67.3189 102.219 67.7935 91.8371 64.4266 82.8039C64.2279 82.2996 63.0248 79.8878 64.1287 80.2824C64.8021 80.5236 65.4974 80.7977 65.5305 81.4445C65.467 81.6443 65.467 81.8586 65.5305 82.0584C65.6602 82.3295 65.8539 82.5654 66.0951 82.7462C66.3363 82.927 66.618 83.0472 66.916 83.0967C67.2141 83.1462 67.5197 83.1236 67.807 83.0306C68.0943 82.9376 68.3548 82.7771 68.5662 82.5627C68.7703 82.3503 68.9225 82.0943 69.0113 81.8142C69.1 81.5342 69.1229 81.2377 69.0781 80.9476C69.0333 80.6574 68.9221 80.3813 68.753 80.1406C68.5838 79.8998 68.3614 79.7008 68.1027 79.5589C67.8137 79.4202 67.49 79.3691 67.1719 79.412C66.8539 79.4549 66.5556 79.5899 66.3144 79.8001C65.8066 80.0413 64.8021 79.6137 64.0073 79.0108C62.8476 78.2988 61.9943 77.1859 61.6118 75.8864C60.9466 74.3744 60.4398 72.7984 60.0995 71.1834C59.978 70.2406 61.2033 65.4828 62.2188 65.9432C63.2344 66.4037 68.2682 74.4832 69.8468 79.9426C70.6857 82.8696 71.2376 84.832 71.4805 86.2352C71.911 88.5922 70.9175 91.1794 70.6636 93.7117C70.4895 95.5519 70.4122 97.3998 70.4319 99.2479C70.4319 102.92 70.6195 106.045 70.8071 107.81C70.8071 108.117 70.8955 108.654 70.9617 109.213C71.014 110.375 71.3595 111.506 71.9663 112.502C73.0039 114.026 74.5714 114.08 76.4701 113.719C84.8779 112.074 92.5801 107.92 98.5479 101.813C106.565 93.64 111.036 82.6705 111 71.2601C111.002 65.5862 109.9 59.9652 107.754 54.7065C105.633 49.4766 102.502 44.7096 98.5368 40.6742C98.407 40.5396 98.251 40.4325 98.0784 40.3593C97.9058 40.2861 97.7201 40.2483 97.5324 40.2483C97.3447 40.2483 97.1589 40.2861 96.9862 40.3593C96.8136 40.4325 96.6577 40.5396 96.5278 40.6742C95.5164 41.9944 94.6538 43.4208 93.9557 44.9278C90.3239 51.4286 85.5219 53.2156 78.5012 54.4763C75.6415 54.8866 72.8102 55.4724 70.0234 56.2303C69.6591 55.6712 69.3059 55.134 69.0409 54.8161C72.9266 53.5335 78.5343 50.749 82.6519 49.3348C83.504 48.9836 84.3873 48.712 85.2902 48.5235C86.1579 48.4111 87.0314 48.3489 87.9064 48.3372C88.0609 48.1837 87.9064 47.8548 87.0785 47.5369C85.9087 47.2192 84.6809 47.1741 83.4908 47.4053C82.5752 47.5662 81.6688 47.7747 80.7753 48.0302C80.3227 48.1289 79.8701 48.2385 79.3844 48.3701C78.8987 48.5016 79.1526 48.3701 79.3844 48.1179C79.5028 47.9764 79.6494 47.8607 79.8149 47.7781C81.1659 47.5066 82.4422 46.9495 83.5571 46.1446C84.9922 44.8839 85.4116 43.086 85.0473 43.0312C84.3358 42.9172 83.6071 42.9752 82.923 43.2004C82.2388 43.4256 81.6196 43.8113 81.1176 44.3248C79.9545 45.3774 79.1128 46.7336 78.6889 48.2385C78.5675 48.5455 78.3687 48.666 77.9493 48.7866C76.5032 49.2251 75.4104 49.6198 74.0747 50.1241C73.7657 50.1241 73.589 49.9925 73.7767 49.5431C74.0747 48.8415 74.3948 48.1179 75.0792 48.1179C75.2685 48.2181 75.4874 48.2492 75.6974 48.2056C75.9902 48.0756 76.2484 47.8796 76.4516 47.6332C76.6549 47.3868 76.7976 47.0968 76.8683 46.7861C76.939 46.4754 76.9358 46.1527 76.859 45.8434C76.7822 45.5342 76.6341 45.2469 76.426 45.0045C76.2232 44.7751 75.9683 44.5968 75.6826 44.4842C75.3969 44.3717 75.0884 44.328 74.7823 44.3569C74.4763 44.3858 74.1815 44.4864 73.9222 44.6504C73.6629 44.8145 73.4466 45.0373 73.2909 45.3005C73.1281 45.602 73.0543 45.9429 73.0777 46.2841C73.1011 46.6254 73.2209 46.9532 73.4233 47.2299C73.6331 47.789 73.1253 48.8305 72.4519 49.6417C71.655 50.8099 70.4524 51.6452 69.0741 51.9877C67.8157 52.4262 66.5572 52.8209 65.2766 53.084C64.515 53.2704 63.7091 53.5993 64.8793 52.9744C65.8401 52.4664 66.6893 51.7734 67.3773 50.9358C68.0653 50.0982 68.5784 49.1328 68.8864 48.096C69.074 47.2409 68.8091 47.208 69.339 46.4735C69.636 46.0943 69.9853 45.7584 70.3766 45.4759C70.9285 45.0374 70.8735 45.158 70.2111 45.1251C69.9226 45.1014 69.6375 45.0462 69.3611 44.9607C68.6066 44.6219 67.913 44.1627 67.3079 43.6013C64.6144 41.4088 61.2696 44.577 60.6846 45.3005C60.0995 46.024 59.3377 45.5198 57.1631 45.4211C54.9884 45.3224 51.6436 45.4759 51.6436 45.4759C51.6436 45.4759 43.4527 40.762 42.3599 40.4988C41.267 40.2357 39.3352 42.2529 39.3352 42.2529C38.2313 43.5136 39.0372 43.678 43.1216 44.9497C47.206 46.2214 50.9592 48.3481 51.478 49.1374C52.6873 50.9873 54.3267 52.5213 56.2579 53.6102C56.4963 53.7564 56.7432 53.8882 56.9975 54.0049C52.7405 54.0879 48.5783 52.7525 45.1749 50.2118C42.5918 48.1289 42.3268 49.1265 43.8171 50.749H43.8613ZM86.9791 71.9398C86.7597 71.7288 86.4725 71.6011 86.1678 71.5791C85.8631 71.557 85.5602 71.642 85.3123 71.8192C78.5675 74.9107 75.3773 82.7819 75.5871 83.5164C75.7968 84.2509 78.3026 80.3044 87.4097 78.3749C96.5168 76.4455 103.372 82.76 104.288 83.9659C105.204 85.1718 105.613 85.2595 105.867 84.8429C106.076 84.2509 106.264 83.648 106.452 83.045C106.551 81.883 106.242 78.66 103.03 74.6915C101.627 73.0805 99.8514 71.8318 97.8555 71.0528C95.8596 70.2737 93.7032 69.9874 91.5714 70.2187C90.8151 70.2337 90.0675 70.3822 89.3636 70.6572C88.922 70.9642 88.8889 71.4355 89.2422 71.6658C89.5954 71.896 90.5558 71.7535 91.0194 71.7425C92.7327 71.738 94.3888 72.3538 95.6778 73.4746C96.1711 73.902 96.6055 74.3922 96.9694 74.9326C97.5765 75.8316 97.4661 76.0289 96.4726 76.2811C95.8559 76.4609 95.2167 76.5532 94.5739 76.5551C93.7302 76.5536 92.8933 76.4052 92.1012 76.1166C91.2965 75.8182 90.5497 75.3843 89.8934 74.834C88.8006 73.946 88.0168 72.773 86.9349 71.9398H86.9791ZM61.3248 93.1636C60.5131 92.5795 59.5719 92.1978 58.5805 92.0509C57.5891 91.904 56.5767 91.9961 55.6287 92.3195C54.9222 92.5168 54.8449 92.8238 55.2202 93.4157C55.91 94.5717 56.9436 95.4871 58.1787 96.0358C58.9669 96.3747 59.8327 96.4959 60.6846 96.3866C61.4904 96.288 62.1306 95.8714 62.8923 96.0468C63.2296 96.1308 63.5454 96.2839 63.8196 96.4962C64.6364 97.165 64.5812 99.1492 64.5701 100.136C64.5591 101.123 64.5701 102.054 64.4377 102.964C64.1727 106.33 63.7974 108.796 62.9474 109.991C62.0975 111.186 60.2208 110.66 58.9514 110.331C51.9413 108.543 45.563 104.871 40.5165 99.7193L39.9756 99.1602C39.3905 98.0639 38.11 95.6192 39.2359 90.8614C40.5275 85.3801 43.5079 81.7405 47.4819 81.3458C49.9976 81.0802 52.5397 81.4655 54.861 82.4645C57.1822 83.4634 59.2036 85.0419 60.7286 87.0464C61.8767 88.5444 62.7715 90.218 63.378 92.0016C63.6886 92.6897 63.7624 93.4602 63.5878 94.1941C63.5255 94.355 63.4048 94.4869 63.2496 94.564C63.0943 94.6411 62.9158 94.6577 62.7488 94.6107C62.0975 94.4353 61.8104 93.624 61.2806 93.1636H61.3248ZM78.1259 87.3753C79.848 86.7833 82.4422 87.5069 84.4292 89.5678C85.1247 90.2585 84.926 90.5654 84.1533 90.982C83.3227 91.4548 82.3971 91.7393 81.4428 91.8151C80.4886 91.8909 79.5294 91.7562 78.6338 91.4205C78.0819 91.1903 77.6733 90.8066 77.1435 90.6093C76.9426 90.5252 76.7268 90.4818 76.5088 90.4818C76.2907 90.4818 76.075 90.5252 75.8741 90.6093C74.9857 91.0164 74.2925 91.752 73.9423 92.6593C73.6652 93.743 73.4476 94.8409 73.2909 95.9481C72.8847 100.579 73.1038 105.243 73.9423 109.816C74.3397 110.978 75.1455 111.077 76.1501 110.912C83.9352 109.328 91.0569 105.446 96.5829 99.7741C97.1569 99.1821 97.6868 98.5792 98.2498 97.9653C98.5256 96.5204 98.5926 95.0438 98.4486 93.5802C98.2278 90.5106 96.6713 86.0378 93.7018 83.4945C90.7323 80.9512 87.0785 79.9426 81.4376 82.8368C78.8367 84.1523 76.7255 86.2565 75.4104 88.8443C75.2117 89.239 75.1897 89.6336 75.576 89.3376C76.3191 88.5751 77.162 87.9151 78.0819 87.3753H78.1259ZM69.2948 63.4437C69.5975 63.4799 69.9025 63.3973 70.1448 63.2135C70.5643 62.8737 70.2883 62.4352 70.1448 62.1173C69.2396 60.429 68.8864 59.9247 68.3565 60.2098C67.5948 60.5167 62.9695 62.9504 64.3163 64.1344C66.8835 67.2759 69.0592 70.7139 70.7961 74.3736C72.8272 78.7586 73.1253 82.7929 73.4675 81.6089C73.8098 80.425 74.3948 78.7806 74.8695 77.487C75.2456 76.5936 75.353 75.6112 75.1786 74.6586C74.332 71.153 73.0684 67.76 71.4143 64.551C71.1384 64.0138 71.1273 63.8603 70.4539 64.0577C70.2085 64.134 69.99 64.2786 69.8247 64.4742C69.4714 64.9347 69.8247 65.7678 68.7208 66.1515C68.4761 66.231 68.216 66.2519 67.9616 66.2126C67.7072 66.1732 67.4657 66.0747 67.257 65.9251C67.0482 65.7755 66.878 65.579 66.7603 65.3516C66.6425 65.1242 66.5805 64.8724 66.5793 64.6168C66.5673 64.3477 66.622 64.0797 66.7387 63.8366C66.8554 63.5934 67.0304 63.3825 67.2485 63.2222C67.4665 63.062 67.7209 62.9574 67.9892 62.9177C68.2575 62.8779 68.5314 62.9042 68.7871 62.9943C68.9526 63.1478 68.9306 63.3999 69.2286 63.4766L69.2948 63.4437ZM32.6457 54.0926C33.3191 53.1498 34.7873 52.9086 36.9178 53.6321C42.0683 55.3657 46.6833 58.3858 50.319 62.4023C56.269 68.5852 57.1299 71.7864 57.1299 72.181C57.1299 72.5757 52.9241 66.8531 46.091 63.8274C39.258 60.8017 34.6989 60.9552 33.2528 61.0868C31.8067 61.2183 30.2281 61.1745 30.482 59.9905C30.6476 59.267 30.8464 58.7627 30.8685 58.5105C31.1665 57.5897 31.4976 56.6798 31.8619 55.7918C32.0827 55.2217 32.3255 54.7065 32.5794 54.0926H32.6457ZM59.1391 62.8627C57.959 62.2706 56.6792 61.899 55.3637 61.7665C53.9176 61.5801 53.9618 62.0186 54.6462 62.8627C55.9235 64.3377 57.0102 65.9655 57.8806 67.7082C58.1235 68.2235 58.1124 67.0176 58.9845 65.2087C59.1832 64.8141 59.3599 64.3646 59.8456 64.2769C60.3182 64.2364 60.7893 64.369 61.1702 64.6496C61.8215 65.0443 61.7995 64.8689 61.0819 64.1344C60.4838 63.6002 59.7915 63.1802 59.0398 62.8956L59.1391 62.8627ZM29.6762 64.7374C29.8626 64.5007 30.096 64.3047 30.3618 64.1614C30.6277 64.0181 30.9203 63.9305 31.2217 63.9042C34.1329 63.7018 37.0583 63.9384 39.8982 64.6058C42.2492 65.0856 44.4932 65.9844 46.5216 67.2588C46.632 67.478 44.4242 66.7545 41.4768 67.5109C38.2866 68.3122 35.3706 69.9475 33.0321 72.2468C30.8243 74.4393 29.7204 77.2129 29.2016 76.1495C29.0456 75.6146 28.9602 75.0618 28.9477 74.5051C28.8705 73.4088 28.8262 72.3126 28.8262 71.2821C28.8245 69.8173 28.902 68.3535 29.0581 66.897C29.0473 66.1559 29.2257 65.4242 29.5769 64.7702L29.6762 64.7374ZM33.7607 90.5106C33.3522 89.2719 33.5178 87.8357 35.2619 85.8515C36.8851 84.3859 38.7936 83.2666 40.8697 82.5627C41.1787 82.475 41.2561 82.5627 41.0684 82.6613C39.3561 84.2857 38.0938 86.3207 37.4034 88.5702C36.4651 91.4644 36.5645 94.6655 35.6593 93.7117C34.8866 92.6922 34.2463 91.6288 33.6612 90.5435L33.7607 90.5106ZM101.462 92.5497C101.339 92.3024 101.236 92.0458 101.153 91.7823C100.767 90.5435 100.678 89.4034 100.204 88.1317C99.4675 86.1174 98.3925 84.2418 97.0245 82.5846C95.9206 81.576 99.0777 82.749 100.866 84.3825C102.031 85.3902 102.958 86.6403 103.582 88.044C103.8 88.4703 103.887 88.9505 103.834 89.4256C103.782 89.9008 103.59 90.3503 103.284 90.7189C103.085 91.0917 102.875 91.4534 102.665 91.8152C102.456 92.177 101.815 93.4157 101.363 92.5826L101.462 92.5497ZM108.086 74.1981C107.931 75.426 107.578 76.1605 106.143 74.0447C104.164 71.2608 101.334 69.1848 98.0733 68.1248C95.8308 67.2819 93.3977 67.0695 91.0415 67.5109C89.7058 67.8179 93.0285 65.0553 97.9077 64.3098C102.787 63.5643 104.697 63.652 105.734 63.8713C106.325 64.0006 106.849 64.3349 107.213 64.8141C107.803 65.6787 108.097 66.7087 108.052 67.7521C108.141 68.8484 108.196 70.0433 108.196 71.2053C108.196 72.3674 108.096 73.2444 108.03 74.231L108.086 74.1981ZM106.275 60.4071C105.625 60.8354 104.843 61.0217 104.067 60.9333C99.3797 60.9681 94.7607 62.0549 90.5557 64.1125C86.8174 65.9061 83.4687 68.4087 80.6981 71.4794C80.0468 72.4222 80.6981 69.7692 85.224 64.5071C89.75 59.245 96.4505 54.9367 99.7732 53.8404C101.672 53.2156 102.787 53.1059 103.526 53.3581C103.77 53.4308 103.992 53.5618 104.173 53.7395C104.354 53.9173 104.488 54.1364 104.564 54.3776C104.774 54.838 104.973 55.2985 105.16 55.7699C105.624 56.8661 106.032 58.0501 106.397 59.2231C106.485 59.6945 106.617 60.0672 106.22 60.44L106.275 60.4071ZM100.303 50.6832C96.6349 52.0971 93.1834 54.0121 90.048 56.3728C86.637 59.2231 85.6877 60.0344 85.2571 60.4729C84.8266 60.9114 83.8772 60.4729 82.111 60.6263C79.8993 60.8198 77.7237 61.3065 75.6422 62.0734C74.1078 62.7531 73.7436 62.797 73.5007 62.3365C73.2578 61.8761 72.5954 60.6702 72.1759 59.8261C71.7565 58.9819 72.0325 58.7298 73.1584 58.368C74.2844 58.0063 80.8856 57.2718 85.6875 55.6602C90.4895 54.0487 94.4193 49.7514 95.7661 47.7671C96.1745 47.1751 96.4836 46.6708 96.7817 46.2543C98.007 44.3577 98.4265 44.6427 99.6628 46.1885C100.115 46.7585 100.557 47.3505 100.977 47.9864C101.628 49.0826 101.595 50.1789 100.248 50.7161L100.303 50.6832ZM75.7525 67.2368C76.3928 69.0457 76.9779 71.4246 77.1435 72.0495C77.2538 72.477 77.4415 71.7754 78.0045 70.5256C78.9558 68.4757 80.1056 66.5224 81.4376 64.6935C82.0447 63.9042 82.7623 63.2574 82.7071 63.1916C82.2876 62.7969 79.5721 63.2574 77.0773 64.3646C75.8525 64.7615 74.7401 65.4416 73.8318 66.3489C73.1805 67.0834 73.8319 66.7983 74.3286 66.6449C74.594 66.5575 74.8829 66.5734 75.137 66.6894C75.3911 66.8053 75.5914 67.0128 75.6974 67.2697L75.7525 67.2368ZM65.4091 74.6367C65.2668 74.8642 65.0731 75.0556 64.8431 75.1956C64.6132 75.3357 64.3535 75.4205 64.0848 75.4433C63.816 75.4662 63.5457 75.4264 63.2951 75.3272C63.0446 75.228 62.8208 75.0721 62.6416 74.8719C62.4624 74.6717 62.3327 74.4328 62.2629 74.174C62.1931 73.9153 62.1851 73.644 62.2395 73.3816C62.2938 73.1193 62.4091 72.8731 62.5761 72.6628C62.7431 72.4525 62.9571 72.2837 63.2013 72.17C63.8857 71.896 64.9787 72.2468 64.9677 72.9703C64.9566 73.6939 65.5637 73.946 65.354 74.6695L65.4091 74.6367ZM101.683 54.9038C101.538 54.9484 101.407 55.0258 101.298 55.13C101.189 55.2341 101.106 55.362 101.055 55.5036C101.005 55.6452 100.989 55.7965 101.008 55.9455C101.026 56.0945 101.08 56.2371 101.164 56.3619C101.246 56.4795 101.356 56.5755 101.484 56.6419C101.612 56.7082 101.754 56.7428 101.898 56.7428C102.042 56.7428 102.184 56.7082 102.312 56.6419C102.44 56.5755 102.55 56.4795 102.632 56.3619C102.875 56.033 102.853 55.4081 102.478 55.2656C102.102 55.1231 102.025 54.9586 101.628 54.9586L101.683 54.9038ZM103.791 57.9734C104.202 58.1529 104.576 58.4055 104.895 58.7188C104.94 58.764 104.966 58.8251 104.966 58.8888C104.966 58.9524 104.94 59.0135 104.895 59.0587C104.539 59.3191 104.139 59.5157 103.714 59.6397C102.856 59.8871 101.937 59.8129 101.131 59.4314C100.717 59.2521 100.343 58.9952 100.027 58.675C99.9844 58.6285 99.9608 58.5679 99.9608 58.5051C99.9608 58.4422 99.9844 58.3816 100.027 58.3351C100.381 58.0707 100.782 57.8737 101.208 57.7541C101.635 57.6331 102.08 57.5885 102.522 57.6226C102.946 57.6719 103.358 57.7983 103.736 57.9953L103.791 57.9734ZM91.174 61.2622C91.9757 59.8683 93.1583 58.7281 94.585 57.9734C95.2029 57.605 95.9021 57.3924 96.6217 57.3542C97.3414 57.316 98.0596 57.4533 98.7135 57.7541C99.0557 57.9076 98.1947 59.5301 96.5057 60.3742C95.2203 60.8542 93.8473 61.0596 92.4765 60.9771C92.0182 61.105 91.6245 61.3982 91.3726 61.7994C91.196 61.9748 90.8979 61.5911 91.1187 61.2841L91.174 61.2622ZM103.869 67.0724C103.891 66.6013 103.996 66.1377 104.178 65.7021C104.195 65.6742 104.217 65.65 104.244 65.6309C104.27 65.6118 104.3 65.5983 104.332 65.5911C104.364 65.584 104.397 65.5833 104.43 65.5892C104.462 65.5951 104.493 65.6073 104.52 65.6253C104.921 65.8739 105.273 66.1935 105.558 66.5681C105.84 66.9501 106.057 67.3762 106.198 67.8288C106.347 68.2849 106.41 68.7642 106.385 69.243C106.356 69.7096 106.252 70.1685 106.076 70.6024C106.042 70.6583 105.987 70.6987 105.923 70.7151C105.859 70.7314 105.792 70.7225 105.734 70.6901C105.333 70.4377 104.981 70.1144 104.697 69.7363C104.412 69.3557 104.195 68.9292 104.056 68.4756C103.893 68.037 103.811 67.5728 103.813 67.1053L103.869 67.0724ZM101.131 65.8227C101.466 66.1096 101.749 66.4505 101.97 66.8312C101.983 66.8607 101.989 66.8924 101.989 66.9244C101.989 66.9564 101.983 66.9882 101.971 67.0178C101.959 67.0474 101.94 67.0742 101.917 67.0968C101.895 67.1193 101.867 67.1371 101.837 67.1491C101.427 67.3141 100.989 67.4033 100.546 67.4122C100.102 67.4144 99.6615 67.3402 99.2433 67.193C98.4007 66.893 97.6953 66.3014 97.2564 65.5267C97.2438 65.4972 97.2372 65.4655 97.237 65.4335C97.2369 65.4015 97.2431 65.3697 97.2555 65.3401C97.2678 65.3105 97.2859 65.2837 97.3088 65.2611C97.3317 65.2386 97.359 65.2208 97.3889 65.2087C97.8003 65.0473 98.238 64.9618 98.6803 64.9566C99.1244 64.9492 99.5661 65.0236 99.983 65.1759C100.384 65.3375 100.754 65.5675 101.076 65.8555L101.131 65.8227ZM102.974 77.4321C103.085 77.9748 103.085 78.5339 102.974 79.0765C102.979 79.1019 102.979 79.1279 102.974 79.1533C102.945 79.235 102.889 79.3044 102.815 79.3502C102.74 79.3959 102.653 79.4154 102.566 79.4054C102.02 79.3352 101.495 79.1562 101.021 78.8792C100.579 78.5947 100.203 78.2212 99.9167 77.7829C99.622 77.3425 99.4229 76.8459 99.3317 76.3249C99.2326 75.7812 99.2326 75.2242 99.3317 74.6805C99.327 74.6588 99.327 74.6364 99.3317 74.6147C99.3591 74.531 99.4145 74.4592 99.4889 74.4113C99.5632 74.3634 99.652 74.3423 99.7402 74.3516C100.286 74.4255 100.812 74.6083 101.286 74.8888C101.733 75.1661 102.11 75.541 102.389 75.9851C102.675 76.4328 102.857 76.9385 102.919 77.465L102.974 77.4321ZM89.2422 75.2396C89.1004 75.1795 88.9462 75.1542 88.7925 75.1658C88.6388 75.1774 88.4903 75.2255 88.3593 75.3062C88.2283 75.3868 88.1187 75.4976 88.0399 75.6291C87.9611 75.7606 87.9153 75.909 87.9064 76.0618C87.8915 76.2053 87.9108 76.3502 87.9626 76.4849C88.0144 76.6196 88.0973 76.7404 88.2047 76.8374C88.3121 76.9345 88.441 77.0052 88.5809 77.0437C88.7209 77.0823 88.8679 77.0876 89.0103 77.0594C89.4077 76.9607 89.783 76.4455 89.5512 76.1276C89.3193 75.8097 89.507 75.5356 89.1869 75.2615L89.2422 75.2396ZM84.3519 99.1054C84.3052 99.5895 84.1706 100.061 83.9545 100.498V100.552C83.9116 100.617 83.8472 100.665 83.7724 100.687C83.6977 100.709 83.6175 100.704 83.5461 100.673C83.0937 100.487 82.6871 100.207 82.3539 99.8508C82.0231 99.5209 81.7737 99.1194 81.6253 98.6778C81.4663 98.2356 81.4097 97.7635 81.4597 97.2965C81.5012 96.8115 81.6361 96.3388 81.8571 95.9043C81.9 95.8397 81.9646 95.7921 82.0393 95.7701C82.114 95.748 82.194 95.7528 82.2655 95.7837C82.7147 95.975 83.1204 96.2547 83.4578 96.6059C83.7847 96.9388 84.0334 97.3394 84.1863 97.7789C84.3168 98.2159 84.3543 98.6751 84.2966 99.1273L84.3519 99.1054ZM88.3701 88.8224C88.1313 88.8615 87.9048 88.9547 87.708 89.0947C87.5113 89.2346 87.3496 89.4176 87.2354 89.6296C87.1213 89.8415 87.0577 90.0766 87.0496 90.3169C87.0416 90.5571 87.0892 90.7959 87.189 91.0149C87.2886 91.2293 87.4387 91.4166 87.6268 91.5611C87.8148 91.7056 88.0352 91.8029 88.2691 91.8448C88.5031 91.8868 88.7437 91.8721 88.9708 91.8021C89.1978 91.732 89.4044 91.6087 89.5733 91.4424C90.0369 90.9711 90.1473 89.9406 89.5733 89.6884C88.9992 89.4363 88.9661 88.921 88.3148 88.8443L88.3701 88.8224ZM74.7591 96.4962C74.7555 96.4708 74.7555 96.445 74.7591 96.4195C74.7205 96.2056 74.7205 95.9866 74.7591 95.7727C75.0682 93.7446 78.0708 92.2756 81.3825 93.0211H81.4597C81.5582 93.0891 81.6333 93.1855 81.6748 93.2973C81.7162 93.409 81.722 93.5308 81.6915 93.646C80.4441 96.6717 77.1324 98.2284 75.3552 96.9348C75.1111 96.8277 74.8901 96.6751 74.7039 96.4853L74.7591 96.4962ZM95.8324 94.6765C95.6279 95.5318 95.2728 96.3446 94.7836 97.0773C94.7718 97.1101 94.753 97.14 94.7285 97.165C94.6844 97.2091 94.6318 97.244 94.574 97.2679C94.5163 97.2918 94.4543 97.3041 94.3917 97.3041C94.3291 97.3041 94.2672 97.2918 94.2094 97.2679C94.1516 97.244 94.0992 97.2091 94.0551 97.165C93.0882 96.2274 92.3826 95.0568 92.0073 93.7675C91.6319 92.4783 91.5996 91.1144 91.9135 89.809C92.1391 88.9514 92.5126 88.1391 93.0174 87.4082L93.0837 87.3205C93.1269 87.2767 93.1784 87.242 93.2353 87.2182C93.2921 87.1945 93.3531 87.1823 93.4148 87.1823C93.4765 87.1823 93.5375 87.1945 93.5944 87.2182C93.6513 87.242 93.7028 87.2767 93.746 87.3205C95.0003 88.5747 95.7801 90.2204 95.9538 91.9796C96.0597 92.8781 95.9998 93.7883 95.7771 94.6655L95.8324 94.6765ZM89.3304 95.2684C89.7023 95.9223 89.9598 96.6339 90.092 97.3733C90.092 97.3733 90.092 97.3733 90.092 97.461C90.095 97.5151 90.0871 97.5694 90.0686 97.6204C90.0501 97.6714 90.0214 97.7183 89.9844 97.7582C89.9473 97.798 89.9026 97.8301 89.8529 97.8525C89.8031 97.8749 89.7493 97.8871 89.6947 97.8885C88.9452 97.9199 88.1965 97.8121 87.4869 97.5706C86.7791 97.3222 86.1213 96.951 85.544 96.4743C84.9594 95.991 84.466 95.4082 84.087 94.7532C83.7116 94.0999 83.4504 93.3882 83.3143 92.6483C83.3089 92.6157 83.3089 92.5824 83.3143 92.5497C83.3111 92.4428 83.3494 92.3388 83.4213 92.2592C83.4932 92.1796 83.5933 92.1305 83.7006 92.1221C84.4501 92.09 85.199 92.1978 85.9084 92.4401C86.6208 92.6858 87.2827 93.0572 87.8623 93.5363C88.4519 94.022 88.9491 94.6086 89.3304 95.2684ZM82.2104 85.0183C82.205 84.9857 82.205 84.9523 82.2104 84.9197C82.3059 84.6916 82.4489 84.4861 82.6299 84.3167C84.2416 82.5408 88.2817 82.7491 91.1298 85.1828C91.1264 85.2119 91.1264 85.2413 91.1298 85.2705C91.1854 85.3925 91.1994 85.5292 91.1695 85.6599C91.1396 85.7905 91.0675 85.9079 90.9642 85.994C87.7629 88.1865 83.3694 87.9344 82.3759 85.7419C82.2863 85.5135 82.2306 85.2735 82.2104 85.0293V85.0183ZM52.7033 99.1821C52.9565 99.6576 53.2929 100.085 53.6968 100.443C53.7712 100.486 53.8578 100.504 53.9434 100.494C54.0291 100.484 54.1091 100.447 54.1716 100.388C54.5521 99.9962 54.852 99.5344 55.0546 99.0286C55.2502 98.549 55.337 98.0325 55.3086 97.5158C55.2839 96.9965 55.1483 96.4883 54.9111 96.0249C54.6595 95.5516 54.3229 95.128 53.9177 94.7751C53.8499 94.7227 53.7663 94.6942 53.6803 94.6942C53.5943 94.6942 53.5108 94.7227 53.443 94.7751C53.0648 95.1688 52.7651 95.63 52.5598 96.1345C52.3642 96.6141 52.2775 97.1307 52.3059 97.6473C52.3228 98.1853 52.4584 98.713 52.7033 99.1931V99.1821ZM48.6853 89.4144C48.7998 89.6321 48.8616 89.8734 48.8657 90.119C48.8698 90.3647 48.8161 90.6079 48.7089 90.8293C48.6017 91.0508 48.444 91.2443 48.2483 91.3945C48.0525 91.5447 47.8242 91.6475 47.5814 91.6946C47.3479 91.7334 47.1085 91.7169 46.8827 91.6463C46.6569 91.5757 46.4511 91.4531 46.2821 91.2885C46.1131 91.1239 45.9857 90.9219 45.9103 90.6991C45.8349 90.4763 45.8136 90.2389 45.8482 90.0063C45.9476 89.3486 46.6872 88.6579 47.2281 88.9868C47.769 89.3157 48.2327 88.943 48.6853 89.4253V89.4144ZM42.6469 97.8666C43.0733 98.6158 43.6259 99.287 44.2806 99.8508L44.369 99.9166C44.4205 99.9494 44.4783 99.9713 44.5387 99.9808C44.5991 99.9903 44.6609 99.9872 44.7201 99.9717C44.7792 99.9563 44.8344 99.9288 44.8823 99.891C44.9302 99.8532 44.9697 99.8059 44.9982 99.7522C45.4453 98.9978 45.752 98.1697 45.9035 97.3075C46.2292 95.5641 45.9242 93.7625 45.0424 92.2208C44.6224 91.4672 44.069 90.795 43.4087 90.2366L43.3313 90.1708C43.2796 90.1373 43.2216 90.1147 43.1608 90.1043C43.1001 90.0939 43.0378 90.096 42.9779 90.1103C42.9179 90.1247 42.8616 90.1511 42.8122 90.1879C42.7629 90.2247 42.7217 90.2711 42.6911 90.3243C42.2501 91.0854 41.944 91.916 41.786 92.7799C41.4734 94.5233 41.7775 96.3205 42.6469 97.8666ZM47.6255 94.501C47.415 95.212 47.3291 95.9537 47.3716 96.6936V96.7813C47.3808 96.8336 47.4006 96.8835 47.4297 96.928C47.4587 96.9726 47.4965 97.0108 47.5408 97.0405C47.5851 97.0702 47.6351 97.0907 47.6876 97.1008C47.7401 97.1108 47.794 97.1103 47.8463 97.0992C48.5657 96.9537 49.251 96.6748 49.8664 96.277C50.493 95.8803 51.0396 95.371 51.478 94.7751C51.9293 94.1785 52.2695 93.5065 52.4826 92.7909C52.6931 92.0799 52.7789 91.3382 52.7365 90.5983V90.5106C52.7273 90.4583 52.7076 90.4084 52.6785 90.3639C52.6494 90.3194 52.6115 90.2811 52.5672 90.2514C52.5229 90.2217 52.4731 90.2012 52.4206 90.1911C52.3681 90.1811 52.3141 90.1816 52.2619 90.1927C51.5424 90.3382 50.857 90.6172 50.2417 91.0149C49.615 91.4116 49.0685 91.921 48.63 92.5168C48.1776 93.1168 47.8373 93.7926 47.6255 94.512V94.501ZM50.6612 83.4726C50.6665 83.4436 50.6665 83.4139 50.6612 83.3849C50.4766 83.2282 50.2628 83.109 50.032 83.0341C47.8242 82.179 44.38 84.1303 42.9118 87.5507C42.9065 87.5834 42.9065 87.6167 42.9118 87.6494C42.9122 87.7794 42.9557 87.9056 43.0355 88.0086C43.1153 88.1116 43.227 88.1857 43.3534 88.2194C47.1397 88.7566 50.893 86.575 50.8268 84.2071C50.8221 83.9604 50.7774 83.7161 50.6943 83.4835L50.6612 83.4726ZM60.0442 89.7213C60.05 89.6887 60.05 89.6553 60.0442 89.6226C60.1159 89.381 60.1385 89.1276 60.1105 88.8772C59.9891 86.4654 56.6112 84.3934 52.6924 84.8868H52.593C52.4703 84.9547 52.3717 85.0585 52.3105 85.184C52.2493 85.3095 52.2285 85.4507 52.2508 85.5884C53.3547 89.2718 57.0748 91.4863 59.3157 90.1598C59.5747 90.0694 59.8197 89.9439 60.0442 89.7871V89.7213ZM46.9852 60.1221C47.1354 60.301 47.2418 60.512 47.2964 60.7385C47.3509 60.965 47.3521 61.201 47.2998 61.4281C47.2474 61.6551 47.1429 61.8671 46.9945 62.0475C46.8462 62.2279 46.6579 62.3718 46.4444 62.4681C46.238 62.5517 46.0146 62.5856 45.7926 62.5672C45.5705 62.5487 45.3561 62.4783 45.1666 62.3618C44.9772 62.2453 44.8181 62.0859 44.7025 61.8967C44.587 61.7075 44.5181 61.4938 44.5015 61.2731C44.5015 60.6373 45.0093 59.837 45.6054 60.0344C46.2015 60.2317 46.4664 59.8261 46.9852 60.1878V60.1221ZM42.8125 60.714C42.3448 59.0337 41.4162 57.5155 40.1301 56.329C39.5842 55.7669 38.9097 55.3439 38.1641 55.0958C37.4185 54.8478 36.6237 54.7819 35.847 54.9038C35.4386 54.9038 35.847 56.9209 37.4697 58.3022C39.0924 59.6835 40.9248 59.7932 41.543 60.1001C41.9826 60.3743 42.3111 60.7935 42.4704 61.2841C42.5476 61.4705 42.9671 61.1416 42.8125 60.7689V60.714ZM32.8775 57.8637C32.4931 58.0499 32.1425 58.2981 31.8399 58.5982C31.7988 58.6411 31.7758 58.698 31.7758 58.7572C31.7758 58.8164 31.7988 58.8733 31.8399 58.9162C32.5386 59.4314 33.4004 59.6804 34.2684 59.6178C35.1392 59.541 35.9516 59.1512 36.5534 58.5215C36.5953 58.4769 36.6186 58.4181 36.6186 58.3571C36.6186 58.296 36.5953 58.2373 36.5534 58.1926C36.204 57.9361 35.8117 57.7431 35.3944 57.6226C34.9831 57.5008 34.5526 57.4562 34.1249 57.491C33.6751 57.5535 33.2408 57.6985 32.8444 57.9186L32.8775 57.8637ZM35.9022 66.1187C35.5632 66.4087 35.2758 66.7534 35.0521 67.1382C35.0296 67.198 35.0308 67.264 35.0554 67.3231C35.08 67.3821 35.1261 67.4296 35.1846 67.4561C35.6034 67.62 36.0482 67.7091 36.4983 67.7192C36.9455 67.7205 37.3896 67.6463 37.8119 67.4999C38.2156 67.3413 38.589 67.1152 38.9157 66.8312C39.2547 66.5412 39.5421 66.1965 39.7658 65.8117C39.7784 65.7822 39.785 65.7505 39.7852 65.7185C39.7853 65.6865 39.779 65.6547 39.7667 65.6251C39.7544 65.5956 39.7362 65.5687 39.7133 65.5461C39.6905 65.5236 39.6632 65.5058 39.6333 65.4938C39.2183 65.3298 38.7773 65.2407 38.3308 65.2307C37.8834 65.2277 37.4389 65.3019 37.0171 65.4499C36.5952 65.6234 36.2067 65.8682 35.869 66.1735L35.9022 66.1187ZM34.0145 67.5219C34.0712 66.8849 34.0151 66.2431 33.8489 65.6253C33.8526 65.5999 33.8526 65.574 33.8489 65.5486C33.831 65.5074 33.8049 65.4702 33.7724 65.4391C33.7399 65.408 33.7015 65.3836 33.6595 65.3673C33.6174 65.351 33.5724 65.3431 33.5273 65.3441C33.4821 65.3451 33.4376 65.355 33.3963 65.3732C32.8147 65.6473 32.2847 66.018 31.8289 66.4695C31.371 66.9277 30.9974 67.462 30.725 68.0481C30.4444 68.6372 30.2759 69.2727 30.2281 69.9227C30.1738 70.559 30.226 71.1999 30.3827 71.8192V71.896C30.3982 71.9378 30.4225 71.9758 30.4537 72.0078C30.485 72.0397 30.5226 72.0647 30.5642 72.0812C30.6058 72.0978 30.6505 72.1054 30.6953 72.1037C30.7401 72.1021 30.7841 72.091 30.8243 72.0714C31.4098 71.8041 31.9411 71.4325 32.3919 70.9751C32.8526 70.5192 33.2266 69.9844 33.4958 69.3965C33.7577 68.8207 33.9218 68.2058 33.9814 67.5767L34.0145 67.5219ZM55.5514 77.8926H55.6176C55.7315 77.7629 55.8045 77.6027 55.8274 77.4321C56.2138 75.9083 53.6196 73.8583 50.0209 73.2992H49.9216C49.8165 73.3012 49.7149 73.3378 49.633 73.4033C49.5511 73.4688 49.4934 73.5594 49.469 73.661C49.6752 74.918 50.3362 76.0571 51.328 76.8645C52.3199 77.6718 53.5744 78.092 54.856 78.0461C55.0795 78.035 55.3014 78.002 55.5183 77.9474L55.5514 77.8926ZM38.9931 77.761C37.5988 77.1718 36.0503 77.045 34.5775 77.3992C33.9298 77.5647 33.3425 77.9089 32.8834 78.392C32.4244 78.875 32.1124 79.4772 31.9834 80.129C31.8951 80.5017 33.595 81.2252 35.2288 80.7648C36.8626 80.3044 37.5801 78.7586 38.0438 78.4188C38.2344 78.3191 38.4442 78.2608 38.6592 78.2475C38.8742 78.2343 39.0896 78.2665 39.2912 78.342C39.4347 78.4407 39.3243 77.9035 38.982 77.8158L38.9931 77.761Z" fill="white"/>
</svg>
